<?xml version="1.0" encoding="UTF-8"?>
<svg width="51px" height="33px" viewBox="0 0 51 33" version="1.1" xmlns="http://www.w3.org/2000/svg" xmlns:xlink="http://www.w3.org/1999/xlink">
    <title>5-5 A LEAF</title>
    <defs>
        <linearGradient x1="97.4211836%" y1="50%" x2="0%" y2="50%" id="linearGradient-1">
            <stop stop-color="#00E0D8" offset="0%"></stop>
            <stop stop-color="#00CEC4" offset="14.5214161%"></stop>
            <stop stop-color="#00DDD4" offset="49.6694712%"></stop>
            <stop stop-color="#00CEC4" offset="83.2550262%"></stop>
            <stop stop-color="#00E0D8" offset="100%"></stop>
        </linearGradient>
        <linearGradient x1="50%" y1="0%" x2="50%" y2="100%" id="linearGradient-2">
            <stop stop-color="#CBFFFC" stop-opacity="0" offset="0%"></stop>
            <stop stop-color="#CBFFFC" offset="100%"></stop>
        </linearGradient>
        <linearGradient x1="62.5095608%" y1="87.4904392%" x2="62.5095608%" y2="-5.69599934e-13%" id="linearGradient-3">
            <stop stop-color="#BDFFFB" offset="0%"></stop>
            <stop stop-color="#BDFFFB" stop-opacity="0" offset="100%"></stop>
        </linearGradient>
    </defs>
    <g id="页面-1" stroke="none" stroke-width="1" fill="none" fill-rule="evenodd">
        <g id="图标" transform="translate(-409.000000, -398.000000)">
            <g id="5-5-A-LEAF" transform="translate(409.304474, 399.000000)">
                <path d="M42.5514542,2.82076284 C44.9103453,3.80351481 46.6960674,4.93633717 47.9117887,6.14315603 C49.1273324,7.34979865 49.7767064,8.63288979 49.8743771,9.91962214 L49.8862286,10.1609093 L50.0693816,21.0015383 C50.1437818,22.4383544 49.5405798,23.884894 48.2391905,25.2409918 C47.0164982,26.5150841 45.173113,27.7116965 42.7038994,28.7437667 C33.0101026,32.7953687 17.2945044,32.795367 7.60127866,28.7437687 C5.19000128,27.7360278 3.3756526,26.5714546 2.15460671,25.3310805 C0.933042662,24.09018 0.301326723,22.7709923 0.244185914,21.453539 L0.240201586,21.2065564 L0.235138523,10.0779546 C0.291574626,8.72599776 0.956564901,7.3734254 2.24729396,6.10627137 C3.4624777,4.91328282 5.23580526,3.79351852 7.57069321,2.82076662 C17.2302338,-1.20411052 32.8919227,-1.20411052 42.5514542,2.82076284 Z M41.6100389,3.97600176 C32.4701563,0.417586426 17.6520002,0.417586426 8.51213123,3.97599646 C6.34350767,4.82012058 4.69227154,5.78773886 3.56130586,6.82304983 C2.4907834,7.80302976 1.88952032,8.840866 1.774548,9.88923143 L1.774548,9.88923143 L48.3548477,9.96244879 L48.3295207,9.75031889 C48.1803573,8.76110419 47.5979463,7.78299216 46.5967549,6.8561025 C45.4650012,5.80834007 43.8017491,4.8291122 41.6100389,3.97600176 Z" id="形状结合" stroke="#22DFD6" stroke-width="0.4" fill-rule="nonzero"></path>
                <path d="M49.5051491,10.4507962 L49.5051491,21.0215171 C49.5756463,22.3247752 49.0067064,23.6259342 47.8318976,24.8501302 C46.6518153,26.0798214 44.8680409,27.2273829 42.486211,28.2229289 C32.9126496,32.2242776 17.3919762,32.2242808 7.81895379,28.2229253 C5.43612896,27.2270756 3.65198836,26.079142 2.47331705,24.84902 C1.30083431,23.6253567 0.735093136,22.3247842 0.811229061,21.02209 L0.811229061,21.02209 L0.799856822,10.4507962 L49.5051491,10.4507962 Z" id="路径" stroke="url(#linearGradient-2)" stroke-width="0.729" fill="url(#linearGradient-1)" fill-rule="nonzero"></path>
                <path d="M7.23797863,3.02534809 C16.8891765,-1.00844936 32.5357137,-1.00844936 42.1863519,3.02534809 C51.83699,7.05914554 51.83699,13.5998541 42.1863519,17.6336516 C32.5357137,21.667449 16.8891765,21.667449 7.23797863,17.6336516 C-2.41265954,13.5998541 -2.41265954,7.05914554 7.23797863,3.02534809 Z" id="路径" fill="#88EEE9" fill-rule="nonzero"></path>
                <path d="M42.4745391,3.00538154 C32.857482,-1.00179385 17.2646745,-1.00179385 7.64761741,3.00538154 C-1.9694397,7.0120023 -1.9694397,13.5088954 7.64761741,17.5155161 C17.2646745,21.5226915 32.857482,21.5226915 42.4745391,17.5155161 C52.0915962,13.5088954 52.0915962,7.0120023 42.4745391,3.00538154 Z M41.6825857,3.7896232 C32.5026421,0.215610994 17.6195144,0.215610994 8.43957084,3.7896232 C-0.740932438,7.36308078 -0.740932438,13.1578169 8.43957084,16.7312745 C17.6195144,20.3052867 32.5026421,20.3052867 41.6825857,16.7312745 C50.863089,13.1578169 50.863089,7.36308078 41.6825857,3.7896232 Z" id="形状" fill="url(#linearGradient-3)"></path>
                <g id="编组-7" transform="translate(11.000000, 21.000000)" fill-rule="nonzero">
                    <g id="A-LEAF" transform="translate(0.000000, 1.000000)" fill="#403C3C">
                        <path d="M1.989,3.6975 L2.176,3.009 C2.363,2.3545 2.55,1.6405 2.7115,0.952 L2.7455,0.952 C2.9325,1.632 3.1025,2.3545 3.298,3.009 L3.485,3.6975 L1.989,3.6975 Z M4.199,6.29 L5.5165,6.29 L3.4935,0 L2.0145,0 L0,6.29 L1.275,6.29 L1.717,4.675 L3.757,4.675 L4.199,6.29 Z" id="形状"></path>
                        <polygon id="路径" points="5.899 4.301 8.2195 4.301 8.2195 3.4085 5.899 3.4085"></polygon>
                        <polygon id="路径" points="9.401 6.29 13.209 6.29 13.209 5.236 10.659 5.236 10.659 0 9.401 0"></polygon>
                        <polygon id="路径" points="14.3055 6.29 18.258 6.29 18.258 5.236 15.5635 5.236 15.5635 3.553 17.7735 3.553 17.7735 2.499 15.5635 2.499 15.5635 1.0455 18.1645 1.0455 18.1645 0 14.3055 0"></polygon>
                        <path d="M20.7145,3.6975 L20.9015,3.009 C21.0885,2.3545 21.2755,1.6405 21.437,0.952 L21.471,0.952 C21.658,1.632 21.828,2.3545 22.0235,3.009 L22.2105,3.6975 L20.7145,3.6975 Z M22.9245,6.29 L24.242,6.29 L22.219,0 L20.74,0 L18.7255,6.29 L20.0005,6.29 L20.4425,4.675 L22.4825,4.675 L22.9245,6.29 Z" id="形状"></path>
                        <polygon id="路径" points="24.9815 6.29 26.2395 6.29 26.2395 3.74 28.475 3.74 28.475 2.686 26.2395 2.686 26.2395 1.0455 28.8575 1.0455 28.8575 0 24.9815 0"></polygon>
                    </g>
                    <g id="A-LEAF备份" fill="#FFFFFF">
                        <path d="M1.989,3.6975 L2.176,3.009 C2.363,2.3545 2.55,1.6405 2.7115,0.952 L2.7455,0.952 C2.9325,1.632 3.1025,2.3545 3.298,3.009 L3.485,3.6975 L1.989,3.6975 Z M4.199,6.29 L5.5165,6.29 L3.4935,0 L2.0145,0 L0,6.29 L1.275,6.29 L1.717,4.675 L3.757,4.675 L4.199,6.29 Z" id="形状"></path>
                        <polygon id="路径" points="5.899 4.301 8.2195 4.301 8.2195 3.4085 5.899 3.4085"></polygon>
                        <polygon id="路径" points="9.401 6.29 13.209 6.29 13.209 5.236 10.659 5.236 10.659 0 9.401 0"></polygon>
                        <polygon id="路径" points="14.3055 6.29 18.258 6.29 18.258 5.236 15.5635 5.236 15.5635 3.553 17.7735 3.553 17.7735 2.499 15.5635 2.499 15.5635 1.0455 18.1645 1.0455 18.1645 0 14.3055 0"></polygon>
                        <path d="M20.7145,3.6975 L20.9015,3.009 C21.0885,2.3545 21.2755,1.6405 21.437,0.952 L21.471,0.952 C21.658,1.632 21.828,2.3545 22.0235,3.009 L22.2105,3.6975 L20.7145,3.6975 Z M22.9245,6.29 L24.242,6.29 L22.219,0 L20.74,0 L18.7255,6.29 L20.0005,6.29 L20.4425,4.675 L22.4825,4.675 L22.9245,6.29 Z" id="形状"></path>
                        <polygon id="路径" points="24.9815 6.29 26.2395 6.29 26.2395 3.74 28.475 3.74 28.475 2.686 26.2395 2.686 26.2395 1.0455 28.8575 1.0455 28.8575 0 24.9815 0"></polygon>
                    </g>
                </g>
                <path d="M11.3708229,9.98476018 L23.9036061,14.7120397 L23.8578719,13.4330046 L27.1335019,13.2628529 L27.2681102,17.2010198 L18.228943,17.6706043 L18.1774598,16.2336213 L21.2997992,16.0714494 L8.90438246,11.3369742 L11.3708229,9.98476018 Z M25.1295937,6.36946458 L25.1865982,7.96727715 L22.9392692,8.08407686 L34.3473463,12.3586012 L32.2327719,14.0589321 L19.4548013,9.33102793 L19.5006273,10.6126277 L16.6498997,10.7605996 L16.5217266,6.8168591 L25.1295937,6.36946458 Z M24.2003988,2.67741858 L37.392366,7.68519257 L37.3461813,6.25117447 L40.4086649,6.09214799 L40.542511,10.1911789 L31.7153558,10.6497032 L31.6546973,8.74123388 L33.875456,8.6258151 L21.7790464,4.20821155 L24.2003988,2.67741858 Z" id="形状结合" stroke="#3DDAD2" stroke-width="0.5" fill="#FFFFFF" fill-rule="nonzero"></path>
            </g>
        </g>
    </g>
</svg>