<?xml version="1.0" encoding="UTF-8"?>
<svg width="51px" height="33px" viewBox="0 0 51 33" version="1.1" xmlns="http://www.w3.org/2000/svg" xmlns:xlink="http://www.w3.org/1999/xlink">
    <title>5-7 A LEAF</title>
    <defs>
        <linearGradient x1="97.4211836%" y1="50%" x2="0%" y2="50%" id="linearGradient-1">
            <stop stop-color="#80B565" offset="0%"></stop>
            <stop stop-color="#7DB062" offset="14.5214161%"></stop>
            <stop stop-color="#8CC66E" offset="49.6694712%"></stop>
            <stop stop-color="#7CAD61" offset="83.2550262%"></stop>
            <stop stop-color="#80B565" offset="100%"></stop>
        </linearGradient>
        <linearGradient x1="50%" y1="0%" x2="50%" y2="100%" id="linearGradient-2">
            <stop stop-color="#B3F092" stop-opacity="0" offset="0%"></stop>
            <stop stop-color="#B3F092" offset="100%"></stop>
        </linearGradient>
        <linearGradient x1="62.5095608%" y1="87.4904392%" x2="62.5095608%" y2="-5.69599934e-13%" id="linearGradient-3">
            <stop stop-color="#B3F092" offset="0%"></stop>
            <stop stop-color="#B3F092" stop-opacity="0" offset="100%"></stop>
        </linearGradient>
    </defs>
    <g id="页面-1" stroke="none" stroke-width="1" fill="none" fill-rule="evenodd">
        <g id="图标" transform="translate(-588.000000, -397.000000)">
            <g id="5-7-A-LEAF" transform="translate(588.608947, 398.000000)">
                <path d="M42.1166297,2.82076284 C44.4755207,3.80351481 46.2612428,4.93633717 47.4769641,6.14315603 C48.6925078,7.34979865 49.3418818,8.63288979 49.4395525,9.91962214 L49.4514041,10.1609093 L49.634557,21.0015383 C49.7089572,22.4383544 49.1057552,23.884894 47.8043659,25.2409918 C46.5816736,26.5150841 44.7382884,27.7116965 42.2690748,28.7437667 C32.5752781,32.7953687 16.8596798,32.795367 7.16645408,28.7437687 C4.75517671,27.7360278 2.94082803,26.5714546 1.71978214,25.3310805 C0.498218088,24.09018 -0.13349785,22.7709923 -0.190638659,21.453539 L-0.194622987,21.2065564 L-0.19968605,10.0779546 C-0.143249948,8.72599776 0.521740328,7.3734254 1.81246938,6.10627137 C3.02765313,4.91328282 4.80098068,3.79351852 7.13586864,2.82076662 C16.7954092,-1.20411052 32.4570982,-1.20411052 42.1166297,2.82076284 Z M41.1752143,3.97600176 C32.0353317,0.417586426 17.2171756,0.417586426 8.07730665,3.97599646 C5.90868309,4.82012058 4.25744697,5.78773886 3.12648129,6.82304983 C2.05595882,7.80302976 1.45469574,8.840866 1.33972343,9.88923143 L1.33972343,9.88923143 L47.9200231,9.96244879 L47.8946961,9.75031889 C47.7455327,8.76110419 47.1631217,7.78299216 46.1619303,6.8561025 C45.0301766,5.80834007 43.3669245,4.8291122 41.1752143,3.97600176 Z" id="形状结合" stroke="#788E6C" stroke-width="0.4" fill-rule="nonzero"></path>
                <path d="M49.0703246,10.4507962 L49.0703246,21.0215171 C49.1408217,22.3247752 48.5718818,23.6259342 47.3970731,24.8501302 C46.2169907,26.0798214 44.4332164,27.2273829 42.0513864,28.2229289 C32.477825,32.2242776 16.9571516,32.2242808 7.38412921,28.2229253 C5.00130439,27.2270756 3.21716379,26.079142 2.03849248,24.84902 C0.866009737,23.6253567 0.300268562,22.3247842 0.376404487,21.02209 L0.376404487,21.02209 L0.365032249,10.4507962 L49.0703246,10.4507962 Z" id="路径" stroke="url(#linearGradient-2)" stroke-width="0.729" fill="url(#linearGradient-1)" fill-rule="nonzero"></path>
                <path d="M7.23797863,3.02534809 C16.8891765,-1.00844936 32.5357137,-1.00844936 42.1863519,3.02534809 C51.83699,7.05914554 51.83699,13.5998541 42.1863519,17.6336516 C32.5357137,21.667449 16.8891765,21.667449 7.23797863,17.6336516 C-2.41265954,13.5998541 -2.41265954,7.05914554 7.23797863,3.02534809 Z" id="路径" fill="#9AD87A" fill-rule="nonzero"></path>
                <path d="M42.0397145,3.00538154 C32.4226574,-1.00179385 16.8298499,-1.00179385 7.21279283,3.00538154 C-2.40426428,7.0120023 -2.40426428,13.5088954 7.21279283,17.5155161 C16.8298499,21.5226915 32.4226574,21.5226915 42.0397145,17.5155161 C51.6567717,13.5088954 51.6567717,7.0120023 42.0397145,3.00538154 Z M41.2477611,3.7896232 C32.0678175,0.215610994 17.1846899,0.215610994 8.00474626,3.7896232 C-1.17575701,7.36308078 -1.17575701,13.1578169 8.00474626,16.7312745 C17.1846899,20.3052867 32.0678175,20.3052867 41.2477611,16.7312745 C50.4282644,13.1578169 50.4282644,7.36308078 41.2477611,3.7896232 Z" id="形状" fill="url(#linearGradient-3)"></path>
                <g id="编组-7" transform="translate(10.565175, 22.000000)" fill-rule="nonzero">
                    <g id="A-LEAF" transform="translate(0.000000, 1.000000)" fill="#403C3C">
                        <path d="M1.989,3.6975 L2.176,3.009 C2.363,2.3545 2.55,1.6405 2.7115,0.952 L2.7455,0.952 C2.9325,1.632 3.1025,2.3545 3.298,3.009 L3.485,3.6975 L1.989,3.6975 Z M4.199,6.29 L5.5165,6.29 L3.4935,0 L2.0145,0 L0,6.29 L1.275,6.29 L1.717,4.675 L3.757,4.675 L4.199,6.29 Z" id="形状"></path>
                        <polygon id="路径" points="5.899 4.301 8.2195 4.301 8.2195 3.4085 5.899 3.4085"></polygon>
                        <polygon id="路径" points="9.401 6.29 13.209 6.29 13.209 5.236 10.659 5.236 10.659 0 9.401 0"></polygon>
                        <polygon id="路径" points="14.3055 6.29 18.258 6.29 18.258 5.236 15.5635 5.236 15.5635 3.553 17.7735 3.553 17.7735 2.499 15.5635 2.499 15.5635 1.0455 18.1645 1.0455 18.1645 0 14.3055 0"></polygon>
                        <path d="M20.7145,3.6975 L20.9015,3.009 C21.0885,2.3545 21.2755,1.6405 21.437,0.952 L21.471,0.952 C21.658,1.632 21.828,2.3545 22.0235,3.009 L22.2105,3.6975 L20.7145,3.6975 Z M22.9245,6.29 L24.242,6.29 L22.219,0 L20.74,0 L18.7255,6.29 L20.0005,6.29 L20.4425,4.675 L22.4825,4.675 L22.9245,6.29 Z" id="形状"></path>
                        <polygon id="路径" points="24.9815 6.29 26.2395 6.29 26.2395 3.74 28.475 3.74 28.475 2.686 26.2395 2.686 26.2395 1.0455 28.8575 1.0455 28.8575 0 24.9815 0"></polygon>
                    </g>
                    <g id="A-LEAF备份" fill="#FFFFFF">
                        <path d="M1.989,3.6975 L2.176,3.009 C2.363,2.3545 2.55,1.6405 2.7115,0.952 L2.7455,0.952 C2.9325,1.632 3.1025,2.3545 3.298,3.009 L3.485,3.6975 L1.989,3.6975 Z M4.199,6.29 L5.5165,6.29 L3.4935,0 L2.0145,0 L0,6.29 L1.275,6.29 L1.717,4.675 L3.757,4.675 L4.199,6.29 Z" id="形状"></path>
                        <polygon id="路径" points="5.899 4.301 8.2195 4.301 8.2195 3.4085 5.899 3.4085"></polygon>
                        <polygon id="路径" points="9.401 6.29 13.209 6.29 13.209 5.236 10.659 5.236 10.659 0 9.401 0"></polygon>
                        <polygon id="路径" points="14.3055 6.29 18.258 6.29 18.258 5.236 15.5635 5.236 15.5635 3.553 17.7735 3.553 17.7735 2.499 15.5635 2.499 15.5635 1.0455 18.1645 1.0455 18.1645 0 14.3055 0"></polygon>
                        <path d="M20.7145,3.6975 L20.9015,3.009 C21.0885,2.3545 21.2755,1.6405 21.437,0.952 L21.471,0.952 C21.658,1.632 21.828,2.3545 22.0235,3.009 L22.2105,3.6975 L20.7145,3.6975 Z M22.9245,6.29 L24.242,6.29 L22.219,0 L20.74,0 L18.7255,6.29 L20.0005,6.29 L20.4425,4.675 L22.4825,4.675 L22.9245,6.29 Z" id="形状"></path>
                        <polygon id="路径" points="24.9815 6.29 26.2395 6.29 26.2395 3.74 28.475 3.74 28.475 2.686 26.2395 2.686 26.2395 1.0455 28.8575 1.0455 28.8575 0 24.9815 0"></polygon>
                    </g>
                </g>
                <path d="M10.9359983,9.98476018 L23.4687815,14.7120397 L23.4230473,13.4330046 L26.6986773,13.2628529 L26.8332856,17.2010198 L17.7941185,17.6706043 L17.7426352,16.2336213 L20.8649747,16.0714494 L8.46955788,11.3369742 L10.9359983,9.98476018 Z M24.6947692,6.36946458 L24.7517736,7.96727715 L22.5044447,8.08407686 L33.9125217,12.3586012 L31.7979473,14.0589321 L19.0199768,9.33102793 L19.0658027,10.6126277 L16.2150751,10.7605996 L16.086902,6.8168591 L24.6947692,6.36946458 Z M23.7655742,2.67741858 L36.9575414,7.68519257 L36.9113567,6.25117447 L39.9738403,6.09214799 L40.1076864,10.1911789 L31.2805312,10.6497032 L31.2198727,8.74123388 L33.4406315,8.6258151 L21.3442218,4.20821155 L23.7655742,2.67741858 Z" id="形状结合" stroke="#77C250" stroke-width="0.5" fill="#FFFFFF" fill-rule="nonzero"></path>
            </g>
        </g>
    </g>
</svg>