<?xml version="1.0" encoding="UTF-8"?>
<svg width="51px" height="34px" viewBox="0 0 51 34" version="1.1" xmlns="http://www.w3.org/2000/svg" xmlns:xlink="http://www.w3.org/1999/xlink">
    <title>7-2ASBR</title>
    <defs>
        <linearGradient x1="0%" y1="47.2147188%" x2="100%" y2="50%" id="linearGradient-1">
            <stop stop-color="#BD7039" offset="0%"></stop>
            <stop stop-color="#BB6D35" offset="20.0548719%"></stop>
            <stop stop-color="#C6834F" offset="55.4700305%"></stop>
            <stop stop-color="#BC6F37" offset="84.3499884%"></stop>
            <stop stop-color="#BE713A" offset="100%"></stop>
        </linearGradient>
    </defs>
    <g id="7-2ASBR" stroke="none" stroke-width="1" fill="none" fill-rule="evenodd">
        <g id="编组-3" transform="translate(0.469674, 0.519119)">
            <path d="M24.9721869,0.480880737 C26.0267702,0.480880737 27.0661024,0.50830575 28.0863609,0.561550307 L28.9561081,0.613474209 L29.815978,0.677819746 C30.1008957,0.701313567 30.3840781,0.726840216 30.665436,0.754362247 L31.5039469,0.842877042 C31.6427568,0.858614717 31.7810882,0.874841876 31.9189301,0.891553839 L32.7400176,0.997605812 L33.5488208,1.1150684 L34.3448047,1.24371693 L35.1274345,1.38332673 L35.8961751,1.53367312 C37.4194107,1.84495273 38.8561019,2.21930389 40.1869914,2.64863843 L40.8435301,2.8678502 C40.951454,2.90513667 41.0586209,2.94279561 41.1650197,2.98082234 L41.794105,3.21335869 C46.5450536,5.02939966 49.6233947,7.60386933 49.9443738,10.4811708 L49.9443738,22.4815902 C49.6785939,24.8582912 47.5315585,27.0283226 44.1145636,28.7348932 L43.5645735,29.0004628 C42.4438426,29.5237493 41.1996765,29.9994703 39.8513294,30.4195391 L39.1685633,30.6248984 C39.0533517,30.6583395 38.9374389,30.6913848 38.820836,30.7240295 L38.1130274,30.9150546 C37.755072,31.0081266 37.3911066,31.0975097 37.0214321,31.1830776 L36.2745603,31.3490891 C36.1488427,31.3758974 36.0225131,31.4022724 35.8955825,31.4282094 L35.1268773,31.5785389 L34.344285,31.7181329 L33.5483405,31.8467667 C33.2808597,31.8877931 33.0112427,31.9269553 32.7395786,31.9642159 L31.9185341,32.0702556 C31.7806996,32.0869657 31.6423755,32.103191 31.5035731,32.1189268 L30.6651076,32.2074313 C30.3837652,32.2349502 30.1005985,32.2604739 29.8156967,32.2839649 L28.9558751,32.3483029 L28.0861778,32.4002207 C27.065978,32.453459 26.0267071,32.4808807 24.9721869,32.4808807 C23.9176667,32.4808807 22.8783958,32.453459 21.858196,32.4002207 L20.9884987,32.3483029 L20.1286771,32.2839649 C19.8437753,32.2604739 19.5606086,32.2349502 19.2792662,32.2074313 L18.4408007,32.1189268 C18.3019983,32.103191 18.1636742,32.0869657 18.0258396,32.0702556 L17.2047952,31.9642159 C17.0689631,31.9455856 16.9336428,31.9264799 16.7988455,31.9069034 L15.9964254,31.7838339 C15.8637643,31.7623933 15.7316484,31.7404914 15.6000888,31.7181329 L14.8174965,31.5785389 L14.0487913,31.4282094 C13.9218607,31.4022724 13.795531,31.3758974 13.6698134,31.3490891 L12.9229416,31.1830776 C12.5532672,31.0975097 12.1893018,31.0081266 11.8313464,30.9150546 L11.1235378,30.7240295 C11.0069349,30.6913848 10.8910221,30.6583395 10.7758105,30.6248984 L10.0930443,30.4195391 C8.74469726,29.9994703 7.50053119,29.5237493 6.37980027,29.0004628 L5.82981022,28.7348932 C2.41281528,27.0283226 0.265779899,24.8582912 0,22.4815902 L0,10.4811708 C0.320979104,7.60386933 3.39932022,5.02939966 8.15026881,3.21335869 L8.77935409,2.98082234 C8.88575283,2.94279561 8.99291974,2.90513667 9.10084367,2.8678502 L9.75738241,2.64863843 C11.0882718,2.21930389 12.5249631,1.84495273 14.0481987,1.53367312 L14.8169393,1.38332673 L15.599569,1.24371693 L16.395553,1.1150684 L17.2043562,0.997605812 L18.0254436,0.891553839 C18.1632855,0.874841876 18.301617,0.858614717 18.4404268,0.842877042 L19.2789378,0.754362247 C19.5602957,0.726840216 19.843478,0.701313567 20.1283957,0.677819746 L20.9882657,0.613474209 L21.8580128,0.561550307 C22.7325202,0.515912115 23.6210408,0.489243385 24.5211675,0.482555139 L24.9721869,0.480880737 Z" id="路径" stroke="#EAB995" stroke-width="0.8" fill="url(#linearGradient-1)"></path>
            <path d="M25,0.5 C31.8271335,0.5 38.0094938,1.65705489 42.4840533,3.53636985 C44.7180177,4.47463492 46.5221619,5.58987991 47.7508034,6.83568515 C48.8640843,7.96451822 49.5,9.19699069 49.5,10.5 C49.5,11.8030093 48.8640843,13.0354818 47.7508034,14.1643148 C46.5221619,15.4101201 44.7180177,16.5253651 42.4840533,17.4636301 C38.0094938,19.3429451 31.8271335,20.5 25,20.5 C18.1728665,20.5 11.9905062,19.3429451 7.51594671,17.4636301 C5.28198227,16.5253651 3.4778381,15.4101201 2.2491966,14.1643148 C1.13591573,13.0354818 0.5,11.8030093 0.5,10.5 C0.5,9.19699069 1.13591573,7.96451822 2.2491966,6.83568515 C3.4778381,5.58987991 5.28198227,4.47463492 7.51594671,3.53636985 C11.9905062,1.65705489 18.1728665,0.5 25,0.5 Z" id="椭圆形备份-2" stroke="#FFEDDE" fill="#E6BF9F"></path>
        </g>
        <g id="编组" transform="translate(13.000000, 4.000000)" fill="#FFFFFF" stroke="#BF8E65" stroke-width="0.5">
            <path d="M14.0997258,9.32154324 C14.638562,9.19627349 15.1470462,9.01094794 15.5973262,8.76740881 C17.2563275,7.81646402 17.3095327,6.26459287 15.6266069,5.32359598 C13.9358253,4.3781778 11.1984374,4.37670404 9.43909615,5.36228223 C9.01595441,5.59918943 8.70029424,5.87515132 8.48104611,6.17064056 C7.95363652,7.02210643 8.31214649,8.01100058 9.57157344,8.71509027 C10.7845798,9.39375757 12.5674884,9.60229486 14.0997258,9.32154324 L14.0997258,9.32154324 Z M24.9400103,13.9579978 L16.9970862,13.8850466 L18.6867965,12.9381546 L15.1052677,10.9353124 C14.7588985,11.008632 14.4007456,11.0627928 14.035094,11.1036897 C12.618194,11.2809095 11.170585,11.2208537 9.83438553,10.9736302 L6.25428498,12.9786831 L7.94899446,13.9266804 L0.00571330629,14 L0.134976861,9.55660824 L1.89110438,10.538502 L5.47084785,8.53344913 C5.41692853,8.44723406 5.3669371,8.35880836 5.32051648,8.27259329 C4.75811289,7.36328228 4.74990002,6.37217748 5.33872765,5.4731828 L1.82254471,3.50681615 L0.132834371,4.45333965 L0,0.00994789199 L7.94328115,0.0784778146 L6.24964292,1.02721196 L9.76546878,2.99357861 C10.6703137,2.84914996 11.6097955,2.77546187 12.556776,2.79683141 C13.4655488,2.77472499 14.3743215,2.83920206 15.2331029,2.99210485 L18.7475004,1.02352755 L17.0567188,0.0777409337 L25,0 L24.8707364,4.44781304 L23.176384,3.50018422 L19.6619865,5.46876151 C19.9201565,5.97094584 20.0472776,6.49007843 20.0129978,7.01400074 C20.0283523,7.51802726 19.8823059,8.01800095 19.5977118,8.4921838 L23.1792407,10.4953945 L24.8728789,9.54666035 L24.9400103,13.9579978 Z" id="Fill-1"></path>
        </g>
        <g id="编组-2" transform="translate(14.797000, 23.591000)" fill-rule="nonzero">
            <g id="ASBR" transform="translate(0.000000, 1.000000)" fill="#403C3C" fill-opacity="0.8">
                <path d="M1.989,3.8165 L2.176,3.128 C2.363,2.4735 2.55,1.7595 2.7115,1.071 L2.7455,1.071 C2.9325,1.751 3.1025,2.4735 3.298,3.128 L3.485,3.8165 L1.989,3.8165 Z M4.199,6.409 L5.5165,6.409 L3.4935,0.119 L2.0145,0.119 L0,6.409 L1.275,6.409 L1.717,4.794 L3.757,4.794 L4.199,6.409 Z" id="形状"></path>
                <path d="M8.1345,6.528 C9.588,6.528 10.4465,5.6525 10.4465,4.624 C10.4465,3.7145 9.945,3.23 9.18,2.9155 L8.3555,2.567 C7.82,2.3545 7.3695,2.193 7.3695,1.7425 C7.3695,1.326 7.7265,1.0795 8.279,1.0795 C8.7975,1.0795 9.214,1.2665 9.6135,1.598 L10.251,0.8075 C9.741,0.289 9.01,0 8.279,0 C7.004,0 6.103,0.7905 6.103,1.819 C6.103,2.737 6.7405,3.247 7.378,3.5105 L8.2195,3.8675 C8.7805,4.1055 9.163,4.25 9.163,4.7175 C9.163,5.1595 8.8145,5.44 8.16,5.44 C7.6075,5.44 7.0125,5.1595 6.562,4.743 L5.8395,5.61 C6.4515,6.1965 7.293,6.528 8.1345,6.528 Z" id="路径"></path>
                <path d="M11.56,6.409 L13.804,6.409 C15.1895,6.409 16.2435,5.8225 16.2435,4.556 C16.2435,3.706 15.742,3.23 15.062,3.0685 L15.062,3.026 C15.5975,2.839 15.9205,2.244 15.9205,1.666 C15.9205,0.493 14.9345,0.119 13.6425,0.119 L11.56,0.119 L11.56,6.409 Z M12.818,2.6775 L12.818,1.0795 L13.566,1.0795 C14.3225,1.0795 14.6965,1.3005 14.6965,1.853 C14.6965,2.3545 14.348,2.6775 13.549,2.6775 L12.818,2.6775 Z M12.818,5.44 L12.818,3.6125 L13.6935,3.6125 C14.5605,3.6125 15.0195,3.8675 15.0195,4.4795 C15.0195,5.134 14.552,5.44 13.6935,5.44 L12.818,5.44 Z" id="形状"></path>
                <path d="M18.6065,1.1135 L19.4225,1.1135 C20.23,1.1135 20.672,1.343 20.672,2.023 C20.672,2.6945 20.23,3.0345 19.4225,3.0345 L18.6065,3.0345 L18.6065,1.1135 Z M22.1765,6.409 L20.706,3.8335 C21.4285,3.553 21.9045,2.9665 21.9045,2.023 C21.9045,0.578 20.859,0.119 19.5415,0.119 L17.3485,0.119 L17.3485,6.409 L18.6065,6.409 L18.6065,4.029 L19.482,4.029 L20.774,6.409 L22.1765,6.409 Z" id="形状"></path>
            </g>
            <g id="ASBR备份" fill="#FFFFFF">
                <path d="M1.989,3.8165 L2.176,3.128 C2.363,2.4735 2.55,1.7595 2.7115,1.071 L2.7455,1.071 C2.9325,1.751 3.1025,2.4735 3.298,3.128 L3.485,3.8165 L1.989,3.8165 Z M4.199,6.409 L5.5165,6.409 L3.4935,0.119 L2.0145,0.119 L0,6.409 L1.275,6.409 L1.717,4.794 L3.757,4.794 L4.199,6.409 Z" id="形状"></path>
                <path d="M8.1345,6.528 C9.588,6.528 10.4465,5.6525 10.4465,4.624 C10.4465,3.7145 9.945,3.23 9.18,2.9155 L8.3555,2.567 C7.82,2.3545 7.3695,2.193 7.3695,1.7425 C7.3695,1.326 7.7265,1.0795 8.279,1.0795 C8.7975,1.0795 9.214,1.2665 9.6135,1.598 L10.251,0.8075 C9.741,0.289 9.01,0 8.279,0 C7.004,0 6.103,0.7905 6.103,1.819 C6.103,2.737 6.7405,3.247 7.378,3.5105 L8.2195,3.8675 C8.7805,4.1055 9.163,4.25 9.163,4.7175 C9.163,5.1595 8.8145,5.44 8.16,5.44 C7.6075,5.44 7.0125,5.1595 6.562,4.743 L5.8395,5.61 C6.4515,6.1965 7.293,6.528 8.1345,6.528 Z" id="路径"></path>
                <path d="M11.56,6.409 L13.804,6.409 C15.1895,6.409 16.2435,5.8225 16.2435,4.556 C16.2435,3.706 15.742,3.23 15.062,3.0685 L15.062,3.026 C15.5975,2.839 15.9205,2.244 15.9205,1.666 C15.9205,0.493 14.9345,0.119 13.6425,0.119 L11.56,0.119 L11.56,6.409 Z M12.818,2.6775 L12.818,1.0795 L13.566,1.0795 C14.3225,1.0795 14.6965,1.3005 14.6965,1.853 C14.6965,2.3545 14.348,2.6775 13.549,2.6775 L12.818,2.6775 Z M12.818,5.44 L12.818,3.6125 L13.6935,3.6125 C14.5605,3.6125 15.0195,3.8675 15.0195,4.4795 C15.0195,5.134 14.552,5.44 13.6935,5.44 L12.818,5.44 Z" id="形状"></path>
                <path d="M18.6065,1.1135 L19.4225,1.1135 C20.23,1.1135 20.672,1.343 20.672,2.023 C20.672,2.6945 20.23,3.0345 19.4225,3.0345 L18.6065,3.0345 L18.6065,1.1135 Z M22.1765,6.409 L20.706,3.8335 C21.4285,3.553 21.9045,2.9665 21.9045,2.023 C21.9045,0.578 20.859,0.119 19.5415,0.119 L17.3485,0.119 L17.3485,6.409 L18.6065,6.409 L18.6065,4.029 L19.482,4.029 L20.774,6.409 L22.1765,6.409 Z" id="形状"></path>
            </g>
        </g>
    </g>
</svg>