<?xml version="1.0" encoding="UTF-8"?>
<svg width="40px" height="88px" viewBox="0 0 40 88" version="1.1" xmlns="http://www.w3.org/2000/svg" xmlns:xlink="http://www.w3.org/1999/xlink">
    <title>编组 7</title>
    <defs>
        <linearGradient x1="50%" y1="0%" x2="50%" y2="100%" id="linearGradient-1">
            <stop stop-color="#39A9F9" offset="0%"></stop>
            <stop stop-color="#2D53F9" offset="100%"></stop>
        </linearGradient>
        <radialGradient cx="90.1107127%" cy="77.8655116%" fx="90.1107127%" fy="77.8655116%" r="38.6066511%" gradientTransform="translate(0.901107,0.778655),scale(1.000000,0.691255),rotate(65.560132),translate(-0.901107,-0.778655)" id="radialGradient-2">
            <stop stop-color="#2CADF9" offset="0%"></stop>
            <stop stop-color="#2BB0F9" stop-opacity="0" offset="100%"></stop>
        </radialGradient>
        <radialGradient cx="38.7369953%" cy="18.132833%" fx="38.7369953%" fy="18.132833%" r="21.9691326%" gradientTransform="translate(0.387370,0.181328),scale(1.000000,0.691255),rotate(96.509803),scale(1.000000,0.132644),translate(-0.387370,-0.181328)" id="radialGradient-3">
            <stop stop-color="#2BACF9" offset="0%"></stop>
            <stop stop-color="#2CB2F9" stop-opacity="0" offset="100%"></stop>
        </radialGradient>
        <path d="M34.8197649,47.5469489 L34.8652911,47.3368779 C34.8958587,47.4019154 34.9251256,47.4610995 34.9563436,47.5248362 L34.8197649,47.5469489 Z M24.9782937,45.022194 L32.0784352,40.9449946 C33.0396891,43.3539827 33.9554168,45.4228249 34.7742387,47.1437166 L24.9782937,45.022194 Z M14.9878868,50.7598003 L24.1373592,45.5054225 L34.1017511,47.663366 L14.9878868,50.7598003 Z M15.6785848,43.6739671 L23.1891127,45.2999041 L14.6796091,50.1874705 C14.9787815,48.3273987 15.316326,46.1473424 15.6785848,43.6739671 L15.6785848,43.6739671 Z M14.1684145,38.1243191 L12.9014845,34.0490708 L14.9495147,33.2458579 C14.7049737,34.8568363 14.446775,36.4847243 14.1684145,38.1243191 L14.1684145,38.1243191 Z M9.59237761,35.1280425 L12.2829781,34.250687 L13.8926556,39.4283206 L9.59237761,35.1280425 Z M12.1379445,48.6564883 L10.2486058,42.5780856 L13.4673105,42.0558347 C13.0562737,44.2645074 12.6153196,46.4731802 12.1379445,48.6564883 L12.1379445,48.6564883 Z M5.77988066,43.3039039 L9.6001821,42.6834463 L11.5168366,48.8496496 L5.77988066,43.3039039 Z M9.40506967,42.056485 L5.69077931,42.6593825 C6.44391331,41.3228623 7.26013365,39.7541583 8.11147424,37.8934361 L9.40506967,42.056485 Z M13.2299237,41.4353771 L10.0534933,41.9511243 L8.54462384,37.0973774 L13.2299237,41.4353771 Z M11.0895403,30.4115246 L12.0898168,33.6289287 L9.58522349,34.4457994 C10.0866624,33.1964294 10.5900525,31.8514544 11.0895403,30.4115246 L11.0895403,30.4115246 Z M14.6802595,32.6533665 L12.7083232,33.4273125 L11.5760207,29.783913 L14.6802595,32.6533665 Z M12.166561,27.1303839 L14.5775003,25.8413411 L15.5647692,29.0177715 C15.4899761,29.5562818 15.4138822,30.0986944 15.3358373,30.6437084 L12.0956701,27.3625677 C12.1190836,27.2871242 12.1424971,27.2064777 12.166561,27.1303839 L12.166561,27.1303839 Z M13.5108856,22.4112645 L14.3804367,25.2091768 L12.433865,26.2504268 C12.800026,25.029023 13.1596833,23.748435 13.5108856,22.4112645 L13.5108856,22.4112645 Z M16.090272,25.0316245 C15.9888136,25.8413411 15.8821521,26.662114 15.7715884,27.4919923 L15.1615368,25.5285108 L16.090272,25.0316245 Z M16.2762792,23.5364129 C16.2476627,23.7698974 16.2183959,24.0059834 16.189129,24.2420695 L14.9644733,24.8963465 L13.9017609,21.4773263 L16.2762792,23.5364129 Z M15.7982537,17.1913565 L16.2684747,20.8770304 L14.5443312,19.1977627 L15.7982537,17.1913565 Z M15.4008748,14.0825651 L15.6681788,16.1728696 L14.6158724,17.8566899 C14.8870787,16.6411395 15.1491797,15.3820139 15.4008748,14.0825651 L15.4008748,14.0825651 Z M17.0007967,14.0396403 L16.2125425,15.3013674 L15.9094678,12.9268491 L17.0007967,14.0396403 Z M16.7465002,19.4852284 L16.3426174,16.3198543 L17.2245256,14.908541 C17.0820936,16.3549746 16.9234021,17.8853064 16.7465002,19.4852284 L16.7465002,19.4852284 Z M18.2605727,23.4076387 L22.2662309,26.2686373 L17.4736192,30.2203145 C17.7357202,28.0597694 17.999122,25.7815066 18.2605727,23.4076387 L18.2605727,23.4076387 Z M18.5434857,20.782726 L18.6072224,20.8328049 L21.5384615,17.1237175 C21.6782921,18.4680422 21.8155212,19.7512316 21.9501488,20.9732859 L18.5018617,21.1742517 C18.5155196,21.0435263 18.5298278,20.9141018 18.5434857,20.782726 L18.5434857,20.782726 Z M19.2029657,14.2328017 L21.3010747,16.3751362 L18.6553501,19.7226152 C18.840707,17.9431898 19.0234623,16.1136855 19.2029657,14.2328017 L19.2029657,14.2328017 Z M21.1566915,13.3229273 C21.2295335,14.0708583 21.3023755,14.8070826 21.3745671,15.5211941 L19.3063753,13.4087768 L21.1566915,13.3229273 Z M20.1947872,2.76994618 C20.4705462,6.01726745 20.7430532,9.01939743 21.0097068,11.8023511 L19.4182398,11.9038096 C19.6881453,8.96736745 19.9489456,5.92686536 20.1947872,2.76994618 L20.1947872,2.76994618 Z M22.1888363,23.0987106 C22.2896444,23.9747655 22.3885014,24.8163504 22.4854072,25.626067 L19.1294734,23.2287856 L22.1888363,23.0987106 Z M23.810871,13.1993561 L22.7104369,14.5918085 C22.6590573,14.1306928 22.613531,13.6923402 22.5693056,13.2572395 L23.810871,13.1993561 Z M24.2973513,13.6331561 C24.7077378,15.7891485 25.1441393,17.8521373 25.5974505,19.8338292 L23.0239175,17.2056648 C22.9491244,16.622929 22.8795343,16.0564525 22.8151472,15.5081866 L24.2973513,13.6331561 Z M24.1380095,24.725298 C24.0417541,24.1484155 23.9494008,23.5819391 23.8616002,23.0278198 L26.3226184,22.9237598 L24.1380095,24.725298 Z M28.1878933,29.6987139 L24.5464449,27.0978651 C24.4488887,26.5463473 24.3526332,25.9987318 24.2622311,25.4660748 L26.5073248,23.6151082 C27.0523389,25.7600442 27.6162138,27.7833602 28.1878933,29.6987139 L28.1878933,29.6987139 Z M27.236395,32.3984196 L25.7541909,33.4468237 C25.6911045,33.1320423 25.6241159,32.8101068 25.5623303,32.5005284 L27.236395,32.3984196 Z M25.1682032,30.4765621 C25.008211,29.6369283 24.8540722,28.8135538 24.7090386,28.0135928 L27.9251419,30.3107166 L25.1682032,30.4765621 Z M24.8976473,41.7384518 C25.1851129,43.1562688 25.3672179,43.8391623 25.4179471,44.0199665 L24.0300473,44.8166756 L16.3751362,43.1588703 L24.8976473,41.7384518 Z M23.0609889,35.3524218 L16.1702681,40.2276312 C16.4687901,38.0872478 16.7777182,35.7725639 17.0918492,33.2920345 L23.0609889,35.3524218 Z M17.6368632,30.929223 L22.6297904,26.8123506 C22.7969367,28.1722843 22.9588801,29.4307595 23.1156204,30.599483 L17.6368632,30.929223 Z M23.3946312,32.6332049 C23.507146,33.4338162 23.616409,34.183048 23.7217697,34.8848024 L23.7146155,34.8900054 L18.1142383,32.9564411 L23.3946312,32.6332049 Z M23.8329838,35.6184251 C24.0378518,36.9503927 24.2264605,38.0944019 24.3975091,39.0706144 L16.6788612,40.664683 L23.8180251,35.6132221 L23.8329838,35.6184251 Z M23.5318602,20.881583 C23.3991838,19.9834154 23.2736614,19.108011 23.1624474,18.2761816 L25.594849,20.7612637 L23.5318602,20.881583 Z M28.9872039,32.2911078 C29.5549811,34.0698828 30.1253597,35.7406956 30.689885,37.2970424 L26.2322163,35.7589061 C26.1177504,35.213892 26.0045851,34.6740809 25.8959726,34.1433751 L28.4695056,32.3229761 L28.9872039,32.2911078 Z M26.389607,36.5009837 L30.3022617,37.8511617 L26.8383656,38.566574 C26.6842268,37.8680715 26.5339902,37.1780238 26.389607,36.5009837 L26.389607,36.5009837 Z M27.9810741,42.8193747 C27.8783149,42.3803717 27.5544282,41.7436548 27.4555713,41.3124563 L31.2270946,40.6835439 L26.4657009,43.4177195 L27.9810741,42.8193747 Z M24.2680845,0 L22.3403736,0.946295303 C22.790433,4.71001415 23.3315448,8.25585744 23.9311903,11.6156935 L22.4197194,11.711949 C21.764792,4.49083785 22.0704681,1.22075346 22.0704681,1.22075346 L20.1427573,2.16704876 C20.149261,2.23924036 20.1551144,2.30883046 20.1609678,2.38037169 L18.2956929,1.46529438 C18.2956929,1.46529438 18.0836707,5.54379461 17.5119913,11.8621856 L16.1026291,10.1770645 C16.5728501,7.36224249 16.9955937,4.37702226 17.3493976,1.19018584 L15.4216867,0.243890542 C15.4216867,0.243890542 15.3000667,25.636473 0,47.5287384 L1.74885778,48.4652781 C1.74885778,48.4652781 2.78360405,47.370047 4.3347479,44.9343934 L11.5025283,51.460254 C11.0355592,53.4432467 10.5386729,55.3950214 10.0105686,57.2954165 L13.3463408,57.8657952 C13.3463408,57.8657952 13.662423,56.2554672 14.1723168,53.254638 L36.3461945,50.2824252 C37.514918,52.4884965 38.2504918,53.5928329 38.2504918,53.5928329 L40,52.6562932 C26.5313887,29.1771133 24.2680845,0 24.2680845,0 L24.2680845,0 Z" id="path-4"></path>
        <linearGradient x1="0%" y1="50%" x2="100%" y2="50%" id="linearGradient-5">
            <stop stop-color="#2D5FF9" offset="0%"></stop>
            <stop stop-color="#2CAEFA" offset="100%"></stop>
        </linearGradient>
        <linearGradient x1="100%" y1="34.4265306%" x2="0%" y2="74.3605406%" id="linearGradient-6">
            <stop stop-color="#2CAFF9" offset="0%"></stop>
            <stop stop-color="#2D63F9" offset="100%"></stop>
        </linearGradient>
        <linearGradient x1="100%" y1="74.0420151%" x2="0%" y2="38.508035%" id="linearGradient-7">
            <stop stop-color="#2BB0F9" offset="0%"></stop>
            <stop stop-color="#2D59F9" offset="100%"></stop>
        </linearGradient>
        <linearGradient x1="100%" y1="50%" x2="0%" y2="50%" id="linearGradient-8">
            <stop stop-color="#2CAEF9" offset="0%"></stop>
            <stop stop-color="#2D68F9" offset="100%"></stop>
        </linearGradient>
        <linearGradient x1="77.4559706%" y1="67.2302309%" x2="22.5440294%" y2="50%" id="linearGradient-9">
            <stop stop-color="#2BA8F9" offset="0%"></stop>
            <stop stop-color="#2D5CF9" offset="100%"></stop>
        </linearGradient>
        <linearGradient x1="100%" y1="50%" x2="0%" y2="50%" id="linearGradient-10">
            <stop stop-color="#2CAAFA" offset="0%"></stop>
            <stop stop-color="#2D6CF9" offset="100%"></stop>
        </linearGradient>
        <linearGradient x1="56.9404805%" y1="56.382417%" x2="43.2993498%" y2="63.72815%" id="linearGradient-11">
            <stop stop-color="#2CAFF9" offset="0%"></stop>
            <stop stop-color="#2D68F9" offset="100%"></stop>
        </linearGradient>
        <linearGradient x1="57.0315073%" y1="55.9519634%" x2="42.9684927%" y2="50%" id="linearGradient-12">
            <stop stop-color="#2BA8F9" offset="0%"></stop>
            <stop stop-color="#2D59F9" offset="100%"></stop>
        </linearGradient>
        <linearGradient x1="100%" y1="50%" x2="0%" y2="50%" id="linearGradient-13">
            <stop stop-color="#2CACF9" offset="0%"></stop>
            <stop stop-color="#2D6AF9" offset="100%"></stop>
        </linearGradient>
        <linearGradient x1="100%" y1="50%" x2="0%" y2="50%" id="linearGradient-14">
            <stop stop-color="#2BA7F9" offset="0%"></stop>
            <stop stop-color="#2D5DF9" offset="100%"></stop>
        </linearGradient>
        <linearGradient x1="50%" y1="0%" x2="50%" y2="99.5666931%" id="linearGradient-15">
            <stop stop-color="#2CA3F9" offset="0%"></stop>
            <stop stop-color="#2D8CFA" offset="100%"></stop>
        </linearGradient>
        <linearGradient x1="100%" y1="50%" x2="0%" y2="50%" id="linearGradient-16">
            <stop stop-color="#78CFFA" offset="0%"></stop>
            <stop stop-color="#607BF9" offset="100%"></stop>
        </linearGradient>
    </defs>
    <g id="页面-1" stroke="none" stroke-width="1" fill="none" fill-rule="evenodd">
        <g id="编组-7" transform="translate(0.000000, 0.527000)">
            <g id="Fill-1" transform="translate(0.000000, 28.924118)">
                <use fill="url(#linearGradient-1)" xlink:href="#path-4"></use>
                <use fill="url(#radialGradient-2)" xlink:href="#path-4"></use>
                <use fill="url(#radialGradient-3)" xlink:href="#path-4"></use>
            </g>
            <g id="编组" transform="translate(11.056371, 8.762499)">
                <g id="编组-5" transform="translate(0.000000, 12.958522)">
                    <polygon id="Fill-1" fill="url(#linearGradient-5)" points="0.0029266865 5.26478383 9.12183146 10.530218 18.1809017 5.26478383 9.06199698 0"></polygon>
                    <polygon id="Fill-2" fill="url(#linearGradient-6)" points="9.12189649 10.5298929 9.11864462 11.5900037 18.1783653 6.32521991 18.1809668 5.26445864"></polygon>
                    <polygon id="Fill-3" fill="url(#linearGradient-7)" points="0 6.32541502 9.11890477 11.5901989 9.12215664 10.530088 0.00325187389 5.26465376"></polygon>
                </g>
                <polygon id="Fill-4" fill="#646464" points="13.6894135 15.3430564 9.30003414 17.8938263 4.88594052 15.3456579 9.2753199 12.7948881"></polygon>
                <polygon id="Fill-5" fill="url(#linearGradient-8)" points="13.5768987 15.3430564 13.5469814 18.7919939 9.15760207 21.3427638 9.18751931 17.8938263"></polygon>
                <polygon id="Fill-6" fill="url(#linearGradient-9)" points="9.14856186 17.8938263 9.11864462 21.3427638 4.704551 18.7945954 4.73446824 15.3456579"></polygon>
                <g id="编组-5备份" transform="translate(0.000000, 7.755524)">
                    <polygon id="Fill-1" fill="url(#linearGradient-5)" points="0.0029266865 5.26478383 9.12183146 10.530218 18.1809017 5.26478383 9.06199698 0"></polygon>
                    <polygon id="Fill-2" fill="url(#linearGradient-6)" points="9.12189649 10.5298929 9.11864462 11.5900037 18.1783653 6.32521991 18.1809668 5.26445864"></polygon>
                    <polygon id="Fill-3" fill="url(#linearGradient-7)" points="0 6.32541502 9.11890477 11.5901989 9.12215664 10.530088 0.00325187389 5.26465376"></polygon>
                </g>
                <polygon id="Fill-10" fill="url(#linearGradient-10)" points="13.67465 4.97335089 9.28917289 7.52151928 4.87507926 4.97335089 9.2605564 2.42518251"></polygon>
                <polygon id="Fill-11" fill="url(#linearGradient-11)" points="13.67465 4.97335089 13.6447328 14.2756613 9.25925565 16.8244801 9.28917289 7.52151928"></polygon>
                <polygon id="Fill-12" fill="url(#linearGradient-12)" points="9.289368 7.52184446 9.25945076 16.8241549 4.84535714 14.2759865 4.87527438 4.97367608"></polygon>
                <polygon id="Fill-13" fill="#2D84FA" points="9.38120092 0 8.70025852 0.395427865 9.38185129 0.788254232 10.0621433 0.393476741"></polygon>
                <polygon id="Fill-14" fill="url(#linearGradient-13)" points="9.38178625 0.788449344 9.36682763 6.09030454 10.0471197 5.69487667 10.0620783 0.393671853"></polygon>
                <polygon id="Fill-15" fill="url(#linearGradient-14)" points="8.68523487 5.69708795 9.36682763 6.09056469 9.38178625 0.788709494 8.70019349 0.395883128"></polygon>
            </g>
            <polygon id="路径-2" fill="url(#linearGradient-15)" points="20.443501 1.18653593 20.282318 9.26364305 20.6460474 9.26364305"></polygon>
            <path d="M4.99355812,14.3082451 L4.52554134,13.2311889 C2.75071707,9.15102497 2.8343118,4.51378396 4.75414735,0.509032226 L4.9981075,0 L5.50422528,0.277322216 L5.26083381,0.786354442 C3.42061229,4.62325326 3.34099826,9.06527402 5.04075787,12.9751524 L5.50877465,14.0516004 L4.99355812,14.3082451 Z M9.0499973,12.7184401 L8.6903462,11.8807297 C7.32646885,8.70726888 7.39070786,5.10052588 8.86602025,1.98571897 L9.0534933,1.58980501 L9.4424234,1.80550007 L9.25538735,2.20141402 C7.84125498,5.18566866 7.78007496,8.6405737 9.08626831,11.6815902 L9.4459194,12.5188276 L9.0499973,12.7184401 Z M13.3185085,11.9235376 L13.0102362,11.2055001 C11.8411984,8.48539083 11.8962605,5.39389683 13.1608139,2.72406234 L13.3215051,2.38470752 L13.6548738,2.569589 L13.4945572,2.90894382 C12.2824437,5.46687636 12.2300037,8.42822353 13.349598,11.0348091 L13.6578703,11.7524412 L13.3185085,11.9235376 Z M35.6354546,14.3082451 L36.1034713,13.2311889 C37.8782956,9.15102497 37.7947009,4.51378396 35.8748653,0.509032226 L35.6309052,0 L35.1247874,0.277322216 L35.3681789,0.786354442 C37.2084004,4.62325326 37.2880144,9.06527402 35.5882548,12.9751524 L35.120238,14.0516004 L35.6354546,14.3082451 Z M31.0564474,12.7184401 L31.4160985,11.8807297 C32.7799758,8.70726888 32.7157368,5.10052588 31.2404244,1.98571897 L31.0529514,1.58980501 L30.6640213,1.80550007 L30.8510573,2.20141402 C32.2651897,5.18566866 32.3263697,8.6405737 31.0201764,11.6815902 L30.6605253,12.5188276 L31.0564474,12.7184401 Z M26.5401743,11.9235376 L26.8484467,11.2055001 C28.0174844,8.48539083 27.9624224,5.39389683 26.6978689,2.72406234 L26.5371777,2.38470752 L26.2038091,2.569589 L26.3641257,2.90894382 C27.5762392,5.46687636 27.6286792,8.42822353 26.5090849,11.0348091 L26.2008125,11.7524412 L26.5401743,11.9235376 Z" id="形状结合" fill="url(#linearGradient-16)"></path>
            <g id="编组-6" transform="translate(28.059026, 7.154123) scale(-1, 1) translate(-28.059026, -7.154123) translate(27.315741, 2.384708)"></g>
        </g>
    </g>
</svg>