<?xml version="1.0" encoding="UTF-8"?>
<svg width="51px" height="33px" viewBox="0 0 51 33" version="1.1" xmlns="http://www.w3.org/2000/svg" xmlns:xlink="http://www.w3.org/1999/xlink">
    <title>7-2 BOARD</title>
    <defs>
        <linearGradient x1="97.4211836%" y1="50%" x2="0%" y2="50%" id="linearGradient-1">
            <stop stop-color="#BE713A" offset="0.297749126%"></stop>
            <stop stop-color="#BB6D35" offset="15.7506556%"></stop>
            <stop stop-color="#C6834F" offset="49.6694712%"></stop>
            <stop stop-color="#BB6D35" offset="83.2550262%"></stop>
            <stop stop-color="#BE713A" offset="100%"></stop>
        </linearGradient>
        <linearGradient x1="50%" y1="0%" x2="50%" y2="100%" id="linearGradient-2">
            <stop stop-color="#FFD9BC" stop-opacity="0" offset="0%"></stop>
            <stop stop-color="#FFD9BC" offset="100%"></stop>
        </linearGradient>
        <linearGradient x1="62.5095608%" y1="87.4904392%" x2="62.5095608%" y2="-5.69599934e-13%" id="linearGradient-3">
            <stop stop-color="#FFDFC7" offset="0%"></stop>
            <stop stop-color="#FFD9BC" stop-opacity="0" offset="100%"></stop>
        </linearGradient>
        <polygon id="path-4" points="8.45581062e-15 0 3.80661149 0 3.80661149 6.06163638 8.45581062e-15 6.06163638"></polygon>
        <polygon id="path-6" points="8.45581062e-15 0 3.80661149 0 3.80661149 6.06163638 8.45581062e-15 6.06163638"></polygon>
    </defs>
    <g id="页面-1" stroke="none" stroke-width="1" fill="none" fill-rule="evenodd">
        <g id="图标" transform="translate(-141.000000, -580.000000)">
            <g id="7-2-BOARD" transform="translate(141.434825, 581.000000)">
                <path d="M42.1166297,2.82076284 C44.4755207,3.80351481 46.2612428,4.93633717 47.4769641,6.14315603 C48.6925078,7.34979865 49.3418818,8.63288979 49.4395525,9.91962214 L49.4514041,10.1609093 L49.634557,21.0015383 C49.7089572,22.4383544 49.1057552,23.884894 47.8043659,25.2409918 C46.5816736,26.5150841 44.7382884,27.7116965 42.2690748,28.7437667 C32.5752781,32.7953687 16.8596798,32.795367 7.16645408,28.7437687 C4.75517671,27.7360278 2.94082803,26.5714546 1.71978214,25.3310805 C0.498218088,24.09018 -0.13349785,22.7709923 -0.190638659,21.453539 L-0.194622987,21.2065564 L-0.19968605,10.0779546 C-0.143249948,8.72599776 0.521740328,7.3734254 1.81246938,6.10627137 C3.02765313,4.91328282 4.80098068,3.79351852 7.13586864,2.82076662 C16.7954092,-1.20411052 32.4570982,-1.20411052 42.1166297,2.82076284 Z M41.1752143,3.97600176 C32.0353317,0.417586426 17.2171756,0.417586426 8.07730665,3.97599646 C5.90868309,4.82012058 4.25744697,5.78773886 3.12648129,6.82304983 C2.05595882,7.80302976 1.45469574,8.840866 1.33972343,9.88923143 L1.33972343,9.88923143 L47.9200231,9.96244879 L47.8946961,9.75031889 C47.7455327,8.76110419 47.1631217,7.78299216 46.1619303,6.8561025 C45.0301766,5.80834007 43.3669245,4.8291122 41.1752143,3.97600176 Z" id="形状结合" stroke="#DE8635" stroke-width="0.4" fill-rule="nonzero"></path>
                <path d="M49.0703246,10.4507962 L49.0703246,21.0215171 C49.1408217,22.3247752 48.5718818,23.6259342 47.3970731,24.8501302 C46.2169907,26.0798214 44.4332164,27.2273829 42.0513864,28.2229289 C32.477825,32.2242776 16.9571516,32.2242808 7.38412921,28.2229253 C5.00130439,27.2270756 3.21716379,26.079142 2.03849248,24.84902 C0.866009737,23.6253567 0.300268562,22.3247842 0.376404487,21.02209 L0.376404487,21.02209 L0.365032249,10.4507962 L49.0703246,10.4507962 Z" id="路径" stroke="url(#linearGradient-2)" stroke-width="0.729" fill="url(#linearGradient-1)" fill-rule="nonzero"></path>
                <path d="M7.23797863,3.02534809 C16.8891765,-1.00844936 32.5357137,-1.00844936 42.1863519,3.02534809 C51.83699,7.05914554 51.83699,13.5998541 42.1863519,17.6336516 C32.5357137,21.667449 16.8891765,21.667449 7.23797863,17.6336516 C-2.41265954,13.5998541 -2.41265954,7.05914554 7.23797863,3.02534809 Z" id="路径" fill="#E6BF9F" fill-rule="nonzero"></path>
                <path d="M42.0397145,3.00538154 C32.4226574,-1.00179385 16.8298499,-1.00179385 7.21279283,3.00538154 C-2.40426428,7.0120023 -2.40426428,13.5088954 7.21279283,17.5155161 C16.8298499,21.5226915 32.4226574,21.5226915 42.0397145,17.5155161 C51.6567717,13.5088954 51.6567717,7.0120023 42.0397145,3.00538154 Z M41.2477611,3.7896232 C32.0678175,0.215610994 17.1846899,0.215610994 8.00474626,3.7896232 C-1.17575701,7.36308078 -1.17575701,13.1578169 8.00474626,16.7312745 C17.1846899,20.3052867 32.0678175,20.3052867 41.2477611,16.7312745 C50.4282644,13.1578169 50.4282644,7.36308078 41.2477611,3.7896232 Z" id="形状" fill="url(#linearGradient-3)"></path>
                <g id="编组-8" transform="translate(2.485107, 17.618237)">
                    <g id="编组" transform="translate(21.996318, 6.160824) rotate(1.000000) translate(-21.996318, -6.160824) translate(0.080068, 1.381763)">
                        <path d="M2.70260252,3.01034934 C3.32737854,3.25668959 3.698674,3.1103135 3.85338044,2.7187872 C4.02355752,2.28679921 3.79863816,1.99880722 3.20718353,1.76674756 L2.62286921,1.53587795 L2.13137874,2.78542997 L2.70260252,3.01034934 Z M1.96596185,5.21551115 C2.6371498,5.47970215 3.09650893,5.38330814 3.2976273,4.87158683 C3.48565513,4.39318691 3.20599348,4.05283274 2.52766524,3.78626164 L1.84338675,3.51731045 L1.28168336,4.9453699 L1.96596185,5.21551115 Z M1.93383052,0.398190579 L3.56300835,1.03843724 C4.57336042,1.43591379 5.22907772,2.03212861 4.86730265,2.94965681 C4.68998527,3.40187564 4.25442714,3.76722085 3.77840732,3.74818006 L3.76531677,3.78150145 C4.24728684,4.11709542 4.49243705,4.64428737 4.23181619,5.30833502 C3.84147994,6.29845624 2.83707812,6.43293184 1.75413303,6.0068941 L1.58546449e-15,5.31547531 L1.93383052,0.398190579 Z" id="Fill-1" fill="#403C3C"></path>
                        <path d="M8.8433772,5.45899529 C9.13850949,4.36176961 8.83147671,3.5763369 8.07222509,3.37283843 C7.31297348,3.16933996 6.65368603,3.69534186 6.35974379,4.79137749 C6.0669916,5.88146288 6.36331394,6.70854732 7.1213755,6.91204579 C7.88062712,7.11673431 8.55062501,6.54908068 8.8433772,5.45899529 M5.31726039,4.5129059 C5.76352897,2.84921663 6.95476857,2.13399685 8.30666485,2.49577191 C9.65975119,2.85873703 10.3297491,4.08210796 9.88467056,5.73865693 C9.44078207,7.39401586 8.23764198,8.15921772 6.88455564,7.79506255 C5.53265936,7.43328749 4.87337191,6.16826482 5.31726039,4.5129059" id="Fill-3" fill="#403C3C"></path>
                        <path d="M12.9887958,6.75769636 L12.9281033,6.16148154 C12.8555102,5.59263785 12.8138585,4.97024194 12.7507859,4.37997736 L12.7222247,4.37640722 C12.4949252,4.92502006 12.2426347,5.49148364 11.9974845,6.00796515 L11.7487642,6.55300784 L12.9887958,6.75769636 Z M13.0804296,7.60501164 L11.3893692,7.32654005 L10.8026748,8.60465326 L9.74591078,8.42971598 L12.2747661,3.49101035 L13.5017072,3.69331877 L14.3180811,9.18420739 L13.2256157,9.00450991 L13.0804296,7.60501164 Z" id="Fill-5" fill="#403C3C"></path>
                        <path d="M16.4637405,6.50838098 L17.1468289,6.55717301 C17.8239671,6.60596504 18.2143034,6.34653424 18.253575,5.78483086 C18.2952267,5.21598717 17.9382119,4.99582801 17.2622637,4.94822602 L16.5791753,4.89943399 L16.4637405,6.50838098 Z M18.0774477,9.46327401 L17.1373085,7.39377785 L16.404238,7.34141567 L16.2626221,9.33474866 L15.2082382,9.25977554 L15.5842939,3.99142619 L17.4217304,4.12233164 C18.5249063,4.20206496 19.3722216,4.64833354 19.286538,5.85861393 C19.2294156,6.64880683 18.7962376,7.1117361 18.1738417,7.30333408 L19.2520266,9.54776753 L18.0774477,9.46327401 Z" id="Fill-7" fill="#403C3C"></path>
                        <path d="M21.7317328,8.68105444 C22.7170938,8.6608236 23.3192589,8.12054111 23.2930778,6.83647764 C23.2680868,5.54408383 22.6433108,5.07163416 21.6591398,5.091865 L21.3306861,5.09781525 L21.4032791,8.68819474 L21.7317328,8.68105444 Z M20.2572614,4.27787111 L21.7067418,4.24811987 C23.3180689,4.21598854 24.3355612,5.02998243 24.3712627,6.8138667 C24.4081543,8.59061068 23.4263634,9.49623838 21.8709686,9.52717967 L20.3655559,9.55812096 L20.2572614,4.27787111 Z" id="Fill-9" fill="#403C3C"></path>
                        <polygon id="Fill-11" fill="#403C3C" points="25.1682389 6.96916817 27.1115898 6.79542093 27.1782326 7.54277205 25.2348817 7.71651928"></polygon>
                        <polygon id="Fill-13" fill="#403C3C" points="27.7087567 3.86278183 28.7536202 3.71283559 29.3807763 8.06365674 31.5002545 7.757814 31.6263998 8.63488052 28.460868 9.0906695"></polygon>
                        <polygon id="Fill-15" fill="#403C3C" points="31.6205685 3.26418691 34.7861003 2.58823876 34.969368 3.44507444 32.8356091 3.90205347 33.0902797 5.09448311 34.9027252 4.70652696 35.0883729 5.57050293 33.2747374 5.95845909 33.5698697 7.33891656 35.7797917 6.86646689 35.9642494 7.73163291 32.7225544 8.42424175"></polygon>
                        <path d="M38.789308,4.69664955 L38.4798951,4.18373819 C38.1704823,3.70057808 37.8670196,3.15672543 37.5587968,2.64976432 L37.5314256,2.65809467 C37.5599868,3.2519294 37.5742674,3.87075516 37.5742674,4.44316899 L37.5814077,5.04176392 L38.789308,4.69664955 Z M39.2355766,5.42257977 L37.587358,5.89383939 L37.6028286,7.30047796 L36.5734358,7.5944202 L36.7495631,2.04997935 L37.9431828,1.70843513 L41.0277912,6.32106718 L39.9638869,6.62571987 L39.2355766,5.42257977 Z" id="Fill-17" fill="#403C3C"></path>
                        <g transform="translate(40.025889, 0.000000)">
                            <mask id="mask-5" fill="white">
                                <use xlink:href="#path-4"></use>
                            </mask>
                            <g id="Clip-20"></g>
                            <polygon id="Fill-19" fill="#403C3C" mask="url(#mask-5)" points="8.45581062e-15 1.07651882 3.07270793 -0.000476019819 3.36188997 0.828988516 1.28763361 1.55610879 1.74223254 2.8556429 3.51540637 2.23562708 3.80696851 3.07104187 2.03498473 3.69105768 2.74425426 5.71295186 1.74699274 6.06163638"></polygon>
                        </g>
                    </g>
                    <g id="编组备份" transform="translate(21.996318, 5.160824) rotate(1.000000) translate(-21.996318, -5.160824) translate(0.080068, 0.381763)">
                        <path d="M2.70260252,3.01034934 C3.32737854,3.25668959 3.698674,3.1103135 3.85338044,2.7187872 C4.02355752,2.28679921 3.79863816,1.99880722 3.20718353,1.76674756 L2.62286921,1.53587795 L2.13137874,2.78542997 L2.70260252,3.01034934 Z M1.96596185,5.21551115 C2.6371498,5.47970215 3.09650893,5.38330814 3.2976273,4.87158683 C3.48565513,4.39318691 3.20599348,4.05283274 2.52766524,3.78626164 L1.84338675,3.51731045 L1.28168336,4.9453699 L1.96596185,5.21551115 Z M1.93383052,0.398190579 L3.56300835,1.03843724 C4.57336042,1.43591379 5.22907772,2.03212861 4.86730265,2.94965681 C4.68998527,3.40187564 4.25442714,3.76722085 3.77840732,3.74818006 L3.76531677,3.78150145 C4.24728684,4.11709542 4.49243705,4.64428737 4.23181619,5.30833502 C3.84147994,6.29845624 2.83707812,6.43293184 1.75413303,6.0068941 L1.58546449e-15,5.31547531 L1.93383052,0.398190579 Z" id="Fill-1" fill="#FFFFFF"></path>
                        <path d="M8.8433772,5.45899529 C9.13850949,4.36176961 8.83147671,3.5763369 8.07222509,3.37283843 C7.31297348,3.16933996 6.65368603,3.69534186 6.35974379,4.79137749 C6.0669916,5.88146288 6.36331394,6.70854732 7.1213755,6.91204579 C7.88062712,7.11673431 8.55062501,6.54908068 8.8433772,5.45899529 M5.31726039,4.5129059 C5.76352897,2.84921663 6.95476857,2.13399685 8.30666485,2.49577191 C9.65975119,2.85873703 10.3297491,4.08210796 9.88467056,5.73865693 C9.44078207,7.39401586 8.23764198,8.15921772 6.88455564,7.79506255 C5.53265936,7.43328749 4.87337191,6.16826482 5.31726039,4.5129059" id="Fill-3" fill="#FFFFFF"></path>
                        <path d="M12.9887958,6.75769636 L12.9281033,6.16148154 C12.8555102,5.59263785 12.8138585,4.97024194 12.7507859,4.37997736 L12.7222247,4.37640722 C12.4949252,4.92502006 12.2426347,5.49148364 11.9974845,6.00796515 L11.7487642,6.55300784 L12.9887958,6.75769636 Z M13.0804296,7.60501164 L11.3893692,7.32654005 L10.8026748,8.60465326 L9.74591078,8.42971598 L12.2747661,3.49101035 L13.5017072,3.69331877 L14.3180811,9.18420739 L13.2256157,9.00450991 L13.0804296,7.60501164 Z" id="Fill-5" fill="#FFFFFF"></path>
                        <path d="M16.4637405,6.50838098 L17.1468289,6.55717301 C17.8239671,6.60596504 18.2143034,6.34653424 18.253575,5.78483086 C18.2952267,5.21598717 17.9382119,4.99582801 17.2622637,4.94822602 L16.5791753,4.89943399 L16.4637405,6.50838098 Z M18.0774477,9.46327401 L17.1373085,7.39377785 L16.404238,7.34141567 L16.2626221,9.33474866 L15.2082382,9.25977554 L15.5842939,3.99142619 L17.4217304,4.12233164 C18.5249063,4.20206496 19.3722216,4.64833354 19.286538,5.85861393 C19.2294156,6.64880683 18.7962376,7.1117361 18.1738417,7.30333408 L19.2520266,9.54776753 L18.0774477,9.46327401 Z" id="Fill-7" fill="#FFFFFF"></path>
                        <path d="M21.7317328,8.68105444 C22.7170938,8.6608236 23.3192589,8.12054111 23.2930778,6.83647764 C23.2680868,5.54408383 22.6433108,5.07163416 21.6591398,5.091865 L21.3306861,5.09781525 L21.4032791,8.68819474 L21.7317328,8.68105444 Z M20.2572614,4.27787111 L21.7067418,4.24811987 C23.3180689,4.21598854 24.3355612,5.02998243 24.3712627,6.8138667 C24.4081543,8.59061068 23.4263634,9.49623838 21.8709686,9.52717967 L20.3655559,9.55812096 L20.2572614,4.27787111 Z" id="Fill-9" fill="#FFFFFF"></path>
                        <polygon id="Fill-11" fill="#FFFFFF" points="25.1682389 6.96916817 27.1115898 6.79542093 27.1782326 7.54277205 25.2348817 7.71651928"></polygon>
                        <polygon id="Fill-13" fill="#FFFFFF" points="27.7087567 3.86278183 28.7536202 3.71283559 29.3807763 8.06365674 31.5002545 7.757814 31.6263998 8.63488052 28.460868 9.0906695"></polygon>
                        <polygon id="Fill-15" fill="#FFFFFF" points="31.6205685 3.26418691 34.7861003 2.58823876 34.969368 3.44507444 32.8356091 3.90205347 33.0902797 5.09448311 34.9027252 4.70652696 35.0883729 5.57050293 33.2747374 5.95845909 33.5698697 7.33891656 35.7797917 6.86646689 35.9642494 7.73163291 32.7225544 8.42424175"></polygon>
                        <path d="M38.789308,4.69664955 L38.4798951,4.18373819 C38.1704823,3.70057808 37.8670196,3.15672543 37.5587968,2.64976432 L37.5314256,2.65809467 C37.5599868,3.2519294 37.5742674,3.87075516 37.5742674,4.44316899 L37.5814077,5.04176392 L38.789308,4.69664955 Z M39.2355766,5.42257977 L37.587358,5.89383939 L37.6028286,7.30047796 L36.5734358,7.5944202 L36.7495631,2.04997935 L37.9431828,1.70843513 L41.0277912,6.32106718 L39.9638869,6.62571987 L39.2355766,5.42257977 Z" id="Fill-17" fill="#FFFFFF"></path>
                        <g id="编组" transform="translate(40.025889, 0.000000)">
                            <mask id="mask-7" fill="white">
                                <use xlink:href="#path-6"></use>
                            </mask>
                            <g id="Clip-20"></g>
                            <polygon id="Fill-19" fill="#FFFFFF" mask="url(#mask-7)" points="8.45581062e-15 1.07651882 3.07270793 -0.000476019819 3.36188997 0.828988516 1.28763361 1.55610879 1.74223254 2.8556429 3.51540637 2.23562708 3.80696851 3.07104187 2.03498473 3.69105768 2.74425426 5.71295186 1.74699274 6.06163638"></polygon>
                        </g>
                    </g>
                </g>
                <path d="M10.9657939,9.5877305 L23.4989877,14.3159903 L23.4532565,13.037969 L26.7289775,12.8678024 L26.8635771,16.8084904 L17.8241629,17.2781157 L17.7727009,15.83994 L20.8955363,15.6777326 L8.4997566,10.94125 L10.9657939,9.5877305 Z M24.7249796,5.97658372 L24.7820382,7.57116221 L22.5353431,7.68793592 L33.9489,11.9612284 L31.8283042,13.6650114 L19.0541637,8.93566128 L19.0949127,10.2167966 L16.2450937,10.3647301 L16.1169027,6.42401575 L24.7249796,5.97658372 Z M23.7956928,2.28137634 L36.9881382,7.29235467 L36.9419544,5.85828106 L40.0045067,5.69924156 L40.1383633,9.79694056 L31.310974,10.2549164 L31.2503033,8.34745016 L33.4711074,8.23202215 L21.3748991,3.81475463 L23.7956928,2.28137634 Z" id="形状结合" stroke="#BB885F" stroke-width="0.5" fill="#FFFFFF" fill-rule="nonzero"></path>
            </g>
        </g>
    </g>
</svg>