<?xml version="1.0" encoding="UTF-8"?>
<svg width="51px" height="44px" viewBox="0 0 51 44" version="1.1" xmlns="http://www.w3.org/2000/svg" xmlns:xlink="http://www.w3.org/1999/xlink">
    <title>8-9BRAS</title>
    <defs>
        <linearGradient x1="1.05236033%" y1="47.24403%" x2="100%" y2="50%" id="linearGradient-1">
            <stop stop-color="#C3AD46" offset="0%"></stop>
            <stop stop-color="#BCA742" offset="21.0085569%"></stop>
            <stop stop-color="#CEB743" offset="49.5644736%"></stop>
            <stop stop-color="#BCA741" offset="78.0396361%"></stop>
            <stop stop-color="#C3AE47" offset="100%"></stop>
        </linearGradient>
    </defs>
    <g id="8-9BRAS" stroke="none" stroke-width="1" fill="none" fill-rule="evenodd">
        <g id="编组-3" transform="translate(0.000000, 1.000000)">
            <path d="M24.9721869,10.4808807 C26.0267702,10.4808807 27.0661024,10.5083057 28.0863609,10.5615503 L28.9561081,10.6134742 L29.815978,10.6778197 C30.1008957,10.7013136 30.3840781,10.7268402 30.665436,10.7543622 L31.5039469,10.842877 C31.6427568,10.8586147 31.7810882,10.8748419 31.9189301,10.8915538 L32.7400176,10.9976058 L33.5488208,11.1150684 L34.3448047,11.2437169 L35.1274345,11.3833267 L35.8961751,11.5336731 C37.4194107,11.8449527 38.8561019,12.2193039 40.1869914,12.6486384 L40.8435301,12.8678502 C40.951454,12.9051367 41.0586209,12.9427956 41.1650197,12.9808223 L41.794105,13.2133587 C46.5450536,15.0293997 49.6233947,17.6038693 49.9443738,20.4811708 L49.9443738,32.4815902 C49.6785939,34.8582912 47.5315585,37.0283226 44.1145636,38.7348932 L43.5645735,39.0004628 C42.4438426,39.5237493 41.1996765,39.9994703 39.8513294,40.4195391 L39.1685633,40.6248984 C39.0533517,40.6583395 38.9374389,40.6913848 38.820836,40.7240295 L38.1130274,40.9150546 C37.755072,41.0081266 37.3911066,41.0975097 37.0214321,41.1830776 L36.2745603,41.3490891 C36.1488427,41.3758974 36.0225131,41.4022724 35.8955825,41.4282094 L35.1268773,41.5785389 L34.344285,41.7181329 L33.5483405,41.8467667 C33.2808597,41.8877931 33.0112427,41.9269553 32.7395786,41.9642159 L31.9185341,42.0702556 C31.7806996,42.0869657 31.6423755,42.103191 31.5035731,42.1189268 L30.6651076,42.2074313 C30.3837652,42.2349502 30.1005985,42.2604739 29.8156967,42.2839649 L28.9558751,42.3483029 L28.0861778,42.4002207 C27.065978,42.453459 26.0267071,42.4808807 24.9721869,42.4808807 C23.9176667,42.4808807 22.8783958,42.453459 21.858196,42.4002207 L20.9884987,42.3483029 L20.1286771,42.2839649 C19.8437753,42.2604739 19.5606086,42.2349502 19.2792662,42.2074313 L18.4408007,42.1189268 C18.3019983,42.103191 18.1636742,42.0869657 18.0258396,42.0702556 L17.2047952,41.9642159 C17.0689631,41.9455856 16.9336428,41.9264799 16.7988455,41.9069034 L15.9964254,41.7838339 C15.8637643,41.7623933 15.7316484,41.7404914 15.6000888,41.7181329 L14.8174965,41.5785389 L14.0487913,41.4282094 C13.9218607,41.4022724 13.795531,41.3758974 13.6698134,41.3490891 L12.9229416,41.1830776 C12.5532672,41.0975097 12.1893018,41.0081266 11.8313464,40.9150546 L11.1235378,40.7240295 C11.0069349,40.6913848 10.8910221,40.6583395 10.7758105,40.6248984 L10.0930443,40.4195391 C8.74469726,39.9994703 7.50053119,39.5237493 6.37980027,39.0004628 L5.82981022,38.7348932 C2.41281528,37.0283226 0.265779899,34.8582912 0,32.4815902 L0,20.4811708 C0.320979104,17.6038693 3.39932022,15.0293997 8.15026881,13.2133587 L8.77935409,12.9808223 C8.88575283,12.9427956 8.99291974,12.9051367 9.10084367,12.8678502 L9.75738241,12.6486384 C11.0882718,12.2193039 12.5249631,11.8449527 14.0481987,11.5336731 L14.8169393,11.3833267 L15.599569,11.2437169 L16.395553,11.1150684 L17.2043562,10.9976058 L18.0254436,10.8915538 C18.1632855,10.8748419 18.301617,10.8586147 18.4404268,10.842877 L19.2789378,10.7543622 C19.5602957,10.7268402 19.843478,10.7013136 20.1283957,10.6778197 L20.9882657,10.6134742 L21.8580128,10.5615503 C22.7325202,10.5159121 23.6210408,10.4892434 24.5211675,10.4825551 L24.9721869,10.4808807 Z" id="路径" stroke="#FEEA91" fill="url(#linearGradient-1)"></path>
            <path d="M24.9721869,0.480880737 C26.0267702,0.480880737 27.0661024,0.50830575 28.0863609,0.561550307 L28.9561081,0.613474209 L29.815978,0.677819746 C30.1008957,0.701313567 30.3840781,0.726840216 30.665436,0.754362247 L31.5039469,0.842877042 C31.6427568,0.858614717 31.7810882,0.874841876 31.9189301,0.891553839 L32.7400176,0.997605812 L33.5488208,1.1150684 L34.3448047,1.24371693 L35.1274345,1.38332673 L35.8961751,1.53367312 C37.4194107,1.84495273 38.8561019,2.21930389 40.1869914,2.64863843 L40.8435301,2.8678502 C40.951454,2.90513667 41.0586209,2.94279561 41.1650197,2.98082234 L41.794105,3.21335869 C46.5450536,5.02939966 49.6233947,7.60386933 49.9443738,10.4811708 L49.9443738,22.4815902 C49.6785939,24.8582912 47.5315585,27.0283226 44.1145636,28.7348932 L43.5645735,29.0004628 C42.4438426,29.5237493 41.1996765,29.9994703 39.8513294,30.4195391 L39.1685633,30.6248984 C39.0533517,30.6583395 38.9374389,30.6913848 38.820836,30.7240295 L38.1130274,30.9150546 C37.755072,31.0081266 37.3911066,31.0975097 37.0214321,31.1830776 L36.2745603,31.3490891 C36.1488427,31.3758974 36.0225131,31.4022724 35.8955825,31.4282094 L35.1268773,31.5785389 L34.344285,31.7181329 L33.5483405,31.8467667 C33.2808597,31.8877931 33.0112427,31.9269553 32.7395786,31.9642159 L31.9185341,32.0702556 C31.7806996,32.0869657 31.6423755,32.103191 31.5035731,32.1189268 L30.6651076,32.2074313 C30.3837652,32.2349502 30.1005985,32.2604739 29.8156967,32.2839649 L28.9558751,32.3483029 L28.0861778,32.4002207 C27.065978,32.453459 26.0267071,32.4808807 24.9721869,32.4808807 C23.9176667,32.4808807 22.8783958,32.453459 21.858196,32.4002207 L20.9884987,32.3483029 L20.1286771,32.2839649 C19.8437753,32.2604739 19.5606086,32.2349502 19.2792662,32.2074313 L18.4408007,32.1189268 C18.3019983,32.103191 18.1636742,32.0869657 18.0258396,32.0702556 L17.2047952,31.9642159 C17.0689631,31.9455856 16.9336428,31.9264799 16.7988455,31.9069034 L15.9964254,31.7838339 C15.8637643,31.7623933 15.7316484,31.7404914 15.6000888,31.7181329 L14.8174965,31.5785389 L14.0487913,31.4282094 C13.9218607,31.4022724 13.795531,31.3758974 13.6698134,31.3490891 L12.9229416,31.1830776 C12.5532672,31.0975097 12.1893018,31.0081266 11.8313464,30.9150546 L11.1235378,30.7240295 C11.0069349,30.6913848 10.8910221,30.6583395 10.7758105,30.6248984 L10.0930443,30.4195391 C8.74469726,29.9994703 7.50053119,29.5237493 6.37980027,29.0004628 L5.82981022,28.7348932 C2.41281528,27.0283226 0.265779899,24.8582912 0,22.4815902 L0,10.4811708 C0.320979104,7.60386933 3.39932022,5.02939966 8.15026881,3.21335869 L8.77935409,2.98082234 C8.88575283,2.94279561 8.99291974,2.90513667 9.10084367,2.8678502 L9.75738241,2.64863843 C11.0882718,2.21930389 12.5249631,1.84495273 14.0481987,1.53367312 L14.8169393,1.38332673 L15.599569,1.24371693 L16.395553,1.1150684 L17.2043562,0.997605812 L18.0254436,0.891553839 C18.1632855,0.874841876 18.301617,0.858614717 18.4404268,0.842877042 L19.2789378,0.754362247 C19.5602957,0.726840216 19.843478,0.701313567 20.1283957,0.677819746 L20.9882657,0.613474209 L21.8580128,0.561550307 C22.7325202,0.515912115 23.6210408,0.489243385 24.5211675,0.482555139 L24.9721869,0.480880737 Z" id="路径备份" stroke="#FEEA91" fill="url(#linearGradient-1)"></path>
            <path d="M25,0.4 C31.8424187,0.4 38.038307,1.56069442 42.5227765,3.44417164 C44.7709463,4.38840294 46.5856584,5.51185081 47.8220028,6.76546664 C48.9566173,7.91593131 49.6,9.17314658 49.6,10.5 C49.6,11.8268534 48.9566173,13.0840687 47.8220028,14.2345334 C46.5856584,15.4881492 44.7709463,16.6115971 42.5227765,17.5558284 C38.038307,19.4393056 31.8424187,20.6 25,20.6 C18.1575813,20.6 11.961693,19.4393056 7.47722346,17.5558284 C5.22905369,16.6115971 3.41434163,15.4881492 2.17799716,14.2345334 C1.04338271,13.0840687 0.4,11.8268534 0.4,10.5 C0.4,9.17314658 1.04338271,7.91593131 2.17799716,6.76546664 C3.41434163,5.51185081 5.22905369,4.38840294 7.47722346,3.44417164 C11.961693,1.56069442 18.1575813,0.4 25,0.4 Z" id="椭圆形备份-2" stroke="#FFEB93" stroke-width="0.8" fill="#E6DBAA"></path>
        </g>
        <g id="编组" transform="translate(13.000000, 4.000000)" fill="#FFFFFF" stroke="#D8BE3C" stroke-width="0.5">
            <path d="M14.0997258,9.32154324 C14.638562,9.19627349 15.1470462,9.01094794 15.5973262,8.76740881 C17.2563275,7.81646402 17.3095327,6.26459287 15.6266069,5.32359598 C13.9358253,4.3781778 11.1984374,4.37670404 9.43909615,5.36228223 C9.01595441,5.59918943 8.70029424,5.87515132 8.48104611,6.17064056 C7.95363652,7.02210643 8.31214649,8.01100058 9.57157344,8.71509027 C10.7845798,9.39375757 12.5674884,9.60229486 14.0997258,9.32154324 L14.0997258,9.32154324 Z M24.9400103,13.9579978 L16.9970862,13.8850466 L18.6867965,12.9381546 L15.1052677,10.9353124 C14.7588985,11.008632 14.4007456,11.0627928 14.035094,11.1036897 C12.618194,11.2809095 11.170585,11.2208537 9.83438553,10.9736302 L6.25428498,12.9786831 L7.94899446,13.9266804 L0.00571330629,14 L0.134976861,9.55660824 L1.89110438,10.538502 L5.47084785,8.53344913 C5.41692853,8.44723406 5.3669371,8.35880836 5.32051648,8.27259329 C4.75811289,7.36328228 4.74990002,6.37217748 5.33872765,5.4731828 L1.82254471,3.50681615 L0.132834371,4.45333965 L0,0.00994789199 L7.94328115,0.0784778146 L6.24964292,1.02721196 L9.76546878,2.99357861 C10.6703137,2.84914996 11.6097955,2.77546187 12.556776,2.79683141 C13.4655488,2.77472499 14.3743215,2.83920206 15.2331029,2.99210485 L18.7475004,1.02352755 L17.0567188,0.0777409337 L25,0 L24.8707364,4.44781304 L23.176384,3.50018422 L19.6619865,5.46876151 C19.9201565,5.97094584 20.0472776,6.49007843 20.0129978,7.01400074 C20.0283523,7.51802726 19.8823059,8.01800095 19.5977118,8.4921838 L23.1792407,10.4953945 L24.8728789,9.54666035 L24.9400103,13.9579978 Z" id="Fill-1"></path>
        </g>
        <g id="编组-2" transform="translate(15.604500, 34.591000)" fill-rule="nonzero">
            <g id="BRAS" transform="translate(0.000000, 1.000000)" fill="#403C3C" fill-opacity="0.8">
                <path d="M0,6.409 L2.244,6.409 C3.6295,6.409 4.6835,5.8225 4.6835,4.556 C4.6835,3.706 4.182,3.23 3.502,3.0685 L3.502,3.026 C4.0375,2.839 4.3605,2.244 4.3605,1.666 C4.3605,0.493 3.3745,0.119 2.0825,0.119 L0,0.119 L0,6.409 Z M1.258,2.6775 L1.258,1.0795 L2.006,1.0795 C2.7625,1.0795 3.1365,1.3005 3.1365,1.853 C3.1365,2.3545 2.788,2.6775 1.989,2.6775 L1.258,2.6775 Z M1.258,5.44 L1.258,3.6125 L2.1335,3.6125 C3.0005,3.6125 3.4595,3.8675 3.4595,4.4795 C3.4595,5.134 2.992,5.44 2.1335,5.44 L1.258,5.44 Z" id="形状"></path>
                <path d="M7.0465,1.1135 L7.8625,1.1135 C8.67,1.1135 9.112,1.343 9.112,2.023 C9.112,2.6945 8.67,3.0345 7.8625,3.0345 L7.0465,3.0345 L7.0465,1.1135 Z M10.6165,6.409 L9.146,3.8335 C9.8685,3.553 10.3445,2.9665 10.3445,2.023 C10.3445,0.578 9.299,0.119 7.9815,0.119 L5.7885,0.119 L5.7885,6.409 L7.0465,6.409 L7.0465,4.029 L7.922,4.029 L9.214,6.409 L10.6165,6.409 Z" id="形状"></path>
                <path d="M12.767,3.8165 L12.954,3.128 C13.141,2.4735 13.328,1.7595 13.4895,1.071 L13.5235,1.071 C13.7105,1.751 13.8805,2.4735 14.076,3.128 L14.263,3.8165 L12.767,3.8165 Z M14.977,6.409 L16.2945,6.409 L14.2715,0.119 L12.7925,0.119 L10.778,6.409 L12.053,6.409 L12.495,4.794 L14.535,4.794 L14.977,6.409 Z" id="形状"></path>
                <path d="M18.9125,6.528 C20.366,6.528 21.2245,5.6525 21.2245,4.624 C21.2245,3.7145 20.723,3.23 19.958,2.9155 L19.1335,2.567 C18.598,2.3545 18.1475,2.193 18.1475,1.7425 C18.1475,1.326 18.5045,1.0795 19.057,1.0795 C19.5755,1.0795 19.992,1.2665 20.3915,1.598 L21.029,0.8075 C20.519,0.289 19.788,0 19.057,0 C17.782,0 16.881,0.7905 16.881,1.819 C16.881,2.737 17.5185,3.247 18.156,3.5105 L18.9975,3.8675 C19.5585,4.1055 19.941,4.25 19.941,4.7175 C19.941,5.1595 19.5925,5.44 18.938,5.44 C18.3855,5.44 17.7905,5.1595 17.34,4.743 L16.6175,5.61 C17.2295,6.1965 18.071,6.528 18.9125,6.528 Z" id="路径"></path>
            </g>
            <g id="BRAS备份" fill="#FFFFFF">
                <path d="M0,6.409 L2.244,6.409 C3.6295,6.409 4.6835,5.8225 4.6835,4.556 C4.6835,3.706 4.182,3.23 3.502,3.0685 L3.502,3.026 C4.0375,2.839 4.3605,2.244 4.3605,1.666 C4.3605,0.493 3.3745,0.119 2.0825,0.119 L0,0.119 L0,6.409 Z M1.258,2.6775 L1.258,1.0795 L2.006,1.0795 C2.7625,1.0795 3.1365,1.3005 3.1365,1.853 C3.1365,2.3545 2.788,2.6775 1.989,2.6775 L1.258,2.6775 Z M1.258,5.44 L1.258,3.6125 L2.1335,3.6125 C3.0005,3.6125 3.4595,3.8675 3.4595,4.4795 C3.4595,5.134 2.992,5.44 2.1335,5.44 L1.258,5.44 Z" id="形状"></path>
                <path d="M7.0465,1.1135 L7.8625,1.1135 C8.67,1.1135 9.112,1.343 9.112,2.023 C9.112,2.6945 8.67,3.0345 7.8625,3.0345 L7.0465,3.0345 L7.0465,1.1135 Z M10.6165,6.409 L9.146,3.8335 C9.8685,3.553 10.3445,2.9665 10.3445,2.023 C10.3445,0.578 9.299,0.119 7.9815,0.119 L5.7885,0.119 L5.7885,6.409 L7.0465,6.409 L7.0465,4.029 L7.922,4.029 L9.214,6.409 L10.6165,6.409 Z" id="形状"></path>
                <path d="M12.767,3.8165 L12.954,3.128 C13.141,2.4735 13.328,1.7595 13.4895,1.071 L13.5235,1.071 C13.7105,1.751 13.8805,2.4735 14.076,3.128 L14.263,3.8165 L12.767,3.8165 Z M14.977,6.409 L16.2945,6.409 L14.2715,0.119 L12.7925,0.119 L10.778,6.409 L12.053,6.409 L12.495,4.794 L14.535,4.794 L14.977,6.409 Z" id="形状"></path>
                <path d="M18.9125,6.528 C20.366,6.528 21.2245,5.6525 21.2245,4.624 C21.2245,3.7145 20.723,3.23 19.958,2.9155 L19.1335,2.567 C18.598,2.3545 18.1475,2.193 18.1475,1.7425 C18.1475,1.326 18.5045,1.0795 19.057,1.0795 C19.5755,1.0795 19.992,1.2665 20.3915,1.598 L21.029,0.8075 C20.519,0.289 19.788,0 19.057,0 C17.782,0 16.881,0.7905 16.881,1.819 C16.881,2.737 17.5185,3.247 18.156,3.5105 L18.9975,3.8675 C19.5585,4.1055 19.941,4.25 19.941,4.7175 C19.941,5.1595 19.5925,5.44 18.938,5.44 C18.3855,5.44 17.7905,5.1595 17.34,4.743 L16.6175,5.61 C17.2295,6.1965 18.071,6.528 18.9125,6.528 Z" id="路径"></path>
            </g>
        </g>
    </g>
</svg>