<?xml version="1.0" encoding="UTF-8"?>
<svg width="51px" height="44px" viewBox="0 0 51 44" version="1.1" xmlns="http://www.w3.org/2000/svg" xmlns:xlink="http://www.w3.org/1999/xlink">
    <title>5-6CE</title>
    <defs>
        <linearGradient x1="1.05236033%" y1="47.24403%" x2="100%" y2="50%" id="linearGradient-1">
            <stop stop-color="#FFC558" offset="0%"></stop>
            <stop stop-color="#F0BF54" offset="22.038984%"></stop>
            <stop stop-color="#FFCF73" offset="51.4904529%"></stop>
            <stop stop-color="#FFC352" offset="80.531151%"></stop>
            <stop stop-color="#C9AD55" offset="100%"></stop>
        </linearGradient>
    </defs>
    <g id="5-6CE" stroke="none" stroke-width="1" fill="none" fill-rule="evenodd">
        <g id="编组-3" transform="translate(0.469674, 0.519119)">
            <path d="M24.9721869,10.4808807 C26.0267702,10.4808807 27.0661024,10.5083057 28.0863609,10.5615503 L28.9561081,10.6134742 L29.815978,10.6778197 C30.1008957,10.7013136 30.3840781,10.7268402 30.665436,10.7543622 L31.5039469,10.842877 C31.6427568,10.8586147 31.7810882,10.8748419 31.9189301,10.8915538 L32.7400176,10.9976058 L33.5488208,11.1150684 L34.3448047,11.2437169 L35.1274345,11.3833267 L35.8961751,11.5336731 C37.4194107,11.8449527 38.8561019,12.2193039 40.1869914,12.6486384 L40.8435301,12.8678502 C40.951454,12.9051367 41.0586209,12.9427956 41.1650197,12.9808223 L41.794105,13.2133587 C46.5450536,15.0293997 49.6233947,17.6038693 49.9443738,20.4811708 L49.9443738,32.4815902 C49.6785939,34.8582912 47.5315585,37.0283226 44.1145636,38.7348932 L43.5645735,39.0004628 C42.4438426,39.5237493 41.1996765,39.9994703 39.8513294,40.4195391 L39.1685633,40.6248984 C39.0533517,40.6583395 38.9374389,40.6913848 38.820836,40.7240295 L38.1130274,40.9150546 C37.755072,41.0081266 37.3911066,41.0975097 37.0214321,41.1830776 L36.2745603,41.3490891 C36.1488427,41.3758974 36.0225131,41.4022724 35.8955825,41.4282094 L35.1268773,41.5785389 L34.344285,41.7181329 L33.5483405,41.8467667 C33.2808597,41.8877931 33.0112427,41.9269553 32.7395786,41.9642159 L31.9185341,42.0702556 C31.7806996,42.0869657 31.6423755,42.103191 31.5035731,42.1189268 L30.6651076,42.2074313 C30.3837652,42.2349502 30.1005985,42.2604739 29.8156967,42.2839649 L28.9558751,42.3483029 L28.0861778,42.4002207 C27.065978,42.453459 26.0267071,42.4808807 24.9721869,42.4808807 C23.9176667,42.4808807 22.8783958,42.453459 21.858196,42.4002207 L20.9884987,42.3483029 L20.1286771,42.2839649 C19.8437753,42.2604739 19.5606086,42.2349502 19.2792662,42.2074313 L18.4408007,42.1189268 C18.3019983,42.103191 18.1636742,42.0869657 18.0258396,42.0702556 L17.2047952,41.9642159 C17.0689631,41.9455856 16.9336428,41.9264799 16.7988455,41.9069034 L15.9964254,41.7838339 C15.8637643,41.7623933 15.7316484,41.7404914 15.6000888,41.7181329 L14.8174965,41.5785389 L14.0487913,41.4282094 C13.9218607,41.4022724 13.795531,41.3758974 13.6698134,41.3490891 L12.9229416,41.1830776 C12.5532672,41.0975097 12.1893018,41.0081266 11.8313464,40.9150546 L11.1235378,40.7240295 C11.0069349,40.6913848 10.8910221,40.6583395 10.7758105,40.6248984 L10.0930443,40.4195391 C8.74469726,39.9994703 7.50053119,39.5237493 6.37980027,39.0004628 L5.82981022,38.7348932 C2.41281528,37.0283226 0.265779899,34.8582912 0,32.4815902 L0,20.4811708 C0.320979104,17.6038693 3.39932022,15.0293997 8.15026881,13.2133587 L8.77935409,12.9808223 C8.88575283,12.9427956 8.99291974,12.9051367 9.10084367,12.8678502 L9.75738241,12.6486384 C11.0882718,12.2193039 12.5249631,11.8449527 14.0481987,11.5336731 L14.8169393,11.3833267 L15.599569,11.2437169 L16.395553,11.1150684 L17.2043562,10.9976058 L18.0254436,10.8915538 C18.1632855,10.8748419 18.301617,10.8586147 18.4404268,10.842877 L19.2789378,10.7543622 C19.5602957,10.7268402 19.843478,10.7013136 20.1283957,10.6778197 L20.9882657,10.6134742 L21.8580128,10.5615503 C22.7325202,10.5159121 23.6210408,10.4892434 24.5211675,10.4825551 L24.9721869,10.4808807 Z" id="路径" stroke="#FFE1A7" fill="url(#linearGradient-1)"></path>
            <path d="M24.9721869,0.480880737 C26.0267702,0.480880737 27.0661024,0.50830575 28.0863609,0.561550307 L28.9561081,0.613474209 L29.815978,0.677819746 C30.1008957,0.701313567 30.3840781,0.726840216 30.665436,0.754362247 L31.5039469,0.842877042 C31.6427568,0.858614717 31.7810882,0.874841876 31.9189301,0.891553839 L32.7400176,0.997605812 L33.5488208,1.1150684 L34.3448047,1.24371693 L35.1274345,1.38332673 L35.8961751,1.53367312 C37.4194107,1.84495273 38.8561019,2.21930389 40.1869914,2.64863843 L40.8435301,2.8678502 C40.951454,2.90513667 41.0586209,2.94279561 41.1650197,2.98082234 L41.794105,3.21335869 C46.5450536,5.02939966 49.6233947,7.60386933 49.9443738,10.4811708 L49.9443738,22.4815902 C49.6785939,24.8582912 47.5315585,27.0283226 44.1145636,28.7348932 L43.5645735,29.0004628 C42.4438426,29.5237493 41.1996765,29.9994703 39.8513294,30.4195391 L39.1685633,30.6248984 C39.0533517,30.6583395 38.9374389,30.6913848 38.820836,30.7240295 L38.1130274,30.9150546 C37.755072,31.0081266 37.3911066,31.0975097 37.0214321,31.1830776 L36.2745603,31.3490891 C36.1488427,31.3758974 36.0225131,31.4022724 35.8955825,31.4282094 L35.1268773,31.5785389 L34.344285,31.7181329 L33.5483405,31.8467667 C33.2808597,31.8877931 33.0112427,31.9269553 32.7395786,31.9642159 L31.9185341,32.0702556 C31.7806996,32.0869657 31.6423755,32.103191 31.5035731,32.1189268 L30.6651076,32.2074313 C30.3837652,32.2349502 30.1005985,32.2604739 29.8156967,32.2839649 L28.9558751,32.3483029 L28.0861778,32.4002207 C27.065978,32.453459 26.0267071,32.4808807 24.9721869,32.4808807 C23.9176667,32.4808807 22.8783958,32.453459 21.858196,32.4002207 L20.9884987,32.3483029 L20.1286771,32.2839649 C19.8437753,32.2604739 19.5606086,32.2349502 19.2792662,32.2074313 L18.4408007,32.1189268 C18.3019983,32.103191 18.1636742,32.0869657 18.0258396,32.0702556 L17.2047952,31.9642159 C17.0689631,31.9455856 16.9336428,31.9264799 16.7988455,31.9069034 L15.9964254,31.7838339 C15.8637643,31.7623933 15.7316484,31.7404914 15.6000888,31.7181329 L14.8174965,31.5785389 L14.0487913,31.4282094 C13.9218607,31.4022724 13.795531,31.3758974 13.6698134,31.3490891 L12.9229416,31.1830776 C12.5532672,31.0975097 12.1893018,31.0081266 11.8313464,30.9150546 L11.1235378,30.7240295 C11.0069349,30.6913848 10.8910221,30.6583395 10.7758105,30.6248984 L10.0930443,30.4195391 C8.74469726,29.9994703 7.50053119,29.5237493 6.37980027,29.0004628 L5.82981022,28.7348932 C2.41281528,27.0283226 0.265779899,24.8582912 0,22.4815902 L0,10.4811708 C0.320979104,7.60386933 3.39932022,5.02939966 8.15026881,3.21335869 L8.77935409,2.98082234 C8.88575283,2.94279561 8.99291974,2.90513667 9.10084367,2.8678502 L9.75738241,2.64863843 C11.0882718,2.21930389 12.5249631,1.84495273 14.0481987,1.53367312 L14.8169393,1.38332673 L15.599569,1.24371693 L16.395553,1.1150684 L17.2043562,0.997605812 L18.0254436,0.891553839 C18.1632855,0.874841876 18.301617,0.858614717 18.4404268,0.842877042 L19.2789378,0.754362247 C19.5602957,0.726840216 19.843478,0.701313567 20.1283957,0.677819746 L20.9882657,0.613474209 L21.8580128,0.561550307 C22.7325202,0.515912115 23.6210408,0.489243385 24.5211675,0.482555139 L24.9721869,0.480880737 Z" id="路径备份" stroke="#FFE1A7" fill="url(#linearGradient-1)"></path>
            <path d="M25,0.4 C31.8424187,0.4 38.038307,1.56069442 42.5227765,3.44417164 C44.7709463,4.38840294 46.5856584,5.51185081 47.8220028,6.76546664 C48.9566173,7.91593131 49.6,9.17314658 49.6,10.5 C49.6,11.8268534 48.9566173,13.0840687 47.8220028,14.2345334 C46.5856584,15.4881492 44.7709463,16.6115971 42.5227765,17.5558284 C38.038307,19.4393056 31.8424187,20.6 25,20.6 C18.1575813,20.6 11.961693,19.4393056 7.47722346,17.5558284 C5.22905369,16.6115971 3.41434163,15.4881492 2.17799716,14.2345334 C1.04338271,13.0840687 0.4,11.8268534 0.4,10.5 C0.4,9.17314658 1.04338271,7.91593131 2.17799716,6.76546664 C3.41434163,5.51185081 5.22905369,4.38840294 7.47722346,3.44417164 C11.961693,1.56069442 18.1575813,0.4 25,0.4 Z" id="椭圆形备份-2" stroke="#FFEDC6" stroke-width="0.8" fill="#FADD9E"></path>
        </g>
        <g id="CE" transform="translate(21.445557, 34.842285)" fill="#FFFFFF" fill-rule="nonzero">
            <path d="M2.34130859,0 C2.97705078,0 3.4703776,0.167480469 3.82128906,0.502441406 C4.17220052,0.837402344 4.36702474,1.2179362 4.40576172,1.64404297 L3.74267578,1.64404297 C3.66748047,1.32047526 3.51765951,1.0641276 3.29321289,0.875 C3.06876628,0.685872396 2.75374349,0.591308594 2.34814453,0.591308594 C1.85367839,0.591308594 1.4543457,0.765055339 1.15014648,1.11254883 C0.845947266,1.46004232 0.693847656,1.99267578 0.693847656,2.71044922 C0.693847656,3.29833984 0.831136068,3.77514648 1.10571289,4.14086914 C1.38028971,4.5065918 1.7898763,4.68945312 2.33447266,4.68945312 C2.83577474,4.68945312 3.21744792,4.49690755 3.47949219,4.11181641 C3.61848958,3.90901693 3.72216797,3.64241536 3.79052734,3.31201172 L4.45361328,3.31201172 C4.39436849,3.84065755 4.19840495,4.28385417 3.86572266,4.64160156 C3.46695964,5.07226562 2.92919922,5.28759766 2.25244141,5.28759766 C1.66910807,5.28759766 1.17919922,5.1110026 0.782714844,4.7578125 C0.260904948,4.2906901 0,3.5694987 0,2.59423828 C0,1.85367839 0.195963542,1.24641927 0.587890625,0.772460938 C1.01171875,0.257486979 1.59619141,0 2.34130859,0 Z" id="路径"></path>
            <polygon id="路径" points="5.34570312 0.13671875 9.00634766 0.13671875 9.00634766 0.751953125 6.00878906 0.751953125 6.00878906 2.27636719 8.78076172 2.27636719 8.78076172 2.85742188 6.00878906 2.85742188 6.00878906 4.55957031 9.05761719 4.55957031 9.05761719 5.15771484 5.34570312 5.15771484"></polygon>
        </g>
        <g id="编组" transform="translate(9.999756, 3.000000)" fill="#FFFFFF" stroke="#ECC165" stroke-width="0.5">
            <path d="M20.768909,13.3008963 L21.6613899,16.516596 L21.6149744,16.5923266 L21.4700277,16.6208274 L15.5206982,16.1501577 C15.4693968,16.1469005 15.4246099,16.1338716 15.3887804,16.1143282 C15.3667941,16.1021136 15.348065,16.0874561 15.3342218,16.0711699 C15.3024638,16.0320832 15.3236358,15.9872963 15.3806373,15.9563526 L16.9660937,15.0956297 L14.8358657,13.9409419 C12.8831566,12.8261551 12.0940928,11.3547017 12.5061323,10.0176091 C9.96223616,10.248058 7.26769313,9.77983131 5.28811195,8.76601866 L2.84111836,7.43951198 L1.25566194,8.30023485 L1.12130123,8.33443576 C1.05534233,8.33443576 0.993454971,8.31896392 0.949482374,8.29534901 C0.91691008,8.27824855 0.894109474,8.25544795 0.887595015,8.23020442 L0,5.00636161 L0.0781735059,4.91923072 L0.212534219,4.89072996 L6.1463919,5.37524284 L6.25550909,5.40048637 C6.33856844,5.44527327 6.34345428,5.51611801 6.26609508,5.55846199 L4.67493851,6.42162779 L6.80028071,7.57305838 C6.84099607,7.5966733 6.88171144,7.6194739 6.92324112,7.6414602 C8.30186347,8.38899435 10.2488723,8.72123175 12.0501202,8.50788323 C13.8847547,8.29942054 15.3252644,7.51768548 15.7079888,6.5226019 C16.0858275,5.58044829 15.5312841,4.57152148 14.2666648,3.82968748 L11.8766727,2.53412448 L10.2912163,3.39484736 L10.1617415,3.42579103 C10.0965969,3.42579103 10.0347095,3.4111335 9.99073692,3.38751859 C9.95816462,3.36960383 9.93536402,3.34761753 9.92884956,3.322374 L9.0257827,0.106674263 L9.12431389,0.0195433765 L9.27414645,0 L15.1770604,0.473112572 L15.2861776,0.4983561 C15.369237,0.543143005 15.3741228,0.613173437 15.2959493,0.655517419 L13.7113072,1.51624029 L15.8358351,2.6684852 C15.891208,2.69698595 15.9465809,2.72548671 16.0003252,2.75480178 C17.9970068,3.83701625 18.9245029,5.3483707 18.4912914,6.77177995 C20.9529425,6.54295958 23.6686575,6.96965664 25.7264122,8.0290705 L27.8566402,9.18375833 L29.4420967,8.32303546 L29.5821575,8.29209178 L29.7319901,8.3279213 L29.7995776,8.39876604 L30.6969443,11.6112085 L30.6456429,11.6901964 L30.5006962,11.7178828 L24.5513667,11.2480275 C24.5025083,11.2431416 24.45935,11.2301127 24.4267777,11.2121979 C24.3811765,11.1877687 24.3543043,11.1535678 24.3543043,11.1185526 L24.4161917,11.0509651 L26.0016481,10.1902422 L23.8714201,9.03555439 C21.6996623,7.93135362 18.450576,7.89063825 16.5125245,8.94190905 C14.574473,9.99399415 14.6534608,11.7569696 16.6900435,12.9336437 L18.8210859,14.0883315 L20.4114281,13.2251657 C20.4887873,13.1828217 20.6182622,13.186079 20.7013215,13.2308659 L20.768909,13.3008963 Z" id="Fill-1"></path>
        </g>
    </g>
</svg>