<?xml version="1.0" encoding="UTF-8"?>
<svg width="47px" height="34px" viewBox="0 0 47 34" version="1.1" xmlns="http://www.w3.org/2000/svg" xmlns:xlink="http://www.w3.org/1999/xlink">
    <title>yun-CN2</title>
    <defs>
        <linearGradient x1="100%" y1="50%" x2="0%" y2="50%" id="linearGradient-1">
            <stop stop-color="#D1E0FF" offset="0%"></stop>
            <stop stop-color="#F9FCFF" offset="49.6694712%"></stop>
            <stop stop-color="#D1E0FF" offset="100%"></stop>
        </linearGradient>
        <linearGradient x1="100%" y1="50%" x2="0.961538462%" y2="50%" id="linearGradient-2">
            <stop stop-color="#3267FF" offset="0%"></stop>
            <stop stop-color="#5095FF" offset="49.6694712%"></stop>
            <stop stop-color="#3267FF" offset="100%"></stop>
        </linearGradient>
        <linearGradient x1="100%" y1="50%" x2="0%" y2="50%" id="linearGradient-3">
            <stop stop-color="#AEC9FF" offset="0%"></stop>
            <stop stop-color="#D9ECFF" offset="49.6694712%"></stop>
            <stop stop-color="#AEC9FF" offset="100%"></stop>
        </linearGradient>
        <linearGradient x1="100%" y1="50%" x2="0%" y2="50%" id="linearGradient-4">
            <stop stop-color="#D3E2FF" offset="0%"></stop>
            <stop stop-color="#FFFFFF" offset="100%"></stop>
        </linearGradient>
    </defs>
    <g id="页面-1" stroke="none" stroke-width="1" fill="none" fill-rule="evenodd">
        <g id="图标" transform="translate(-108.000000, -838.000000)">
            <g id="yun-CN2" transform="translate(108.000000, 838.000000)">
                <path d="M10.5970301,32.6590074 C9.14210284,32.6126344 7.71952722,32.3626166 6.41311472,31.929691 C6.33619807,31.9038367 6.25982646,31.8777614 6.18387325,31.851057 C5.65123757,31.6641852 5.13901836,31.446013 4.65324729,31.1984183 L4.44775426,31.0902166 C4.17821235,30.9464943 3.91756222,30.7932602 3.66668931,30.6309413 L3.29782351,30.3807025 L2.99019498,30.1631083 C2.08688535,29.4984233 1.36111564,28.7274645 0.84950749,27.8730826 L0.848714299,27.8735304 C0.769751646,27.7394863 0.696349783,27.6044918 0.628487451,27.4686908 C0.601634384,27.4154403 0.575940131,27.3623688 0.55109935,27.3091738 C0.538012797,27.2802417 0.524785911,27.2512769 0.51180763,27.2222797 C0.482387194,27.157746 0.454597256,27.092804 0.428059755,27.0277046 C0.413571576,26.9907055 0.399062561,26.9540788 0.384944333,26.9174086 C0.361651455,26.8584466 0.339868377,26.7990715 0.319111964,26.7395876 C0.306916566,26.7031135 0.294608136,26.6667551 0.282679283,26.6303613 C0.263028423,26.5718013 0.244754558,26.5128 0.227477805,26.4537126 C0.216598799,26.4153722 0.205962378,26.3776732 0.195729035,26.3399438 C0.178736508,26.278061 0.162917311,26.2153611 0.1482076,26.1525885 C0.140467258,26.1193811 0.133086958,26.0867162 0.12600616,26.054034 C0.114789948,26.0018959 0.104215057,25.9492257 0.0944144654,25.8965186 C0.0312846138,25.5597738 0,25.2219055 0,24.8845371 L0.000793190933,17.6075138 L0.00768817148,17.8824181 C0.0159267632,18.0465626 0.0315611119,18.2107503 0.054659662,18.3747396 L0.0949141938,18.6205447 L0.120062179,18.7471123 L0.158809964,18.9181405 L0.174,18.9796589 L0.185964135,19.0250496 C0.199272633,19.0755095 0.213304795,19.1259199 0.228062648,19.1762734 L0.235591976,19.2013539 L0.26,19.2806589 L0.273,19.3226589 L0.322253473,19.4688983 L0.328987007,19.4873924 L0.373,19.6076589 L0.428059755,19.7479629 L0.441692954,19.7807178 L0.466,19.8386589 L0.489994203,19.8944421 L0.554,20.0346589 L0.504689119,19.9275276 C0.536594369,19.9993385 0.570023189,20.0709553 0.604978656,20.1423561 L0.556181657,20.0403945 L0.69497089,20.3185165 L0.84950749,20.5942682 C1.41981177,21.5440292 2.25266225,22.3925899 3.29967429,23.1023358 L3.29967429,23.1034553 C3.87722495,23.5141789 4.51353077,23.8737213 5.1941493,24.17866 C5.34208524,24.2454169 5.49193865,24.3090102 5.64373179,24.3700034 C7.27001004,25.0233369 9.1192385,25.3776605 11.0094902,25.3894195 L11.009,25.3896589 L34.4484362,25.3900911 L34.4482823,25.3896434 L34.5316125,25.3898923 C34.6471619,25.3893528 34.7625892,25.3877158 34.8778778,25.3849878 C34.9052858,25.3827814 34.932788,25.3818129 34.9602209,25.3807269 L34.9604192,25.379792 C35.5535002,25.3641787 36.1430095,25.3190772 36.726353,25.246245 L36.7267209,25.2468434 L36.8229225,25.2344379 C37.0213846,25.2083062 37.2191308,25.1789286 37.4160713,25.146339 L37.5441027,25.1254268 C37.6225305,25.1120381 37.7008218,25.0981523 37.7789701,25.0837738 L37.543886,25.1247179 C37.9289802,25.0581563 38.3109086,24.9792969 38.688998,24.8883931 L39.2531685,24.7430357 L39.6992195,24.6053069 C40.0277905,24.4983154 40.3487844,24.3813365 40.6617598,24.2547441 C40.8685381,24.1711096 41.0719944,24.0831969 41.2718168,23.9911884 L41.5189572,23.8744091 C41.5849352,23.8424252 41.6504988,23.8099859 41.7156431,23.7770953 C41.852738,23.7078778 41.987976,23.6366614 42.1213123,23.5634842 L42.123,23.5616589 L42.3082001,23.4589242 C42.3700722,23.4236396 42.4315189,23.3879252 42.4925354,23.3517848 L42.4924634,23.3516226 L42.7668319,23.1846364 L42.9064651,23.095835 L42.94,23.0726589 L43.2746466,22.8488871 L43.5931824,22.6234432 C44.3471582,22.0705291 44.9954186,21.4529412 45.518384,20.7866221 C45.7176376,20.5320668 45.8987665,20.2702937 46.0603331,20.0022908 C46.1912722,19.7784567 46.3084763,19.5519846 46.4119783,19.3234851 C46.4444332,19.2531992 46.4748217,19.1829726 46.5039269,19.112582 L46.6163706,18.8211302 C46.8171439,18.2657602 46.9389429,17.7012517 46.9822223,17.1360742 L46.9907461,17.0012072 C46.996034,16.8914988 46.998678,16.7795515 46.998678,16.6698431 L46.998,16.7456589 L47,16.6696589 L47,23.9459708 L46.996,24.0876589 L46.996695,24.1140597 C46.9964083,24.1261379 46.9960906,24.1382029 46.9957417,24.1502519 L46.9922628,24.2537864 L46.9919316,24.2603039 L46.9910105,24.2809172 L46.9811617,24.4262312 L46.975,24.4946589 L46.983,24.3776589 L46.9668959,24.582504 L46.9414373,24.7934467 C46.9295804,24.8787691 46.9159251,24.9640251 46.9004698,25.0491893 C46.782619,25.6988124 46.5605307,26.3426817 46.2335973,26.9684458 L46.141,27.1346589 L46.2223847,26.9889653 C46.1709304,27.0867647 46.1169141,27.1841588 46.0603331,27.2811052 C45.4178485,28.3468437 44.4660194,29.3140685 43.276233,30.124567 C43.1387465,30.2208417 42.9986161,30.3148775 42.8558418,30.4066743 L42.8561465,30.404879 L42.854,30.4046589 L42.8545198,30.4073459 C42.6520578,30.5369485 42.4442514,30.6615726 42.2313779,30.7811009 L42.2303227,30.7804461 L42.1756409,30.8110436 C42.1654536,30.8167123 42.1552551,30.8223696 42.1450454,30.8280155 C42.1136072,30.8464857 42.0812085,30.864178 42.0486965,30.8817538 L41.8535733,30.9845012 C41.8156721,31.0042502 41.7776252,31.0238454 41.7394335,31.0432858 C41.6616605,31.0831315 41.5833182,31.1219035 41.5043837,31.1600253 C41.4221987,31.1999481 41.3388636,31.2393394 41.2548887,31.2780072 C41.2152843,31.2956085 41.1762848,31.3132722 41.1371504,31.3307812 C41.0289523,31.3801736 40.9189361,31.4279221 40.8078852,31.47444 C40.7735268,31.4874598 40.739803,31.5013856 40.7059869,31.5151999 L40.7067971,31.5163271 L40.5637183,31.5740676 C40.4746013,31.6094735 40.3848448,31.6440979 40.2944587,31.6779301 L40.2930419,31.6777241 L40.2250396,31.7037127 L39.9892089,31.7883295 L40.1,31.7476589 L39.9062267,31.8160876 L39.5821906,31.9237574 L39.2531685,32.0240891 C39.0874984,32.0698479 38.9206669,32.1129372 38.7528055,32.1535797 L38.7350158,32.1575751 C38.4843978,32.2181745 38.2320782,32.273484 37.9782537,32.3234389 L37.9771887,32.3227645 L37.8971523,32.3392082 L37.6844131,32.3787548 C37.6133915,32.3915192 37.542259,32.4038662 37.4710198,32.4157944 L37.613,32.3896589 L37.2949412,32.4440035 C37.1670182,32.4645209 37.0386668,32.483318 36.9100084,32.5007572 L36.7223642,32.5251206 C36.5993666,32.5405781 36.4757529,32.5547524 36.3518906,32.5676736 C36.294178,32.5737129 36.2367065,32.5794349 36.1791835,32.5848824 L36.1337545,32.5891094 C35.9898656,32.6023797 35.8456595,32.6139612 35.7011695,32.6238431 C35.6512639,32.627113 35.6018641,32.6302581 35.5524332,32.6331995 L35.5530156,32.6333735 L35.5369874,32.6343325 C35.174992,32.6558313 34.8112993,32.6666667 34.4464315,32.6666667 L11.0076394,32.6666667 L10.5970301,32.6590074 Z M5.53567953,10.6356589 L5.55947526,10.8237304 L5.55947526,18.1003059 L5.53567953,17.9144734 L5.53567953,10.6356589 Z" id="形状结合" fill="url(#linearGradient-1)"></path>
                <path d="M47,19.336062 L47,20.6126375 C47,20.7195518 46.9971993,20.8265063 46.9915957,20.9334458 L46.9910105,20.9475838 L46.9816726,21.086343 L46.975,21.153062 L46.971,21.196062 L46.974,21.168062 L46.972289,21.1969549 L46.97,21.212062 L46.943369,21.4460963 C46.9320283,21.5290897 46.9189863,21.6120215 46.9042418,21.6948685 C46.840929,22.05055 46.746326,22.4049302 46.6202914,22.7556186 L46.6163706,22.7656441 C46.558796,22.9248612 46.4947272,23.0833724 46.4241533,23.2410052 C46.3182864,23.478607 46.1972316,23.7139382 46.0613907,23.9464285 L45.9933236,24.0569192 L46.0603331,23.9477719 C45.4178485,25.0135103 44.4660194,25.9807351 43.276233,26.7912337 C43.1387465,26.8875084 42.9986161,26.9815441 42.8558418,27.0733409 L42.8561465,27.0715457 L42.854,27.071062 L42.8545198,27.0740126 L42.789,27.113062 L42.773,27.123062 L42.5468532,27.2646679 C42.4429847,27.3269653 42.3378147,27.3880034 42.2313779,27.4477676 C42.2039485,27.4619529 42.1774983,27.4767163 42.1509723,27.4914026 C42.065406,27.5397985 41.9780464,27.5867588 41.8898831,27.6328767 C41.8321051,27.6625078 41.7740426,27.692451 41.7156431,27.7220328 L41.6101993,27.774977 L41.5048845,27.82651 L41.3898266,27.8816565 C41.3516206,27.8997508 41.3132789,27.917694 41.2748024,27.9354851 L41.1861884,27.9754592 L41.0977344,28.0158595 L40.9816902,28.0669316 C40.9194297,28.0939977 40.856834,28.1206729 40.7939068,28.1469532 C40.7640788,28.1580249 40.735067,28.169987 40.7059869,28.1818665 L40.7067971,28.1829937 L40.5637183,28.2407343 C40.4746013,28.2761402 40.3848448,28.3107646 40.2944587,28.3445968 L40.2930419,28.3443908 L40.2149584,28.3740901 C40.1578681,28.3950807 40.1005297,28.4157565 40.0429459,28.4361149 L40.069,28.426062 L39.8434269,28.5039347 L39.550208,28.6005039 L39.2531685,28.6907557 C38.9499428,28.774508 38.6428264,28.8493176 38.3326253,28.9165495 C38.2148085,28.9423191 38.0966949,28.9667953 37.9782537,28.9901055 L37.9771887,28.9894312 L37.972,28.990062 L37.559,29.066062 L37.2949412,29.1106702 C37.1670182,29.1311875 37.0386668,29.1499846 36.9100084,29.1674239 L36.7223642,29.1917873 C36.5993666,29.2072448 36.4757529,29.221419 36.3518906,29.2343403 C36.294178,29.2403796 36.2367065,29.2461016 36.1791835,29.2515491 L36.1337545,29.2557761 C35.9898656,29.2690463 35.8456595,29.2806279 35.7011695,29.2905098 C35.6509317,29.2938022 35.6011994,29.296967 35.5514355,29.2999255 L35.5520139,29.3001005 L35.5369874,29.3009991 L34.9927866,29.3252283 L34.961,29.325062 L34.9612124,29.3261687 C34.8216273,29.3298625 34.680243,29.3320328 34.5385437,29.3326796 L34.4464315,29.3333333 L11.0076394,29.3333333 L11.007,29.332062 C9.26385889,29.3238415 7.55499032,29.0211748 6.02375378,28.4606453 C5.9639772,28.4383807 5.90461481,28.4161544 5.84553041,28.3935379 C5.04949226,28.0892678 4.30378436,27.7140307 3.62913228,27.2732162 L3.29782351,27.0473692 L3.297,27.046062 C2.35551268,26.4065827 1.5866727,25.6569835 1.02792522,24.8214222 L0.848714299,24.5401971 C0.765573141,24.3990597 0.688596871,24.2568686 0.617760673,24.113792 C0.594825138,24.0680105 0.572610967,24.0219089 0.551040413,23.9757142 L0.517628393,23.9019124 C0.484641766,23.8298302 0.453750314,23.7577026 0.424403628,23.6853819 L0.392667732,23.6040312 C0.365038087,23.5345099 0.339644766,23.4654654 0.315639695,23.3962748 L0.287288239,23.3110305 C0.264517981,23.2434963 0.243753586,23.1764953 0.224274764,23.1093843 C0.213745825,23.0720216 0.20318701,23.0343393 0.19303076,22.9966268 C0.175903739,22.9337166 0.160217979,22.8710208 0.145641003,22.8082532 C0.139505263,22.7816997 0.13341288,22.7547009 0.127525114,22.7276902 C0.115019043,22.6699109 0.10351783,22.6125728 0.0929340728,22.5551916 C0.0820804439,22.4977948 0.0722541425,22.4397416 0.0633654116,22.3816544 C0.0609915709,22.3635845 0.0583997023,22.345964 0.0558937259,22.3283408 C0.022982897,22.1013758 0.00478741483,21.8737136 0.000826749611,21.6461932 L0.000793190933,20.2741805 C0.000793190933,20.6109106 0.0318028748,20.948391 0.0944144654,21.2845321 L0.109328278,21.3625416 L0.12,21.414062 L0.149293844,21.5448146 L0.158560469,21.5837839 L0.174,21.646062 L0.159,21.583062 L0.195406954,21.7269211 L0.228062648,21.8429401 L0.235415179,21.8674281 L0.237,21.873062 L0.273422271,21.9904325 L0.31,22.101062 L0.279166781,22.0076347 L0.326377786,22.146689 L0.375,22.280062 L0.377298123,22.2853784 L0.394,22.328062 L0.404,22.354062 L0.415,22.381062 L0.4317318,22.4236173 L0.436744698,22.4353962 L0.45,22.468062 L0.491958334,22.5655873 L0.500569319,22.5849014 L0.526,22.641062 L0.551529413,22.697129 L0.585,22.768062 L0.566,22.727062 L0.69497089,22.9851832 C0.743854022,23.0775114 0.795361716,23.1694445 0.84950749,23.2609349 C0.930038403,23.3954209 1.01587562,23.5278849 1.1068763,23.658225 C1.65971799,24.4479838 2.40076686,25.1596533 3.29967429,25.7690025 L3.29967429,25.770122 C4.05791644,26.3093439 4.91742878,26.7603499 5.84553041,27.1153958 C6.03215294,27.1871582 6.22138281,27.2546043 6.41311472,27.3181232 C6.68061531,27.4063819 6.95313778,27.4873828 7.2298176,27.560543 C7.35688349,27.5945645 7.48467236,27.6264871 7.61326593,27.6567447 C8.70161472,27.912249 9.84780538,28.0488595 11.0094902,28.0560862 L34.4464315,28.0567578 C34.5904407,28.0567578 34.7342668,28.0550527 34.8778778,28.0516545 C34.9052858,28.0494481 34.932788,28.0484796 34.9602209,28.0473936 L34.9604192,28.0464587 C35.5535002,28.0308454 36.1430095,27.9857438 36.726353,27.9129116 L36.7267209,27.9135101 L36.8229225,27.9011046 C37.0213846,27.8749729 37.2191308,27.8455953 37.4160713,27.8130056 L37.5441027,27.7920935 L37.7789701,27.7504405 L37.543886,27.7913845 C37.9289802,27.724823 38.3109086,27.6459636 38.688998,27.5550597 L39.2531685,27.4097024 L39.2532913,27.4115974 C39.5435575,27.3248478 39.8284105,27.2323754 40.1074407,27.1325279 L40.3856018,27.0298189 L40.4086103,27.0210351 L40.631,26.933062 L40.636,26.931062 L40.637,26.931062 L40.8607042,26.8391927 L41.0977344,26.736566 C41.1637732,26.7072499 41.2294272,26.6774922 41.294692,26.6472969 L41.194,26.692062 L41.302,26.643062 L41.5065704,26.5470727 L41.647,26.477062 L41.7185691,26.4421055 L41.906,26.345062 L41.9297522,26.3331206 L41.915,26.340062 L42.0953544,26.2442606 L42.3600712,26.0958516 C42.5337953,25.9957185 42.7041291,25.8921788 42.8709681,25.785321 L42.958,25.728062 L43.2746466,25.5155538 L43.293,25.502062 L43.5866186,25.2951842 C43.688182,25.220841 43.7878305,25.1453256 43.8855144,25.0686768 C44.7929546,24.3560346 45.530875,23.5462535 46.0613907,22.669853 L46.0603331,22.6689575 C46.1580989,22.5018315 46.2482076,22.333235 46.3306728,22.163422 C46.393185,22.0361489 46.4507018,21.9079729 46.5039269,21.7792486 L46.538252,21.694665 L46.6163706,21.4877968 C46.7485615,21.1221364 46.8465169,20.7525144 46.9103665,20.3813482 C46.9175034,20.3405974 46.9241237,20.2996281 46.9303291,20.2586407 L46.9667362,19.9736646 C46.9726968,19.9167026 46.9778587,19.8597251 46.9822223,19.8027408 L46.9907461,19.6678738 C46.996034,19.5581655 46.998678,19.4462181 46.998678,19.3365098 L46.998,19.413062 L47,19.336062 Z" id="形状结合" fill="url(#linearGradient-2)"></path>
                <path d="M47,24.0027286 L47,25.2793041 C47,25.3862185 46.9971993,25.493173 46.9915957,25.6001124 L46.9910105,25.6142505 L46.9816726,25.7530097 L46.975,25.8197286 L46.971,25.8627286 L46.974,25.8347286 L46.972289,25.8636215 L46.97,25.8787286 L46.943369,26.112763 C46.9320283,26.1957563 46.9189863,26.2786881 46.9042418,26.3615351 C46.840929,26.7172167 46.746326,27.0715968 46.6202914,27.4222853 L46.6163706,27.4323107 C46.558796,27.5915279 46.4947272,27.7500391 46.4241533,27.9076719 C46.3182864,28.1452737 46.1972316,28.3806049 46.0613907,28.6130952 L45.9933236,28.7235859 L46.0603331,28.6144386 C45.4178485,29.680177 44.4660194,30.6474018 43.276233,31.4579004 C43.1387465,31.5541751 42.9986161,31.6482108 42.8558418,31.7400076 L42.8561465,31.7382123 L42.854,31.7377286 L42.8545198,31.7406793 L42.789,31.7797286 L42.773,31.7897286 L42.5468532,31.9313346 C42.4429847,31.993632 42.3378147,32.0546701 42.2313779,32.1144342 C42.2039485,32.1286196 42.1774983,32.143383 42.1509723,32.1580693 C42.065406,32.2064652 41.9780464,32.2534255 41.8898831,32.2995434 C41.8321051,32.3291745 41.7740426,32.3591176 41.7156431,32.3886995 L41.6101993,32.4416437 L41.5048845,32.4931767 L41.3898266,32.5483232 C41.3516206,32.5664175 41.3132789,32.5843607 41.2748024,32.6021518 L41.1861884,32.6421259 L41.0977344,32.6825262 L40.9816902,32.7335982 C40.9194297,32.7606643 40.856834,32.7873395 40.7939068,32.8136199 C40.7640788,32.8246916 40.735067,32.8366536 40.7059869,32.8485332 L40.7067971,32.8496604 L40.5637183,32.9074009 C40.4746013,32.9428068 40.3848448,32.9774313 40.2944587,33.0112634 L40.2930419,33.0110574 L40.2149584,33.0407568 C40.1578681,33.0617474 40.1005297,33.0824232 40.0429459,33.1027816 L40.069,33.0927286 L39.8434269,33.1706014 L39.550208,33.2671706 L39.2531685,33.3574224 C38.9499428,33.4411747 38.6428264,33.5159843 38.3326253,33.5832162 C38.2148085,33.6089857 38.0966949,33.6334619 37.9782537,33.6567722 L37.9771887,33.6560978 L37.972,33.6567286 L37.559,33.7327286 L37.2949412,33.7773368 C37.1670182,33.7978542 37.0386668,33.8166513 36.9100084,33.8340906 L36.7223642,33.8584539 C36.5993666,33.8739115 36.4757529,33.8880857 36.3518906,33.901007 C36.294178,33.9070463 36.2367065,33.9127683 36.1791835,33.9182158 L36.1337545,33.9224428 C35.9898656,33.935713 35.8456595,33.9472945 35.7011695,33.9571764 C35.6509317,33.9604689 35.6011994,33.9636337 35.5514355,33.9665922 L35.5520139,33.9667672 L35.5369874,33.9676658 L34.9927866,33.991895 L34.961,33.9917286 L34.9612124,33.9928354 C34.8216273,33.9965292 34.680243,33.9986995 34.5385437,33.9993463 L34.4464315,34 L11.0076394,34 L11.007,33.9987286 C9.26385889,33.9905082 7.55499032,33.6878415 6.02375378,33.127312 C5.9639772,33.1050473 5.90461481,33.082821 5.84553041,33.0602046 C5.04949226,32.7559345 4.30378436,32.3806974 3.62913228,31.9398829 L3.29782351,31.7140358 L3.297,31.7127286 C2.35551268,31.0732494 1.5866727,30.3236502 1.02792522,29.4880888 L0.848714299,29.2068637 C0.765573141,29.0657264 0.688596871,28.9235353 0.617760673,28.7804587 C0.594825138,28.7346772 0.572610967,28.6885756 0.551040413,28.6423809 L0.517628393,28.5685791 C0.484641766,28.4964969 0.453750314,28.4243693 0.424403628,28.3520485 L0.392667732,28.2706978 C0.365038087,28.2011766 0.339644766,28.1321321 0.315639695,28.0629414 L0.287288239,27.9776972 C0.264517981,27.910163 0.243753586,27.843162 0.224274764,27.776051 C0.213745825,27.7386883 0.20318701,27.7010059 0.19303076,27.6632935 C0.175903739,27.6003833 0.160217979,27.5376874 0.145641003,27.4749198 C0.139505263,27.4483663 0.13341288,27.4213675 0.127525114,27.3943569 C0.115019043,27.3365776 0.10351783,27.2792395 0.0929340728,27.2218582 C0.0820804439,27.1644615 0.0722541425,27.1064083 0.0633654116,27.048321 C0.0609915709,27.0302512 0.0583997023,27.0126307 0.0558937259,26.9950075 C0.022982897,26.7680425 0.00478741483,26.5403803 0.000826749611,26.3128599 L0.000793190933,24.9408471 C0.000793190933,25.2775773 0.0318028748,25.6150577 0.0944144654,25.9511987 L0.109328278,26.0292083 L0.12,26.0807286 L0.149293844,26.2114812 L0.158560469,26.2504505 L0.174,26.3127286 L0.159,26.2497286 L0.195406954,26.3935878 L0.228062648,26.5096067 L0.235415179,26.5340948 L0.237,26.5397286 L0.273422271,26.6570992 L0.31,26.7677286 L0.279166781,26.6743014 L0.326377786,26.8133557 L0.375,26.9467286 L0.377298123,26.952045 L0.394,26.9947286 L0.404,27.0207286 L0.415,27.0477286 L0.4317318,27.090284 L0.436744698,27.1020629 L0.45,27.1347286 L0.491958334,27.232254 L0.500569319,27.2515681 L0.526,27.3077286 L0.551529413,27.3637957 L0.585,27.4347286 L0.566,27.3937286 L0.69497089,27.6518499 C0.743854022,27.7441781 0.795361716,27.8361112 0.84950749,27.9276015 C0.930038403,28.0620876 1.01587562,28.1945516 1.1068763,28.3248916 C1.65971799,29.1146505 2.40076686,29.82632 3.29967429,30.4356692 L3.29967429,30.4367886 C4.05791644,30.9760105 4.91742878,31.4270166 5.84553041,31.7820625 C6.03215294,31.8538249 6.22138281,31.921271 6.41311472,31.9847898 C6.68061531,32.0730486 6.95313778,32.1540494 7.2298176,32.2272097 C7.35688349,32.2612312 7.48467236,32.2931538 7.61326593,32.3234113 C8.70161472,32.5789157 9.84780538,32.7155262 11.0094902,32.7227528 L34.4464315,32.7234245 C34.5904407,32.7234245 34.7342668,32.7217194 34.8778778,32.7183211 C34.9052858,32.7161147 34.932788,32.7151463 34.9602209,32.7140602 L34.9604192,32.7131254 C35.5535002,32.697512 36.1430095,32.6524105 36.726353,32.5795783 L36.7267209,32.5801768 L36.8229225,32.5677712 C37.0213846,32.5416395 37.2191308,32.512262 37.4160713,32.4796723 L37.5441027,32.4587601 L37.7789701,32.4171071 L37.543886,32.4580512 C37.9289802,32.3914896 38.3109086,32.3126302 38.688998,32.2217264 L39.2531685,32.076369 L39.2532913,32.0782641 C39.5435575,31.9915145 39.8284105,31.8990421 40.1074407,31.7991945 L40.3856018,31.6964855 L40.4086103,31.6877018 L40.631,31.5997286 L40.636,31.5977286 L40.637,31.5977286 L40.8607042,31.5058594 L41.0977344,31.4032327 C41.1637732,31.3739165 41.2294272,31.3441589 41.294692,31.3139636 L41.194,31.3587286 L41.302,31.3097286 L41.5065704,31.2137394 L41.647,31.1437286 L41.7185691,31.1087721 L41.906,31.0117286 L41.9297522,30.9997872 L41.915,31.0067286 L42.0953544,30.9109272 L42.3600712,30.7625182 C42.5337953,30.6623852 42.7041291,30.5588455 42.8709681,30.4519877 L42.958,30.3947286 L43.2746466,30.1822205 L43.293,30.1687286 L43.5866186,29.9618508 C43.688182,29.8875077 43.7878305,29.8119922 43.8855144,29.7353434 C44.7929546,29.0227013 45.530875,28.2129202 46.0613907,27.3365197 L46.0603331,27.3356241 C46.1580989,27.1684982 46.2482076,26.9999017 46.3306728,26.8300886 C46.393185,26.7028156 46.4507018,26.5746395 46.5039269,26.4459153 L46.538252,26.3613317 L46.6163706,26.1544635 C46.7485615,25.788803 46.8465169,25.4191811 46.9103665,25.0480149 C46.9175034,25.0072641 46.9241237,24.9662948 46.9303291,24.9253074 L46.9667362,24.6403313 C46.9726968,24.5833693 46.9778587,24.5263918 46.9822223,24.4694075 L46.9907461,24.3345405 C46.996034,24.2248321 46.998678,24.1128848 46.998678,24.0031764 L46.998,24.0797286 L47,24.0027286 Z" id="形状结合" fill="url(#linearGradient-3)"></path>
                <path d="M27.500027,0.663474564 C31.2443528,0.663474564 34.5647368,1.62295458 37.0486008,3.37417576 C38.2502273,4.19596872 39.2328661,5.18848655 39.9011056,6.29786731 C40.4186101,7.15497886 40.7452861,8.07614745 40.831581,9.02492633 C42.5185618,10.3455408 43.5922289,11.0844702 44.4054585,11.9504759 C45.5330742,13.1843362 46.1321723,14.4092977 46.2924546,15.6678418 C46.4501804,16.9063128 46.1831522,18.169586 45.492909,19.3471906 C44.8958791,20.338353 44.0077629,21.2300608 42.8947663,21.9898262 C41.7875118,22.7623965 40.4959727,23.3718333 39.0690837,23.7888913 C37.5820856,24.196315 36.0267302,24.4062929 34.4485847,24.4062929 L34.4485847,24.4062929 L11.0127075,24.4063027 C8.27762721,24.3914338 5.62870603,23.6274651 3.6832458,22.245709 C2.70954566,21.586294 1.94111816,20.8109594 1.41903069,19.9442527 C0.724518279,18.7704884 0.513046124,17.510398 0.768351155,16.2971245 C1.02949347,15.0561107 1.77245913,13.8720511 2.95285754,12.8634507 C3.6869764,12.2154011 4.57763294,11.6628774 5.60077168,11.2364933 C6.0513561,9.56914354 6.19031308,8.73997718 6.57245754,7.96082608 C7.08489414,7.10268195 7.66024399,6.5117655 8.37128989,6.02168531 C9.07579911,5.5210215 9.93561409,5.13284555 10.854682,4.8675558 C11.8209993,4.59724998 12.8547471,4.45379263 13.8884688,4.45379263 C14.564937,4.45379263 15.2639358,4.51751925 15.9178464,4.62982199 C17.7557564,3.58015268 18.8683776,2.85204489 20.1253801,2.25704474 C22.2934958,1.21323526 24.8616578,0.663474564 27.500027,0.663474564 Z" id="Fill-23" stroke="#AAC3FF" stroke-width="1.32694913" fill="url(#linearGradient-4)"></path>
                <g id="CN2" transform="translate(12.000000, 10.000000)" fill="#265DE7" fill-rule="nonzero">
                    <path d="M4.48175568,8.33333333 C5.75092544,8.33333333 6.79534638,7.92100694 7.60179799,7.15060764 L6.57059757,6.15234375 C6.04177684,6.61892361 5.38075093,6.94444444 4.54785828,6.94444444 C3.00105764,6.94444444 1.99629825,5.89192708 1.99629825,4.14496528 C1.99629825,2.41970486 3.10682179,1.37803819 4.58751983,1.37803819 C5.32786885,1.37803819 5.89635114,1.66015625 6.38551031,2.05078125 L7.41671074,1.03081597 C6.78212586,0.48828125 5.79058699,0 4.54785828,0 C2.07562136,0 0,1.55164931 0,4.19921875 C0,6.87934028 2.00951877,8.33333333 4.48175568,8.33333333 Z M9.17503966,8.18142361 L11.0259122,8.18142361 L11.0259122,4.95876736 C11.0259122,4.03645833 10.8804865,3.02734375 10.7879429,2.15928819 L10.8540455,2.15928819 L11.8455843,3.88454861 L14.6747753,8.18142361 L16.657853,8.18142361 L16.657853,0.151909722 L14.8069804,0.151909722 L14.8069804,3.35286458 C14.8069804,4.26432292 14.9524061,5.32769097 15.0581703,6.16319444 L14.9920677,6.16319444 L14.0137493,4.42708333 L11.1713379,0.151909722 L9.17503966,0.151909722 L9.17503966,8.18142361 Z M18.442623,8.18142361 L25,8.18142361 L25,6.8359375 L22.8714966,6.8359375 C22.4219989,6.8359375 21.7741935,6.87934028 21.2850344,6.92274306 C23.0698043,5.49045139 24.5372819,3.92795139 24.5372819,2.47395833 C24.5372819,0.9765625 23.3077737,0 21.4569011,0 C20.1216288,0 19.2490746,0.434027778 18.3500793,1.21527778 L19.4077208,2.08333333 C19.89688,1.63845486 20.4918033,1.25868056 21.2057113,1.25868056 C22.1311475,1.25868056 22.6731888,1.74696181 22.6731888,2.56076389 C22.6731888,3.79774306 21.0999471,5.30598958 18.442623,7.25911458 L18.442623,8.18142361 Z" id="形状结合"></path>
                </g>
            </g>
        </g>
    </g>
</svg>