<?xml version="1.0" encoding="UTF-8"?>
<svg width="59px" height="45px" viewBox="0 0 59 45" version="1.1" xmlns="http://www.w3.org/2000/svg" xmlns:xlink="http://www.w3.org/1999/xlink">
    <title>云</title>
    <g id="页面-1" stroke="none" stroke-width="1" fill="none" fill-rule="evenodd" stroke-dasharray="3">
        <path d="M55.5802677,20.7792236 C54.4970964,19.14281 53.1105893,17.7289494 51.4956464,16.6140194 C51.3777987,14.8280492 50.9599095,13.0746948 50.2595227,11.4275653 C49.3721826,9.40549982 48.0935838,7.57895258 46.4973593,6.05311225 C44.9105933,4.41048998 43.0097625,3.10366518 40.9078643,2.21032395 C38.830434,1.3868277 36.6124261,0.976088675 34.3778705,1.00107517 C30.9927535,0.973358015 27.6777818,1.96596185 24.8649622,3.84953066 C23.2936878,4.89717303 21.9047858,6.19531626 20.7535079,7.69231899 C19.8744527,7.47451459 18.9718474,7.36619349 18.0662184,7.36981903 C15.2952682,7.33623245 12.6255083,8.4099468 10.6493917,10.3526915 C8.38055678,12.5738362 7.26055657,15.7157936 7.61281131,18.871267 C6.2629709,19.6807398 5.06296978,20.7171173 4.06564793,21.9347644 C2.03296863,24.3438977 0.944343399,27.4092329 1.00219248,30.5607979 C0.965267385,34.1963521 2.44550081,37.6827455 5.08677176,40.1812061 C7.69171267,42.6981098 11.1932204,44.0716271 14.81468,43.9971195 L42.547113,43.9971195 C46.5732471,44.014122 50.4406948,42.4284708 53.2961031,39.5900403 C54.7464045,38.2018849 55.9064696,36.5394289 56.7089335,34.6992111 C57.48151,32.8526695 57.8744812,30.8695048 57.8644323,28.8678832 C57.9176497,26.0053701 57.1229189,23.1910777 55.5802677,20.7792236 Z" id="云" stroke="#B9B9B9" fill-rule="nonzero"></path>
    </g>
</svg>