<?xml version="1.0" encoding="UTF-8"?>
<svg width="39px" height="42px" viewBox="0 0 39 42" version="1.1" xmlns="http://www.w3.org/2000/svg" xmlns:xlink="http://www.w3.org/1999/xlink">
    <title>1</title>
    <defs>
        <linearGradient x1="36.9318492%" y1="24.6874669%" x2="9.46494264%" y2="59.3893341%" id="linearGradient-1">
            <stop stop-color="#E2ECFF" offset="0%"></stop>
            <stop stop-color="#CCD8F0" offset="11.0175487%"></stop>
            <stop stop-color="#EEF3FF" offset="12.8796944%"></stop>
            <stop stop-color="#D9E3F7" offset="55.8189396%"></stop>
            <stop stop-color="#F3F8FF" offset="59.7180542%"></stop>
            <stop stop-color="#E7F0FF" offset="76.7536299%"></stop>
            <stop stop-color="#F2F6FF" offset="81.5726899%"></stop>
            <stop stop-color="#D1E0FF" offset="100%"></stop>
        </linearGradient>
        <linearGradient x1="89.1335038%" y1="28.1567231%" x2="18.970682%" y2="94.1292293%" id="linearGradient-2">
            <stop stop-color="#3267FF" offset="0%"></stop>
            <stop stop-color="#5095FF" offset="49.6694712%"></stop>
            <stop stop-color="#3267FF" offset="100%"></stop>
        </linearGradient>
        <linearGradient x1="39.5194137%" y1="-14.0233109%" x2="-8.32667268e-15%" y2="86.8311509%" id="linearGradient-3">
            <stop stop-color="#E2ECFF" offset="0%"></stop>
            <stop stop-color="#CCD8F0" offset="11.0175487%"></stop>
            <stop stop-color="#D9E3F7" offset="41.1699749%"></stop>
            <stop stop-color="#F3F8FF" offset="46.5664341%"></stop>
            <stop stop-color="#D1E0FF" offset="100%"></stop>
        </linearGradient>
        <linearGradient x1="39.5194137%" y1="-22.8825527%" x2="-8.32667268e-15%" y2="91.9276707%" id="linearGradient-4">
            <stop stop-color="#E2ECFF" offset="0%"></stop>
            <stop stop-color="#CCD8F0" offset="11.0175487%"></stop>
            <stop stop-color="#D9E3F7" offset="41.1699749%"></stop>
            <stop stop-color="#F3F8FF" offset="46.5664341%"></stop>
            <stop stop-color="#D1E0FF" offset="100%"></stop>
        </linearGradient>
        <linearGradient x1="100%" y1="50%" x2="0.961538462%" y2="50%" id="linearGradient-5">
            <stop stop-color="#3267FF" offset="0%"></stop>
            <stop stop-color="#5095FF" offset="49.6694712%"></stop>
            <stop stop-color="#3267FF" offset="100%"></stop>
        </linearGradient>
        <path d="M34.7082692,0.821645708 C34.6631058,0.80266497 34.6203194,0.786056823 34.5751559,0.771821269 C34.4943371,0.745722754 34.4087643,0.729114607 34.3231915,0.719624238 C34.2043404,0.707761276 34.0831122,0.710133869 33.95713,0.729114607 L3.96623181,5.31533558 C3.70951333,5.35329706 3.47181104,5.47429927 3.25312493,5.63089036 C3.23410875,5.64512592 3.21033852,5.64275332 3.19132233,5.65936147 C3.11050356,5.71867628 3.0320618,5.78985405 2.95837409,5.86340441 C2.90132554,5.92271922 2.84665401,5.98440662 2.79435951,6.0508392 C2.79198248,6.0532118 2.78960546,6.05558439 2.78722844,6.06032957 C2.78485142,6.06032957 2.78247439,6.06270217 2.78009737,6.06744735 C2.73017989,6.13387994 2.68026241,6.20268511 2.63509897,6.27623548 C2.58993554,6.34741325 2.54952615,6.42096361 2.51149378,6.49925915 C2.47821546,6.56569174 2.45206821,6.63686951 2.42354393,6.70567469 C2.42116691,6.71279246 2.41878989,6.71753765 2.41641286,6.72465543 C2.41403584,6.7341458 2.40928179,6.74126357 2.40690477,6.74838135 C2.37124943,6.84803023 2.34272515,6.9500517 2.31895492,7.05681835 C2.29043065,7.19442871 2.27141447,7.33678425 2.26903744,7.47913979 L1.71756813,32.2086696 C1.70092897,32.951291 2.05510538,33.5349488 2.58993554,33.7698354 L3.48116641,34.1864649 C2.94633625,33.9515782 2.58978281,33.3679205 2.608799,32.6276717 L3.16026831,7.89576927 C3.16502236,7.6371567 3.21969389,7.38328932 3.30764373,7.14128491 C3.31002076,7.13653972 3.31239778,7.12942194 3.3147748,7.12230417 C3.40510167,6.88741753 3.52870687,6.66676644 3.67845931,6.47458646 C3.68083633,6.47221387 3.68321336,6.46984128 3.68559038,6.46746868 C3.81632664,6.29901463 3.97558717,6.16614946 4.1443558,6.04751984 C4.36304191,5.89092875 4.60312122,5.76992654 4.85746268,5.73196506 L34.8483608,1.14574409 C35.1217185,1.10541002 35.3736829,1.1409989 35.5971231,1.23827519 L34.7082692,0.821645708 Z" id="path-6"></path>
        <linearGradient x1="100%" y1="50%" x2="0%" y2="50%" id="linearGradient-7">
            <stop stop-color="#D3E2FF" offset="0%"></stop>
            <stop stop-color="#FFFFFF" offset="100%"></stop>
        </linearGradient>
        <linearGradient x1="50%" y1="0%" x2="50%" y2="100%" id="linearGradient-8">
            <stop stop-color="#6CACFF" offset="0%"></stop>
            <stop stop-color="#265DE7" offset="100%"></stop>
        </linearGradient>
    </defs>
    <g id="页面-1" stroke="none" stroke-width="1" fill="none" fill-rule="evenodd">
        <g id="1">
            <g id="编组">
                <polygon id="Fill-1" fill="url(#linearGradient-1)" points="14.8674143 34.9199472 8.19748797 35.9377893 8.11191514 39.7410548 13.2605468 41.9997627 13.3437426 38.1988698 20.0136689 37.1786551 20.0588323 35.2283842 23.341501 36.6685478 29.9947881 35.6530783 24.8461565 33.3943704 20.0826026 34.1227562 20.0992417 33.373017 14.9529871 31.1143091"></polygon>
                <polygon id="Fill-1" fill="#346AFF" points="20.0588323 35.2283842 20.5726098 35.457375 27.2398482 34.4314817 26.5563315 34.1479198 21.7927776 34.8763056"></polygon>
                <polygon id="Fill-1" fill="url(#linearGradient-2)" points="16.515917 35.62257 9.84599065 36.6404121 9.76041783 40.4436776 10.2891843 40.697417 10.3723801 36.8965241 17.0423064 35.8763094 17.1278792 32.0706713 16.6014898 31.8169319"></polygon>
                <path d="M32.9912632,0.109272557 C32.9460998,0.0902918185 32.9033134,0.0736836722 32.8581499,0.0594481182 C32.7773312,0.0333496026 32.6917583,0.0167414563 32.6061855,0.00725108695 C32.4873344,-0.0046118747 32.3661062,-0.00223928237 32.240124,0.0167414563 L2.24922582,4.60296243 C1.99250734,4.64092391 1.75480505,4.76192612 1.53611894,4.91851721 C1.51710276,4.93275276 1.49333253,4.93038017 1.47431635,4.94698832 C1.39349757,5.00630313 1.31505581,5.0774809 1.2413681,5.15103126 C1.18431955,5.21034607 1.12964802,5.27203347 1.07735352,5.33846605 C1.0749765,5.34083865 1.07259947,5.34321124 1.07022245,5.34795642 C1.06784543,5.34795642 1.06546841,5.35032901 1.06309138,5.3550742 C1.0131739,5.42150678 0.96325642,5.49031196 0.918092985,5.56386232 C0.872929549,5.63504009 0.83252016,5.70859046 0.794487793,5.786886 C0.761209472,5.85331859 0.73506222,5.92449636 0.706537945,5.99330154 C0.704160922,6.00041931 0.701783899,6.0051645 0.699406876,6.01228227 C0.697029853,6.02177264 0.692275807,6.02889042 0.689898784,6.0360082 C0.654243441,6.13565708 0.625719166,6.23767855 0.601948936,6.3444452 C0.573424661,6.48205556 0.554408478,6.6244111 0.552031455,6.76676664 L0.000562138095,31.4962965 C-0.0160770223,32.2389179 0.338099392,32.8225756 0.872929549,33.0574622 L6.02156119,35.3161701 C5.48673103,35.0812835 5.1301776,34.4976258 5.14919378,33.757377 L5.7006631,9.02547453 C5.70541714,8.76686197 5.76008867,8.51299459 5.84803852,8.27099017 C5.85041554,8.26624499 5.85279256,8.25912721 5.85516959,8.25200943 C5.94549646,8.01712279 6.06910165,7.79647171 6.21885409,7.60429173 C6.22123112,7.60191914 6.22360814,7.59954654 6.22598516,7.59717395 C6.35672142,7.4287199 6.51598196,7.29585473 6.68475058,7.17722511 C6.90343669,7.02063402 7.14351601,6.89963181 7.39785746,6.86167033 L37.3887556,2.27544935 C37.6621133,2.23511529 37.9140777,2.27070417 38.1375178,2.36798046 L32.9912632,0.109272557 Z" id="Fill-2" fill="url(#linearGradient-3)"></path>
                <g id="Fill-2">
                    <use fill="url(#linearGradient-4)" xlink:href="#path-6"></use>
                    <use fill="url(#linearGradient-5)" xlink:href="#path-6"></use>
                </g>
                <path d="M37.4669671,2.79456266 C37.7446976,2.75219074 37.9946651,2.83721522 38.1717777,3.01947326 C38.3765208,3.23016453 38.4829398,3.55128603 38.4746781,3.92236728 L38.4746781,3.92236728 L37.9208053,28.6341627 C37.9124583,29.0507384 37.7564815,29.4496414 37.5162611,29.758928 C37.2940345,30.0450473 36.9974415,30.2608242 36.669004,30.3109928 L36.669004,30.3109928 L22.9127174,32.4156724 L22.803153,37.2822026 L29.4564577,36.2643578 L29.3948487,39.0042638 L13.7994505,41.3867746 L13.8593258,38.6513021 L20.5287121,37.63117 L20.6412937,32.759702 L6.68712404,34.8961969 C6.40666589,34.930886 6.15474822,34.8403074 5.9758597,34.6562218 C5.77227737,34.4467251 5.6647601,34.131691 5.67299253,33.7693151 L5.67299253,33.7693151 L6.2244575,9.03760603 C6.23371851,8.62903256 6.39080548,8.23521884 6.63088769,7.92913078 C6.85321198,7.64568286 7.14921917,7.43084179 7.47624919,7.3807561 L7.47624919,7.3807561 Z" id="Fill-4" stroke="#AAC3FF" stroke-width="1.04976" fill="url(#linearGradient-7)"></path>
            </g>
            <path d="M27.6680888,23.1609794 C27.6532944,23.0896459 27.6532944,23.0162094 27.6385,22.9301885 C27.6089113,22.6993976 27.5201451,22.5210802 27.4017902,22.3910305 C27.2834353,22.2609808 27.1354917,22.1498242 26.9727537,22.0701451 C26.7952213,21.9778816 26.6028946,21.9170956 26.4105678,21.8856842 C26.2034467,21.8563758 25.9963256,21.81238 25.7744102,21.7851744 C25.5524947,21.7579688 25.3453736,21.713973 25.1382525,21.6846645 C24.9311314,21.6406687 24.7535991,21.5777798 24.5760667,21.5002037 C24.38374,21.4100431 24.2357963,21.3135738 24.1322358,21.2254831 C24.058264,21.1478738 23.9842921,21.0702646 23.9251147,20.9611778 C23.895526,20.9066345 23.8807316,20.8646755 23.8659372,20.8080292 C23.8363485,20.7241113 23.8215541,20.6527777 23.8215541,20.5646539 C23.8215541,20.4471556 23.8215541,20.3002826 23.8363485,20.1513067 C23.8511429,19.958269 23.9251147,19.7715069 24.058264,19.6057078 C24.1470301,19.5049666 24.2357963,19.4189127 24.3245625,19.3328588 C24.38374,19.2803852 24.4577118,19.2258088 24.5168892,19.158648 C24.6056554,19.0725941 24.6648329,18.9613714 24.7240103,18.8501487 C24.7831878,18.7242387 24.8275709,18.6004316 24.8867483,18.4745217 C24.9163371,18.3821921 24.9607202,18.2730723 25.0051033,18.1786398 C25.034692,18.1303721 25.0494863,18.06952 25.0642807,18.0086679 C25.1678413,17.6855144 25.2270187,17.4274187 25.2714018,17.1861133 C25.3305793,16.898643 25.360168,16.6153786 25.3897567,16.2439904 C25.4045511,15.5662719 25.3157849,14.9032738 25.1234582,14.2843705 C25.1234582,14.2696832 25.1086638,14.2424116 25.1086638,14.2277243 C25.034692,13.9298056 24.9015427,13.6696732 24.7240103,13.4305367 C24.709216,13.4179523 24.6944216,13.3906806 24.6796272,13.3780962 L24.6648329,13.3655119 C24.6500385,13.3382402 24.6204498,13.3130714 24.6056554,13.2857997 C24.5760667,13.2606309 24.5612723,13.2333593 24.5316836,13.1935032 L24.5168892,13.1809188 C24.3689456,13.0257003 24.221002,12.8998564 24.058264,12.80549 C23.8363485,12.6754734 23.614433,12.5748313 23.3777232,12.5203541 C23.1410134,12.4365022 22.9043036,12.4113995 22.6675937,12.4009841 C22.4308839,12.4052561 22.2089685,12.4221124 22.0018474,12.451553 L21.8539037,12.4725821 C21.6319883,12.5041257 21.4100728,12.5503566 21.1881573,12.6112748 C20.9514475,12.6742959 20.7147377,12.7813789 20.4928222,12.9010462 C20.2561124,13.0228165 20.0341969,13.1865458 19.8122815,13.3796496 C19.6495435,13.5202799 19.5015998,13.688182 19.3536562,13.8854586 L19.3388618,13.9022488 C19.3092731,13.9358292 19.2944787,13.9673067 19.26489,14.0155744 C19.2500956,14.0470519 19.2205069,14.0806323 19.2057126,14.1121098 L19.1909182,14.1289 C19.1761238,14.1456902 19.1613295,14.1771677 19.1465351,14.1939579 C18.9690027,14.4835641 18.8358535,14.7815489 18.7618816,15.1004966 C18.7618816,15.1151839 18.7470873,15.1466614 18.7470873,15.1613487 C18.5547605,15.8349275 18.4659944,16.5231605 18.4807887,17.1966732 C18.4955831,17.5617527 18.5399662,17.8345025 18.5991436,18.1051495 C18.6435267,18.3338375 18.7027042,18.5897972 18.8062647,18.8688228 C18.8210591,18.9254691 18.8506478,18.9653251 18.8654422,19.0219714 C18.9098253,19.1184738 18.9542084,19.2002888 18.9837971,19.2842068 C19.0281802,19.3953964 19.0873576,19.5044832 19.1465351,19.6135699 C19.1909182,19.7100722 19.26489,19.8023688 19.3536562,19.8631878 C19.4128337,19.8988381 19.4868055,19.9470727 19.5459829,19.982723 C19.6347491,20.043542 19.7235153,20.1190483 19.8122815,20.1798674 C19.9454308,20.3078142 20.0194026,20.4735472 20.0341969,20.6623791 C20.0489913,20.8071492 20.0489913,20.9393348 20.0489913,21.0715205 C20.0489913,21.144957 20.0341969,21.2204964 20.0194026,21.2960357 L20.0194026,21.3254103 C20.0046082,21.3862624 19.9750195,21.4345301 19.9602251,21.4953822 C19.9306364,21.5436499 19.915842,21.5751274 19.8862533,21.6233951 C19.8714589,21.6548726 19.8418702,21.688453 19.8270758,21.7199305 C19.8122815,21.751408 19.7826927,21.7849884 19.7678984,21.8017786 C19.6643378,21.91931 19.5163942,22.0578374 19.3240675,22.2026736 C19.1613295,22.3286166 18.9690027,22.4440782 18.7618816,22.5469554 C18.5547605,22.6498325 18.3476394,22.7380224 18.125724,22.8283152 C17.9038085,22.918608 17.6966874,23.0214851 17.4895663,23.109675 C17.2972396,23.195762 17.1049129,23.3112235 16.9273805,23.4539568 C16.7498481,23.5820027 16.6166989,23.7331145 16.4983439,23.8968107 C16.379989,24.0605069 16.3060172,24.2619563 16.2616341,24.5032618 C16.1284848,25.1831162 16.0988961,25.6866901 16.1580736,26.0601481 C16.2024567,26.4357091 16.2912228,26.6580884 16.3947834,26.7168045 C16.4539609,26.7524548 16.5871101,26.7775905 16.8090256,26.8047961 C17.030941,26.8173144 17.2972396,26.8235239 17.6079212,26.8381121 C17.9481916,26.8338071 18.3032563,26.8273992 18.6435267,26.8230943 C19.0281802,26.8124806 19.4128337,26.7871796 19.7974871,26.7765659 C20.0194026,26.7597096 20.2265237,26.7449562 20.4484391,26.7280999 C20.6111771,26.7196553 20.7591208,26.6986262 20.9218588,26.6901815 L21.4248672,26.6186827 C21.6023995,26.5934478 21.7799319,26.5829002 21.9574643,26.5576653 C22.1349966,26.5324305 22.312529,26.5071956 22.4900614,26.4672734 L22.9930697,26.3957746 C23.1558077,26.3579553 23.3037514,26.3369263 23.4664894,26.299107 C23.6884049,26.2528761 23.8955259,26.2087481 24.1174414,26.1625172 C24.5020949,26.0784671 24.8867484,25.9797296 25.2714018,25.8809921 C25.6116722,25.7885634 25.9667369,25.6940318 26.3070073,25.601603 C26.6176889,25.5133801 26.8839875,25.4314659 27.1059029,25.3411731 C27.3278184,25.2655676 27.4609677,25.2025796 27.5201451,25.1354188 C27.6237057,25.047262 27.6976775,24.8017507 27.756855,24.4114694 C27.7420606,24.0757645 27.7272662,23.6519358 27.6680888,23.1609794 Z" id="路径" fill="url(#linearGradient-8)" fill-rule="nonzero"></path>
        </g>
    </g>
</svg>