<?xml version="1.0" encoding="UTF-8"?>
<svg width="51px" height="44px" viewBox="0 0 51 44" version="1.1" xmlns="http://www.w3.org/2000/svg" xmlns:xlink="http://www.w3.org/1999/xlink">
    <title>14-6CPE</title>
    <defs>
        <linearGradient x1="3.15163838%" y1="78.742789%" x2="96.8483616%" y2="24.9339281%" id="linearGradient-1">
            <stop stop-color="#FFCF73" offset="0%"></stop>
            <stop stop-color="#FFC352" offset="100%"></stop>
        </linearGradient>
        <linearGradient x1="2.54756895%" y1="21.3435256%" x2="97.452431%" y2="76.6367846%" id="linearGradient-2">
            <stop stop-color="#F0BF54" offset="0%"></stop>
            <stop stop-color="#FFCF73" offset="100%"></stop>
        </linearGradient>
    </defs>
    <g id="14-6CPE" stroke="none" stroke-width="1" fill="none" fill-rule="evenodd">
        <g id="编组" transform="translate(1.000000, 2.000000)">
            <path d="M24.787229,0.462262077 L48.9138234,14.3924865 L24.9472431,28.3185118 L0.820648409,14.3902391 L24.787229,0.462262077 Z" id="Fill-1" stroke="#FFEDC6" stroke-width="0.8" fill="#FADD9E"></path>
            <path d="M49.2102117,15.2614898 L49.1885124,25.3205228 L25.4257757,39.1300377 L25.4474753,29.0690696 L49.2102117,15.2614898 Z" id="Fill-2" stroke="#FFE1A7" fill="url(#linearGradient-1)"></path>
            <path d="M0.522333008,15.2565347 L24.4469196,29.0693057 L24.4270189,39.1349993 L0.500623033,25.3223013 L0.522333008,15.2565347 Z" id="Fill-3" stroke="#FFE1A7" fill="url(#linearGradient-2)"></path>
        </g>
        <g id="编组" transform="translate(3.000000, 21.000000)" fill="#FFFFFF">
            <polygon id="Fill-1" points="0.00303576343 0 -7.07317843e-16 0.99117676 2.69424005 2.54700552 2.69727581 1.55582876"></polygon>
            <polygon id="Fill-2" points="3.09177327 2.77590208 3.95393008 3.27528517 3.95696584 2.28259052 3.09480903 1.7862432"></polygon>
            <polygon id="Fill-3" points="4.41961619 3.54228056 5.28177301 4.04166364 5.28480877 3.048969 4.42265196 2.55262168"></polygon>
            <polygon id="Fill-4" points="5.74745912 4.30865904 6.60961593 4.80804212 6.61265169 3.81534748 5.75049488 3.31900016"></polygon>
            <polygon id="Fill-5" points="7.0848647 5.08186798 7.94702151 5.57973319 7.95005727 4.58855643 7.08790046 4.09069122"></polygon>
            <polygon id="Fill-6" points="8.41270762 5.84824646 9.27486444 6.34611167 9.2779002 5.35493491 8.41574339 4.8570697"></polygon>
            <polygon id="Fill-7" points="9.77880117 6.63648244 10.640958 7.13586552 10.6439937 6.14317088 9.78183693 5.64682356"></polygon>
            <polygon id="Fill-8" points="11.1353321 7.42062013 11.9974889 7.91848534 12.0020425 6.92730857 11.1383678 6.42944337"></polygon>
            <polygon id="Fill-9" points="12.5014256 8.20885611 13.3651003 8.70823919 13.3681361 7.71554455 12.5044614 7.21919723"></polygon>
            <polygon id="Fill-10" points="13.8688852 8.99845818 14.7310421 9.49632338 14.7340778 8.50514662 13.871921 8.00728142"></polygon>
            <polygon id="Fill-11" points="15.2349788 9.78669415 16.0971356 10.2845594 16.1001714 9.29338259 15.2380145 8.79703527"></polygon>
            <polygon id="Fill-12" points="16.6010723 10.5762962 17.4541219 11.0680899 17.4556397 10.0769131 16.6041081 9.58511946"></polygon>
            <polygon id="Fill-13" points="17.9576032 11.3590678 18.8212779 11.856933 18.8243137 10.8657563 17.960639 10.3678911"></polygon>
            <polygon id="Fill-14" points="19.3250629 12.1473038 20.1872197 12.6466869 20.1902554 11.6555101 19.3280986 11.1576449"></polygon>
        </g>
        <g id="编组备份" transform="translate(3.000000, 24.000000)" fill="#FFFFFF">
            <polygon id="Fill-1" points="0.00303576343 0 -7.07317843e-16 0.99117676 2.69424005 2.54700552 2.69727581 1.55582876"></polygon>
            <polygon id="Fill-2" points="3.09177327 2.77590208 3.95393008 3.27528517 3.95696584 2.28259052 3.09480903 1.7862432"></polygon>
            <polygon id="Fill-3" points="4.41961619 3.54228056 5.28177301 4.04166364 5.28480877 3.048969 4.42265196 2.55262168"></polygon>
            <polygon id="Fill-4" points="5.74745912 4.30865904 6.60961593 4.80804212 6.61265169 3.81534748 5.75049488 3.31900016"></polygon>
            <polygon id="Fill-5" points="7.0848647 5.08186798 7.94702151 5.57973319 7.95005727 4.58855643 7.08790046 4.09069122"></polygon>
            <polygon id="Fill-6" points="8.41270762 5.84824646 9.27486444 6.34611167 9.2779002 5.35493491 8.41574339 4.8570697"></polygon>
            <polygon id="Fill-7" points="9.77880117 6.63648244 10.640958 7.13586552 10.6439937 6.14317088 9.78183693 5.64682356"></polygon>
            <polygon id="Fill-8" points="11.1353321 7.42062013 11.9974889 7.91848534 12.0020425 6.92730857 11.1383678 6.42944337"></polygon>
            <polygon id="Fill-9" points="12.5014256 8.20885611 13.3651003 8.70823919 13.3681361 7.71554455 12.5044614 7.21919723"></polygon>
            <polygon id="Fill-10" points="13.8688852 8.99845818 14.7310421 9.49632338 14.7340778 8.50514662 13.871921 8.00728142"></polygon>
            <polygon id="Fill-11" points="15.2349788 9.78669415 16.0971356 10.2845594 16.1001714 9.29338259 15.2380145 8.79703527"></polygon>
            <polygon id="Fill-12" points="16.6010723 10.5762962 17.4541219 11.0680899 17.4556397 10.0769131 16.6041081 9.58511946"></polygon>
            <polygon id="Fill-13" points="17.9576032 11.3590678 18.8212779 11.856933 18.8243137 10.8657563 17.960639 10.3678911"></polygon>
            <polygon id="Fill-14" points="19.3250629 12.1473038 20.1872197 12.6466869 20.1902554 11.6555101 19.3280986 11.1576449"></polygon>
        </g>
        <g id="编组-2" transform="translate(32.000000, 24.000000)">
            <g id="cpe" fill="#403C3C" fill-opacity="0.8">
                <path d="M2.06701981,5.0248 C2.63501981,4.6968 3.08901981,4.7428 3.37801981,4.9298 L2.90701981,5.8478 C2.68301981,5.7278 2.42701981,5.6988 2.08901981,5.8938 C1.41201981,6.2848 0.909019813,7.2368 0.912019813,8.3368 C0.916019813,9.4588 1.37701981,9.8618 2.08001981,9.4558 C2.46301981,9.2348 2.76201981,8.8558 3.00401981,8.4158 L3.47201981,8.7848 C3.10901981,9.4858 2.63101981,10.0268 2.05001981,10.3618 C0.926019813,11.0108 0.00401981335,10.6178 2.32669786e-16,8.9008 C-0.00498018665,7.2128 0.937019813,5.6768 2.06701981,5.0248" id="Fill-1"></path>
                <path d="M5.61151981,5.5724 C6.23051981,5.2144 6.52351981,4.7444 6.52152998,4.1574 C6.52051981,3.5634 6.19451981,3.5454 5.58151981,3.8994 L5.07051981,4.1944 L5.07551981,5.8824 L5.61151981,5.5724 L5.61151981,5.5724 Z M5.64251981,3.0554 C6.63251981,2.4844 7.39351981,2.4424 7.39653543,3.6524 C7.40051981,4.8264 6.63551981,5.7894 5.67751981,6.3424 L5.07751981,6.6894 L5.08251981,8.5154 L4.19551981,9.0284 L4.18051981,3.9004 L5.64251981,3.0554 Z" id="Fill-3"></path>
                <polygon id="Fill-5" points="10.9356198 0 10.9376198 0.851 9.09261981 1.916 9.09661981 3.105 10.6666198 2.198 10.6696198 3.056 9.09861981 3.963 9.10261981 5.335 11.0176198 4.229 11.0206198 5.088 8.21761981 6.706 8.20261981 1.578"></polygon>
            </g>
            <g id="cpe备份" transform="translate(1.000000, 0.000000)" fill="#FFFFFF" stroke="#FFFFFF" stroke-width="0.1">
                <path d="M2.06701981,5.0248 C2.63501981,4.6968 3.08901981,4.7428 3.37801981,4.9298 L2.90701981,5.8478 C2.68301981,5.7278 2.42701981,5.6988 2.08901981,5.8938 C1.41201981,6.2848 0.909019813,7.2368 0.912019813,8.3368 C0.916019813,9.4588 1.37701981,9.8618 2.08001981,9.4558 C2.46301981,9.2348 2.76201981,8.8558 3.00401981,8.4158 L3.47201981,8.7848 C3.10901981,9.4858 2.63101981,10.0268 2.05001981,10.3618 C0.926019813,11.0108 0.00401981335,10.6178 0,8.9008 C-0.00498018665,7.2128 0.937019813,5.6768 2.06701981,5.0248" id="Fill-1"></path>
                <path d="M5.61151981,5.5724 C6.23051981,5.2144 6.52351981,4.7444 6.52152998,4.1574 C6.52051981,3.5634 6.19451981,3.5454 5.58151981,3.8994 L5.07051981,4.1944 L5.07551981,5.8824 L5.61151981,5.5724 L5.61151981,5.5724 Z M5.64251981,3.0554 C6.63251981,2.4844 7.39351981,2.4424 7.39653543,3.6524 C7.40051981,4.8264 6.63551981,5.7894 5.67751981,6.3424 L5.07751981,6.6894 L5.08251981,8.5154 L4.19551981,9.0284 L4.18051981,3.9004 L5.64251981,3.0554 Z" id="Fill-3"></path>
                <polygon id="Fill-5" points="10.9356198 0 10.9376198 0.851 9.09261981 1.916 9.09661981 3.105 10.6666198 2.198 10.6696198 3.056 9.09861981 3.963 9.10261981 5.335 11.0176198 4.229 11.0206198 5.088 8.21761981 6.706 8.20261981 1.578"></polygon>
            </g>
        </g>
        <polygon id="Fill-1" stroke="#ECC165" stroke-width="0.5" fill="#FFFFFF" points="36.2529122 11 28.5779335 11.8085745 30.2099841 12.7532072 26.1492945 15.1125213 22.0604213 12.7519114 23.685669 11.8072787 16 11 17.4205125 15.4481316 19.0460841 14.5034989 23.1349572 16.8644327 19.0684365 19.2253666 17.4321746 18.2807339 16.0638178 22.7301613 23.7384726 21.9215868 22.1025346 20.9769541 26.1671116 18.617316 30.254365 20.9792217 28.6268496 21.9228826 36.31673 22.7324289 34.8958936 18.2842973 33.2706459 19.2263384 29.1814488 16.8654046 33.2460258 14.5060905 34.8819638 15.4529908"></polygon>
    </g>
</svg>