<?xml version="1.0" encoding="UTF-8"?>
<svg width="51px" height="44px" viewBox="0 0 51 44" version="1.1" xmlns="http://www.w3.org/2000/svg" xmlns:xlink="http://www.w3.org/1999/xlink">
    <title>9-9 CR</title>
    <defs>
        <linearGradient x1="97.4211836%" y1="50%" x2="0%" y2="50%" id="linearGradient-1">
            <stop stop-color="#C5AF48" offset="0%"></stop>
            <stop stop-color="#BBA641" offset="16.7258523%"></stop>
            <stop stop-color="#D0B944" offset="49.6694712%"></stop>
            <stop stop-color="#BBA641" offset="83.2550262%"></stop>
            <stop stop-color="#C5AF48" offset="100%"></stop>
        </linearGradient>
        <linearGradient x1="50%" y1="0%" x2="50%" y2="100%" id="linearGradient-2">
            <stop stop-color="#FFEB93" stop-opacity="0" offset="0%"></stop>
            <stop stop-color="#FFEB93" offset="100%"></stop>
        </linearGradient>
        <linearGradient x1="62.5095608%" y1="87.4904392%" x2="62.5095608%" y2="-5.69599934e-13%" id="linearGradient-3">
            <stop stop-color="#D5EEFF" offset="0%"></stop>
            <stop stop-color="#D5EEFF" stop-opacity="0" offset="100%"></stop>
        </linearGradient>
        <linearGradient x1="62.5095608%" y1="92.7405021%" x2="62.5095608%" y2="-5.69599934e-13%" id="linearGradient-4">
            <stop stop-color="#FFEB93" offset="0%"></stop>
            <stop stop-color="#FBF9F0" stop-opacity="0" offset="100%"></stop>
        </linearGradient>
    </defs>
    <g id="页面-1" stroke="none" stroke-width="1" fill="none" fill-rule="evenodd">
        <g id="图标" transform="translate(-767.000000, -763.000000)">
            <g id="9-9-CR" transform="translate(767.478597, 764.000000)">
                <g id="编组-11备份-8" transform="translate(0.000000, 11.000000)">
                    <path d="M42.1166297,2.82076284 C44.4755207,3.80351481 46.2612428,4.93633717 47.4769641,6.14315603 C48.6925078,7.34979865 49.3418818,8.63288979 49.4395525,9.91962214 L49.4514041,10.1609093 L49.634557,21.0015383 C49.7089572,22.4383544 49.1057552,23.884894 47.8043659,25.2409918 C46.5816736,26.5150841 44.7382884,27.7116965 42.2690748,28.7437667 C32.5752781,32.7953687 16.8596798,32.795367 7.16645408,28.7437687 C4.75517671,27.7360278 2.94082803,26.5714546 1.71978214,25.3310805 C0.498218088,24.09018 -0.13349785,22.7709923 -0.190638659,21.453539 L-0.194622987,21.2065564 L-0.19968605,10.0779546 C-0.143249948,8.72599776 0.521740328,7.3734254 1.81246938,6.10627137 C3.02765313,4.91328282 4.80098068,3.79351852 7.13586864,2.82076662 C16.7954092,-1.20411052 32.4570982,-1.20411052 42.1166297,2.82076284 Z M41.1752143,3.97600176 C32.0353317,0.417586426 17.2171756,0.417586426 8.07730665,3.97599646 C5.90868309,4.82012058 4.25744697,5.78773886 3.12648129,6.82304983 C2.05595882,7.80302976 1.45469574,8.840866 1.33972343,9.88923143 L1.33972343,9.88923143 L47.9200231,9.96244879 L47.8946961,9.75031889 C47.7455327,8.76110419 47.1631217,7.78299216 46.1619303,6.8561025 C45.0301766,5.80834007 43.3669245,4.8291122 41.1752143,3.97600176 Z" id="形状结合" stroke="#CBB441" stroke-width="0.4" fill-rule="nonzero"></path>
                    <path d="M49.0703246,10.4507962 L49.0703246,21.0215171 C49.1408217,22.3247752 48.5718818,23.6259342 47.3970731,24.8501302 C46.2169907,26.0798214 44.4332164,27.2273829 42.0513864,28.2229289 C32.477825,32.2242776 16.9571516,32.2242808 7.38412921,28.2229253 C5.00130439,27.2270756 3.21716379,26.079142 2.03849248,24.84902 C0.866009737,23.6253567 0.300268562,22.3247842 0.376404487,21.02209 L0.376404487,21.02209 L0.365032249,10.4507962 L49.0703246,10.4507962 Z" id="路径" stroke="url(#linearGradient-2)" stroke-width="0.729" fill="url(#linearGradient-1)" fill-rule="nonzero"></path>
                    <path d="M7.23797863,3.02534809 C16.8891765,-1.00844936 32.5357137,-1.00844936 42.1863519,3.02534809 C51.83699,7.05914554 51.83699,13.5998541 42.1863519,17.6336516 C32.5357137,21.667449 16.8891765,21.667449 7.23797863,17.6336516 C-2.41265954,13.5998541 -2.41265954,7.05914554 7.23797863,3.02534809 Z" id="路径" fill="#90C1EA" fill-rule="nonzero"></path>
                    <path d="M42.0397145,3.00538154 C32.4226574,-1.00179385 16.8298499,-1.00179385 7.21279283,3.00538154 C-2.40426428,7.0120023 -2.40426428,13.5088954 7.21279283,17.5155161 C16.8298499,21.5226915 32.4226574,21.5226915 42.0397145,17.5155161 C51.6567717,13.5088954 51.6567717,7.0120023 42.0397145,3.00538154 Z M41.2477611,3.7896232 C32.0678175,0.215610994 17.1846899,0.215610994 8.00474626,3.7896232 C-1.17575701,7.36308078 -1.17575701,13.1578169 8.00474626,16.7312745 C17.1846899,20.3052867 32.0678175,20.3052867 41.2477611,16.7312745 C50.4282644,13.1578169 50.4282644,7.36308078 41.2477611,3.7896232 Z" id="形状" fill="url(#linearGradient-3)"></path>
                    <g id="编组-10" transform="translate(19.549800, 21.807803)" fill-rule="nonzero">
                        <g id="CR" transform="translate(0.000000, 1.000000)" fill="#403C3C">
                            <path d="M2.8815,6.528 C3.6975,6.528 4.369,6.205 4.8875,5.6015 L4.2245,4.8195 C3.8845,5.185 3.4595,5.44 2.924,5.44 C1.9295,5.44 1.2835,4.6155 1.2835,3.247 C1.2835,1.8955 1.9975,1.0795 2.9495,1.0795 C3.4255,1.0795 3.791,1.3005 4.1055,1.6065 L4.7685,0.8075 C4.3605,0.3825 3.723,0 2.924,0 C1.3345,0 0,1.2155 0,3.2895 C0,5.389 1.292,6.528 2.8815,6.528 Z" id="路径"></path>
                            <path d="M7.157,1.1135 L7.973,1.1135 C8.7805,1.1135 9.2225,1.343 9.2225,2.023 C9.2225,2.6945 8.7805,3.0345 7.973,3.0345 L7.157,3.0345 L7.157,1.1135 Z M10.727,6.409 L9.2565,3.8335 C9.979,3.553 10.455,2.9665 10.455,2.023 C10.455,0.578 9.4095,0.119 8.092,0.119 L5.899,0.119 L5.899,6.409 L7.157,6.409 L7.157,4.029 L8.0325,4.029 L9.3245,6.409 L10.727,6.409 Z" id="形状"></path>
                        </g>
                        <g id="CR备份" fill="#FFFFFF">
                            <path d="M2.8815,6.528 C3.6975,6.528 4.369,6.205 4.8875,5.6015 L4.2245,4.8195 C3.8845,5.185 3.4595,5.44 2.924,5.44 C1.9295,5.44 1.2835,4.6155 1.2835,3.247 C1.2835,1.8955 1.9975,1.0795 2.9495,1.0795 C3.4255,1.0795 3.791,1.3005 4.1055,1.6065 L4.7685,0.8075 C4.3605,0.3825 3.723,0 2.924,0 C1.3345,0 0,1.2155 0,3.2895 C0,5.389 1.292,6.528 2.8815,6.528 Z" id="路径"></path>
                            <path d="M7.157,1.1135 L7.973,1.1135 C8.7805,1.1135 9.2225,1.343 9.2225,2.023 C9.2225,2.6945 8.7805,3.0345 7.973,3.0345 L7.157,3.0345 L7.157,1.1135 Z M10.727,6.409 L9.2565,3.8335 C9.979,3.553 10.455,2.9665 10.455,2.023 C10.455,0.578 9.4095,0.119 8.092,0.119 L5.899,0.119 L5.899,6.409 L7.157,6.409 L7.157,4.029 L8.0325,4.029 L9.3245,6.409 L10.727,6.409 Z" id="形状"></path>
                        </g>
                    </g>
                </g>
                <g id="编组-11备份-9">
                    <path d="M42.1166297,2.82076284 C44.4755207,3.80351481 46.2612428,4.93633717 47.4769641,6.14315603 C48.6925078,7.34979865 49.3418818,8.63288979 49.4395525,9.91962214 L49.4514041,10.1609093 L49.634557,21.0015383 C49.7089572,22.4383544 49.1057552,23.884894 47.8043659,25.2409918 C46.5816736,26.5150841 44.7382884,27.7116965 42.2690748,28.7437667 C32.5752781,32.7953687 16.8596798,32.795367 7.16645408,28.7437687 C4.75517671,27.7360278 2.94082803,26.5714546 1.71978214,25.3310805 C0.498218088,24.09018 -0.13349785,22.7709923 -0.190638659,21.453539 L-0.194622987,21.2065564 L-0.19968605,10.0779546 C-0.143249948,8.72599776 0.521740328,7.3734254 1.81246938,6.10627137 C3.02765313,4.91328282 4.80098068,3.79351852 7.13586864,2.82076662 C16.7954092,-1.20411052 32.4570982,-1.20411052 42.1166297,2.82076284 Z M41.1752143,3.97600176 C32.0353317,0.417586426 17.2171756,0.417586426 8.07730665,3.97599646 C5.90868309,4.82012058 4.25744697,5.78773886 3.12648129,6.82304983 C2.05595882,7.80302976 1.45469574,8.840866 1.33972343,9.88923143 L1.33972343,9.88923143 L47.9200231,9.96244879 L47.8946961,9.75031889 C47.7455327,8.76110419 47.1631217,7.78299216 46.1619303,6.8561025 C45.0301766,5.80834007 43.3669245,4.8291122 41.1752143,3.97600176 Z" id="形状结合" stroke="#CBB441" stroke-width="0.4" fill-rule="nonzero"></path>
                    <path d="M49.0703246,10.4507962 L49.0703246,21.0215171 C49.1408217,22.3247752 48.5718818,23.6259342 47.3970731,24.8501302 C46.2169907,26.0798214 44.4332164,27.2273829 42.0513864,28.2229289 C32.477825,32.2242776 16.9571516,32.2242808 7.38412921,28.2229253 C5.00130439,27.2270756 3.21716379,26.079142 2.03849248,24.84902 C0.866009737,23.6253567 0.300268562,22.3247842 0.376404487,21.02209 L0.376404487,21.02209 L0.365032249,10.4507962 L49.0703246,10.4507962 Z" id="路径" stroke="url(#linearGradient-2)" stroke-width="0.729" fill="url(#linearGradient-1)" fill-rule="nonzero"></path>
                    <path d="M7.23797863,3.02534809 C16.8891765,-1.00844936 32.5357137,-1.00844936 42.1863519,3.02534809 C51.83699,7.05914554 51.83699,13.5998541 42.1863519,17.6336516 C32.5357137,21.667449 16.8891765,21.667449 7.23797863,17.6336516 C-2.41265954,13.5998541 -2.41265954,7.05914554 7.23797863,3.02534809 Z" id="路径" fill="#E6DBAA" fill-rule="nonzero"></path>
                    <path d="M42.0397145,3.00538154 C32.4226574,-1.00179385 16.8298499,-1.00179385 7.21279283,3.00538154 C-2.40426428,7.0120023 -2.40426428,13.5088954 7.21279283,17.5155161 C16.8298499,21.5226915 32.4226574,21.5226915 42.0397145,17.5155161 C51.6567717,13.5088954 51.6567717,7.0120023 42.0397145,3.00538154 Z M41.2477611,3.7896232 C32.0678175,0.215610994 17.1846899,0.215610994 8.00474626,3.7896232 C-1.17575701,7.36308078 -1.17575701,13.1578169 8.00474626,16.7312745 C17.1846899,20.3052867 32.0678175,20.3052867 41.2477611,16.7312745 C50.4282644,13.1578169 50.4282644,7.36308078 41.2477611,3.7896232 Z" id="形状" fill="url(#linearGradient-4)"></path>
                    <path d="M25.9329415,3.59397926 L31.2117683,5.96289048 L29.1993839,7.28300356 L26.890763,6.37165757 L26.8911781,7.72145052 C29.0606169,7.99389373 30.7617877,8.65522503 31.5099844,9.46403963 L31.6103345,9.5805618 L34.9377671,9.58069359 L33.4188332,8.83200814 L36.0032117,7.55816299 L42.4726339,10.3303586 L36.0031011,13.0963718 L33.3670002,11.7970325 L35.2032618,11.0737542 L31.8193632,11.0734998 C31.5475073,11.6335961 30.8644911,12.1542022 29.8578511,12.5529963 C28.9622935,12.9077836 27.8142439,13.1730731 26.5219256,13.3062894 L26.1300103,13.3422496 L26.1295344,14.7946263 L28.6998747,13.8736883 L30.462508,15.0307708 L24.3578603,17.5805258 L17.6579268,14.8347016 L20.0426214,13.7111091 L22.841802,14.7859483 L22.8411425,13.3197715 C20.2829167,13.0755878 18.2967777,12.3007009 17.5779121,11.356523 L17.4977757,11.2424322 L14.018359,11.242257 L15.515454,11.7325571 L13.5015598,13.2763185 L6.46314127,10.3193962 L13.2426968,7.7224163 L15.5772845,9.25058167 L14.4514368,9.58055684 L17.6132636,9.58023158 C18.3702452,8.63331091 20.4299591,7.86942464 23.0357951,7.64863009 L23.3510684,7.62476463 L23.3512678,6.20786581 L21.0636388,7.1038694 L18.3914543,6.00873183 L24.0539958,3.59397926 L25.9329415,3.59397926 Z M24.3569541,9.41304718 C23.1965179,9.41304718 22.1462916,9.55643708 21.3864379,9.79118464 C21.022721,9.90355054 20.7280447,10.0349897 20.527918,10.801261 C20.7280447,10.9506386 21.022721,11.0820778 21.3864379,11.1944437 C22.1462916,11.4291912 23.1965179,11.5725811 24.3569541,11.5725811 C25.5178368,11.5725811 26.5697944,11.429078 27.3311168,11.1941822 C27.6954375,11.0817759 27.9907005,10.9502971 28.1912417,10.1847393 C27.9907005,10.0353313 27.6954375,9.90385245 27.3311168,9.79144616 C26.5697944,9.55655034 25.5178368,9.41304718 24.3569541,9.41304718 Z" id="形状结合备份" stroke="#C6B14C" stroke-width="0.5" fill="#FFFFFF" fill-rule="nonzero"></path>
                </g>
            </g>
        </g>
    </g>
</svg>