<?xml version="1.0" encoding="UTF-8"?>
<svg width="51px" height="33px" viewBox="0 0 51 33" version="1.1" xmlns="http://www.w3.org/2000/svg" xmlns:xlink="http://www.w3.org/1999/xlink">
    <title>4-9 DC LEAF</title>
    <defs>
        <linearGradient x1="97.4211836%" y1="50%" x2="0%" y2="50%" id="linearGradient-1">
            <stop stop-color="#C5AF48" offset="0%"></stop>
            <stop stop-color="#BBA641" offset="16.7258523%"></stop>
            <stop stop-color="#D0B944" offset="49.6694712%"></stop>
            <stop stop-color="#BBA641" offset="83.2550262%"></stop>
            <stop stop-color="#C5AF48" offset="100%"></stop>
        </linearGradient>
        <linearGradient x1="50%" y1="0%" x2="50%" y2="100%" id="linearGradient-2">
            <stop stop-color="#EBDEA4" stop-opacity="0" offset="0%"></stop>
            <stop stop-color="#FFEB92" offset="100%"></stop>
        </linearGradient>
        <linearGradient x1="62.5095608%" y1="92.7405021%" x2="62.5095608%" y2="-5.69599934e-13%" id="linearGradient-3">
            <stop stop-color="#FFEB93" offset="0%"></stop>
            <stop stop-color="#FBF9F0" stop-opacity="0" offset="100%"></stop>
        </linearGradient>
    </defs>
    <g id="页面-1" stroke="none" stroke-width="1" fill="none" fill-rule="evenodd">
        <g id="图标" transform="translate(-766.000000, -306.000000)">
            <g id="4-9-DC-LEAF" transform="translate(766.953950, 307.000000)">
                <path d="M42.1626801,2.82076284 C44.5215711,3.80351481 46.3072933,4.93633717 47.5230145,6.14315603 C48.7385583,7.34979865 49.3879322,8.63288979 49.485603,9.91962214 L49.4974545,10.1609093 L49.6806074,21.0015383 C49.7550077,22.4383544 49.1518056,23.884894 47.8504163,25.2409918 C46.6277241,26.5150841 44.7843389,27.7116965 42.3151252,28.7437667 C32.6213285,32.7953687 16.9057302,32.795367 7.21250452,28.7437687 C4.80122715,27.7360278 2.98687847,26.5714546 1.76583258,25.3310805 C0.544268529,24.09018 -0.0874474096,22.7709923 -0.144588219,21.453539 L-0.148572547,21.2065564 L-0.15363561,10.0779546 C-0.0971995073,8.72599776 0.567790768,7.3734254 1.85851982,6.10627137 C3.07370357,4.91328282 4.84703112,3.79351852 7.18191908,2.82076662 C16.8414597,-1.20411052 32.5031486,-1.20411052 42.1626801,2.82076284 Z M41.2212648,3.97600176 C32.0813822,0.417586426 17.2632261,0.417586426 8.12335709,3.97599646 C5.95473353,4.82012058 4.30349741,5.78773886 3.17253173,6.82304983 C2.10200926,7.80302976 1.50074618,8.840866 1.38577387,9.88923143 L1.38577387,9.88923143 L47.9660735,9.96244879 L47.9407465,9.75031889 C47.7915831,8.76110419 47.2091722,7.78299216 46.2079807,6.8561025 C45.0762271,5.80834007 43.4129749,4.8291122 41.2212648,3.97600176 Z" id="形状结合" stroke="#CBB441" stroke-width="0.4" fill-rule="nonzero"></path>
                <path d="M49.116375,10.4507962 L49.116375,21.0215171 C49.1868722,22.3247752 48.6179323,23.6259342 47.4431235,24.8501302 C46.2630411,26.0798214 44.4792668,27.2273829 42.0974368,28.2229289 C32.5238754,32.2242776 17.0032021,32.2242808 7.43017965,28.2229253 C5.04735483,27.2270756 3.26321423,26.079142 2.08454292,24.84902 C0.912060177,23.6253567 0.346319003,22.3247842 0.422454928,21.02209 L0.422454928,21.02209 L0.411082689,10.4507962 L49.116375,10.4507962 Z" id="路径" stroke="url(#linearGradient-2)" stroke-width="0.729" fill="url(#linearGradient-1)" fill-rule="nonzero"></path>
                <path d="M7.28402907,3.02534809 C16.9352269,-1.00844936 32.5817641,-1.00844936 42.2324023,3.02534809 C51.8830405,7.05914554 51.8830405,13.5998541 42.2324023,17.6336516 C32.5817641,21.667449 16.9352269,21.667449 7.28402907,17.6336516 C-2.3666091,13.5998541 -2.3666091,7.05914554 7.28402907,3.02534809 Z" id="路径" fill="#E6DBAA" fill-rule="nonzero"></path>
                <path d="M42.0397145,3.00538154 C32.4226574,-1.00179385 16.8298499,-1.00179385 7.21279283,3.00538154 C-2.40426428,7.0120023 -2.40426428,13.5088954 7.21279283,17.5155161 C16.8298499,21.5226915 32.4226574,21.5226915 42.0397145,17.5155161 C51.6567717,13.5088954 51.6567717,7.0120023 42.0397145,3.00538154 Z M41.2477611,3.7896232 C32.0678175,0.215610994 17.1846899,0.215610994 8.00474626,3.7896232 C-1.17575701,7.36308078 -1.17575701,13.1578169 8.00474626,16.7312745 C17.1846899,20.3052867 32.0678175,20.3052867 41.2477611,16.7312745 C50.4282644,13.1578169 50.4282644,7.36308078 41.2477611,3.7896232 Z" id="形状" fill="url(#linearGradient-3)"></path>
                <g id="编组-6" transform="translate(7.000000, 21.000000)" fill-rule="nonzero">
                    <g id="DC-LEAF" transform="translate(0.000000, 1.000000)" fill="#403C3C">
                        <path d="M0,6.409 L1.7935,6.409 C3.6465,6.409 4.8365,5.355 4.8365,3.2385 C4.8365,1.1135 3.6465,0.119 1.7255,0.119 L0,0.119 L0,6.409 Z M1.258,5.3975 L1.258,1.122 L1.649,1.122 C2.822,1.122 3.553,1.7 3.553,3.2385 C3.553,4.7685 2.822,5.3975 1.649,5.3975 L1.258,5.3975 Z" id="形状"></path>
                        <path d="M8.636,6.528 C9.452,6.528 10.1235,6.205 10.642,5.6015 L9.979,4.8195 C9.639,5.185 9.214,5.44 8.6785,5.44 C7.684,5.44 7.038,4.6155 7.038,3.247 C7.038,1.8955 7.752,1.0795 8.704,1.0795 C9.18,1.0795 9.5455,1.3005 9.86,1.6065 L10.523,0.8075 C10.115,0.3825 9.4775,0 8.6785,0 C7.089,0 5.7545,1.2155 5.7545,3.2895 C5.7545,5.389 7.0465,6.528 8.636,6.528 Z" id="路径"></path>
                        <polygon id="路径" points="11.2965 4.42 13.617 4.42 13.617 3.5275 11.2965 3.5275"></polygon>
                        <polygon id="路径" points="14.7985 6.409 18.6065 6.409 18.6065 5.355 16.0565 5.355 16.0565 0.119 14.7985 0.119"></polygon>
                        <polygon id="路径" points="19.703 6.409 23.6555 6.409 23.6555 5.355 20.961 5.355 20.961 3.672 23.171 3.672 23.171 2.618 20.961 2.618 20.961 1.1645 23.562 1.1645 23.562 0.119 19.703 0.119"></polygon>
                        <path d="M26.112,3.8165 L26.299,3.128 C26.486,2.4735 26.673,1.7595 26.8345,1.071 L26.8685,1.071 C27.0555,1.751 27.2255,2.4735 27.421,3.128 L27.608,3.8165 L26.112,3.8165 Z M28.322,6.409 L29.6395,6.409 L27.6165,0.119 L26.1375,0.119 L24.123,6.409 L25.398,6.409 L25.84,4.794 L27.88,4.794 L28.322,6.409 Z" id="形状"></path>
                        <polygon id="路径" points="30.379 6.409 31.637 6.409 31.637 3.859 33.8725 3.859 33.8725 2.805 31.637 2.805 31.637 1.1645 34.255 1.1645 34.255 0.119 30.379 0.119"></polygon>
                    </g>
                    <g id="DC-LEAF备份-8" transform="translate(0.000000, 0.000000)" fill="#FFFFFF">
                        <path d="M0,6.409 L1.7935,6.409 C3.6465,6.409 4.8365,5.355 4.8365,3.2385 C4.8365,1.1135 3.6465,0.119 1.7255,0.119 L0,0.119 L0,6.409 Z M1.258,5.3975 L1.258,1.122 L1.649,1.122 C2.822,1.122 3.553,1.7 3.553,3.2385 C3.553,4.7685 2.822,5.3975 1.649,5.3975 L1.258,5.3975 Z" id="形状"></path>
                        <path d="M8.636,6.528 C9.452,6.528 10.1235,6.205 10.642,5.6015 L9.979,4.8195 C9.639,5.185 9.214,5.44 8.6785,5.44 C7.684,5.44 7.038,4.6155 7.038,3.247 C7.038,1.8955 7.752,1.0795 8.704,1.0795 C9.18,1.0795 9.5455,1.3005 9.86,1.6065 L10.523,0.8075 C10.115,0.3825 9.4775,0 8.6785,0 C7.089,0 5.7545,1.2155 5.7545,3.2895 C5.7545,5.389 7.0465,6.528 8.636,6.528 Z" id="路径"></path>
                        <polygon id="路径" points="11.2965 4.42 13.617 4.42 13.617 3.5275 11.2965 3.5275"></polygon>
                        <polygon id="路径" points="14.7985 6.409 18.6065 6.409 18.6065 5.355 16.0565 5.355 16.0565 0.119 14.7985 0.119"></polygon>
                        <polygon id="路径" points="19.703 6.409 23.6555 6.409 23.6555 5.355 20.961 5.355 20.961 3.672 23.171 3.672 23.171 2.618 20.961 2.618 20.961 1.1645 23.562 1.1645 23.562 0.119 19.703 0.119"></polygon>
                        <path d="M26.112,3.8165 L26.299,3.128 C26.486,2.4735 26.673,1.7595 26.8345,1.071 L26.8685,1.071 C27.0555,1.751 27.2255,2.4735 27.421,3.128 L27.608,3.8165 L26.112,3.8165 Z M28.322,6.409 L29.6395,6.409 L27.6165,0.119 L26.1375,0.119 L24.123,6.409 L25.398,6.409 L25.84,4.794 L27.88,4.794 L28.322,6.409 Z" id="形状"></path>
                        <polygon id="路径" points="30.379 6.409 31.637 6.409 31.637 3.859 33.8725 3.859 33.8725 2.805 31.637 2.805 31.637 1.1645 34.255 1.1645 34.255 0.119 30.379 0.119"></polygon>
                    </g>
                </g>
                <path d="M10.7744864,9.94323592 L23.3076802,14.6714957 L23.261949,13.3934744 L26.53767,13.2233078 L26.6722697,17.1639958 L17.6328555,17.6336211 L17.5813934,16.1954454 L20.7042288,16.0332381 L8.30844912,11.2967554 L10.7744864,9.94323592 Z M24.5336721,6.33208914 L24.5907307,7.92666763 L22.3440356,8.04344134 L33.7575925,12.3167338 L31.6369967,14.0205169 L18.8628562,9.2911667 L18.9036052,10.5723021 L16.0537862,10.7202355 L15.9255952,6.77952118 L24.5336721,6.33208914 Z M23.6043853,2.63688176 L36.7968307,7.64786009 L36.750647,6.21378648 L39.8131992,6.05474698 L39.9470558,10.152446 L31.1196666,10.6104218 L31.0589958,8.70295559 L33.2797999,8.58752758 L21.1835916,4.17026005 L23.6043853,2.63688176 Z" id="形状结合" stroke="#C6B14C" stroke-width="0.5" fill="#FFFFFF" fill-rule="nonzero"></path>
            </g>
        </g>
    </g>
</svg>