<?xml version="1.0" encoding="UTF-8"?>
<svg width="51px" height="33px" viewBox="0 0 51 33" version="1.1" xmlns="http://www.w3.org/2000/svg" xmlns:xlink="http://www.w3.org/1999/xlink">
    <title>4-8 DC LEAF</title>
    <defs>
        <linearGradient x1="97.4211836%" y1="50%" x2="0%" y2="50%" id="linearGradient-1">
            <stop stop-color="#1B79BA" offset="0%"></stop>
            <stop stop-color="#1068A4" offset="14.5214161%"></stop>
            <stop stop-color="#2B88CC" offset="47.8064904%"></stop>
            <stop stop-color="#1068A4" offset="84.7902098%"></stop>
            <stop stop-color="#1B79BA" offset="100%"></stop>
        </linearGradient>
        <linearGradient x1="50%" y1="0%" x2="50%" y2="100%" id="linearGradient-2">
            <stop stop-color="#D5EEFF" stop-opacity="0" offset="0%"></stop>
            <stop stop-color="#D5EEFF" offset="100%"></stop>
        </linearGradient>
        <linearGradient x1="62.5095608%" y1="87.4904392%" x2="62.5095608%" y2="-5.69599934e-13%" id="linearGradient-3">
            <stop stop-color="#D5EEFF" offset="0%"></stop>
            <stop stop-color="#D5EEFF" stop-opacity="0" offset="100%"></stop>
        </linearGradient>
    </defs>
    <g id="页面-1" stroke="none" stroke-width="1" fill="none" fill-rule="evenodd">
        <g id="图标" transform="translate(-677.000000, -306.000000)">
            <g id="4-8-DC-LEAF" transform="translate(678.000000, 307.000000)">
                <path d="M42.1166297,2.82076284 C44.4755207,3.80351481 46.2612428,4.93633717 47.4769641,6.14315603 C48.6925078,7.34979865 49.3418818,8.63288979 49.4395525,9.91962214 L49.4514041,10.1609093 L49.634557,21.0015383 C49.7089572,22.4383544 49.1057552,23.884894 47.8043659,25.2409918 C46.5816736,26.5150841 44.7382884,27.7116965 42.2690748,28.7437667 C32.5752781,32.7953687 16.8596798,32.795367 7.16645408,28.7437687 C4.75517671,27.7360278 2.94082803,26.5714546 1.71978214,25.3310805 C0.498218088,24.09018 -0.13349785,22.7709923 -0.190638659,21.453539 L-0.194622987,21.2065564 L-0.19968605,10.0779546 C-0.143249948,8.72599776 0.521740328,7.3734254 1.81246938,6.10627137 C3.02765313,4.91328282 4.80098068,3.79351852 7.13586864,2.82076662 C16.7954092,-1.20411052 32.4570982,-1.20411052 42.1166297,2.82076284 Z M41.1752143,3.97600176 C32.0353317,0.417586426 17.2171756,0.417586426 8.07730665,3.97599646 C5.90868309,4.82012058 4.25744697,5.78773886 3.12648129,6.82304983 C2.05595882,7.80302976 1.45469574,8.840866 1.33972343,9.88923143 L1.33972343,9.88923143 L47.9200231,9.96244879 L47.8946961,9.75031889 C47.7455327,8.76110419 47.1631217,7.78299216 46.1619303,6.8561025 C45.0301766,5.80834007 43.3669245,4.8291122 41.1752143,3.97600176 Z" id="形状结合" stroke="#2D73A4" stroke-width="0.4" fill-rule="nonzero"></path>
                <path d="M49.0703246,10.4507962 L49.0703246,21.0215171 C49.1408217,22.3247752 48.5718818,23.6259342 47.3970731,24.8501302 C46.2169907,26.0798214 44.4332164,27.2273829 42.0513864,28.2229289 C32.477825,32.2242776 16.9571516,32.2242808 7.38412921,28.2229253 C5.00130439,27.2270756 3.21716379,26.079142 2.03849248,24.84902 C0.866009737,23.6253567 0.300268562,22.3247842 0.376404487,21.02209 L0.376404487,21.02209 L0.365032249,10.4507962 L49.0703246,10.4507962 Z" id="路径" stroke="url(#linearGradient-2)" stroke-width="0.729" fill="url(#linearGradient-1)" fill-rule="nonzero"></path>
                <path d="M7.23797863,3.02534809 C16.8891765,-1.00844936 32.5357137,-1.00844936 42.1863519,3.02534809 C51.83699,7.05914554 51.83699,13.5998541 42.1863519,17.6336516 C32.5357137,21.667449 16.8891765,21.667449 7.23797863,17.6336516 C-2.41265954,13.5998541 -2.41265954,7.05914554 7.23797863,3.02534809 Z" id="路径" fill="#90C1EA" fill-rule="nonzero"></path>
                <path d="M42.0397145,3.00538154 C32.4226574,-1.00179385 16.8298499,-1.00179385 7.21279283,3.00538154 C-2.40426428,7.0120023 -2.40426428,13.5088954 7.21279283,17.5155161 C16.8298499,21.5226915 32.4226574,21.5226915 42.0397145,17.5155161 C51.6567717,13.5088954 51.6567717,7.0120023 42.0397145,3.00538154 Z M41.2477611,3.7896232 C32.0678175,0.215610994 17.1846899,0.215610994 8.00474626,3.7896232 C-1.17575701,7.36308078 -1.17575701,13.1578169 8.00474626,16.7312745 C17.1846899,20.3052867 32.0678175,20.3052867 41.2477611,16.7312745 C50.4282644,13.1578169 50.4282644,7.36308078 41.2477611,3.7896232 Z" id="形状" fill="url(#linearGradient-3)"></path>
                <g id="编组-6" transform="translate(7.953950, 20.505995)" fill-rule="nonzero">
                    <g id="DC-LEAF" transform="translate(0.000000, 1.000000)" fill="#403C3C">
                        <path d="M0,6.409 L1.7935,6.409 C3.6465,6.409 4.8365,5.355 4.8365,3.2385 C4.8365,1.1135 3.6465,0.119 1.7255,0.119 L0,0.119 L0,6.409 Z M1.258,5.3975 L1.258,1.122 L1.649,1.122 C2.822,1.122 3.553,1.7 3.553,3.2385 C3.553,4.7685 2.822,5.3975 1.649,5.3975 L1.258,5.3975 Z" id="形状"></path>
                        <path d="M8.636,6.528 C9.452,6.528 10.1235,6.205 10.642,5.6015 L9.979,4.8195 C9.639,5.185 9.214,5.44 8.6785,5.44 C7.684,5.44 7.038,4.6155 7.038,3.247 C7.038,1.8955 7.752,1.0795 8.704,1.0795 C9.18,1.0795 9.5455,1.3005 9.86,1.6065 L10.523,0.8075 C10.115,0.3825 9.4775,0 8.6785,0 C7.089,0 5.7545,1.2155 5.7545,3.2895 C5.7545,5.389 7.0465,6.528 8.636,6.528 Z" id="路径"></path>
                        <polygon id="路径" points="11.2965 4.42 13.617 4.42 13.617 3.5275 11.2965 3.5275"></polygon>
                        <polygon id="路径" points="14.7985 6.409 18.6065 6.409 18.6065 5.355 16.0565 5.355 16.0565 0.119 14.7985 0.119"></polygon>
                        <polygon id="路径" points="19.703 6.409 23.6555 6.409 23.6555 5.355 20.961 5.355 20.961 3.672 23.171 3.672 23.171 2.618 20.961 2.618 20.961 1.1645 23.562 1.1645 23.562 0.119 19.703 0.119"></polygon>
                        <path d="M26.112,3.8165 L26.299,3.128 C26.486,2.4735 26.673,1.7595 26.8345,1.071 L26.8685,1.071 C27.0555,1.751 27.2255,2.4735 27.421,3.128 L27.608,3.8165 L26.112,3.8165 Z M28.322,6.409 L29.6395,6.409 L27.6165,0.119 L26.1375,0.119 L24.123,6.409 L25.398,6.409 L25.84,4.794 L27.88,4.794 L28.322,6.409 Z" id="形状"></path>
                        <polygon id="路径" points="30.379 6.409 31.637 6.409 31.637 3.859 33.8725 3.859 33.8725 2.805 31.637 2.805 31.637 1.1645 34.255 1.1645 34.255 0.119 30.379 0.119"></polygon>
                    </g>
                    <g id="DC-LEAF备份-8" transform="translate(0.000000, 0.000000)" fill="#FFFFFF">
                        <path d="M0,6.409 L1.7935,6.409 C3.6465,6.409 4.8365,5.355 4.8365,3.2385 C4.8365,1.1135 3.6465,0.119 1.7255,0.119 L0,0.119 L0,6.409 Z M1.258,5.3975 L1.258,1.122 L1.649,1.122 C2.822,1.122 3.553,1.7 3.553,3.2385 C3.553,4.7685 2.822,5.3975 1.649,5.3975 L1.258,5.3975 Z" id="形状"></path>
                        <path d="M8.636,6.528 C9.452,6.528 10.1235,6.205 10.642,5.6015 L9.979,4.8195 C9.639,5.185 9.214,5.44 8.6785,5.44 C7.684,5.44 7.038,4.6155 7.038,3.247 C7.038,1.8955 7.752,1.0795 8.704,1.0795 C9.18,1.0795 9.5455,1.3005 9.86,1.6065 L10.523,0.8075 C10.115,0.3825 9.4775,0 8.6785,0 C7.089,0 5.7545,1.2155 5.7545,3.2895 C5.7545,5.389 7.0465,6.528 8.636,6.528 Z" id="路径"></path>
                        <polygon id="路径" points="11.2965 4.42 13.617 4.42 13.617 3.5275 11.2965 3.5275"></polygon>
                        <polygon id="路径" points="14.7985 6.409 18.6065 6.409 18.6065 5.355 16.0565 5.355 16.0565 0.119 14.7985 0.119"></polygon>
                        <polygon id="路径" points="19.703 6.409 23.6555 6.409 23.6555 5.355 20.961 5.355 20.961 3.672 23.171 3.672 23.171 2.618 20.961 2.618 20.961 1.1645 23.562 1.1645 23.562 0.119 19.703 0.119"></polygon>
                        <path d="M26.112,3.8165 L26.299,3.128 C26.486,2.4735 26.673,1.7595 26.8345,1.071 L26.8685,1.071 C27.0555,1.751 27.2255,2.4735 27.421,3.128 L27.608,3.8165 L26.112,3.8165 Z M28.322,6.409 L29.6395,6.409 L27.6165,0.119 L26.1375,0.119 L24.123,6.409 L25.398,6.409 L25.84,4.794 L27.88,4.794 L28.322,6.409 Z" id="形状"></path>
                        <polygon id="路径" points="30.379 6.409 31.637 6.409 31.637 3.859 33.8725 3.859 33.8725 2.805 31.637 2.805 31.637 1.1645 34.255 1.1645 34.255 0.119 30.379 0.119"></polygon>
                    </g>
                </g>
                <path d="M10.9657939,9.5877305 L23.4989877,14.3159903 L23.4532565,13.037969 L26.7289775,12.8678024 L26.8635771,16.8084904 L17.8241629,17.2781157 L17.7727009,15.83994 L20.8955363,15.6777326 L8.4997566,10.94125 L10.9657939,9.5877305 Z M24.7249796,5.97658372 L24.7820382,7.57116221 L22.5353431,7.68793592 L33.9489,11.9612284 L31.8283042,13.6650114 L19.0541637,8.93566128 L19.0949127,10.2167966 L16.2450937,10.3647301 L16.1169027,6.42401575 L24.7249796,5.97658372 Z M23.7956928,2.28137634 L36.9881382,7.29235467 L36.9419544,5.85828106 L40.0045067,5.69924156 L40.1383633,9.79694056 L31.310974,10.2549164 L31.2503033,8.34745016 L33.4711074,8.23202215 L21.3748991,3.81475463 L23.7956928,2.28137634 Z" id="形状结合" stroke="#6292BA" stroke-width="0.5" fill="#FFFFFF" fill-rule="nonzero"></path>
            </g>
        </g>
    </g>
</svg>