<?xml version="1.0" encoding="UTF-8"?>
<svg width="51px" height="33px" viewBox="0 0 51 33" version="1.1" xmlns="http://www.w3.org/2000/svg" xmlns:xlink="http://www.w3.org/1999/xlink">
    <title>8-1 DCGW</title>
    <defs>
        <linearGradient x1="97.4211836%" y1="50%" x2="0%" y2="50%" id="linearGradient-1">
            <stop stop-color="#EB7400" offset="0%"></stop>
            <stop stop-color="#D35500" offset="15.7506556%"></stop>
            <stop stop-color="#F28223" offset="49.6694712%"></stop>
            <stop stop-color="#DD5D00" offset="83.2550262%"></stop>
            <stop stop-color="#EB7400" offset="100%"></stop>
        </linearGradient>
        <linearGradient x1="50%" y1="0%" x2="50%" y2="100%" id="linearGradient-2">
            <stop stop-color="#FCECDE" stop-opacity="0" offset="0%"></stop>
            <stop stop-color="#FCECDE" offset="100%"></stop>
        </linearGradient>
        <linearGradient x1="62.5095608%" y1="87.4904392%" x2="62.5095608%" y2="-5.69599934e-13%" id="linearGradient-3">
            <stop stop-color="#FCECDE" offset="0%"></stop>
            <stop stop-color="#FCECDE" stop-opacity="0" offset="100%"></stop>
        </linearGradient>
    </defs>
    <g id="页面-1" stroke="none" stroke-width="1" fill="none" fill-rule="evenodd">
        <g id="图标" transform="translate(-51.000000, -671.000000)">
            <g id="8-1-DCGW" transform="translate(52.000000, 672.000000)">
                <path d="M42.1166297,2.82076284 C44.4755207,3.80351481 46.2612428,4.93633717 47.4769641,6.14315603 C48.6925078,7.34979865 49.3418818,8.63288979 49.4395525,9.91962214 L49.4514041,10.1609093 L49.634557,21.0015383 C49.7089572,22.4383544 49.1057552,23.884894 47.8043659,25.2409918 C46.5816736,26.5150841 44.7382884,27.7116965 42.2690748,28.7437667 C32.5752781,32.7953687 16.8596798,32.795367 7.16645408,28.7437687 C4.75517671,27.7360278 2.94082803,26.5714546 1.71978214,25.3310805 C0.498218088,24.09018 -0.13349785,22.7709923 -0.190638659,21.453539 L-0.194622987,21.2065564 L-0.19968605,10.0779546 C-0.143249948,8.72599776 0.521740328,7.3734254 1.81246938,6.10627137 C3.02765313,4.91328282 4.80098068,3.79351852 7.13586864,2.82076662 C16.7954092,-1.20411052 32.4570982,-1.20411052 42.1166297,2.82076284 Z M41.1752143,3.97600176 C32.0353317,0.417586426 17.2171756,0.417586426 8.07730665,3.97599646 C5.90868309,4.82012058 4.25744697,5.78773886 3.12648129,6.82304983 C2.05595882,7.80302976 1.45469574,8.840866 1.33972343,9.88923143 L1.33972343,9.88923143 L47.9200231,9.96244879 L47.8946961,9.75031889 C47.7455327,8.76110419 47.1631217,7.78299216 46.1619303,6.8561025 C45.0301766,5.80834007 43.3669245,4.8291122 41.1752143,3.97600176 Z" id="形状结合" stroke="#DE8635" stroke-width="0.4" fill-rule="nonzero"></path>
                <path d="M49.0703246,10.4507962 L49.0703246,21.0215171 C49.1408217,22.3247752 48.5718818,23.6259342 47.3970731,24.8501302 C46.2169907,26.0798214 44.4332164,27.2273829 42.0513864,28.2229289 C32.477825,32.2242776 16.9571516,32.2242808 7.38412921,28.2229253 C5.00130439,27.2270756 3.21716379,26.079142 2.03849248,24.84902 C0.866009737,23.6253567 0.300268562,22.3247842 0.376404487,21.02209 L0.376404487,21.02209 L0.365032249,10.4507962 L49.0703246,10.4507962 Z" id="路径" stroke="url(#linearGradient-2)" stroke-width="0.729" fill="url(#linearGradient-1)" fill-rule="nonzero"></path>
                <path d="M7.23797863,3.02534809 C16.8891765,-1.00844936 32.5357137,-1.00844936 42.1863519,3.02534809 C51.83699,7.05914554 51.83699,13.5998541 42.1863519,17.6336516 C32.5357137,21.667449 16.8891765,21.667449 7.23797863,17.6336516 C-2.41265954,13.5998541 -2.41265954,7.05914554 7.23797863,3.02534809 Z" id="路径" fill="#F8BD8C" fill-rule="nonzero"></path>
                <path d="M42.0397145,3.00538154 C32.4226574,-1.00179385 16.8298499,-1.00179385 7.21279283,3.00538154 C-2.40426428,7.0120023 -2.40426428,13.5088954 7.21279283,17.5155161 C16.8298499,21.5226915 32.4226574,21.5226915 42.0397145,17.5155161 C51.6567717,13.5088954 51.6567717,7.0120023 42.0397145,3.00538154 Z M41.2477611,3.7896232 C32.0678175,0.215610994 17.1846899,0.215610994 8.00474626,3.7896232 C-1.17575701,7.36308078 -1.17575701,13.1578169 8.00474626,16.7312745 C17.1846899,20.3052867 32.0678175,20.3052867 41.2477611,16.7312745 C50.4282644,13.1578169 50.4282644,7.36308078 41.2477611,3.7896232 Z" id="形状" fill="url(#linearGradient-3)"></path>
                <g id="编组-9" transform="translate(12.510750, 21.591000)" fill-rule="nonzero">
                    <g id="DCGW" transform="translate(0.000000, 1.000000)" fill="#403C3C">
                        <path d="M0,6.409 L1.7935,6.409 C3.6465,6.409 4.8365,5.355 4.8365,3.2385 C4.8365,1.1135 3.6465,0.119 1.7255,0.119 L0,0.119 L0,6.409 Z M1.258,5.3975 L1.258,1.122 L1.649,1.122 C2.822,1.122 3.553,1.7 3.553,3.2385 C3.553,4.7685 2.822,5.3975 1.649,5.3975 L1.258,5.3975 Z" id="形状"></path>
                        <path d="M8.636,6.528 C9.452,6.528 10.1235,6.205 10.642,5.6015 L9.979,4.8195 C9.639,5.185 9.214,5.44 8.6785,5.44 C7.684,5.44 7.038,4.6155 7.038,3.247 C7.038,1.8955 7.752,1.0795 8.704,1.0795 C9.18,1.0795 9.5455,1.3005 9.86,1.6065 L10.523,0.8075 C10.115,0.3825 9.4775,0 8.6785,0 C7.089,0 5.7545,1.2155 5.7545,3.2895 C5.7545,5.389 7.0465,6.528 8.636,6.528 Z" id="路径"></path>
                        <path d="M14.3565,6.528 C15.232,6.528 15.9715,6.188 16.3965,5.7715 L16.3965,2.9325 L14.161,2.9325 L14.161,3.961 L15.2745,3.961 L15.2745,5.202 C15.096,5.355 14.79,5.44 14.484,5.44 C13.2515,5.44 12.6225,4.6155 12.6225,3.247 C12.6225,1.8955 13.3535,1.0795 14.399,1.0795 C14.9685,1.0795 15.3255,1.309 15.6315,1.6065 L16.303,0.8075 C15.895,0.391 15.266,0 14.3565,0 C12.682,0 11.339,1.2155 11.339,3.2895 C11.339,5.389 12.6395,6.528 14.3565,6.528 Z" id="路径"></path>
                        <path d="M18.343,6.409 L19.8815,6.409 L20.57,3.298 C20.672,2.805 20.757,2.3205 20.842,1.8445 L20.876,1.8445 C20.9525,2.3205 21.046,2.805 21.148,3.298 L21.8535,6.409 L23.4175,6.409 L24.582,0.119 L23.3835,0.119 L22.8905,3.1875 C22.797,3.842 22.7035,4.5135 22.61,5.1935 L22.5675,5.1935 C22.4315,4.5135 22.304,3.8335 22.168,3.1875 L21.437,0.119 L20.366,0.119 L19.635,3.1875 C19.499,3.842 19.363,4.522 19.2355,5.1935 L19.2015,5.1935 C19.108,4.522 19.006,3.8505 18.9125,3.1875 L18.411,0.119 L17.1275,0.119 L18.343,6.409 Z" id="路径"></path>
                    </g>
                    <g id="DCGW备份" fill="#FFFFFF">
                        <path d="M0,6.409 L1.7935,6.409 C3.6465,6.409 4.8365,5.355 4.8365,3.2385 C4.8365,1.1135 3.6465,0.119 1.7255,0.119 L0,0.119 L0,6.409 Z M1.258,5.3975 L1.258,1.122 L1.649,1.122 C2.822,1.122 3.553,1.7 3.553,3.2385 C3.553,4.7685 2.822,5.3975 1.649,5.3975 L1.258,5.3975 Z" id="形状"></path>
                        <path d="M8.636,6.528 C9.452,6.528 10.1235,6.205 10.642,5.6015 L9.979,4.8195 C9.639,5.185 9.214,5.44 8.6785,5.44 C7.684,5.44 7.038,4.6155 7.038,3.247 C7.038,1.8955 7.752,1.0795 8.704,1.0795 C9.18,1.0795 9.5455,1.3005 9.86,1.6065 L10.523,0.8075 C10.115,0.3825 9.4775,0 8.6785,0 C7.089,0 5.7545,1.2155 5.7545,3.2895 C5.7545,5.389 7.0465,6.528 8.636,6.528 Z" id="路径"></path>
                        <path d="M14.3565,6.528 C15.232,6.528 15.9715,6.188 16.3965,5.7715 L16.3965,2.9325 L14.161,2.9325 L14.161,3.961 L15.2745,3.961 L15.2745,5.202 C15.096,5.355 14.79,5.44 14.484,5.44 C13.2515,5.44 12.6225,4.6155 12.6225,3.247 C12.6225,1.8955 13.3535,1.0795 14.399,1.0795 C14.9685,1.0795 15.3255,1.309 15.6315,1.6065 L16.303,0.8075 C15.895,0.391 15.266,0 14.3565,0 C12.682,0 11.339,1.2155 11.339,3.2895 C11.339,5.389 12.6395,6.528 14.3565,6.528 Z" id="路径"></path>
                        <path d="M18.343,6.409 L19.8815,6.409 L20.57,3.298 C20.672,2.805 20.757,2.3205 20.842,1.8445 L20.876,1.8445 C20.9525,2.3205 21.046,2.805 21.148,3.298 L21.8535,6.409 L23.4175,6.409 L24.582,0.119 L23.3835,0.119 L22.8905,3.1875 C22.797,3.842 22.7035,4.5135 22.61,5.1935 L22.5675,5.1935 C22.4315,4.5135 22.304,3.8335 22.168,3.1875 L21.437,0.119 L20.366,0.119 L19.635,3.1875 C19.499,3.842 19.363,4.522 19.2355,5.1935 L19.2015,5.1935 C19.108,4.522 19.006,3.8505 18.9125,3.1875 L18.411,0.119 L17.1275,0.119 L18.343,6.409 Z" id="路径"></path>
                    </g>
                </g>
                <path d="M26.5385568,11.6326203 L31.2573355,13.4712033 L29.0528318,14.6765534 L26.7415731,13.6051452 L26.7415731,16.8651638 L23.2250876,16.8651638 L23.2250876,13.5914055 L20.6879834,14.6683175 L17.9532545,13.5057831 L22.4965626,11.6326203 L26.5385568,11.6326203 Z M33.4567293,7.16330357 L36.1353342,8.68130115 L34.901677,9.11854317 L42.5123637,9.11854317 L42.5123637,10.949623 L34.1667006,10.949623 L35.8257895,11.8898487 L33.9192875,12.9013081 L29.2524622,10.7103518 L29.2524622,9.21227275 L33.4567293,7.16330357 Z M15.8344989,7.16750989 L20.0146426,9.51791369 L20.0146426,10.3978425 L16.0442397,12.768162 L13.9114736,11.4074383 L15.18011,10.8015404 L6.75474107,10.8015404 L6.75474107,8.97046053 L14.6968844,8.97046053 L13.0642304,8.34515225 L15.8344989,7.16750989 Z M24.404098,8.67429526 C25.2097296,8.67429526 25.9395606,8.81610882 26.4683589,9.04101681 C26.7603433,9.16520338 26.9934972,9.31617587 27.1538405,9.48068959 C27.0624255,10.8103139 26.8184189,11.0165058 26.5527008,11.1373641 L26.4682207,11.1739041 C25.939425,11.3989165 25.2096537,11.5408443 24.404098,11.5408443 C23.5960806,11.5408443 22.8652434,11.3990465 22.3358619,11.1742373 C22.0433234,11.0500067 21.8098259,10.8989699 21.6492556,10.7344037 C21.7502666,9.26402408 22.0380685,9.16702793 22.3357234,9.04068385 C22.8651074,8.81597884 23.5960044,8.67429526 24.404098,8.67429526 Z M26.5065223,3.05436513 L26.5065223,6.6184191 L29.2944607,5.38818983 L31.2059361,6.60541168 L26.0768098,8.73060197 L23.1958935,8.73060197 L17.7664601,6.75151158 L19.9709406,5.54617415 L22.7605824,6.50377471 L22.7605824,3.05436513 L26.5065223,3.05436513 Z" id="形状" stroke="#E19150" stroke-width="0.5" fill="#FFFFFF"></path>
            </g>
        </g>
    </g>
</svg>