<?xml version="1.0" encoding="UTF-8"?>
<svg width="51px" height="33px" viewBox="0 0 51 33" version="1.1" xmlns="http://www.w3.org/2000/svg" xmlns:xlink="http://www.w3.org/1999/xlink">
    <title>2-5DSW</title>
    <defs>
        <linearGradient x1="97.4211836%" y1="50%" x2="0%" y2="50%" id="linearGradient-1">
            <stop stop-color="#00E0D8" offset="0%"></stop>
            <stop stop-color="#00CEC4" offset="14.5214161%"></stop>
            <stop stop-color="#00DDD4" offset="49.6694712%"></stop>
            <stop stop-color="#00CEC4" offset="83.2550262%"></stop>
            <stop stop-color="#00E0D8" offset="100%"></stop>
        </linearGradient>
        <linearGradient x1="50%" y1="0%" x2="50%" y2="100%" id="linearGradient-2">
            <stop stop-color="#CBFFFC" stop-opacity="0" offset="0%"></stop>
            <stop stop-color="#CBFFFC" offset="100%"></stop>
        </linearGradient>
        <linearGradient x1="62.5095608%" y1="87.4904392%" x2="62.5095608%" y2="-5.69599934e-13%" id="linearGradient-3">
            <stop stop-color="#BDFFFB" offset="0%"></stop>
            <stop stop-color="#BDFFFB" stop-opacity="0" offset="100%"></stop>
        </linearGradient>
    </defs>
    <g id="页面-1" stroke="none" stroke-width="1" fill="none" fill-rule="evenodd">
        <g id="图标" transform="translate(-409.000000, -123.000000)">
            <g id="2-5DSW" transform="translate(409.739298, 123.669589)">
                <path d="M42.1166297,2.82076284 C44.4755207,3.80351481 46.2612428,4.93633717 47.4769641,6.14315603 C48.6925078,7.34979865 49.3418818,8.63288979 49.4395525,9.91962214 L49.4514041,10.1609093 L49.634557,21.0015383 C49.7089572,22.4383544 49.1057552,23.884894 47.8043659,25.2409918 C46.5816736,26.5150841 44.7382884,27.7116965 42.2690748,28.7437667 C32.5752781,32.7953687 16.8596798,32.795367 7.16645408,28.7437687 C4.75517671,27.7360278 2.94082803,26.5714546 1.71978214,25.3310805 C0.498218088,24.09018 -0.13349785,22.7709923 -0.190638659,21.453539 L-0.194622987,21.2065564 L-0.19968605,10.0779546 C-0.143249948,8.72599776 0.521740328,7.3734254 1.81246938,6.10627137 C3.02765313,4.91328282 4.80098068,3.79351852 7.13586864,2.82076662 C16.7954092,-1.20411052 32.4570982,-1.20411052 42.1166297,2.82076284 Z M41.1752143,3.97600176 C32.0353317,0.417586426 17.2171756,0.417586426 8.07730665,3.97599646 C5.90868309,4.82012058 4.25744697,5.78773886 3.12648129,6.82304983 C2.05595882,7.80302976 1.45469574,8.840866 1.33972343,9.88923143 L1.33972343,9.88923143 L47.9200231,9.96244879 L47.8946961,9.75031889 C47.7455327,8.76110419 47.1631217,7.78299216 46.1619303,6.8561025 C45.0301766,5.80834007 43.3669245,4.8291122 41.1752143,3.97600176 Z" id="形状结合" stroke="#22DFD6" stroke-width="0.4" fill-rule="nonzero"></path>
                <path d="M49.0703246,10.4507962 L49.0703246,21.0215171 C49.1408217,22.3247752 48.5718818,23.6259342 47.3970731,24.8501302 C46.2169907,26.0798214 44.4332164,27.2273829 42.0513864,28.2229289 C32.477825,32.2242776 16.9571516,32.2242808 7.38412921,28.2229253 C5.00130439,27.2270756 3.21716379,26.079142 2.03849248,24.84902 C0.866009737,23.6253567 0.300268562,22.3247842 0.376404487,21.02209 L0.376404487,21.02209 L0.365032249,10.4507962 L49.0703246,10.4507962 Z" id="路径" stroke="url(#linearGradient-2)" stroke-width="0.729" fill="url(#linearGradient-1)" fill-rule="nonzero"></path>
                <path d="M7.23797863,3.02534809 C16.8891765,-1.00844936 32.5357137,-1.00844936 42.1863519,3.02534809 C51.83699,7.05914554 51.83699,13.5998541 42.1863519,17.6336516 C32.5357137,21.667449 16.8891765,21.667449 7.23797863,17.6336516 C-2.41265954,13.5998541 -2.41265954,7.05914554 7.23797863,3.02534809 Z" id="路径" fill="#88EEE9" fill-rule="nonzero"></path>
                <path d="M42.0397145,3.00538154 C32.4226574,-1.00179385 16.8298499,-1.00179385 7.21279283,3.00538154 C-2.40426428,7.0120023 -2.40426428,13.5088954 7.21279283,17.5155161 C16.8298499,21.5226915 32.4226574,21.5226915 42.0397145,17.5155161 C51.6567717,13.5088954 51.6567717,7.0120023 42.0397145,3.00538154 Z M41.2477611,3.7896232 C32.0678175,0.215610994 17.1846899,0.215610994 8.00474626,3.7896232 C-1.17575701,7.36308078 -1.17575701,13.1578169 8.00474626,16.7312745 C17.1846899,20.3052867 32.0678175,20.3052867 41.2477611,16.7312745 C50.4282644,13.1578169 50.4282644,7.36308078 41.2477611,3.7896232 Z" id="形状" fill="url(#linearGradient-3)"></path>
                <path d="M38.0348921,4.81480254 L38.1709045,4.88464106 L36.9417658,7.40775118 C36.8527485,7.56828169 36.5774019,7.71592032 36.2170755,7.75543817 C35.9895358,7.780393 35.738498,7.76667566 35.5255149,7.7114413 L35.3738747,7.66218664 L30.746047,9.16798795 C30.9008473,9.80771889 30.9436797,9.987594 30.9436797,10.1695436 C30.9436797,10.3764887 30.8910423,10.5818581 30.7891735,10.7748526 L30.7035942,10.9171094 L34.5477478,12.6992085 C35.4993152,12.6370155 35.7764909,12.6021879 35.9737145,12.5944528 L36.0550769,12.5927957 C36.236127,12.5927957 36.4171325,12.6184228 36.5862464,12.6673747 L36.7509576,12.7240163 L38.4545054,15.088783 C37.9660428,15.6412675 37.6207979,15.7208833 37.2778365,15.6979217 L37.1920622,15.6902586 L32.1801959,15.1442429 L27.8070605,12.570709 C27.59903,12.5012106 27.365522,12.4837172 27.1380144,12.5209677 C25.7590239,12.7287814 24.3344481,12.7287582 22.9591199,12.5206278 C22.7746605,12.4911556 22.5871587,12.4977464 22.4108676,12.5390478 L22.2809739,12.5765111 L18.569584,14.0895718 C18.7262729,14.4123465 18.7056959,14.6437123 18.6101975,14.800974 L18.5710735,14.8565074 L12.9092668,15.6900319 C12.5804924,15.728538 12.2346142,15.6797209 11.9512529,15.5525646 L11.8151506,15.4824998 L13.0580943,12.9699213 C13.1501184,12.8094169 13.4266463,12.6637427 13.7852597,12.6245868 C14.0142749,12.5995813 14.2670933,12.6136424 14.4777281,12.6682056 L14.6267638,12.7167446 L19.2824115,11.2013695 C19.1158894,10.5642955 19.0695338,10.3841131 19.0661438,10.2013563 C19.0622633,9.99215361 19.1097861,9.78434951 19.2085708,9.58867837 L19.2922687,9.44436767 L15.4733712,7.68096616 C14.3951805,7.75221768 14.181089,7.7884424 13.9603001,7.7884424 C13.7778814,7.7884424 13.5955829,7.76233692 13.4292239,7.71216727 L13.2687638,7.65405182 L11.5606049,5.29576872 C12.0440186,4.74778791 12.3851687,4.6676401 12.7396196,4.69050464 L12.8285995,4.69815574 L17.8629483,5.24023173 L22.1578408,7.76444902 C22.3658755,7.83376506 22.6035012,7.84968469 22.8312118,7.81056669 C24.2500585,7.58864023 25.7258883,7.5886163 27.1533403,7.81101318 C27.3376238,7.84194809 27.527954,7.8366516 27.7053166,7.79581297 L27.8356101,7.75853061 L31.4619938,6.29729174 C31.3061214,5.97568925 31.326537,5.74479968 31.4216422,5.58773089 L31.4606093,5.53225746 L37.0781279,4.67789535 C37.4064192,4.63944588 37.7517639,4.68806306 38.0348921,4.81480254 Z M25.002092,9.48945155 C24.4382761,9.48945155 23.9279642,9.58290142 23.5610104,9.74330509 C23.4141676,9.80749339 23.3371505,9.93208863 23.5642588,10.6256706 C23.93505,10.7876567 24.4481728,10.882358 25.002092,10.882358 C25.5685515,10.882358 26.0802012,10.7890875 26.4479156,10.6288595 C26.5952541,10.5646582 26.6724308,10.4396928 26.4469771,9.74372899 C26.0785376,9.58309097 25.5664523,9.48945155 25.002092,9.48945155 Z" id="形状" stroke="#3DDAD2" stroke-width="0.5" fill="#FFFFFF" fill-rule="nonzero"></path>
                <g id="编组-3" transform="translate(16.000000, 22.000000)" fill-rule="nonzero">
                    <g id="DSW备份" transform="translate(0.000000, 1.000000)" fill="#403C3C">
                        <path d="M0,6.409 L1.7935,6.409 C3.6465,6.409 4.8365,5.355 4.8365,3.2385 C4.8365,1.1135 3.6465,0.119 1.7255,0.119 L0,0.119 L0,6.409 Z M1.258,5.3975 L1.258,1.122 L1.649,1.122 C2.822,1.122 3.553,1.7 3.553,3.2385 C3.553,4.7685 2.822,5.3975 1.649,5.3975 L1.258,5.3975 Z" id="形状"></path>
                        <path d="M7.9475,6.528 C9.401,6.528 10.2595,5.6525 10.2595,4.624 C10.2595,3.7145 9.758,3.23 8.993,2.9155 L8.1685,2.567 C7.633,2.3545 7.1825,2.193 7.1825,1.7425 C7.1825,1.326 7.5395,1.0795 8.092,1.0795 C8.6105,1.0795 9.027,1.2665 9.4265,1.598 L10.064,0.8075 C9.554,0.289 8.823,0 8.092,0 C6.817,0 5.916,0.7905 5.916,1.819 C5.916,2.737 6.5535,3.247 7.191,3.5105 L8.0325,3.8675 C8.5935,4.1055 8.976,4.25 8.976,4.7175 C8.976,5.1595 8.6275,5.44 7.973,5.44 C7.4205,5.44 6.8255,5.1595 6.375,4.743 L5.6525,5.61 C6.2645,6.1965 7.106,6.528 7.9475,6.528 Z" id="路径"></path>
                        <path d="M11.968,6.409 L13.5065,6.409 L14.195,3.298 C14.297,2.805 14.382,2.3205 14.467,1.8445 L14.501,1.8445 C14.5775,2.3205 14.671,2.805 14.773,3.298 L15.4785,6.409 L17.0425,6.409 L18.207,0.119 L17.0085,0.119 L16.5155,3.1875 C16.422,3.842 16.3285,4.5135 16.235,5.1935 L16.1925,5.1935 C16.0565,4.5135 15.929,3.8335 15.793,3.1875 L15.062,0.119 L13.991,0.119 L13.26,3.1875 C13.124,3.842 12.988,4.522 12.8605,5.1935 L12.8265,5.1935 C12.733,4.522 12.631,3.8505 12.5375,3.1875 L12.036,0.119 L10.7525,0.119 L11.968,6.409 Z" id="路径"></path>
                    </g>
                    <g id="DSW备份-2" fill="#FFFFFF">
                        <path d="M0,6.409 L1.7935,6.409 C3.6465,6.409 4.8365,5.355 4.8365,3.2385 C4.8365,1.1135 3.6465,0.119 1.7255,0.119 L0,0.119 L0,6.409 Z M1.258,5.3975 L1.258,1.122 L1.649,1.122 C2.822,1.122 3.553,1.7 3.553,3.2385 C3.553,4.7685 2.822,5.3975 1.649,5.3975 L1.258,5.3975 Z" id="形状"></path>
                        <path d="M7.9475,6.528 C9.401,6.528 10.2595,5.6525 10.2595,4.624 C10.2595,3.7145 9.758,3.23 8.993,2.9155 L8.1685,2.567 C7.633,2.3545 7.1825,2.193 7.1825,1.7425 C7.1825,1.326 7.5395,1.0795 8.092,1.0795 C8.6105,1.0795 9.027,1.2665 9.4265,1.598 L10.064,0.8075 C9.554,0.289 8.823,0 8.092,0 C6.817,0 5.916,0.7905 5.916,1.819 C5.916,2.737 6.5535,3.247 7.191,3.5105 L8.0325,3.8675 C8.5935,4.1055 8.976,4.25 8.976,4.7175 C8.976,5.1595 8.6275,5.44 7.973,5.44 C7.4205,5.44 6.8255,5.1595 6.375,4.743 L5.6525,5.61 C6.2645,6.1965 7.106,6.528 7.9475,6.528 Z" id="路径"></path>
                        <path d="M11.968,6.409 L13.5065,6.409 L14.195,3.298 C14.297,2.805 14.382,2.3205 14.467,1.8445 L14.501,1.8445 C14.5775,2.3205 14.671,2.805 14.773,3.298 L15.4785,6.409 L17.0425,6.409 L18.207,0.119 L17.0085,0.119 L16.5155,3.1875 C16.422,3.842 16.3285,4.5135 16.235,5.1935 L16.1925,5.1935 C16.0565,4.5135 15.929,3.8335 15.793,3.1875 L15.062,0.119 L13.991,0.119 L13.26,3.1875 C13.124,3.842 12.988,4.522 12.8605,5.1935 L12.8265,5.1935 C12.733,4.522 12.631,3.8505 12.5375,3.1875 L12.036,0.119 L10.7525,0.119 L11.968,6.409 Z" id="路径"></path>
                    </g>
                </g>
            </g>
        </g>
    </g>
</svg>