<?xml version="1.0" encoding="UTF-8"?>
<svg width="51px" height="33px" viewBox="0 0 51 33" version="1.1" xmlns="http://www.w3.org/2000/svg" xmlns:xlink="http://www.w3.org/1999/xlink">
    <title>2-3DSW</title>
    <defs>
        <linearGradient x1="97.4211836%" y1="50%" x2="0%" y2="50%" id="linearGradient-1">
            <stop stop-color="#C73838" offset="0%"></stop>
            <stop stop-color="#9D2B2B" offset="15.7506556%"></stop>
            <stop stop-color="#D15757" offset="49.6694712%"></stop>
            <stop stop-color="#9D2B2B" offset="83.2550262%"></stop>
            <stop stop-color="#C73838" offset="100%"></stop>
        </linearGradient>
        <linearGradient x1="50%" y1="0%" x2="50%" y2="100%" id="linearGradient-2">
            <stop stop-color="#FEC5C5" stop-opacity="0" offset="0%"></stop>
            <stop stop-color="#FEC5C5" offset="100%"></stop>
        </linearGradient>
        <linearGradient x1="62.5095608%" y1="87.4904392%" x2="62.5095608%" y2="-5.69599934e-13%" id="linearGradient-3">
            <stop stop-color="#FEC5C5" offset="0%"></stop>
            <stop stop-color="#FEC5C5" stop-opacity="0" offset="100%"></stop>
        </linearGradient>
    </defs>
    <g id="页面-1" stroke="none" stroke-width="1" fill="none" fill-rule="evenodd">
        <g id="图标" transform="translate(-230.000000, -123.000000)">
            <g id="2-3DSW" transform="translate(231.000000, 124.000000)">
                <path d="M42.1166297,2.82076284 C44.4755207,3.80351481 46.2612428,4.93633717 47.4769641,6.14315603 C48.6925078,7.34979865 49.3418818,8.63288979 49.4395525,9.91962214 L49.4514041,10.1609093 L49.634557,21.0015383 C49.7089572,22.4383544 49.1057552,23.884894 47.8043659,25.2409918 C46.5816736,26.5150841 44.7382884,27.7116965 42.2690748,28.7437667 C32.5752781,32.7953687 16.8596798,32.795367 7.16645408,28.7437687 C4.75517671,27.7360278 2.94082803,26.5714546 1.71978214,25.3310805 C0.498218088,24.09018 -0.13349785,22.7709923 -0.190638659,21.453539 L-0.194622987,21.2065564 L-0.19968605,10.0779546 C-0.143249948,8.72599776 0.521740328,7.3734254 1.81246938,6.10627137 C3.02765313,4.91328282 4.80098068,3.79351852 7.13586864,2.82076662 C16.7954092,-1.20411052 32.4570982,-1.20411052 42.1166297,2.82076284 Z M41.1752143,3.97600176 C32.0353317,0.417586426 17.2171756,0.417586426 8.07730665,3.97599646 C5.90868309,4.82012058 4.25744697,5.78773886 3.12648129,6.82304983 C2.05595882,7.80302976 1.45469574,8.840866 1.33972343,9.88923143 L1.33972343,9.88923143 L47.9200231,9.96244879 L47.8946961,9.75031889 C47.7455327,8.76110419 47.1631217,7.78299216 46.1619303,6.8561025 C45.0301766,5.80834007 43.3669245,4.8291122 41.1752143,3.97600176 Z" id="形状结合" stroke="#BC3D3D" stroke-width="0.4" fill-rule="nonzero"></path>
                <path d="M49.0701847,10.3645 L49.0701847,20.935221 C49.1406818,22.238479 48.5717419,23.5396381 47.3969331,24.763834 C46.2168508,25.9935252 44.4330764,27.1410868 42.0512465,28.1366328 C32.4776851,32.1379814 16.9570117,32.1379846 7.38398929,28.1366292 C5.00116447,27.1407794 3.21702387,25.9928458 2.03835255,24.7627238 C0.865869816,23.5390606 0.300128641,22.238488 0.376264566,20.9357939 L0.376264566,20.9357939 L0.364892328,10.3645 L49.0701847,10.3645 Z" id="路径" stroke="url(#linearGradient-2)" stroke-width="0.729" fill="url(#linearGradient-1)" fill-rule="nonzero"></path>
                <path d="M7.23797863,3.02534809 C16.8891765,-1.00844936 32.5357137,-1.00844936 42.1863519,3.02534809 C51.83699,7.05914554 51.83699,13.5998541 42.1863519,17.6336516 C32.5357137,21.667449 16.8891765,21.667449 7.23797863,17.6336516 C-2.41265954,13.5998541 -2.41265954,7.05914554 7.23797863,3.02534809 Z" id="路径" fill="#EE8282" fill-rule="nonzero"></path>
                <path d="M42.0397145,3.00538154 C32.4226574,-1.00179385 16.8298499,-1.00179385 7.21279283,3.00538154 C-2.40426428,7.0120023 -2.40426428,13.5088954 7.21279283,17.5155161 C16.8298499,21.5226915 32.4226574,21.5226915 42.0397145,17.5155161 C51.6567717,13.5088954 51.6567717,7.0120023 42.0397145,3.00538154 Z M41.2477611,3.7896232 C32.0678175,0.215610994 17.1846899,0.215610994 8.00474626,3.7896232 C-1.17575701,7.36308078 -1.17575701,13.1578169 8.00474626,16.7312745 C17.1846899,20.3052867 32.0678175,20.3052867 41.2477611,16.7312745 C50.4282644,13.1578169 50.4282644,7.36308078 41.2477611,3.7896232 Z" id="形状" fill="url(#linearGradient-3)"></path>
                <g id="编组-3" transform="translate(16.000000, 22.000000)" fill-rule="nonzero">
                    <g id="DSW备份" transform="translate(0.000000, 1.000000)" fill="#403C3C">
                        <path d="M0,6.409 L1.7935,6.409 C3.6465,6.409 4.8365,5.355 4.8365,3.2385 C4.8365,1.1135 3.6465,0.119 1.7255,0.119 L0,0.119 L0,6.409 Z M1.258,5.3975 L1.258,1.122 L1.649,1.122 C2.822,1.122 3.553,1.7 3.553,3.2385 C3.553,4.7685 2.822,5.3975 1.649,5.3975 L1.258,5.3975 Z" id="形状"></path>
                        <path d="M7.9475,6.528 C9.401,6.528 10.2595,5.6525 10.2595,4.624 C10.2595,3.7145 9.758,3.23 8.993,2.9155 L8.1685,2.567 C7.633,2.3545 7.1825,2.193 7.1825,1.7425 C7.1825,1.326 7.5395,1.0795 8.092,1.0795 C8.6105,1.0795 9.027,1.2665 9.4265,1.598 L10.064,0.8075 C9.554,0.289 8.823,0 8.092,0 C6.817,0 5.916,0.7905 5.916,1.819 C5.916,2.737 6.5535,3.247 7.191,3.5105 L8.0325,3.8675 C8.5935,4.1055 8.976,4.25 8.976,4.7175 C8.976,5.1595 8.6275,5.44 7.973,5.44 C7.4205,5.44 6.8255,5.1595 6.375,4.743 L5.6525,5.61 C6.2645,6.1965 7.106,6.528 7.9475,6.528 Z" id="路径"></path>
                        <path d="M11.968,6.409 L13.5065,6.409 L14.195,3.298 C14.297,2.805 14.382,2.3205 14.467,1.8445 L14.501,1.8445 C14.5775,2.3205 14.671,2.805 14.773,3.298 L15.4785,6.409 L17.0425,6.409 L18.207,0.119 L17.0085,0.119 L16.5155,3.1875 C16.422,3.842 16.3285,4.5135 16.235,5.1935 L16.1925,5.1935 C16.0565,4.5135 15.929,3.8335 15.793,3.1875 L15.062,0.119 L13.991,0.119 L13.26,3.1875 C13.124,3.842 12.988,4.522 12.8605,5.1935 L12.8265,5.1935 C12.733,4.522 12.631,3.8505 12.5375,3.1875 L12.036,0.119 L10.7525,0.119 L11.968,6.409 Z" id="路径"></path>
                    </g>
                    <g id="DSW备份-2" fill="#FFFFFF">
                        <path d="M0,6.409 L1.7935,6.409 C3.6465,6.409 4.8365,5.355 4.8365,3.2385 C4.8365,1.1135 3.6465,0.119 1.7255,0.119 L0,0.119 L0,6.409 Z M1.258,5.3975 L1.258,1.122 L1.649,1.122 C2.822,1.122 3.553,1.7 3.553,3.2385 C3.553,4.7685 2.822,5.3975 1.649,5.3975 L1.258,5.3975 Z" id="形状"></path>
                        <path d="M7.9475,6.528 C9.401,6.528 10.2595,5.6525 10.2595,4.624 C10.2595,3.7145 9.758,3.23 8.993,2.9155 L8.1685,2.567 C7.633,2.3545 7.1825,2.193 7.1825,1.7425 C7.1825,1.326 7.5395,1.0795 8.092,1.0795 C8.6105,1.0795 9.027,1.2665 9.4265,1.598 L10.064,0.8075 C9.554,0.289 8.823,0 8.092,0 C6.817,0 5.916,0.7905 5.916,1.819 C5.916,2.737 6.5535,3.247 7.191,3.5105 L8.0325,3.8675 C8.5935,4.1055 8.976,4.25 8.976,4.7175 C8.976,5.1595 8.6275,5.44 7.973,5.44 C7.4205,5.44 6.8255,5.1595 6.375,4.743 L5.6525,5.61 C6.2645,6.1965 7.106,6.528 7.9475,6.528 Z" id="路径"></path>
                        <path d="M11.968,6.409 L13.5065,6.409 L14.195,3.298 C14.297,2.805 14.382,2.3205 14.467,1.8445 L14.501,1.8445 C14.5775,2.3205 14.671,2.805 14.773,3.298 L15.4785,6.409 L17.0425,6.409 L18.207,0.119 L17.0085,0.119 L16.5155,3.1875 C16.422,3.842 16.3285,4.5135 16.235,5.1935 L16.1925,5.1935 C16.0565,4.5135 15.929,3.8335 15.793,3.1875 L15.062,0.119 L13.991,0.119 L13.26,3.1875 C13.124,3.842 12.988,4.522 12.8605,5.1935 L12.8265,5.1935 C12.733,4.522 12.631,3.8505 12.5375,3.1875 L12.036,0.119 L10.7525,0.119 L11.968,6.409 Z" id="路径"></path>
                    </g>
                </g>
                <path d="M37.9045413,4.48439192 L38.0405536,4.55423044 L36.8114149,7.07734056 C36.7223976,7.23787107 36.4470511,7.38550971 36.0867247,7.42502756 C35.8591849,7.44998238 35.6081471,7.43626505 35.3951641,7.38103069 L35.2435238,7.33177603 L30.6156961,8.83757733 C30.7704964,9.47730828 30.8133288,9.65718338 30.8133288,9.83913299 C30.8133288,10.0460781 30.7606915,10.2514475 30.6588227,10.4444419 L30.5732434,10.5866988 L34.417397,12.3687978 C35.5049026,12.2977201 35.71157,12.2623851 35.924726,12.2623851 C36.1057761,12.2623851 36.2867816,12.2880122 36.4558955,12.3369641 L36.6206067,12.3936057 L38.3241545,14.7583724 C37.835692,15.3108568 37.490447,15.3904727 37.1474856,15.3675111 L37.0617113,15.359848 L32.049845,14.8138323 L27.6767096,12.2402984 C27.4686792,12.1707999 27.2351711,12.1533066 27.0076635,12.1905571 C25.628673,12.3983707 24.2040973,12.3983476 22.8287691,12.1902172 C22.6443097,12.160745 22.4568079,12.1673357 22.2805167,12.2086372 L22.150623,12.2461004 L18.4392331,13.7591612 C18.595922,14.0819359 18.5753451,14.3133017 18.4798466,14.4705634 L18.4407226,14.5260967 L12.778916,15.3596213 C12.4501415,15.3981274 12.1042634,15.3493103 11.8209021,15.222154 L11.6847998,15.1520892 L12.9277435,12.6395107 C13.0197675,12.4790063 13.2962955,12.3333321 13.6549088,12.2941762 C13.883924,12.2691707 14.1367424,12.2832318 14.3473773,12.337795 L14.496413,12.386334 L19.1520606,10.8709589 C18.9855386,10.2338849 18.9391829,10.0537024 18.935793,9.87094566 C18.9319125,9.66174299 18.9794352,9.4539389 19.0782199,9.25826776 L19.1619179,9.11395706 L15.3430203,7.35055555 C14.2648297,7.42180706 14.0507381,7.45803178 13.8299492,7.45803178 C13.6475306,7.45803178 13.4652321,7.43192631 13.298873,7.38175665 L13.138413,7.32364121 L11.430254,4.9653581 C11.9136677,4.4173773 12.2548179,4.33722948 12.6092688,4.36009402 L12.6982486,4.36774512 L17.7325975,4.90982111 L22.0274899,7.43403841 C22.2355247,7.50335444 22.4731503,7.51927408 22.7008609,7.48015608 C24.1197077,7.25822961 25.5955375,7.25820568 27.0229895,7.48060256 C27.207273,7.51153748 27.3976031,7.50624099 27.5749658,7.46540236 L27.7052593,7.42812 L31.331643,5.96688113 C31.1757705,5.64527864 31.1961862,5.41438906 31.2912914,5.25732028 L31.3302585,5.20184684 L36.9477771,4.34748473 C37.2760683,4.30903526 37.6214131,4.35765244 37.9045413,4.48439192 Z M24.8717412,9.15904093 C24.3079253,9.15904093 23.7976134,9.25249081 23.4306596,9.41289448 C23.2838167,9.47708278 23.2067997,9.60167802 23.4339079,10.29526 C23.8046991,10.4572461 24.3178219,10.5519474 24.8717412,10.5519474 C25.4382007,10.5519474 25.9498504,10.4586769 26.3175648,10.2984489 C26.4649033,10.2342476 26.54208,10.1092822 26.3166262,9.41331837 C25.9481868,9.25268035 25.4361015,9.15904093 24.8717412,9.15904093 Z" id="形状" stroke="#C55151" stroke-width="0.5" fill="#FFFFFF" fill-rule="nonzero"></path>
            </g>
        </g>
    </g>
</svg>