<?xml version="1.0" encoding="UTF-8"?>
<svg width="51px" height="33px" viewBox="0 0 51 33" version="1.1" xmlns="http://www.w3.org/2000/svg" xmlns:xlink="http://www.w3.org/1999/xlink">
    <title>2-8DSW</title>
    <defs>
        <linearGradient x1="97.4211836%" y1="50%" x2="0%" y2="50%" id="linearGradient-1">
            <stop stop-color="#1B79BA" offset="0%"></stop>
            <stop stop-color="#1068A4" offset="14.5214161%"></stop>
            <stop stop-color="#2B88CC" offset="47.8064904%"></stop>
            <stop stop-color="#1068A4" offset="84.7902098%"></stop>
            <stop stop-color="#1B79BA" offset="100%"></stop>
        </linearGradient>
        <linearGradient x1="50%" y1="0%" x2="50%" y2="100%" id="linearGradient-2">
            <stop stop-color="#D5EEFF" stop-opacity="0" offset="0%"></stop>
            <stop stop-color="#D5EEFF" offset="100%"></stop>
        </linearGradient>
        <linearGradient x1="62.5095608%" y1="87.4904392%" x2="62.5095608%" y2="-5.69599934e-13%" id="linearGradient-3">
            <stop stop-color="#D5EEFF" offset="0%"></stop>
            <stop stop-color="#D5EEFF" stop-opacity="0" offset="100%"></stop>
        </linearGradient>
    </defs>
    <g id="页面-1" stroke="none" stroke-width="1" fill="none" fill-rule="evenodd">
        <g id="图标" transform="translate(-677.000000, -123.000000)">
            <g id="2-8DSW" transform="translate(677.608947, 123.669589)">
                <path d="M42.5514542,2.82076284 C44.9103453,3.80351481 46.6960674,4.93633717 47.9117887,6.14315603 C49.1273324,7.34979865 49.7767064,8.63288979 49.8743771,9.91962214 L49.8862286,10.1609093 L50.0693816,21.0015383 C50.1437818,22.4383544 49.5405798,23.884894 48.2391905,25.2409918 C47.0164982,26.5150841 45.173113,27.7116965 42.7038994,28.7437667 C33.0101026,32.7953687 17.2945044,32.795367 7.60127866,28.7437687 C5.19000128,27.7360278 3.3756526,26.5714546 2.15460671,25.3310805 C0.933042662,24.09018 0.301326723,22.7709923 0.244185914,21.453539 L0.240201586,21.2065564 L0.235138523,10.0779546 C0.291574626,8.72599776 0.956564901,7.3734254 2.24729396,6.10627137 C3.4624777,4.91328282 5.23580526,3.79351852 7.57069321,2.82076662 C17.2302338,-1.20411052 32.8919227,-1.20411052 42.5514542,2.82076284 Z M41.6100389,3.97600176 C32.4701563,0.417586426 17.6520002,0.417586426 8.51213123,3.97599646 C6.34350767,4.82012058 4.69227154,5.78773886 3.56130586,6.82304983 C2.4907834,7.80302976 1.88952032,8.840866 1.774548,9.88923143 L1.774548,9.88923143 L48.3548477,9.96244879 L48.3295207,9.75031889 C48.1803573,8.76110419 47.5979463,7.78299216 46.5967549,6.8561025 C45.4650012,5.80834007 43.8017491,4.8291122 41.6100389,3.97600176 Z" id="形状结合" stroke="#2D73A4" stroke-width="0.4" fill-rule="nonzero"></path>
                <path d="M49.5051491,10.4507962 L49.5051491,21.0215171 C49.5756463,22.3247752 49.0067064,23.6259342 47.8318976,24.8501302 C46.6518153,26.0798214 44.8680409,27.2273829 42.486211,28.2229289 C32.9126496,32.2242776 17.3919762,32.2242808 7.81895379,28.2229253 C5.43612896,27.2270756 3.65198836,26.079142 2.47331705,24.84902 C1.30083431,23.6253567 0.735093136,22.3247842 0.811229061,21.02209 L0.811229061,21.02209 L0.799856822,10.4507962 L49.5051491,10.4507962 Z" id="路径" stroke="url(#linearGradient-2)" stroke-width="0.729" fill="url(#linearGradient-1)" fill-rule="nonzero"></path>
                <path d="M7.6728032,3.02534809 C17.3240011,-1.00844936 32.9705383,-1.00844936 42.6211764,3.02534809 C52.2718146,7.05914554 52.2718146,13.5998541 42.6211764,17.6336516 C32.9705383,21.667449 17.3240011,21.667449 7.6728032,17.6336516 C-1.97783497,13.5998541 -1.97783497,7.05914554 7.6728032,3.02534809 Z" id="路径" fill="#90C1EA" fill-rule="nonzero"></path>
                <path d="M42.0397145,3.00538154 C32.4226574,-1.00179385 16.8298499,-1.00179385 7.21279283,3.00538154 C-2.40426428,7.0120023 -2.40426428,13.5088954 7.21279283,17.5155161 C16.8298499,21.5226915 32.4226574,21.5226915 42.0397145,17.5155161 C51.6567717,13.5088954 51.6567717,7.0120023 42.0397145,3.00538154 Z M41.2477611,3.7896232 C32.0678175,0.215610994 17.1846899,0.215610994 8.00474626,3.7896232 C-1.17575701,7.36308078 -1.17575701,13.1578169 8.00474626,16.7312745 C17.1846899,20.3052867 32.0678175,20.3052867 41.2477611,16.7312745 C50.4282644,13.1578169 50.4282644,7.36308078 41.2477611,3.7896232 Z" id="形状" fill="url(#linearGradient-3)"></path>
                <g id="编组-3" transform="translate(16.000000, 22.000000)" fill-rule="nonzero">
                    <g id="DSW备份" transform="translate(0.000000, 1.000000)" fill="#403C3C">
                        <path d="M0,6.409 L1.7935,6.409 C3.6465,6.409 4.8365,5.355 4.8365,3.2385 C4.8365,1.1135 3.6465,0.119 1.7255,0.119 L0,0.119 L0,6.409 Z M1.258,5.3975 L1.258,1.122 L1.649,1.122 C2.822,1.122 3.553,1.7 3.553,3.2385 C3.553,4.7685 2.822,5.3975 1.649,5.3975 L1.258,5.3975 Z" id="形状"></path>
                        <path d="M7.9475,6.528 C9.401,6.528 10.2595,5.6525 10.2595,4.624 C10.2595,3.7145 9.758,3.23 8.993,2.9155 L8.1685,2.567 C7.633,2.3545 7.1825,2.193 7.1825,1.7425 C7.1825,1.326 7.5395,1.0795 8.092,1.0795 C8.6105,1.0795 9.027,1.2665 9.4265,1.598 L10.064,0.8075 C9.554,0.289 8.823,0 8.092,0 C6.817,0 5.916,0.7905 5.916,1.819 C5.916,2.737 6.5535,3.247 7.191,3.5105 L8.0325,3.8675 C8.5935,4.1055 8.976,4.25 8.976,4.7175 C8.976,5.1595 8.6275,5.44 7.973,5.44 C7.4205,5.44 6.8255,5.1595 6.375,4.743 L5.6525,5.61 C6.2645,6.1965 7.106,6.528 7.9475,6.528 Z" id="路径"></path>
                        <path d="M11.968,6.409 L13.5065,6.409 L14.195,3.298 C14.297,2.805 14.382,2.3205 14.467,1.8445 L14.501,1.8445 C14.5775,2.3205 14.671,2.805 14.773,3.298 L15.4785,6.409 L17.0425,6.409 L18.207,0.119 L17.0085,0.119 L16.5155,3.1875 C16.422,3.842 16.3285,4.5135 16.235,5.1935 L16.1925,5.1935 C16.0565,4.5135 15.929,3.8335 15.793,3.1875 L15.062,0.119 L13.991,0.119 L13.26,3.1875 C13.124,3.842 12.988,4.522 12.8605,5.1935 L12.8265,5.1935 C12.733,4.522 12.631,3.8505 12.5375,3.1875 L12.036,0.119 L10.7525,0.119 L11.968,6.409 Z" id="路径"></path>
                    </g>
                    <g id="DSW备份-2" fill="#FFFFFF">
                        <path d="M0,6.409 L1.7935,6.409 C3.6465,6.409 4.8365,5.355 4.8365,3.2385 C4.8365,1.1135 3.6465,0.119 1.7255,0.119 L0,0.119 L0,6.409 Z M1.258,5.3975 L1.258,1.122 L1.649,1.122 C2.822,1.122 3.553,1.7 3.553,3.2385 C3.553,4.7685 2.822,5.3975 1.649,5.3975 L1.258,5.3975 Z" id="形状"></path>
                        <path d="M7.9475,6.528 C9.401,6.528 10.2595,5.6525 10.2595,4.624 C10.2595,3.7145 9.758,3.23 8.993,2.9155 L8.1685,2.567 C7.633,2.3545 7.1825,2.193 7.1825,1.7425 C7.1825,1.326 7.5395,1.0795 8.092,1.0795 C8.6105,1.0795 9.027,1.2665 9.4265,1.598 L10.064,0.8075 C9.554,0.289 8.823,0 8.092,0 C6.817,0 5.916,0.7905 5.916,1.819 C5.916,2.737 6.5535,3.247 7.191,3.5105 L8.0325,3.8675 C8.5935,4.1055 8.976,4.25 8.976,4.7175 C8.976,5.1595 8.6275,5.44 7.973,5.44 C7.4205,5.44 6.8255,5.1595 6.375,4.743 L5.6525,5.61 C6.2645,6.1965 7.106,6.528 7.9475,6.528 Z" id="路径"></path>
                        <path d="M11.968,6.409 L13.5065,6.409 L14.195,3.298 C14.297,2.805 14.382,2.3205 14.467,1.8445 L14.501,1.8445 C14.5775,2.3205 14.671,2.805 14.773,3.298 L15.4785,6.409 L17.0425,6.409 L18.207,0.119 L17.0085,0.119 L16.5155,3.1875 C16.422,3.842 16.3285,4.5135 16.235,5.1935 L16.1925,5.1935 C16.0565,4.5135 15.929,3.8335 15.793,3.1875 L15.062,0.119 L13.991,0.119 L13.26,3.1875 C13.124,3.842 12.988,4.522 12.8605,5.1935 L12.8265,5.1935 C12.733,4.522 12.631,3.8505 12.5375,3.1875 L12.036,0.119 L10.7525,0.119 L11.968,6.409 Z" id="路径"></path>
                    </g>
                </g>
                <path d="M38.4697167,4.81480254 L38.6057291,4.88464106 L37.3765904,7.40775118 C37.2875731,7.56828169 37.0122265,7.71592032 36.6519001,7.75543817 C36.4243603,7.780393 36.1733225,7.76667566 35.9603395,7.7114413 L35.8086992,7.66218664 L31.1808715,9.16798795 C31.3356719,9.80771889 31.3785043,9.987594 31.3785043,10.1695436 C31.3785043,10.3764887 31.3258669,10.5818581 31.2239981,10.7748526 L31.1384188,10.9171094 L34.9825724,12.6992085 C36.070078,12.6281308 36.2767454,12.5927957 36.4899015,12.5927957 C36.6709515,12.5927957 36.851957,12.6184228 37.0210709,12.6673747 L37.1857822,12.7240163 L38.8893299,15.088783 C38.4008674,15.6412675 38.0556225,15.7208833 37.7126611,15.6979217 L37.6268867,15.6902586 L32.6150204,15.1442429 L28.2418851,12.570709 C28.0338546,12.5012106 27.8003465,12.4837172 27.5728389,12.5209677 C26.1938484,12.7287814 24.7692727,12.7287582 23.3939445,12.5206278 C23.2094851,12.4911556 23.0219833,12.4977464 22.8456921,12.5390478 L22.7157985,12.5765111 L19.0044085,14.0895718 C19.1610974,14.4123465 19.1405205,14.6437123 19.045022,14.800974 L19.0058981,14.8565074 L13.3440914,15.6900319 C13.015317,15.728538 12.6694388,15.6797209 12.3860775,15.5525646 L12.2499752,15.4824998 L13.4929189,12.9699213 C13.5849429,12.8094169 13.8614709,12.6637427 14.2200842,12.6245868 C14.4490995,12.5995813 14.7019178,12.6136424 14.9125527,12.6682056 L15.0615884,12.7167446 L19.7172361,11.2013695 C19.550714,10.5642955 19.5043584,10.3841131 19.5009684,10.2013563 C19.4970879,9.99215361 19.5446106,9.78434951 19.6433953,9.58867837 L19.7270933,9.44436767 L15.9081958,7.68096616 C14.8300051,7.75221768 14.6159135,7.7884424 14.3951246,7.7884424 C14.212706,7.7884424 14.0304075,7.76233692 13.8640484,7.71216727 L13.7035884,7.65405182 L11.9954294,5.29576872 C12.4788431,4.74778791 12.8199933,4.6676401 13.1744442,4.69050464 L13.2634241,4.69815574 L18.2977729,5.24023173 L22.5926654,7.76444902 C22.8007001,7.83376506 23.0383257,7.84968469 23.2660363,7.81056669 C24.6848831,7.58864023 26.1607129,7.5886163 27.5881649,7.81101318 C27.7724484,7.84194809 27.9627786,7.8366516 28.1401412,7.79581297 L28.2704347,7.75853061 L31.8968184,6.29729174 C31.7409459,5.97568925 31.7613616,5.74479968 31.8564668,5.58773089 L31.8954339,5.53225746 L37.5129525,4.67789535 C37.8412437,4.63944588 38.1865885,4.68806306 38.4697167,4.81480254 Z M25.4369166,9.48945155 C24.8731007,9.48945155 24.3627888,9.58290142 23.995835,9.74330509 C23.8489921,9.80749339 23.7719751,9.93208863 23.9990834,10.6256706 C24.3698745,10.7876567 24.8829973,10.882358 25.4369166,10.882358 C26.0033761,10.882358 26.5150258,10.7890875 26.8827402,10.6288595 C27.0300787,10.5646582 27.1072554,10.4396928 26.8818017,9.74372899 C26.5133622,9.58309097 26.0012769,9.48945155 25.4369166,9.48945155 Z" id="形状" stroke="#6292BA" stroke-width="0.5" fill="#FFFFFF" fill-rule="nonzero"></path>
            </g>
        </g>
    </g>
</svg>