<?xml version="1.0" encoding="UTF-8"?>
<svg width="51px" height="34px" viewBox="0 0 51 34" version="1.1" xmlns="http://www.w3.org/2000/svg" xmlns:xlink="http://www.w3.org/1999/xlink">
    <title>12-3ER</title>
    <defs>
        <linearGradient x1="0%" y1="47.2147188%" x2="100%" y2="50%" id="linearGradient-1">
            <stop stop-color="#C13636" offset="0%"></stop>
            <stop stop-color="#A73333" offset="21.5417395%"></stop>
            <stop stop-color="#CF5656" offset="55.4700305%"></stop>
            <stop stop-color="#A93434" offset="80.4187268%"></stop>
            <stop stop-color="#BF3C35" offset="100%"></stop>
        </linearGradient>
    </defs>
    <g id="12-3ER" stroke="none" stroke-width="1" fill="none" fill-rule="evenodd">
        <g id="编组-3" transform="translate(0.469674, 0.519119)">
            <path d="M24.9721869,0.480880737 C26.0267702,0.480880737 27.0661024,0.50830575 28.0863609,0.561550307 L28.9561081,0.613474209 L29.815978,0.677819746 C30.1008957,0.701313567 30.3840781,0.726840216 30.665436,0.754362247 L31.5039469,0.842877042 C31.6427568,0.858614717 31.7810882,0.874841876 31.9189301,0.891553839 L32.7400176,0.997605812 L33.5488208,1.1150684 L34.3448047,1.24371693 L35.1274345,1.38332673 L35.8961751,1.53367312 C37.4194107,1.84495273 38.8561019,2.21930389 40.1869914,2.64863843 L40.8435301,2.8678502 C40.951454,2.90513667 41.0586209,2.94279561 41.1650197,2.98082234 L41.794105,3.21335869 C46.5450536,5.02939966 49.6233947,7.60386933 49.9443738,10.4811708 L49.9443738,22.4815902 C49.6785939,24.8582912 47.5315585,27.0283226 44.1145636,28.7348932 L43.5645735,29.0004628 C42.4438426,29.5237493 41.1996765,29.9994703 39.8513294,30.4195391 L39.1685633,30.6248984 C39.0533517,30.6583395 38.9374389,30.6913848 38.820836,30.7240295 L38.1130274,30.9150546 C37.755072,31.0081266 37.3911066,31.0975097 37.0214321,31.1830776 L36.2745603,31.3490891 C36.1488427,31.3758974 36.0225131,31.4022724 35.8955825,31.4282094 L35.1268773,31.5785389 L34.344285,31.7181329 L33.5483405,31.8467667 C33.2808597,31.8877931 33.0112427,31.9269553 32.7395786,31.9642159 L31.9185341,32.0702556 C31.7806996,32.0869657 31.6423755,32.103191 31.5035731,32.1189268 L30.6651076,32.2074313 C30.3837652,32.2349502 30.1005985,32.2604739 29.8156967,32.2839649 L28.9558751,32.3483029 L28.0861778,32.4002207 C27.065978,32.453459 26.0267071,32.4808807 24.9721869,32.4808807 C23.9176667,32.4808807 22.8783958,32.453459 21.858196,32.4002207 L20.9884987,32.3483029 L20.1286771,32.2839649 C19.8437753,32.2604739 19.5606086,32.2349502 19.2792662,32.2074313 L18.4408007,32.1189268 C18.3019983,32.103191 18.1636742,32.0869657 18.0258396,32.0702556 L17.2047952,31.9642159 C17.0689631,31.9455856 16.9336428,31.9264799 16.7988455,31.9069034 L15.9964254,31.7838339 C15.8637643,31.7623933 15.7316484,31.7404914 15.6000888,31.7181329 L14.8174965,31.5785389 L14.0487913,31.4282094 C13.9218607,31.4022724 13.795531,31.3758974 13.6698134,31.3490891 L12.9229416,31.1830776 C12.5532672,31.0975097 12.1893018,31.0081266 11.8313464,30.9150546 L11.1235378,30.7240295 C11.0069349,30.6913848 10.8910221,30.6583395 10.7758105,30.6248984 L10.0930443,30.4195391 C8.74469726,29.9994703 7.50053119,29.5237493 6.37980027,29.0004628 L5.82981022,28.7348932 C2.41281528,27.0283226 0.265779899,24.8582912 0,22.4815902 L0,10.4811708 C0.320979104,7.60386933 3.39932022,5.02939966 8.15026881,3.21335869 L8.77935409,2.98082234 C8.88575283,2.94279561 8.99291974,2.90513667 9.10084367,2.8678502 L9.75738241,2.64863843 C11.0882718,2.21930389 12.5249631,1.84495273 14.0481987,1.53367312 L14.8169393,1.38332673 L15.599569,1.24371693 L16.395553,1.1150684 L17.2043562,0.997605812 L18.0254436,0.891553839 C18.1632855,0.874841876 18.301617,0.858614717 18.4404268,0.842877042 L19.2789378,0.754362247 C19.5602957,0.726840216 19.843478,0.701313567 20.1283957,0.677819746 L20.9882657,0.613474209 L21.8580128,0.561550307 C22.7325202,0.515912115 23.6210408,0.489243385 24.5211675,0.482555139 L24.9721869,0.480880737 Z" id="路径" stroke="#FBC0C0" stroke-width="0.8" fill="url(#linearGradient-1)"></path>
            <path d="M25,21 C38.8071187,21 50,16.2989899 50,10.5 C50,4.70101013 38.8071187,0 25,0 C11.1928813,0 0,4.70101013 0,10.5 C0,16.2989899 11.1928813,21 25,21 Z" id="椭圆形备份-2" stroke="#FEC5C5" fill="#EE8282"></path>
        </g>
        <g id="编组" transform="translate(12.000000, 4.000000)" fill="#FFFFFF" stroke="#C85555" stroke-width="0.5">
            <path d="M11.1666602,9.12860785 L9.45304707,14.258096 L6.87512759,12.8582602 L2.56008201,15.1982116 L0,13.7939164 L4.29720812,11.4608567 L1.71928864,10.0638587 L11.1666602,9.12860785 Z M18.4133341,8.45374348 L22.1421756,10.6315361 L24.1464584,9.54061282 L25.8669632,14.5107799 L16.4135107,13.5844478 L18.4226582,12.4939299 L14.6966545,10.4770799 L18.4133341,8.45374348 Z M13.8150782,6.26054575 L16.669073,7.80754067 L13.8162944,9.35615718 L10.9622995,7.80916226 L13.8150782,6.26054575 Z M0.949520835,1.16190832 L10.3948654,2.08986203 L8.39585279,3.0238967 L12.4032021,5.19601379 L8.39747438,7.2165124 L4.66863284,5.19844617 L2.66718789,6.28491011 L0.949520835,1.16190832 Z M25.4091078,0 L28,1.3876739 L23.6898192,3.73046312 L26.2730088,5.12746116 L16.8179348,6.06109043 L18.5339802,0.935656258 L21.1118997,2.33305969 L25.4091078,0 Z" id="形状结合"></path>
        </g>
        <g id="编组-2" transform="translate(21.261250, 23.710000)" fill-rule="nonzero">
            <g id="ER" transform="translate(-0.000000, 1.000000)" fill="#403C3C" fill-opacity="0.8">
                <polygon id="路径" points="0 6.29 3.9525 6.29 3.9525 5.236 1.258 5.236 1.258 3.553 3.468 3.553 3.468 2.499 1.258 2.499 1.258 1.0455 3.859 1.0455 3.859 0 0 0"></polygon>
                <path d="M6.4855,0.9945 L7.3015,0.9945 C8.109,0.9945 8.551,1.224 8.551,1.904 C8.551,2.5755 8.109,2.9155 7.3015,2.9155 L6.4855,2.9155 L6.4855,0.9945 Z M10.0555,6.29 L8.585,3.7145 C9.3075,3.434 9.7835,2.8475 9.7835,1.904 C9.7835,0.459 8.738,0 7.4205,0 L5.2275,0 L5.2275,6.29 L6.4855,6.29 L6.4855,3.91 L7.361,3.91 L8.653,6.29 L10.0555,6.29 Z" id="形状"></path>
            </g>
            <g id="ER备份" transform="translate(-0.000000, 0.000000)" fill="#FFFFFF">
                <polygon id="路径" points="0 6.29 3.9525 6.29 3.9525 5.236 1.258 5.236 1.258 3.553 3.468 3.553 3.468 2.499 1.258 2.499 1.258 1.0455 3.859 1.0455 3.859 0 0 0"></polygon>
                <path d="M6.4855,0.9945 L7.3015,0.9945 C8.109,0.9945 8.551,1.224 8.551,1.904 C8.551,2.5755 8.109,2.9155 7.3015,2.9155 L6.4855,2.9155 L6.4855,0.9945 Z M10.0555,6.29 L8.585,3.7145 C9.3075,3.434 9.7835,2.8475 9.7835,1.904 C9.7835,0.459 8.738,0 7.4205,0 L5.2275,0 L5.2275,6.29 L6.4855,6.29 L6.4855,3.91 L7.361,3.91 L8.653,6.29 L10.0555,6.29 Z" id="形状"></path>
            </g>
        </g>
    </g>
</svg>