<?xml version="1.0" encoding="UTF-8"?>
<svg width="32px" height="42px" viewBox="0 0 32 42" version="1.1" xmlns="http://www.w3.org/2000/svg" xmlns:xlink="http://www.w3.org/1999/xlink">
    <title>编组</title>
    <defs>
        <polygon id="path-1" points="0.0687426155 0 0 23.551814 26.5987052 38.5 26.6666667 14.948186"></polygon>
        <linearGradient x1="34.8588321%" y1="25.8585167%" x2="63.3340136%" y2="81.8870715%" id="linearGradient-3">
            <stop stop-color="#2D59F9" offset="0%"></stop>
            <stop stop-color="#2BA5F9" offset="100%"></stop>
        </linearGradient>
    </defs>
    <g id="页面-1" stroke="none" stroke-width="1" fill="none" fill-rule="evenodd">
        <g id="编组">
            <polygon id="Fill-1" fill="#E8ECF8" points="0 21.5005814 17.6349937 31.5 23.1111111 28.3744186 5.47611737 18.375"></polygon>
            <polygon id="Fill-2" fill="#C0C8E0" points="17.791364 31.9128602 23.1111111 28.875 23.0967701 33.7121398 17.7777778 36.75"></polygon>
            <polygon id="Fill-3" fill="#E8ECF8" points="18.6666667 32.155716 26.4662976 36.75 32 33.469284 24.200369 28.875"></polygon>
            <polygon id="Fill-4" fill="#C0C8E0" points="26.6802529 37.1628602 26.6666667 42 31.9864138 38.9621398 32 34.125"></polygon>
            <polygon id="Fill-5" fill="#C0C8E0" points="8.01358619 19.6628602 13.3333333 16.625 13.3189924 21.4621398 8 24.5"></polygon>
            <polygon id="Fill-6" fill="#E8ECF8" points="0 15.5320513 7.79721584 20.125 13.3333333 16.8429487 5.53533212 12.25"></polygon>
            <polygon id="Fill-7" fill="#E8ECF8" points="8.88888889 20.6246731 26.525171 30.625 32 27.5003269 14.3637178 17.5"></polygon>
            <polygon id="Fill-8" fill="#C0C8E0" points="26.6810056 30.1628602 26.6666667 35 31.9856611 31.9621398 32 27.125"></polygon>
            <polygon id="Fill-9" fill="#C0C8E0" points="17.791364 19.6628602 23.1111111 16.625 23.0967701 21.4621398 17.7777778 24.5"></polygon>
            <polygon id="Fill-10" fill="#E8ECF8" points="0 9.2505814 17.6349937 19.25 23.1111111 16.1244186 5.47611737 6.125"></polygon>
            <polygon id="Fill-11" fill="#E8ECF8" points="18.6666667 19.905716 26.4666235 24.5 32 21.219284 24.2000432 16.625"></polygon>
            <polygon id="Fill-12" fill="#C0C8E0" points="26.6810056 24.0378602 26.6666667 28.875 31.9856611 25.8371398 32 21"></polygon>
            <polygon id="Fill-13" fill="#C0C8E0" points="8.01358619 7.41286024 13.3333333 4.375 13.3189924 9.21213976 8 12.25"></polygon>
            <polygon id="Fill-14" fill="#E8ECF8" points="5.53565818 0 0 3.28205128 7.79767515 7.875 13.3333333 4.59294872"></polygon>
            <path d="M18.8521842,31.804358 L26.6122199,36.1650924 L26.598159,41.125 L18.8373421,36.7635052 L18.8521842,31.804358 Z M0.0148420252,21.2184567 L17.7448129,31.1823735 L17.7299708,36.1415208 L0,26.1768436 L0.0148420252,21.2184567 Z M8.89474758,20.0009487 L26.6301865,29.9679071 L26.6161257,34.9270544 L8.88068672,24.960096 L8.89474758,20.0009487 Z M18.8877269,19.408999 L26.6485438,23.7704938 L26.6344829,28.729641 L18.873666,24.3681463 L18.8877269,19.408999 Z M0.0323399917,15.020359 L7.78768874,19.3788122 L7.77362787,24.3379595 L0.0182791258,19.9795062 L0.0323399917,15.020359 Z M0.0506972334,8.82309769 L17.7806681,18.7870146 L17.7666072,23.7461618 L0.0358552082,13.7814846 L0.0506972334,8.82309769 Z M8.93122772,7.60558977 L26.6666667,17.5725481 L26.6518246,22.5316954 L8.91716685,12.564737 L8.93122772,7.60558977 Z M0.0689763592,2.625 L7.8243251,6.98345326 L7.80948308,11.9426005 L0.054134334,7.58414728 L0.0689763592,2.625 Z" id="形状结合" fill="#D2D9EC"></path>
            <g transform="translate(0.000000, 2.625000)" id="编组-4">
                <mask id="mask-2" fill="white">
                    <use xlink:href="#path-1"></use>
                </mask>
                <g id="Fill-3"></g>
                <path d="M13.6335114,12.6815323 C13.6214075,16.9648531 13.5434044,19.8945818 15.3912699,23.5102701 C15.2231599,21.8385706 15.7113514,19.6209834 18.3163845,20.1995982 C18.2867972,24.2721567 20.1373524,26.6978882 20.1293095,29.6943801 C20.1144895,34.7264967 16.6500779,36.8681571 12.3827727,34.4699163 C8.11546762,32.0716755 4.67526387,26.0498919 4.69001002,21.0177753 C4.69678195,18.9337146 5.49429596,16.8038359 7.08528933,16.7357636 C7.09873813,16.9177261 7.35830003,20.3619246 8.84842738,22.6423478 C9.03536573,20.4286878 7.66627761,11.9929544 13.6335114,12.6815323" id="Fill-1" fill="url(#linearGradient-3)" mask="url(#mask-2)"></path>
            </g>
            <polygon id="Fill-23" fill="#E8ECF8" points="8.88888889 8.37467306 26.524987 18.375 32 15.2503269 14.3639019 5.25"></polygon>
            <polygon id="Fill-24" fill="#C0C8E0" points="26.6802529 17.9128602 26.6666667 22.75 31.9864138 19.7121398 32 14.875"></polygon>
        </g>
    </g>
</svg>