<?xml version="1.0" encoding="UTF-8"?>
<svg width="51px" height="34px" viewBox="0 0 51 34" version="1.1" xmlns="http://www.w3.org/2000/svg" xmlns:xlink="http://www.w3.org/1999/xlink">
    <title>2-6AN-A</title>
    <defs>
        <linearGradient x1="1.05236033%" y1="47.24403%" x2="100%" y2="50%" id="linearGradient-1">
            <stop stop-color="#FFC558" offset="0%"></stop>
            <stop stop-color="#F0BF54" offset="22.038984%"></stop>
            <stop stop-color="#FFCF73" offset="51.4904529%"></stop>
            <stop stop-color="#FFC352" offset="80.531151%"></stop>
            <stop stop-color="#C9AD55" offset="100%"></stop>
        </linearGradient>
    </defs>
    <g id="2-6AN-A" stroke="none" stroke-width="1" fill="none" fill-rule="evenodd">
        <g id="编组-3" transform="translate(0.469674, 0.519119)">
            <path d="M24.9721869,0.480880737 C26.0267702,0.480880737 27.0661024,0.50830575 28.0863609,0.561550307 L28.9561081,0.613474209 L29.815978,0.677819746 C30.1008957,0.701313567 30.3840781,0.726840216 30.665436,0.754362247 L31.5039469,0.842877042 C31.6427568,0.858614717 31.7810882,0.874841876 31.9189301,0.891553839 L32.7400176,0.997605812 L33.5488208,1.1150684 L34.3448047,1.24371693 L35.1274345,1.38332673 L35.8961751,1.53367312 C37.4194107,1.84495273 38.8561019,2.21930389 40.1869914,2.64863843 L40.8435301,2.8678502 C40.951454,2.90513667 41.0586209,2.94279561 41.1650197,2.98082234 L41.794105,3.21335869 C46.5450536,5.02939966 49.6233947,7.60386933 49.9443738,10.4811708 L49.9443738,22.4815902 C49.6785939,24.8582912 47.5315585,27.0283226 44.1145636,28.7348932 L43.5645735,29.0004628 C42.4438426,29.5237493 41.1996765,29.9994703 39.8513294,30.4195391 L39.1685633,30.6248984 C39.0533517,30.6583395 38.9374389,30.6913848 38.820836,30.7240295 L38.1130274,30.9150546 C37.755072,31.0081266 37.3911066,31.0975097 37.0214321,31.1830776 L36.2745603,31.3490891 C36.1488427,31.3758974 36.0225131,31.4022724 35.8955825,31.4282094 L35.1268773,31.5785389 L34.344285,31.7181329 L33.5483405,31.8467667 C33.2808597,31.8877931 33.0112427,31.9269553 32.7395786,31.9642159 L31.9185341,32.0702556 C31.7806996,32.0869657 31.6423755,32.103191 31.5035731,32.1189268 L30.6651076,32.2074313 C30.3837652,32.2349502 30.1005985,32.2604739 29.8156967,32.2839649 L28.9558751,32.3483029 L28.0861778,32.4002207 C27.065978,32.453459 26.0267071,32.4808807 24.9721869,32.4808807 C23.9176667,32.4808807 22.8783958,32.453459 21.858196,32.4002207 L20.9884987,32.3483029 L20.1286771,32.2839649 C19.8437753,32.2604739 19.5606086,32.2349502 19.2792662,32.2074313 L18.4408007,32.1189268 C18.3019983,32.103191 18.1636742,32.0869657 18.0258396,32.0702556 L17.2047952,31.9642159 C17.0689631,31.9455856 16.9336428,31.9264799 16.7988455,31.9069034 L15.9964254,31.7838339 C15.8637643,31.7623933 15.7316484,31.7404914 15.6000888,31.7181329 L14.8174965,31.5785389 L14.0487913,31.4282094 C13.9218607,31.4022724 13.795531,31.3758974 13.6698134,31.3490891 L12.9229416,31.1830776 C12.5532672,31.0975097 12.1893018,31.0081266 11.8313464,30.9150546 L11.1235378,30.7240295 C11.0069349,30.6913848 10.8910221,30.6583395 10.7758105,30.6248984 L10.0930443,30.4195391 C8.74469726,29.9994703 7.50053119,29.5237493 6.37980027,29.0004628 L5.82981022,28.7348932 C2.41281528,27.0283226 0.265779899,24.8582912 0,22.4815902 L0,10.4811708 C0.320979104,7.60386933 3.39932022,5.02939966 8.15026881,3.21335869 L8.77935409,2.98082234 C8.88575283,2.94279561 8.99291974,2.90513667 9.10084367,2.8678502 L9.75738241,2.64863843 C11.0882718,2.21930389 12.5249631,1.84495273 14.0481987,1.53367312 L14.8169393,1.38332673 L15.599569,1.24371693 L16.395553,1.1150684 L17.2043562,0.997605812 L18.0254436,0.891553839 C18.1632855,0.874841876 18.301617,0.858614717 18.4404268,0.842877042 L19.2789378,0.754362247 C19.5602957,0.726840216 19.843478,0.701313567 20.1283957,0.677819746 L20.9882657,0.613474209 L21.8580128,0.561550307 C22.7325202,0.515912115 23.6210408,0.489243385 24.5211675,0.482555139 L24.9721869,0.480880737 Z" id="路径" stroke="#FFE1A7" fill="url(#linearGradient-1)"></path>
            <path d="M25,0.4 C31.8424187,0.4 38.038307,1.56069442 42.5227765,3.44417164 C44.7709463,4.38840294 46.5856584,5.51185081 47.8220028,6.76546664 C48.9566173,7.91593131 49.6,9.17314658 49.6,10.5 C49.6,11.8268534 48.9566173,13.0840687 47.8220028,14.2345334 C46.5856584,15.4881492 44.7709463,16.6115971 42.5227765,17.5558284 C38.038307,19.4393056 31.8424187,20.6 25,20.6 C18.1575813,20.6 11.961693,19.4393056 7.47722346,17.5558284 C5.22905369,16.6115971 3.41434163,15.4881492 2.17799716,14.2345334 C1.04338271,13.0840687 0.4,11.8268534 0.4,10.5 C0.4,9.17314658 1.04338271,7.91593131 2.17799716,6.76546664 C3.41434163,5.51185081 5.22905369,4.38840294 7.47722346,3.44417164 C11.961693,1.56069442 18.1575813,0.4 25,0.4 Z" id="椭圆形备份-2" stroke="#FFEDC6" stroke-width="0.8" fill="#FADD9E"></path>
        </g>
        <g id="编组-2" transform="translate(9.433500, 22.710000)" fill-rule="nonzero">
            <g id="IPRAN-A" transform="translate(0.000000, 1.000000)" fill="#403C3C" fill-opacity="0.8">
                <polygon id="路径" points="0 6.29 1.258 6.29 1.258 0 0 0"></polygon>
                <path d="M2.805,6.29 L4.063,6.29 L4.063,4.0545 L4.9045,4.0545 C6.256,4.0545 7.3355,3.4085 7.3355,1.972 C7.3355,0.4845 6.2645,0 4.8705,0 L2.805,0 L2.805,6.29 Z M4.063,3.06 L4.063,0.9945 L4.777,0.9945 C5.644,0.9945 6.103,1.241 6.103,1.972 C6.103,2.6945 5.6865,3.06 4.8195,3.06 L4.063,3.06 Z" id="形状"></path>
                <path d="M9.7325,0.9945 L10.5485,0.9945 C11.356,0.9945 11.798,1.224 11.798,1.904 C11.798,2.5755 11.356,2.9155 10.5485,2.9155 L9.7325,2.9155 L9.7325,0.9945 Z M13.3025,6.29 L11.832,3.7145 C12.5545,3.434 13.0305,2.8475 13.0305,1.904 C13.0305,0.459 11.985,0 10.6675,0 L8.4745,0 L8.4745,6.29 L9.7325,6.29 L9.7325,3.91 L10.608,3.91 L11.9,6.29 L13.3025,6.29 Z" id="形状"></path>
                <path d="M15.453,3.6975 L15.64,3.009 C15.827,2.3545 16.014,1.6405 16.1755,0.952 L16.2095,0.952 C16.3965,1.632 16.5665,2.3545 16.762,3.009 L16.949,3.6975 L15.453,3.6975 Z M17.663,6.29 L18.9805,6.29 L16.9575,0 L15.4785,0 L13.464,6.29 L14.739,6.29 L15.181,4.675 L17.221,4.675 L17.663,6.29 Z" id="形状"></path>
                <path d="M19.72,6.29 L20.91,6.29 L20.91,3.7655 C20.91,3.043 20.8165,2.2525 20.757,1.5725 L20.7995,1.5725 L21.437,2.924 L23.256,6.29 L24.531,6.29 L24.531,0 L23.341,0 L23.341,2.5075 C23.341,3.2215 23.4345,4.0545 23.5025,4.709 L23.46,4.709 L22.831,3.349 L21.0035,0 L19.72,0 L19.72,6.29 Z" id="路径"></path>
                <polygon id="路径" points="25.7295 4.301 28.05 4.301 28.05 3.4085 25.7295 3.4085"></polygon>
                <path d="M30.413,3.6975 L30.6,3.009 C30.787,2.3545 30.974,1.6405 31.1355,0.952 L31.1695,0.952 C31.3565,1.632 31.5265,2.3545 31.722,3.009 L31.909,3.6975 L30.413,3.6975 Z M32.623,6.29 L33.9405,6.29 L31.9175,0 L30.4385,0 L28.424,6.29 L29.699,6.29 L30.141,4.675 L32.181,4.675 L32.623,6.29 Z" id="形状"></path>
            </g>
            <g id="IPRAN-A备份" fill="#FFFFFF" stroke="#91721F" stroke-width="0.1">
                <polygon id="路径" points="0 6.29 1.258 6.29 1.258 0 0 0"></polygon>
                <path d="M2.805,6.29 L4.063,6.29 L4.063,4.0545 L4.9045,4.0545 C6.256,4.0545 7.3355,3.4085 7.3355,1.972 C7.3355,0.4845 6.2645,0 4.8705,0 L2.805,0 L2.805,6.29 Z M4.063,3.06 L4.063,0.9945 L4.777,0.9945 C5.644,0.9945 6.103,1.241 6.103,1.972 C6.103,2.6945 5.6865,3.06 4.8195,3.06 L4.063,3.06 Z" id="形状"></path>
                <path d="M9.7325,0.9945 L10.5485,0.9945 C11.356,0.9945 11.798,1.224 11.798,1.904 C11.798,2.5755 11.356,2.9155 10.5485,2.9155 L9.7325,2.9155 L9.7325,0.9945 Z M13.3025,6.29 L11.832,3.7145 C12.5545,3.434 13.0305,2.8475 13.0305,1.904 C13.0305,0.459 11.985,0 10.6675,0 L8.4745,0 L8.4745,6.29 L9.7325,6.29 L9.7325,3.91 L10.608,3.91 L11.9,6.29 L13.3025,6.29 Z" id="形状"></path>
                <path d="M15.453,3.6975 L15.64,3.009 C15.827,2.3545 16.014,1.6405 16.1755,0.952 L16.2095,0.952 C16.3965,1.632 16.5665,2.3545 16.762,3.009 L16.949,3.6975 L15.453,3.6975 Z M17.663,6.29 L18.9805,6.29 L16.9575,0 L15.4785,0 L13.464,6.29 L14.739,6.29 L15.181,4.675 L17.221,4.675 L17.663,6.29 Z" id="形状"></path>
                <path d="M19.72,6.29 L20.91,6.29 L20.91,3.7655 C20.91,3.043 20.8165,2.2525 20.757,1.5725 L20.7995,1.5725 L21.437,2.924 L23.256,6.29 L24.531,6.29 L24.531,0 L23.341,0 L23.341,2.5075 C23.341,3.2215 23.4345,4.0545 23.5025,4.709 L23.46,4.709 L22.831,3.349 L21.0035,0 L19.72,0 L19.72,6.29 Z" id="路径"></path>
                <polygon id="路径" points="25.7295 4.301 28.05 4.301 28.05 3.4085 25.7295 3.4085"></polygon>
                <path d="M30.413,3.6975 L30.6,3.009 C30.787,2.3545 30.974,1.6405 31.1355,0.952 L31.1695,0.952 C31.3565,1.632 31.5265,2.3545 31.722,3.009 L31.909,3.6975 L30.413,3.6975 Z M32.623,6.29 L33.9405,6.29 L31.9175,0 L30.4385,0 L28.424,6.29 L29.699,6.29 L30.141,4.675 L32.181,4.675 L32.623,6.29 Z" id="形状"></path>
            </g>
        </g>
        <path d="M26.0568023,12.2348023 L35.4043245,19.146534 L17.9891262,19.5013428 L26.0568023,12.2348023 Z M26.3130531,15.0704567 L23.216924,17.813185 L29.8949324,17.6780198 L26.3130531,15.0704567 Z M15.6034594,4.39549917 L17.7351281,5.45992555 C16.7706677,6.03437788 15.9512284,6.67922878 15.5865638,7.39588623 C15.0768781,8.11676759 14.8459708,8.90804751 14.9163694,9.69791947 C14.9881759,10.4863835 15.3486166,11.2678076 16.0019153,11.9675694 C16.4088191,12.5377978 17.1071729,13.0517074 17.9294282,13.5064821 C18.1124645,13.6078561 18.3011326,13.7064141 18.4954327,13.8021561 L16.5665119,14.9524687 C16.3961473,14.8679905 16.2314147,14.7806962 16.069498,14.6905861 C14.9290411,14.0584069 13.99978,13.3206299 13.2929784,12.5687732 C12.4862107,11.7197664 12.0976106,10.7018031 12.0187642,9.76127818 C11.93147,8.81371343 12.1426657,7.8647407 12.7804768,6.89746435 C13.4196958,5.94145177 14.3658526,5.13609213 15.6034594,4.39549917 Z M35.043743,4 C35.2690184,4.11122974 35.487254,4.22527542 35.6984497,4.34213705 C36.7699159,4.93630098 37.6372263,5.59945551 38.3271323,6.37947167 C39.1240441,7.23270234 39.5112362,8.25066567 39.5900826,9.19119056 C39.6787848,10.1387553 39.4675891,11.087728 38.8396339,12.0493725 C38.1905591,13.011017 37.2444023,13.8163766 36.0067954,14.5569696 L33.8751267,13.4925432 C34.8395871,12.9180909 35.5140054,12.2774639 36.0236911,11.5565825 C36.5432325,10.8300693 36.764284,10.0444212 36.6924775,9.25454928 C36.6220789,8.46608529 36.2616382,7.68466116 35.6083395,6.98489937 C35.0395191,6.37102384 34.3566529,5.81769108 33.4794868,5.33194095 C33.3640331,5.26858223 33.2457635,5.20663149 33.124678,5.14468075 L35.043743,4 Z M19.8765118,6.51984642 L21.9997327,7.57864091 C21.590013,7.90106637 21.1802934,8.1502773 21.0704716,8.54310133 C20.8156288,8.86693475 20.6860954,9.18654426 20.7311505,9.58077625 C20.7677577,9.97078433 20.9381223,10.2875779 21.1197506,10.6719541 C21.3774094,10.9267969 21.7308102,11.1788238 22.1025146,11.3843876 C22.1884009,11.4322586 22.2756951,11.4773137 22.3615814,11.5195529 L20.4242127,12.6628257 C20.3214308,12.6121387 20.2228728,12.5614517 20.1271307,12.5079488 C19.4991755,12.1601799 18.9796341,11.7532761 18.5558347,11.2801977 C18.0757164,10.7395367 17.8771924,10.186204 17.8250975,9.63991105 C17.7814504,9.08657829 17.8729685,8.53606147 18.2559368,7.97709682 C18.6487608,7.41250029 19.1851979,6.92815813 19.8765118,6.51984642 Z M31.1863237,6.28851672 C31.2876977,6.33920369 31.3876636,6.39129863 31.4834057,6.44480154 C32.1113609,6.79257048 32.6294944,7.19947422 33.0547018,7.67255261 C33.5334121,8.21321363 33.7417918,8.7609145 33.7854389,9.31283929 C33.8389419,9.86054017 33.7375679,10.4166889 33.3545997,10.9756535 C32.9716315,11.5346182 32.4351944,12.0189603 31.7424724,12.427272 L29.6108037,11.3727015 C30.0205234,11.051684 30.4302431,10.802473 30.6864939,10.3209468 C30.9413367,9.99711339 31.0596063,9.68313577 31.024407,9.29453566 C30.9976556,8.97351818 30.8075794,8.58210213 30.5006417,8.27516437 C30.235943,8.02595343 29.8825422,7.77533452 29.5108378,7.5697707 C29.4235435,7.52189967 29.3362493,7.47543661 29.2489551,7.43319747 L31.1863237,6.28851672 Z M25.6942497,8.29473517 C26.3419165,8.28206343 26.9318565,8.42004463 27.350024,8.65235991 C27.7160966,8.85510779 27.9512278,9.12825424 27.9807952,9.43519201 C28.042746,10.0828589 27.1177088,10.6361916 25.9153012,10.6573112 C25.2718583,10.668575 24.6791023,10.5291858 24.2581188,10.2954625 C23.8934543,10.0941226 23.658323,9.82238414 23.6301636,9.51685435 C23.5668049,8.87059547 24.4932501,8.31585474 25.6942497,8.29473517 Z" id="形状结合" stroke="#ECC165" stroke-width="0.5" fill="#FFFFFF" transform="translate(25.804699, 11.750671) rotate(1.000000) translate(-25.804699, -11.750671) "></path>
    </g>
</svg>