<?xml version="1.0" encoding="UTF-8"?>
<svg width="51px" height="34px" viewBox="0 0 51 34" version="1.1" xmlns="http://www.w3.org/2000/svg" xmlns:xlink="http://www.w3.org/1999/xlink">
    <title>2-1AN- A</title>
    <defs>
        <linearGradient x1="0%" y1="47.2147188%" x2="100%" y2="50%" id="linearGradient-1">
            <stop stop-color="#E97000" offset="0%"></stop>
            <stop stop-color="#E26507" offset="20.0548719%"></stop>
            <stop stop-color="#F58931" offset="53.3129819%"></stop>
            <stop stop-color="#DB6000" offset="85.8095396%"></stop>
            <stop stop-color="#E87100" offset="100%"></stop>
        </linearGradient>
    </defs>
    <g id="2-1AN--A" stroke="none" stroke-width="1" fill="none" fill-rule="evenodd">
        <g id="编组-3" transform="translate(0.469674, 0.519119)">
            <path d="M24.9721869,0.480880737 C26.0267702,0.480880737 27.0661024,0.50830575 28.0863609,0.561550307 L28.9561081,0.613474209 L29.815978,0.677819746 C30.1008957,0.701313567 30.3840781,0.726840216 30.665436,0.754362247 L31.5039469,0.842877042 C31.6427568,0.858614717 31.7810882,0.874841876 31.9189301,0.891553839 L32.7400176,0.997605812 L33.5488208,1.1150684 L34.3448047,1.24371693 L35.1274345,1.38332673 L35.8961751,1.53367312 C37.4194107,1.84495273 38.8561019,2.21930389 40.1869914,2.64863843 L40.8435301,2.8678502 C40.951454,2.90513667 41.0586209,2.94279561 41.1650197,2.98082234 L41.794105,3.21335869 C46.5450536,5.02939966 49.6233947,7.60386933 49.9443738,10.4811708 L49.9443738,22.4815902 C49.6785939,24.8582912 47.5315585,27.0283226 44.1145636,28.7348932 L43.5645735,29.0004628 C42.4438426,29.5237493 41.1996765,29.9994703 39.8513294,30.4195391 L39.1685633,30.6248984 C39.0533517,30.6583395 38.9374389,30.6913848 38.820836,30.7240295 L38.1130274,30.9150546 C37.755072,31.0081266 37.3911066,31.0975097 37.0214321,31.1830776 L36.2745603,31.3490891 C36.1488427,31.3758974 36.0225131,31.4022724 35.8955825,31.4282094 L35.1268773,31.5785389 L34.344285,31.7181329 L33.5483405,31.8467667 C33.2808597,31.8877931 33.0112427,31.9269553 32.7395786,31.9642159 L31.9185341,32.0702556 C31.7806996,32.0869657 31.6423755,32.103191 31.5035731,32.1189268 L30.6651076,32.2074313 C30.3837652,32.2349502 30.1005985,32.2604739 29.8156967,32.2839649 L28.9558751,32.3483029 L28.0861778,32.4002207 C27.065978,32.453459 26.0267071,32.4808807 24.9721869,32.4808807 C23.9176667,32.4808807 22.8783958,32.453459 21.858196,32.4002207 L20.9884987,32.3483029 L20.1286771,32.2839649 C19.8437753,32.2604739 19.5606086,32.2349502 19.2792662,32.2074313 L18.4408007,32.1189268 C18.3019983,32.103191 18.1636742,32.0869657 18.0258396,32.0702556 L17.2047952,31.9642159 C17.0689631,31.9455856 16.9336428,31.9264799 16.7988455,31.9069034 L15.9964254,31.7838339 C15.8637643,31.7623933 15.7316484,31.7404914 15.6000888,31.7181329 L14.8174965,31.5785389 L14.0487913,31.4282094 C13.9218607,31.4022724 13.795531,31.3758974 13.6698134,31.3490891 L12.9229416,31.1830776 C12.5532672,31.0975097 12.1893018,31.0081266 11.8313464,30.9150546 L11.1235378,30.7240295 C11.0069349,30.6913848 10.8910221,30.6583395 10.7758105,30.6248984 L10.0930443,30.4195391 C8.74469726,29.9994703 7.50053119,29.5237493 6.37980027,29.0004628 L5.82981022,28.7348932 C2.41281528,27.0283226 0.265779899,24.8582912 0,22.4815902 L0,10.4811708 C0.320979104,7.60386933 3.39932022,5.02939966 8.15026881,3.21335869 L8.77935409,2.98082234 C8.88575283,2.94279561 8.99291974,2.90513667 9.10084367,2.8678502 L9.75738241,2.64863843 C11.0882718,2.21930389 12.5249631,1.84495273 14.0481987,1.53367312 L14.8169393,1.38332673 L15.599569,1.24371693 L16.395553,1.1150684 L17.2043562,0.997605812 L18.0254436,0.891553839 C18.1632855,0.874841876 18.301617,0.858614717 18.4404268,0.842877042 L19.2789378,0.754362247 C19.5602957,0.726840216 19.843478,0.701313567 20.1283957,0.677819746 L20.9882657,0.613474209 L21.8580128,0.561550307 C22.7325202,0.515912115 23.6210408,0.489243385 24.5211675,0.482555139 L24.9721869,0.480880737 Z" id="路径" stroke="#FFC287" stroke-width="0.8" fill="url(#linearGradient-1)"></path>
            <path d="M25,21 C38.8071187,21 50,16.2989899 50,10.5 C50,4.70101013 38.8071187,0 25,0 C11.1928813,0 0,4.70101013 0,10.5 C0,16.2989899 11.1928813,21 25,21 Z" id="椭圆形备份-2" stroke="#FFEDDE" fill="#F8BD8C"></path>
        </g>
        <g id="编组" transform="translate(11.866656, 3.759833)" fill="#FFFFFF" stroke="#E69D61" stroke-width="0.5">
            <path d="M14.1899677,8.47454709 L23.5374898,15.3862787 L6.12229152,15.7410875 L14.1899677,8.47454709 Z M14.4462185,11.3102015 L11.3500893,14.0529298 L18.0280977,13.9177645 L14.4462185,11.3102015 Z M3.73662477,0.635243911 L5.86829348,1.69967029 C4.90383307,2.27412262 4.08439371,2.91897353 3.71972912,3.63563097 C3.21004347,4.35651233 2.97913616,5.14779226 3.04953473,5.93766421 C3.12134127,6.7261282 3.48178195,7.50755233 4.13508068,8.20731412 C4.54198442,8.77754253 5.24033823,9.2914521 6.06259353,9.74622686 C6.24562981,9.8476008 6.43429798,9.9461588 6.62859803,10.0419009 L4.69967721,11.1922135 C4.52931267,11.1077352 4.36458002,11.020441 4.20266331,10.9303308 C3.06220647,10.2981516 2.13294534,9.56037463 1.4261437,8.80851791 C0.619376087,7.95951115 0.230775979,6.94154783 0.151929581,6.00102293 C0.0646353537,5.05345817 0.275831064,4.10448545 0.91364211,3.13720909 C1.55286113,2.18119651 2.49901791,1.37583687 3.73662477,0.635243911 Z M23.1769083,0.239744744 C23.4021837,0.350974485 23.6204193,0.465020169 23.831615,0.581881795 C24.9030813,1.17604573 25.7703916,1.83920026 26.4602976,2.61921642 C27.2572095,3.47244709 27.6444016,4.49041041 27.723248,5.43093531 C27.8119502,6.37850006 27.6007545,7.32747279 26.9727992,8.28911725 C26.3237244,9.25076172 25.3775676,10.0561214 24.1399608,10.7967143 L22.0082921,9.73228794 C22.9727525,9.15783561 23.6471708,8.51720862 24.1568564,7.79632726 C24.6763979,7.06981402 24.8974494,6.28416598 24.8256428,5.49429402 C24.7552443,4.70583003 24.3948036,3.92440591 23.7415049,3.22464412 C23.1726844,2.61076859 22.4898183,2.05743583 21.6126521,1.57168569 C21.4971984,1.50832698 21.3789288,1.44637624 21.2578433,1.38442549 L23.1769083,0.239744744 Z M8.00967718,2.75959116 L10.1328981,3.81838566 C9.72317838,4.14081111 9.3134587,4.39002205 9.20363693,4.78284607 C8.94879411,5.10667949 8.81926074,5.426289 8.86431583,5.82052099 C8.90092308,6.21052907 9.07128762,6.52732264 9.25291593,6.91169883 C9.5105747,7.16654166 9.86397552,7.41856854 10.23568,7.62413236 C10.3215662,7.67200339 10.4088605,7.71705847 10.4947467,7.75929762 L8.55737806,8.9025704 C8.45459615,8.85188342 8.35603815,8.80119645 8.26029609,8.74769354 C7.63234085,8.3999246 7.1127994,7.99302087 6.68900001,7.51994248 C6.20888176,6.97928146 6.01035779,6.4259487 5.95826285,5.87965579 C5.91461574,5.32632303 6.00613388,4.77580621 6.3891021,4.21684157 C6.78192612,3.65224503 7.31836322,3.16790287 8.00967718,2.75959116 Z M19.3194891,2.52826146 C19.420863,2.57894843 19.520829,2.63104338 19.616571,2.68454629 C20.2445263,3.03231522 20.7626598,3.43921896 21.1878671,3.91229735 C21.6665774,4.45295837 21.8749572,5.00065925 21.9186043,5.55258404 C21.9721072,6.10028491 21.8707333,6.65643362 21.487765,7.21539826 C21.1047968,7.77436291 20.5683597,8.25870507 19.8756378,8.66701678 L17.7439691,7.6124462 C18.1536888,7.29142872 18.5634084,7.04221778 18.8196592,6.56069156 C19.074502,6.23685814 19.1927716,5.92288052 19.1575724,5.53428041 C19.1308209,5.21326293 18.9407448,4.82184688 18.633807,4.51490911 C18.3691084,4.26569817 18.0157076,4.01507926 17.6440031,3.80951544 C17.5567089,3.76164441 17.4694146,3.71518136 17.3821204,3.67294221 L19.3194891,2.52826146 Z M13.827415,4.53447991 C14.4750819,4.52180817 15.0650219,4.65978937 15.4831894,4.89210465 C15.849262,5.09485253 16.0843932,5.36799899 16.1139606,5.67493675 C16.1759113,6.3226036 15.2508741,6.87593636 14.0484665,6.89705593 C13.4050236,6.9083197 12.8122676,6.76893053 12.3912842,6.53520728 C12.0266196,6.33386737 11.7914884,6.06212889 11.7633289,5.75659909 C11.6999702,5.11034022 12.6264154,4.55559949 13.827415,4.53447991 Z" id="形状结合" transform="translate(13.937864, 7.990416) rotate(1.000000) translate(-13.937864, -7.990416) "></path>
        </g>
        <g id="编组-2" transform="translate(9.433500, 22.710000)" fill-rule="nonzero">
            <g id="IPRAN-A" transform="translate(0.000000, 1.000000)" fill="#403C3C" fill-opacity="0.8">
                <polygon id="路径" points="0 6.29 1.258 6.29 1.258 0 0 0"></polygon>
                <path d="M2.805,6.29 L4.063,6.29 L4.063,4.0545 L4.9045,4.0545 C6.256,4.0545 7.3355,3.4085 7.3355,1.972 C7.3355,0.4845 6.2645,0 4.8705,0 L2.805,0 L2.805,6.29 Z M4.063,3.06 L4.063,0.9945 L4.777,0.9945 C5.644,0.9945 6.103,1.241 6.103,1.972 C6.103,2.6945 5.6865,3.06 4.8195,3.06 L4.063,3.06 Z" id="形状"></path>
                <path d="M9.7325,0.9945 L10.5485,0.9945 C11.356,0.9945 11.798,1.224 11.798,1.904 C11.798,2.5755 11.356,2.9155 10.5485,2.9155 L9.7325,2.9155 L9.7325,0.9945 Z M13.3025,6.29 L11.832,3.7145 C12.5545,3.434 13.0305,2.8475 13.0305,1.904 C13.0305,0.459 11.985,0 10.6675,0 L8.4745,0 L8.4745,6.29 L9.7325,6.29 L9.7325,3.91 L10.608,3.91 L11.9,6.29 L13.3025,6.29 Z" id="形状"></path>
                <path d="M15.453,3.6975 L15.64,3.009 C15.827,2.3545 16.014,1.6405 16.1755,0.952 L16.2095,0.952 C16.3965,1.632 16.5665,2.3545 16.762,3.009 L16.949,3.6975 L15.453,3.6975 Z M17.663,6.29 L18.9805,6.29 L16.9575,0 L15.4785,0 L13.464,6.29 L14.739,6.29 L15.181,4.675 L17.221,4.675 L17.663,6.29 Z" id="形状"></path>
                <path d="M19.72,6.29 L20.91,6.29 L20.91,3.7655 C20.91,3.043 20.8165,2.2525 20.757,1.5725 L20.7995,1.5725 L21.437,2.924 L23.256,6.29 L24.531,6.29 L24.531,0 L23.341,0 L23.341,2.5075 C23.341,3.2215 23.4345,4.0545 23.5025,4.709 L23.46,4.709 L22.831,3.349 L21.0035,0 L19.72,0 L19.72,6.29 Z" id="路径"></path>
                <polygon id="路径" points="25.7295 4.301 28.05 4.301 28.05 3.4085 25.7295 3.4085"></polygon>
                <path d="M30.413,3.6975 L30.6,3.009 C30.787,2.3545 30.974,1.6405 31.1355,0.952 L31.1695,0.952 C31.3565,1.632 31.5265,2.3545 31.722,3.009 L31.909,3.6975 L30.413,3.6975 Z M32.623,6.29 L33.9405,6.29 L31.9175,0 L30.4385,0 L28.424,6.29 L29.699,6.29 L30.141,4.675 L32.181,4.675 L32.623,6.29 Z" id="形状"></path>
            </g>
            <g id="IPRAN-A备份" fill="#FFFFFF">
                <polygon id="路径" points="0 6.29 1.258 6.29 1.258 0 0 0"></polygon>
                <path d="M2.805,6.29 L4.063,6.29 L4.063,4.0545 L4.9045,4.0545 C6.256,4.0545 7.3355,3.4085 7.3355,1.972 C7.3355,0.4845 6.2645,0 4.8705,0 L2.805,0 L2.805,6.29 Z M4.063,3.06 L4.063,0.9945 L4.777,0.9945 C5.644,0.9945 6.103,1.241 6.103,1.972 C6.103,2.6945 5.6865,3.06 4.8195,3.06 L4.063,3.06 Z" id="形状"></path>
                <path d="M9.7325,0.9945 L10.5485,0.9945 C11.356,0.9945 11.798,1.224 11.798,1.904 C11.798,2.5755 11.356,2.9155 10.5485,2.9155 L9.7325,2.9155 L9.7325,0.9945 Z M13.3025,6.29 L11.832,3.7145 C12.5545,3.434 13.0305,2.8475 13.0305,1.904 C13.0305,0.459 11.985,0 10.6675,0 L8.4745,0 L8.4745,6.29 L9.7325,6.29 L9.7325,3.91 L10.608,3.91 L11.9,6.29 L13.3025,6.29 Z" id="形状"></path>
                <path d="M15.453,3.6975 L15.64,3.009 C15.827,2.3545 16.014,1.6405 16.1755,0.952 L16.2095,0.952 C16.3965,1.632 16.5665,2.3545 16.762,3.009 L16.949,3.6975 L15.453,3.6975 Z M17.663,6.29 L18.9805,6.29 L16.9575,0 L15.4785,0 L13.464,6.29 L14.739,6.29 L15.181,4.675 L17.221,4.675 L17.663,6.29 Z" id="形状"></path>
                <path d="M19.72,6.29 L20.91,6.29 L20.91,3.7655 C20.91,3.043 20.8165,2.2525 20.757,1.5725 L20.7995,1.5725 L21.437,2.924 L23.256,6.29 L24.531,6.29 L24.531,0 L23.341,0 L23.341,2.5075 C23.341,3.2215 23.4345,4.0545 23.5025,4.709 L23.46,4.709 L22.831,3.349 L21.0035,0 L19.72,0 L19.72,6.29 Z" id="路径"></path>
                <polygon id="路径" points="25.7295 4.301 28.05 4.301 28.05 3.4085 25.7295 3.4085"></polygon>
                <path d="M30.413,3.6975 L30.6,3.009 C30.787,2.3545 30.974,1.6405 31.1355,0.952 L31.1695,0.952 C31.3565,1.632 31.5265,2.3545 31.722,3.009 L31.909,3.6975 L30.413,3.6975 Z M32.623,6.29 L33.9405,6.29 L31.9175,0 L30.4385,0 L28.424,6.29 L29.699,6.29 L30.141,4.675 L32.181,4.675 L32.623,6.29 Z" id="形状"></path>
            </g>
        </g>
    </g>
</svg>