<?xml version="1.0" encoding="UTF-8"?>
<svg width="51px" height="34px" viewBox="0 0 51 34" version="1.1" xmlns="http://www.w3.org/2000/svg" xmlns:xlink="http://www.w3.org/1999/xlink">
    <title>3-2AN-U</title>
    <defs>
        <linearGradient x1="0%" y1="47.2147188%" x2="100%" y2="50%" id="linearGradient-1">
            <stop stop-color="#BD7039" offset="0%"></stop>
            <stop stop-color="#BB6D35" offset="20.0548719%"></stop>
            <stop stop-color="#C6834F" offset="55.4700305%"></stop>
            <stop stop-color="#BC6F37" offset="84.3499884%"></stop>
            <stop stop-color="#BE713A" offset="100%"></stop>
        </linearGradient>
    </defs>
    <g id="3-2AN-U" stroke="none" stroke-width="1" fill="none" fill-rule="evenodd">
        <g id="编组-3" transform="translate(0.469674, 0.519119)">
            <path d="M24.9721869,0.480880737 C26.0267702,0.480880737 27.0661024,0.50830575 28.0863609,0.561550307 L28.9561081,0.613474209 L29.815978,0.677819746 C30.1008957,0.701313567 30.3840781,0.726840216 30.665436,0.754362247 L31.5039469,0.842877042 C31.6427568,0.858614717 31.7810882,0.874841876 31.9189301,0.891553839 L32.7400176,0.997605812 L33.5488208,1.1150684 L34.3448047,1.24371693 L35.1274345,1.38332673 L35.8961751,1.53367312 C37.4194107,1.84495273 38.8561019,2.21930389 40.1869914,2.64863843 L40.8435301,2.8678502 C40.951454,2.90513667 41.0586209,2.94279561 41.1650197,2.98082234 L41.794105,3.21335869 C46.5450536,5.02939966 49.6233947,7.60386933 49.9443738,10.4811708 L49.9443738,22.4815902 C49.6785939,24.8582912 47.5315585,27.0283226 44.1145636,28.7348932 L43.5645735,29.0004628 C42.4438426,29.5237493 41.1996765,29.9994703 39.8513294,30.4195391 L39.1685633,30.6248984 C39.0533517,30.6583395 38.9374389,30.6913848 38.820836,30.7240295 L38.1130274,30.9150546 C37.755072,31.0081266 37.3911066,31.0975097 37.0214321,31.1830776 L36.2745603,31.3490891 C36.1488427,31.3758974 36.0225131,31.4022724 35.8955825,31.4282094 L35.1268773,31.5785389 L34.344285,31.7181329 L33.5483405,31.8467667 C33.2808597,31.8877931 33.0112427,31.9269553 32.7395786,31.9642159 L31.9185341,32.0702556 C31.7806996,32.0869657 31.6423755,32.103191 31.5035731,32.1189268 L30.6651076,32.2074313 C30.3837652,32.2349502 30.1005985,32.2604739 29.8156967,32.2839649 L28.9558751,32.3483029 L28.0861778,32.4002207 C27.065978,32.453459 26.0267071,32.4808807 24.9721869,32.4808807 C23.9176667,32.4808807 22.8783958,32.453459 21.858196,32.4002207 L20.9884987,32.3483029 L20.1286771,32.2839649 C19.8437753,32.2604739 19.5606086,32.2349502 19.2792662,32.2074313 L18.4408007,32.1189268 C18.3019983,32.103191 18.1636742,32.0869657 18.0258396,32.0702556 L17.2047952,31.9642159 C17.0689631,31.9455856 16.9336428,31.9264799 16.7988455,31.9069034 L15.9964254,31.7838339 C15.8637643,31.7623933 15.7316484,31.7404914 15.6000888,31.7181329 L14.8174965,31.5785389 L14.0487913,31.4282094 C13.9218607,31.4022724 13.795531,31.3758974 13.6698134,31.3490891 L12.9229416,31.1830776 C12.5532672,31.0975097 12.1893018,31.0081266 11.8313464,30.9150546 L11.1235378,30.7240295 C11.0069349,30.6913848 10.8910221,30.6583395 10.7758105,30.6248984 L10.0930443,30.4195391 C8.74469726,29.9994703 7.50053119,29.5237493 6.37980027,29.0004628 L5.82981022,28.7348932 C2.41281528,27.0283226 0.265779899,24.8582912 0,22.4815902 L0,10.4811708 C0.320979104,7.60386933 3.39932022,5.02939966 8.15026881,3.21335869 L8.77935409,2.98082234 C8.88575283,2.94279561 8.99291974,2.90513667 9.10084367,2.8678502 L9.75738241,2.64863843 C11.0882718,2.21930389 12.5249631,1.84495273 14.0481987,1.53367312 L14.8169393,1.38332673 L15.599569,1.24371693 L16.395553,1.1150684 L17.2043562,0.997605812 L18.0254436,0.891553839 C18.1632855,0.874841876 18.301617,0.858614717 18.4404268,0.842877042 L19.2789378,0.754362247 C19.5602957,0.726840216 19.843478,0.701313567 20.1283957,0.677819746 L20.9882657,0.613474209 L21.8580128,0.561550307 C22.7325202,0.515912115 23.6210408,0.489243385 24.5211675,0.482555139 L24.9721869,0.480880737 Z" id="路径" stroke="#EAB995" stroke-width="0.8" fill="url(#linearGradient-1)"></path>
            <path d="M25,0.5 C31.8271335,0.5 38.0094938,1.65705489 42.4840533,3.53636985 C44.7180177,4.47463492 46.5221619,5.58987991 47.7508034,6.83568515 C48.8640843,7.96451822 49.5,9.19699069 49.5,10.5 C49.5,11.8030093 48.8640843,13.0354818 47.7508034,14.1643148 C46.5221619,15.4101201 44.7180177,16.5253651 42.4840533,17.4636301 C38.0094938,19.3429451 31.8271335,20.5 25,20.5 C18.1728665,20.5 11.9905062,19.3429451 7.51594671,17.4636301 C5.28198227,16.5253651 3.4778381,15.4101201 2.2491966,14.1643148 C1.13591573,13.0354818 0.5,11.8030093 0.5,10.5 C0.5,9.19699069 1.13591573,7.96451822 2.2491966,6.83568515 C3.4778381,5.58987991 5.28198227,4.47463492 7.51594671,3.53636985 C11.9905062,1.65705489 18.1728665,0.5 25,0.5 Z" id="椭圆形备份-2" stroke="#FFEDDE" fill="#E6BF9F"></path>
        </g>
        <g id="编组" transform="translate(12.000000, 2.999156)" fill="#FFFFFF" stroke="#BF8E65" stroke-width="0.5">
            <path d="M13.97574,4.82095771 C15.5573045,4.81814353 17.0403731,5.16991501 18.1322717,5.76089109 C18.5712825,6.00009569 18.9483815,6.27588453 19.2410554,6.58544342 C19.5984552,6.9175157 19.2241704,7.31431392 18.579725,7.43250913 C18.2054402,7.49442091 17.7636152,7.43250913 17.482198,7.28054386 C17.4146579,7.24114545 17.3527461,7.19893288 17.3077194,7.15109196 C17.105099,6.94847159 16.8546377,6.76555042 16.5675922,6.6079568 C15.8950051,6.24492864 15.0057269,6.02542324 13.97574,6.02542324 C12.4898573,6.03386575 11.3247901,6.47287655 10.6465747,7.15390613 C10.3932993,7.40436742 9.87549167,7.51130595 9.37456909,7.43532331 C9.20571878,7.40718159 9.05938185,7.3565265 8.93837246,7.29180055 C8.83987645,7.23833128 8.75826547,7.17360533 8.69353952,7.10325103 C8.56690179,6.94002907 8.58660099,6.75429373 8.71042455,6.59107177 C9.71226971,5.52168648 11.7356592,4.82940022 13.97574,4.82095771 Z M13.9734886,2.41061956 C16.8411297,2.41061956 19.4217252,3.03255153 21.2987778,4.04846755 C22.283738,4.58316019 23.0745202,5.22479136 23.6120271,5.94521934 C23.8259041,6.27447744 23.4516193,6.67408984 22.8606432,6.74162996 C22.4751016,6.80635591 22.0529759,6.73318744 21.7715587,6.57840799 C21.6702485,6.52493873 21.5886375,6.46302695 21.5351683,6.39267266 C21.1017858,5.82420995 20.4798538,5.3204732 19.7059566,4.9011616 C18.2285164,4.09912264 16.2107552,3.61508509 13.9763028,3.61508509 C10.6612084,3.62634178 7.67255799,4.72386878 6.41743737,6.39548683 C6.20356031,6.66846149 5.62946926,6.82324094 5.09196245,6.7472583 C4.8977846,6.71630241 4.72330595,6.66283315 4.58541153,6.58966468 C4.50942889,6.5474521 4.44470294,6.49961118 4.39404784,6.44614192 C4.25052508,6.2885483 4.23364005,6.10562713 4.34057858,5.95084768 C5.89681558,3.85991804 9.60589401,2.41343373 13.9734886,2.41061956 Z M13.972363,0 C18.0472837,0 21.753548,0.903349147 24.4185687,2.34701928 C25.9269648,3.16594327 27.1004744,4.15371757 27.8180882,5.25405875 C28.0347794,5.62271525 27.6576804,5.98011507 27.0864036,6.05891188 C26.700862,6.12363783 26.2787362,6.05046937 25.9888766,5.89568992 C25.8875664,5.83940648 25.8031412,5.77468053 25.7412294,5.70151206 C25.1221116,4.75032199 24.1146381,3.89762794 22.8201191,3.19408499 C20.5547108,1.96710609 17.4169093,1.20446553 13.9751771,1.2072797 C8.56633895,1.2072797 3.90888463,3.09277481 2.13877057,5.70714041 C1.9755486,5.98855759 1.38457252,6.15459372 0.793596447,6.0673544 C0.624746139,6.03639851 0.472780862,5.98292924 0.346143131,5.91538912 C0.160407792,5.81407893 0.0365842334,5.68181286 0,5.5382901 L0,5.37225396 C0.00844251539,5.3384839 0.0225133744,5.30471384 0.042212577,5.27094378 C2.11907136,2.22038155 7.59826385,0.0028141718 13.972363,0 Z M15.0887449,12.0474695 L16.9320275,12.055912 L15.0887449,10.2801696 L15.0887449,12.0474695 L15.0887449,12.0474695 Z M11.0222667,12.0587262 L12.8683634,12.0474695 L12.8683634,10.2801696 L11.0222667,12.0587262 L11.0222667,12.0587262 Z M27.3219497,14.5802241 C27.8200581,14.8475704 27.4457733,15.2584395 26.7844429,15.2584395 L1.10231109,15.266882 C0.908133239,15.2725103 0.725212072,15.2302978 0.592945998,15.1599435 C0.519777531,15.1205451 0.460679923,15.06989 0.421281518,15.0136065 C0.31434299,14.8588271 0.421281518,14.6843484 0.637972747,14.5886666 L3.4662154,12.6637731 C3.98402301,12.2641607 4.86204461,12.0615403 5.75695125,12.0587262 L8.42760028,12.0502836 L12.7220264,7.7530433 L12.7951949,7.71645907 L12.8655492,7.67706066 L12.9387177,7.63766226 L13.0822404,7.55886545 L13.1694798,7.51102453 L13.2426482,7.47162612 L14.4246004,7.47162612 L14.4949547,7.51102453 L14.5681231,7.55042293 L14.7116459,7.62640557 L14.8016994,7.67706066 L14.8720537,7.7136449 L14.942408,7.7530433 L19.529508,12.0474695 L22.1973429,12.055912 C23.0190811,12.055912 23.7676508,12.2585324 24.3417418,12.5709054 C24.3923969,12.5990471 24.443052,12.6271889 24.4908929,12.6553306 L27.3219497,14.5802241 Z" id="形状结合"></path>
        </g>
        <g id="编组-2" transform="translate(8.478750, 22.710000)" fill-rule="nonzero">
            <g id="IPRAN-U备份" transform="translate(0.000000, 1.000000)" fill="#403C3C" fill-opacity="0.8">
                <polygon id="路径" points="0 6.29 1.258 6.29 1.258 0 0 0"></polygon>
                <path d="M2.805,6.29 L4.063,6.29 L4.063,4.0545 L4.9045,4.0545 C6.256,4.0545 7.3355,3.4085 7.3355,1.972 C7.3355,0.4845 6.2645,0 4.8705,0 L2.805,0 L2.805,6.29 Z M4.063,3.06 L4.063,0.9945 L4.777,0.9945 C5.644,0.9945 6.103,1.241 6.103,1.972 C6.103,2.6945 5.6865,3.06 4.8195,3.06 L4.063,3.06 Z" id="形状"></path>
                <path d="M9.7325,0.9945 L10.5485,0.9945 C11.356,0.9945 11.798,1.224 11.798,1.904 C11.798,2.5755 11.356,2.9155 10.5485,2.9155 L9.7325,2.9155 L9.7325,0.9945 Z M13.3025,6.29 L11.832,3.7145 C12.5545,3.434 13.0305,2.8475 13.0305,1.904 C13.0305,0.459 11.985,0 10.6675,0 L8.4745,0 L8.4745,6.29 L9.7325,6.29 L9.7325,3.91 L10.608,3.91 L11.9,6.29 L13.3025,6.29 Z" id="形状"></path>
                <path d="M15.453,3.6975 L15.64,3.009 C15.827,2.3545 16.014,1.6405 16.1755,0.952 L16.2095,0.952 C16.3965,1.632 16.5665,2.3545 16.762,3.009 L16.949,3.6975 L15.453,3.6975 Z M17.663,6.29 L18.9805,6.29 L16.9575,0 L15.4785,0 L13.464,6.29 L14.739,6.29 L15.181,4.675 L17.221,4.675 L17.663,6.29 Z" id="形状"></path>
                <path d="M19.72,6.29 L20.91,6.29 L20.91,3.7655 C20.91,3.043 20.8165,2.2525 20.757,1.5725 L20.7995,1.5725 L21.437,2.924 L23.256,6.29 L24.531,6.29 L24.531,0 L23.341,0 L23.341,2.5075 C23.341,3.2215 23.4345,4.0545 23.5025,4.709 L23.46,4.709 L22.831,3.349 L21.0035,0 L19.72,0 L19.72,6.29 Z" id="路径"></path>
                <polygon id="路径" points="25.7295 4.301 28.05 4.301 28.05 3.4085 25.7295 3.4085"></polygon>
                <path d="M31.6455,6.409 C33.184,6.409 34.0765,5.5505 34.0765,3.4595 L34.0765,0 L32.8695,0 L32.8695,3.57 C32.8695,4.879 32.3935,5.321 31.6455,5.321 C30.906,5.321 30.4555,4.879 30.4555,3.57 L30.4555,0 L29.1975,0 L29.1975,3.4595 C29.1975,5.5505 30.1155,6.409 31.6455,6.409 Z" id="路径"></path>
            </g>
            <g id="IPRAN-U备份-2" fill="#FFFFFF">
                <polygon id="路径" points="0 6.29 1.258 6.29 1.258 0 0 0"></polygon>
                <path d="M2.805,6.29 L4.063,6.29 L4.063,4.0545 L4.9045,4.0545 C6.256,4.0545 7.3355,3.4085 7.3355,1.972 C7.3355,0.4845 6.2645,0 4.8705,0 L2.805,0 L2.805,6.29 Z M4.063,3.06 L4.063,0.9945 L4.777,0.9945 C5.644,0.9945 6.103,1.241 6.103,1.972 C6.103,2.6945 5.6865,3.06 4.8195,3.06 L4.063,3.06 Z" id="形状"></path>
                <path d="M9.7325,0.9945 L10.5485,0.9945 C11.356,0.9945 11.798,1.224 11.798,1.904 C11.798,2.5755 11.356,2.9155 10.5485,2.9155 L9.7325,2.9155 L9.7325,0.9945 Z M13.3025,6.29 L11.832,3.7145 C12.5545,3.434 13.0305,2.8475 13.0305,1.904 C13.0305,0.459 11.985,0 10.6675,0 L8.4745,0 L8.4745,6.29 L9.7325,6.29 L9.7325,3.91 L10.608,3.91 L11.9,6.29 L13.3025,6.29 Z" id="形状"></path>
                <path d="M15.453,3.6975 L15.64,3.009 C15.827,2.3545 16.014,1.6405 16.1755,0.952 L16.2095,0.952 C16.3965,1.632 16.5665,2.3545 16.762,3.009 L16.949,3.6975 L15.453,3.6975 Z M17.663,6.29 L18.9805,6.29 L16.9575,0 L15.4785,0 L13.464,6.29 L14.739,6.29 L15.181,4.675 L17.221,4.675 L17.663,6.29 Z" id="形状"></path>
                <path d="M19.72,6.29 L20.91,6.29 L20.91,3.7655 C20.91,3.043 20.8165,2.2525 20.757,1.5725 L20.7995,1.5725 L21.437,2.924 L23.256,6.29 L24.531,6.29 L24.531,0 L23.341,0 L23.341,2.5075 C23.341,3.2215 23.4345,4.0545 23.5025,4.709 L23.46,4.709 L22.831,3.349 L21.0035,0 L19.72,0 L19.72,6.29 Z" id="路径"></path>
                <polygon id="路径" points="25.7295 4.301 28.05 4.301 28.05 3.4085 25.7295 3.4085"></polygon>
                <path d="M31.6455,6.409 C33.184,6.409 34.0765,5.5505 34.0765,3.4595 L34.0765,0 L32.8695,0 L32.8695,3.57 C32.8695,4.879 32.3935,5.321 31.6455,5.321 C30.906,5.321 30.4555,4.879 30.4555,3.57 L30.4555,0 L29.1975,0 L29.1975,3.4595 C29.1975,5.5505 30.1155,6.409 31.6455,6.409 Z" id="路径"></path>
            </g>
        </g>
    </g>
</svg>