<?xml version="1.0" encoding="UTF-8"?>
<svg width="51px" height="34px" viewBox="0 0 51 34" version="1.1" xmlns="http://www.w3.org/2000/svg" xmlns:xlink="http://www.w3.org/1999/xlink">
    <title>2-2AN-A </title>
    <defs>
        <linearGradient x1="0%" y1="47.2147188%" x2="100%" y2="50%" id="linearGradient-1">
            <stop stop-color="#BD7039" offset="0%"></stop>
            <stop stop-color="#BB6D35" offset="20.0548719%"></stop>
            <stop stop-color="#C6834F" offset="55.4700305%"></stop>
            <stop stop-color="#BC6F37" offset="84.3499884%"></stop>
            <stop stop-color="#BE713A" offset="100%"></stop>
        </linearGradient>
    </defs>
    <g id="2-2AN-A-" stroke="none" stroke-width="1" fill="none" fill-rule="evenodd">
        <g id="编组-3" transform="translate(0.469674, 0.519119)">
            <path d="M24.9721869,0.480880737 C26.0267702,0.480880737 27.0661024,0.50830575 28.0863609,0.561550307 L28.9561081,0.613474209 L29.815978,0.677819746 C30.1008957,0.701313567 30.3840781,0.726840216 30.665436,0.754362247 L31.5039469,0.842877042 C31.6427568,0.858614717 31.7810882,0.874841876 31.9189301,0.891553839 L32.7400176,0.997605812 L33.5488208,1.1150684 L34.3448047,1.24371693 L35.1274345,1.38332673 L35.8961751,1.53367312 C37.4194107,1.84495273 38.8561019,2.21930389 40.1869914,2.64863843 L40.8435301,2.8678502 C40.951454,2.90513667 41.0586209,2.94279561 41.1650197,2.98082234 L41.794105,3.21335869 C46.5450536,5.02939966 49.6233947,7.60386933 49.9443738,10.4811708 L49.9443738,22.4815902 C49.6785939,24.8582912 47.5315585,27.0283226 44.1145636,28.7348932 L43.5645735,29.0004628 C42.4438426,29.5237493 41.1996765,29.9994703 39.8513294,30.4195391 L39.1685633,30.6248984 C39.0533517,30.6583395 38.9374389,30.6913848 38.820836,30.7240295 L38.1130274,30.9150546 C37.755072,31.0081266 37.3911066,31.0975097 37.0214321,31.1830776 L36.2745603,31.3490891 C36.1488427,31.3758974 36.0225131,31.4022724 35.8955825,31.4282094 L35.1268773,31.5785389 L34.344285,31.7181329 L33.5483405,31.8467667 C33.2808597,31.8877931 33.0112427,31.9269553 32.7395786,31.9642159 L31.9185341,32.0702556 C31.7806996,32.0869657 31.6423755,32.103191 31.5035731,32.1189268 L30.6651076,32.2074313 C30.3837652,32.2349502 30.1005985,32.2604739 29.8156967,32.2839649 L28.9558751,32.3483029 L28.0861778,32.4002207 C27.065978,32.453459 26.0267071,32.4808807 24.9721869,32.4808807 C23.9176667,32.4808807 22.8783958,32.453459 21.858196,32.4002207 L20.9884987,32.3483029 L20.1286771,32.2839649 C19.8437753,32.2604739 19.5606086,32.2349502 19.2792662,32.2074313 L18.4408007,32.1189268 C18.3019983,32.103191 18.1636742,32.0869657 18.0258396,32.0702556 L17.2047952,31.9642159 C17.0689631,31.9455856 16.9336428,31.9264799 16.7988455,31.9069034 L15.9964254,31.7838339 C15.8637643,31.7623933 15.7316484,31.7404914 15.6000888,31.7181329 L14.8174965,31.5785389 L14.0487913,31.4282094 C13.9218607,31.4022724 13.795531,31.3758974 13.6698134,31.3490891 L12.9229416,31.1830776 C12.5532672,31.0975097 12.1893018,31.0081266 11.8313464,30.9150546 L11.1235378,30.7240295 C11.0069349,30.6913848 10.8910221,30.6583395 10.7758105,30.6248984 L10.0930443,30.4195391 C8.74469726,29.9994703 7.50053119,29.5237493 6.37980027,29.0004628 L5.82981022,28.7348932 C2.41281528,27.0283226 0.265779899,24.8582912 0,22.4815902 L0,10.4811708 C0.320979104,7.60386933 3.39932022,5.02939966 8.15026881,3.21335869 L8.77935409,2.98082234 C8.88575283,2.94279561 8.99291974,2.90513667 9.10084367,2.8678502 L9.75738241,2.64863843 C11.0882718,2.21930389 12.5249631,1.84495273 14.0481987,1.53367312 L14.8169393,1.38332673 L15.599569,1.24371693 L16.395553,1.1150684 L17.2043562,0.997605812 L18.0254436,0.891553839 C18.1632855,0.874841876 18.301617,0.858614717 18.4404268,0.842877042 L19.2789378,0.754362247 C19.5602957,0.726840216 19.843478,0.701313567 20.1283957,0.677819746 L20.9882657,0.613474209 L21.8580128,0.561550307 C22.7325202,0.515912115 23.6210408,0.489243385 24.5211675,0.482555139 L24.9721869,0.480880737 Z" id="路径" stroke="#EAB995" stroke-width="0.8" fill="url(#linearGradient-1)"></path>
            <path d="M25,0.5 C31.8271335,0.5 38.0094938,1.65705489 42.4840533,3.53636985 C44.7180177,4.47463492 46.5221619,5.58987991 47.7508034,6.83568515 C48.8640843,7.96451822 49.5,9.19699069 49.5,10.5 C49.5,11.8030093 48.8640843,13.0354818 47.7508034,14.1643148 C46.5221619,15.4101201 44.7180177,16.5253651 42.4840533,17.4636301 C38.0094938,19.3429451 31.8271335,20.5 25,20.5 C18.1728665,20.5 11.9905062,19.3429451 7.51594671,17.4636301 C5.28198227,16.5253651 3.4778381,15.4101201 2.2491966,14.1643148 C1.13591573,13.0354818 0.5,11.8030093 0.5,10.5 C0.5,9.19699069 1.13591573,7.96451822 2.2491966,6.83568515 C3.4778381,5.58987991 5.28198227,4.47463492 7.51594671,3.53636985 C11.9905062,1.65705489 18.1728665,0.5 25,0.5 Z" id="椭圆形备份-2" stroke="#FFEDDE" fill="#E6BF9F"></path>
        </g>
        <g id="编组" transform="translate(25.804519, 11.750249) rotate(-1.000000) translate(-25.804519, -11.750249) translate(11.737736, 3.522522)" fill="#FFFFFF" stroke="#BF8E65" stroke-width="0.5">
            <path d="M14.3188874,8.71185787 L23.6664095,15.6235895 L6.25121125,15.9783983 L14.3188874,8.71185787 Z M14.5751382,11.5475123 L11.4790091,14.2902406 L18.1570174,14.1550753 L14.5751382,11.5475123 Z M3.86554451,0.872554698 L5.99721321,1.93698108 C5.0327528,2.51143341 4.21331345,3.15628431 3.84864885,3.87294176 C3.3389632,4.59382312 3.10805589,5.38510304 3.17845446,6.174975 C3.25026101,6.96343899 3.61070168,7.74486312 4.26400042,8.4446249 C4.67090415,9.01485332 5.36925797,9.52876288 6.19151327,9.98353765 C6.37454955,10.0849116 6.56321772,10.1834696 6.75751777,10.2792116 L4.82859695,11.4295243 C4.65823241,11.345046 4.49349975,11.2577518 4.33158304,11.1676416 C3.19112621,10.5354624 2.26186508,9.79768542 1.55506344,9.04582869 C0.748295823,8.19682194 0.359695716,7.17885861 0.280849317,6.23833371 C0.19355509,5.29076896 0.4047508,4.34179623 1.04256185,3.37451988 C1.68178086,2.4185073 2.62793765,1.61314766 3.86554451,0.872554698 Z M23.3058281,0.47705553 C23.5311035,0.588285271 23.7493391,0.702330955 23.9605348,0.819192581 C25.032001,1.41335651 25.8993114,2.07651104 26.5892174,2.8565272 C27.3861292,3.70975787 27.7733213,4.7277212 27.8521677,5.66824609 C27.9408699,6.61581085 27.7296742,7.56478357 27.101719,8.52642804 C26.4526441,9.48807251 25.5064874,10.2934322 24.2688805,11.0340251 L22.1372118,9.96959873 C23.1016722,9.3951464 23.7760905,8.75451941 24.2857762,8.03363805 C24.8053176,7.30712481 25.0263691,6.52147676 24.9545626,5.73160481 C24.884164,4.94314082 24.5237233,4.16171669 23.8704246,3.4619549 C23.3016041,2.84807937 22.618738,2.29474661 21.7415718,1.80899648 C21.6261182,1.74563776 21.5078486,1.68368702 21.386763,1.62173628 L23.3058281,0.47705553 Z M8.13859692,2.99690195 L10.2618178,4.05569645 C9.85209812,4.3781219 9.44237844,4.62733283 9.33255667,5.02015686 C9.07771385,5.34399028 8.94818048,5.66359979 8.99323556,6.05783178 C9.02984282,6.44783986 9.20020736,6.76463342 9.38183567,7.14900962 C9.63949444,7.40385244 9.99289526,7.65587932 10.3645997,7.86144315 C10.450486,7.90931418 10.5377802,7.95436926 10.6236664,7.9966084 L8.6862978,9.13988118 C8.58351588,9.08919421 8.48495788,9.03850724 8.38921583,8.98500433 C7.76126058,8.63723539 7.24171914,8.23033166 6.81791974,7.75725326 C6.3378015,7.21659224 6.13927753,6.66325948 6.08718259,6.11696658 C6.04353547,5.56363382 6.13505361,5.013117 6.51802183,4.45415235 C6.91084586,3.88955582 7.44728296,3.40521366 8.13859692,2.99690195 Z M19.4484088,2.76557225 C19.5497827,2.81625922 19.6497487,2.86835416 19.7454908,2.92185707 C20.373446,3.26962601 20.8915795,3.67652975 21.3167869,4.14960814 C21.7954971,4.69026916 22.0038769,5.23797003 22.047524,5.78989482 C22.1010269,6.3375957 21.999653,6.8937444 21.6166848,7.45270905 C21.2337165,8.0116737 20.6972794,8.49601586 20.0045575,8.90432757 L17.8728888,7.84975698 C18.2826085,7.5287395 18.6923282,7.27952857 18.948579,6.79800235 C19.2034218,6.47416892 19.3216914,6.1601913 19.2864921,5.77159119 C19.2597406,5.45057371 19.0696645,5.05915766 18.7627267,4.7522199 C18.4980281,4.50300896 18.1446273,4.25239005 17.7729228,4.04682623 C17.6856286,3.9989552 17.5983344,3.95249214 17.5110402,3.910253 L19.4484088,2.76557225 Z M13.9563348,4.7717907 C14.6040016,4.75911896 15.1939416,4.89710016 15.6121091,5.12941544 C15.9781817,5.33216332 16.2133129,5.60530977 16.2428803,5.91224754 C16.3048311,6.55991438 15.3797938,7.11324714 14.1773863,7.13436671 C13.5339433,7.14563049 12.9411874,7.00624132 12.5202039,6.77251806 C12.1555393,6.57117815 11.9204081,6.29943967 11.8922487,5.99390988 C11.82889,5.347651 12.7553351,4.79291027 13.9563348,4.7717907 Z" id="形状结合" transform="translate(14.066784, 8.227727) rotate(2.000000) translate(-14.066784, -8.227727) "></path>
        </g>
        <g id="编组-2" transform="translate(9.433500, 22.710000)" fill-rule="nonzero">
            <g id="IPRAN-A" transform="translate(0.000000, 1.000000)" fill="#403C3C" fill-opacity="0.8">
                <polygon id="路径" points="0 6.29 1.258 6.29 1.258 0 0 0"></polygon>
                <path d="M2.805,6.29 L4.063,6.29 L4.063,4.0545 L4.9045,4.0545 C6.256,4.0545 7.3355,3.4085 7.3355,1.972 C7.3355,0.4845 6.2645,0 4.8705,0 L2.805,0 L2.805,6.29 Z M4.063,3.06 L4.063,0.9945 L4.777,0.9945 C5.644,0.9945 6.103,1.241 6.103,1.972 C6.103,2.6945 5.6865,3.06 4.8195,3.06 L4.063,3.06 Z" id="形状"></path>
                <path d="M9.7325,0.9945 L10.5485,0.9945 C11.356,0.9945 11.798,1.224 11.798,1.904 C11.798,2.5755 11.356,2.9155 10.5485,2.9155 L9.7325,2.9155 L9.7325,0.9945 Z M13.3025,6.29 L11.832,3.7145 C12.5545,3.434 13.0305,2.8475 13.0305,1.904 C13.0305,0.459 11.985,0 10.6675,0 L8.4745,0 L8.4745,6.29 L9.7325,6.29 L9.7325,3.91 L10.608,3.91 L11.9,6.29 L13.3025,6.29 Z" id="形状"></path>
                <path d="M15.453,3.6975 L15.64,3.009 C15.827,2.3545 16.014,1.6405 16.1755,0.952 L16.2095,0.952 C16.3965,1.632 16.5665,2.3545 16.762,3.009 L16.949,3.6975 L15.453,3.6975 Z M17.663,6.29 L18.9805,6.29 L16.9575,0 L15.4785,0 L13.464,6.29 L14.739,6.29 L15.181,4.675 L17.221,4.675 L17.663,6.29 Z" id="形状"></path>
                <path d="M19.72,6.29 L20.91,6.29 L20.91,3.7655 C20.91,3.043 20.8165,2.2525 20.757,1.5725 L20.7995,1.5725 L21.437,2.924 L23.256,6.29 L24.531,6.29 L24.531,0 L23.341,0 L23.341,2.5075 C23.341,3.2215 23.4345,4.0545 23.5025,4.709 L23.46,4.709 L22.831,3.349 L21.0035,0 L19.72,0 L19.72,6.29 Z" id="路径"></path>
                <polygon id="路径" points="25.7295 4.301 28.05 4.301 28.05 3.4085 25.7295 3.4085"></polygon>
                <path d="M30.413,3.6975 L30.6,3.009 C30.787,2.3545 30.974,1.6405 31.1355,0.952 L31.1695,0.952 C31.3565,1.632 31.5265,2.3545 31.722,3.009 L31.909,3.6975 L30.413,3.6975 Z M32.623,6.29 L33.9405,6.29 L31.9175,0 L30.4385,0 L28.424,6.29 L29.699,6.29 L30.141,4.675 L32.181,4.675 L32.623,6.29 Z" id="形状"></path>
            </g>
            <g id="IPRAN-A备份" fill="#FFFFFF">
                <polygon id="路径" points="0 6.29 1.258 6.29 1.258 0 0 0"></polygon>
                <path d="M2.805,6.29 L4.063,6.29 L4.063,4.0545 L4.9045,4.0545 C6.256,4.0545 7.3355,3.4085 7.3355,1.972 C7.3355,0.4845 6.2645,0 4.8705,0 L2.805,0 L2.805,6.29 Z M4.063,3.06 L4.063,0.9945 L4.777,0.9945 C5.644,0.9945 6.103,1.241 6.103,1.972 C6.103,2.6945 5.6865,3.06 4.8195,3.06 L4.063,3.06 Z" id="形状"></path>
                <path d="M9.7325,0.9945 L10.5485,0.9945 C11.356,0.9945 11.798,1.224 11.798,1.904 C11.798,2.5755 11.356,2.9155 10.5485,2.9155 L9.7325,2.9155 L9.7325,0.9945 Z M13.3025,6.29 L11.832,3.7145 C12.5545,3.434 13.0305,2.8475 13.0305,1.904 C13.0305,0.459 11.985,0 10.6675,0 L8.4745,0 L8.4745,6.29 L9.7325,6.29 L9.7325,3.91 L10.608,3.91 L11.9,6.29 L13.3025,6.29 Z" id="形状"></path>
                <path d="M15.453,3.6975 L15.64,3.009 C15.827,2.3545 16.014,1.6405 16.1755,0.952 L16.2095,0.952 C16.3965,1.632 16.5665,2.3545 16.762,3.009 L16.949,3.6975 L15.453,3.6975 Z M17.663,6.29 L18.9805,6.29 L16.9575,0 L15.4785,0 L13.464,6.29 L14.739,6.29 L15.181,4.675 L17.221,4.675 L17.663,6.29 Z" id="形状"></path>
                <path d="M19.72,6.29 L20.91,6.29 L20.91,3.7655 C20.91,3.043 20.8165,2.2525 20.757,1.5725 L20.7995,1.5725 L21.437,2.924 L23.256,6.29 L24.531,6.29 L24.531,0 L23.341,0 L23.341,2.5075 C23.341,3.2215 23.4345,4.0545 23.5025,4.709 L23.46,4.709 L22.831,3.349 L21.0035,0 L19.72,0 L19.72,6.29 Z" id="路径"></path>
                <polygon id="路径" points="25.7295 4.301 28.05 4.301 28.05 3.4085 25.7295 3.4085"></polygon>
                <path d="M30.413,3.6975 L30.6,3.009 C30.787,2.3545 30.974,1.6405 31.1355,0.952 L31.1695,0.952 C31.3565,1.632 31.5265,2.3545 31.722,3.009 L31.909,3.6975 L30.413,3.6975 Z M32.623,6.29 L33.9405,6.29 L31.9175,0 L30.4385,0 L28.424,6.29 L29.699,6.29 L30.141,4.675 L32.181,4.675 L32.623,6.29 Z" id="形状"></path>
            </g>
        </g>
    </g>
</svg>