<?xml version="1.0" encoding="UTF-8"?>
<svg width="51px" height="34px" viewBox="0 0 51 34" version="1.1" xmlns="http://www.w3.org/2000/svg" xmlns:xlink="http://www.w3.org/1999/xlink">
    <title>1-1AN-B</title>
    <defs>
        <linearGradient x1="0%" y1="47.2147188%" x2="100%" y2="50%" id="linearGradient-1">
            <stop stop-color="#E97000" offset="0%"></stop>
            <stop stop-color="#E26507" offset="20.0548719%"></stop>
            <stop stop-color="#F58931" offset="53.3129819%"></stop>
            <stop stop-color="#DB6000" offset="85.8095396%"></stop>
            <stop stop-color="#E87100" offset="100%"></stop>
        </linearGradient>
        <linearGradient x1="50%" y1="0%" x2="50%" y2="100%" id="linearGradient-2">
            <stop stop-color="#FFE3BC" offset="0%"></stop>
            <stop stop-color="#FFC287" offset="100%"></stop>
        </linearGradient>
    </defs>
    <g id="1-1AN-B" stroke="none" stroke-width="1" fill="none" fill-rule="evenodd">
        <g id="编组-3" transform="translate(0.469674, 0.519119)">
            <path d="M24.9721869,0.480880737 C26.0267702,0.480880737 27.0661024,0.50830575 28.0863609,0.561550307 L28.9561081,0.613474209 L29.815978,0.677819746 C30.1008957,0.701313567 30.3840781,0.726840216 30.665436,0.754362247 L31.5039469,0.842877042 C31.6427568,0.858614717 31.7810882,0.874841876 31.9189301,0.891553839 L32.7400176,0.997605812 L33.5488208,1.1150684 L34.3448047,1.24371693 L35.1274345,1.38332673 L35.8961751,1.53367312 C37.4194107,1.84495273 38.8561019,2.21930389 40.1869914,2.64863843 L40.8435301,2.8678502 C40.951454,2.90513667 41.0586209,2.94279561 41.1650197,2.98082234 L41.794105,3.21335869 C46.5450536,5.02939966 49.6233947,7.60386933 49.9443738,10.4811708 L49.9443738,22.4815902 C49.6785939,24.8582912 47.5315585,27.0283226 44.1145636,28.7348932 L43.5645735,29.0004628 C42.4438426,29.5237493 41.1996765,29.9994703 39.8513294,30.4195391 L39.1685633,30.6248984 C39.0533517,30.6583395 38.9374389,30.6913848 38.820836,30.7240295 L38.1130274,30.9150546 C37.755072,31.0081266 37.3911066,31.0975097 37.0214321,31.1830776 L36.2745603,31.3490891 C36.1488427,31.3758974 36.0225131,31.4022724 35.8955825,31.4282094 L35.1268773,31.5785389 L34.344285,31.7181329 L33.5483405,31.8467667 C33.2808597,31.8877931 33.0112427,31.9269553 32.7395786,31.9642159 L31.9185341,32.0702556 C31.7806996,32.0869657 31.6423755,32.103191 31.5035731,32.1189268 L30.6651076,32.2074313 C30.3837652,32.2349502 30.1005985,32.2604739 29.8156967,32.2839649 L28.9558751,32.3483029 L28.0861778,32.4002207 C27.065978,32.453459 26.0267071,32.4808807 24.9721869,32.4808807 C23.9176667,32.4808807 22.8783958,32.453459 21.858196,32.4002207 L20.9884987,32.3483029 L20.1286771,32.2839649 C19.8437753,32.2604739 19.5606086,32.2349502 19.2792662,32.2074313 L18.4408007,32.1189268 C18.3019983,32.103191 18.1636742,32.0869657 18.0258396,32.0702556 L17.2047952,31.9642159 C17.0689631,31.9455856 16.9336428,31.9264799 16.7988455,31.9069034 L15.9964254,31.7838339 C15.8637643,31.7623933 15.7316484,31.7404914 15.6000888,31.7181329 L14.8174965,31.5785389 L14.0487913,31.4282094 C13.9218607,31.4022724 13.795531,31.3758974 13.6698134,31.3490891 L12.9229416,31.1830776 C12.5532672,31.0975097 12.1893018,31.0081266 11.8313464,30.9150546 L11.1235378,30.7240295 C11.0069349,30.6913848 10.8910221,30.6583395 10.7758105,30.6248984 L10.0930443,30.4195391 C8.74469726,29.9994703 7.50053119,29.5237493 6.37980027,29.0004628 L5.82981022,28.7348932 C2.41281528,27.0283226 0.265779899,24.8582912 0,22.4815902 L0,10.4811708 C0.320979104,7.60386933 3.39932022,5.02939966 8.15026881,3.21335869 L8.77935409,2.98082234 C8.88575283,2.94279561 8.99291974,2.90513667 9.10084367,2.8678502 L9.75738241,2.64863843 C11.0882718,2.21930389 12.5249631,1.84495273 14.0481987,1.53367312 L14.8169393,1.38332673 L15.599569,1.24371693 L16.395553,1.1150684 L17.2043562,0.997605812 L18.0254436,0.891553839 C18.1632855,0.874841876 18.301617,0.858614717 18.4404268,0.842877042 L19.2789378,0.754362247 C19.5602957,0.726840216 19.843478,0.701313567 20.1283957,0.677819746 L20.9882657,0.613474209 L21.8580128,0.561550307 C22.7325202,0.515912115 23.6210408,0.489243385 24.5211675,0.482555139 L24.9721869,0.480880737 Z" id="路径" stroke="url(#linearGradient-2)" stroke-width="0.8" fill="url(#linearGradient-1)"></path>
            <path d="M25,0.5 C31.8271335,0.5 38.0094938,1.65705489 42.4840533,3.53636985 C44.7180177,4.47463492 46.5221619,5.58987991 47.7508034,6.83568515 C48.8640843,7.96451822 49.5,9.19699069 49.5,10.5 C49.5,11.8030093 48.8640843,13.0354818 47.7508034,14.1643148 C46.5221619,15.4101201 44.7180177,16.5253651 42.4840533,17.4636301 C38.0094938,19.3429451 31.8271335,20.5 25,20.5 C18.1728665,20.5 11.9905062,19.3429451 7.51594671,17.4636301 C5.28198227,16.5253651 3.4778381,15.4101201 2.2491966,14.1643148 C1.13591573,13.0354818 0.5,11.8030093 0.5,10.5 C0.5,9.19699069 1.13591573,7.96451822 2.2491966,6.83568515 C3.4778381,5.58987991 5.28198227,4.47463492 7.51594671,3.53636985 C11.9905062,1.65705489 18.1728665,0.5 25,0.5 Z" id="椭圆形备份-2" stroke="#FFEDDE" fill="#F8BD8C"></path>
        </g>
        <g id="编组" transform="translate(8.107484, 22.689004)" fill-rule="nonzero">
            <g id="IPRAN-B" transform="translate(0.000000, 1.000000)" fill="#403C3C" fill-opacity="0.8">
                <polygon id="路径" points="0 6.29 1.258 6.29 1.258 0 0 0"></polygon>
                <path d="M2.805,6.29 L4.063,6.29 L4.063,4.0545 L4.9045,4.0545 C6.256,4.0545 7.3355,3.4085 7.3355,1.972 C7.3355,0.4845 6.2645,0 4.8705,0 L2.805,0 L2.805,6.29 Z M4.063,3.06 L4.063,0.9945 L4.777,0.9945 C5.644,0.9945 6.103,1.241 6.103,1.972 C6.103,2.6945 5.6865,3.06 4.8195,3.06 L4.063,3.06 Z" id="形状"></path>
                <path d="M9.7325,0.9945 L10.5485,0.9945 C11.356,0.9945 11.798,1.224 11.798,1.904 C11.798,2.5755 11.356,2.9155 10.5485,2.9155 L9.7325,2.9155 L9.7325,0.9945 Z M13.3025,6.29 L11.832,3.7145 C12.5545,3.434 13.0305,2.8475 13.0305,1.904 C13.0305,0.459 11.985,0 10.6675,0 L8.4745,0 L8.4745,6.29 L9.7325,6.29 L9.7325,3.91 L10.608,3.91 L11.9,6.29 L13.3025,6.29 Z" id="形状"></path>
                <path d="M15.453,3.6975 L15.64,3.009 C15.827,2.3545 16.014,1.6405 16.1755,0.952 L16.2095,0.952 C16.3965,1.632 16.5665,2.3545 16.762,3.009 L16.949,3.6975 L15.453,3.6975 Z M17.663,6.29 L18.9805,6.29 L16.9575,0 L15.4785,0 L13.464,6.29 L14.739,6.29 L15.181,4.675 L17.221,4.675 L17.663,6.29 Z" id="形状"></path>
                <path d="M19.72,6.29 L20.91,6.29 L20.91,3.7655 C20.91,3.043 20.8165,2.2525 20.757,1.5725 L20.7995,1.5725 L21.437,2.924 L23.256,6.29 L24.531,6.29 L24.531,0 L23.341,0 L23.341,2.5075 C23.341,3.2215 23.4345,4.0545 23.5025,4.709 L23.46,4.709 L22.831,3.349 L21.0035,0 L19.72,0 L19.72,6.29 Z" id="路径"></path>
                <polygon id="路径" points="25.7295 4.301 28.05 4.301 28.05 3.4085 25.7295 3.4085"></polygon>
                <path d="M29.2315,6.29 L31.4755,6.29 C32.861,6.29 33.915,5.7035 33.915,4.437 C33.915,3.587 33.4135,3.111 32.7335,2.9495 L32.7335,2.907 C33.269,2.72 33.592,2.125 33.592,1.547 C33.592,0.374 32.606,0 31.314,0 L29.2315,0 L29.2315,6.29 Z M30.4895,2.5585 L30.4895,0.9605 L31.2375,0.9605 C31.994,0.9605 32.368,1.1815 32.368,1.734 C32.368,2.2355 32.0195,2.5585 31.2205,2.5585 L30.4895,2.5585 Z M30.4895,5.321 L30.4895,3.4935 L31.365,3.4935 C32.232,3.4935 32.691,3.7485 32.691,4.3605 C32.691,5.015 32.2235,5.321 31.365,5.321 L30.4895,5.321 Z" id="形状"></path>
            </g>
            <g id="IPRAN-B备份-2" fill="#FFFFFF">
                <polygon id="路径" points="0 6.29 1.258 6.29 1.258 0 0 0"></polygon>
                <path d="M2.805,6.29 L4.063,6.29 L4.063,4.0545 L4.9045,4.0545 C6.256,4.0545 7.3355,3.4085 7.3355,1.972 C7.3355,0.4845 6.2645,0 4.8705,0 L2.805,0 L2.805,6.29 Z M4.063,3.06 L4.063,0.9945 L4.777,0.9945 C5.644,0.9945 6.103,1.241 6.103,1.972 C6.103,2.6945 5.6865,3.06 4.8195,3.06 L4.063,3.06 Z" id="形状"></path>
                <path d="M9.7325,0.9945 L10.5485,0.9945 C11.356,0.9945 11.798,1.224 11.798,1.904 C11.798,2.5755 11.356,2.9155 10.5485,2.9155 L9.7325,2.9155 L9.7325,0.9945 Z M13.3025,6.29 L11.832,3.7145 C12.5545,3.434 13.0305,2.8475 13.0305,1.904 C13.0305,0.459 11.985,0 10.6675,0 L8.4745,0 L8.4745,6.29 L9.7325,6.29 L9.7325,3.91 L10.608,3.91 L11.9,6.29 L13.3025,6.29 Z" id="形状"></path>
                <path d="M15.453,3.6975 L15.64,3.009 C15.827,2.3545 16.014,1.6405 16.1755,0.952 L16.2095,0.952 C16.3965,1.632 16.5665,2.3545 16.762,3.009 L16.949,3.6975 L15.453,3.6975 Z M17.663,6.29 L18.9805,6.29 L16.9575,0 L15.4785,0 L13.464,6.29 L14.739,6.29 L15.181,4.675 L17.221,4.675 L17.663,6.29 Z" id="形状"></path>
                <path d="M19.72,6.29 L20.91,6.29 L20.91,3.7655 C20.91,3.043 20.8165,2.2525 20.757,1.5725 L20.7995,1.5725 L21.437,2.924 L23.256,6.29 L24.531,6.29 L24.531,0 L23.341,0 L23.341,2.5075 C23.341,3.2215 23.4345,4.0545 23.5025,4.709 L23.46,4.709 L22.831,3.349 L21.0035,0 L19.72,0 L19.72,6.29 Z" id="路径"></path>
                <polygon id="路径" points="25.7295 4.301 28.05 4.301 28.05 3.4085 25.7295 3.4085"></polygon>
                <path d="M29.2315,6.29 L31.4755,6.29 C32.861,6.29 33.915,5.7035 33.915,4.437 C33.915,3.587 33.4135,3.111 32.7335,2.9495 L32.7335,2.907 C33.269,2.72 33.592,2.125 33.592,1.547 C33.592,0.374 32.606,0 31.314,0 L29.2315,0 L29.2315,6.29 Z M30.4895,2.5585 L30.4895,0.9605 L31.2375,0.9605 C31.994,0.9605 32.368,1.1815 32.368,1.734 C32.368,2.2355 32.0195,2.5585 31.2205,2.5585 L30.4895,2.5585 Z M30.4895,5.321 L30.4895,3.4935 L31.365,3.4935 C32.232,3.4935 32.691,3.7485 32.691,4.3605 C32.691,5.015 32.2235,5.321 31.365,5.321 L30.4895,5.321 Z" id="形状"></path>
            </g>
        </g>
        <path d="M28.470471,17.1700694 C28.4969285,17.612723 27.855844,17.9821097 27.0336277,17.9994088 C26.6092909,18.006532 26.2195522,17.9159661 25.9397137,17.7643445 C25.6822624,17.6239165 25.5174121,17.4326087 25.5041833,17.2199315 L25.2436792,12.6326159 C24.7613394,12.5267861 24.3339498,12.3731294 23.9808445,12.1818216 C23.3407776,11.8348219 22.9449334,11.3636757 22.9113528,10.8202803 C22.8726842,10.2870608 23.2349478,9.76707008 23.9085953,9.37326105 C24.5812252,8.98657517 25.5204648,8.75761643 26.5116018,8.74744049 C27.4956156,8.726071 28.4541895,8.92246672 29.1726112,9.28371274 C29.198051,9.29694147 29.2234909,9.3091526 29.2479132,9.32238133 C29.9205431,9.68769772 30.3133345,10.1802134 30.3265632,10.6951162 C30.3916893,11.495963 29.5562443,12.2449125 28.2099669,12.5827538 L28.470471,17.1700694 Z M36.6176371,3.78707479 C37.1396631,4.00891037 37.6321788,4.24499227 38.0951842,4.49633809 C41.013645,6.07869739 42.7394851,8.21971603 42.8636316,10.4808108 C43.0915727,13.1754008 41.0075394,15.6695247 37.3940617,17.4197871 L35.3924535,16.2088497 C38.3902866,14.778112 40.0408247,12.6950962 39.8912383,10.5347433 C39.7904965,8.68780945 38.3851986,6.94772302 36.0080981,5.6594485 C35.6183594,5.44778886 35.2011457,5.24834036 34.7595097,5.06313818 L36.6176371,3.78707479 Z M33.0506635,6.34266138 C33.4027511,6.49021257 33.7344869,6.64793971 34.0458708,6.81686038 C35.9029806,7.82326125 37.0019825,9.18174978 37.0803373,10.6196107 C37.1006892,12.3027118 35.7869748,13.9084758 33.4688948,15.0329176 L31.5446237,13.8148571 C33.202285,13.027239 34.1150672,11.8712518 34.0438356,10.6735432 C33.9929559,9.64373764 33.2114434,8.67498776 31.8824651,7.95453092 C31.6646999,7.83648997 31.4326883,7.72557218 31.1864305,7.62177755 L33.0506635,6.34266138 Z M15.7783213,4.17956095 L17.7799295,5.39151589 C14.8207649,6.7723915 13.1508925,8.8106331 13.275039,11.0269537 C13.3767985,12.8871163 14.7922723,14.6445018 17.1937951,15.9460051 C17.5774282,16.1535943 17.9865011,16.3510077 18.4199963,16.5341746 L16.6331006,17.7705519 C16.1008987,17.5436283 15.5971895,17.3014408 15.1240081,17.0439894 C12.2106353,15.4657005 10.4379858,13.3582625 10.3097689,11.0778334 C10.1652705,8.42191204 12.1658611,5.88810196 15.7783213,4.17956095 Z M19.7815377,6.56785503 L21.7770403,7.78184515 C20.119379,8.56946322 19.2065968,9.72545047 19.278846,10.9231591 C19.3470249,11.9824749 20.2007866,12.9644535 21.5348528,13.6879631 C21.7231078,13.7897225 21.9215387,13.8874116 22.129128,13.9789951 L20.2710006,15.2540409 C19.9168777,15.1075073 19.5820892,14.9487626 19.2696877,14.7788243 C17.4339474,13.783617 16.3247695,12.4200405 16.2413267,10.9770916 C16.1436377,9.28788488 17.4634576,7.69229685 19.7815377,6.56785503 Z" id="形状结合" stroke="#E19150" stroke-width="0.5" fill="#FFFFFF" transform="translate(26.591515, 10.893437) rotate(1.000000) translate(-26.591515, -10.893437) "></path>
    </g>
</svg>