<?xml version="1.0" encoding="UTF-8"?>
<svg width="51px" height="34px" viewBox="0 0 51 34" version="1.1" xmlns="http://www.w3.org/2000/svg" xmlns:xlink="http://www.w3.org/1999/xlink">
    <title>2-8AN-A</title>
    <defs>
        <linearGradient x1="1.05236033%" y1="47.24403%" x2="100%" y2="50%" id="linearGradient-1">
            <stop stop-color="#1975B5" offset="0%"></stop>
            <stop stop-color="#156DAB" offset="21.0085569%"></stop>
            <stop stop-color="#2885C8" offset="50.4462822%"></stop>
            <stop stop-color="#146CA9" offset="78.0396361%"></stop>
            <stop stop-color="#1A78B9" offset="100%"></stop>
        </linearGradient>
    </defs>
    <g id="2-8AN-A" stroke="none" stroke-width="1" fill="none" fill-rule="evenodd">
        <g id="编组-3" transform="translate(0.469674, 0.519119)">
            <path d="M24.9721869,0.480880737 C26.0267702,0.480880737 27.0661024,0.50830575 28.0863609,0.561550307 L28.9561081,0.613474209 L29.815978,0.677819746 C30.1008957,0.701313567 30.3840781,0.726840216 30.665436,0.754362247 L31.5039469,0.842877042 C31.6427568,0.858614717 31.7810882,0.874841876 31.9189301,0.891553839 L32.7400176,0.997605812 L33.5488208,1.1150684 L34.3448047,1.24371693 L35.1274345,1.38332673 L35.8961751,1.53367312 C37.4194107,1.84495273 38.8561019,2.21930389 40.1869914,2.64863843 L40.8435301,2.8678502 C40.951454,2.90513667 41.0586209,2.94279561 41.1650197,2.98082234 L41.794105,3.21335869 C46.5450536,5.02939966 49.6233947,7.60386933 49.9443738,10.4811708 L49.9443738,22.4815902 C49.6785939,24.8582912 47.5315585,27.0283226 44.1145636,28.7348932 L43.5645735,29.0004628 C42.4438426,29.5237493 41.1996765,29.9994703 39.8513294,30.4195391 L39.1685633,30.6248984 C39.0533517,30.6583395 38.9374389,30.6913848 38.820836,30.7240295 L38.1130274,30.9150546 C37.755072,31.0081266 37.3911066,31.0975097 37.0214321,31.1830776 L36.2745603,31.3490891 C36.1488427,31.3758974 36.0225131,31.4022724 35.8955825,31.4282094 L35.1268773,31.5785389 L34.344285,31.7181329 L33.5483405,31.8467667 C33.2808597,31.8877931 33.0112427,31.9269553 32.7395786,31.9642159 L31.9185341,32.0702556 C31.7806996,32.0869657 31.6423755,32.103191 31.5035731,32.1189268 L30.6651076,32.2074313 C30.3837652,32.2349502 30.1005985,32.2604739 29.8156967,32.2839649 L28.9558751,32.3483029 L28.0861778,32.4002207 C27.065978,32.453459 26.0267071,32.4808807 24.9721869,32.4808807 C23.9176667,32.4808807 22.8783958,32.453459 21.858196,32.4002207 L20.9884987,32.3483029 L20.1286771,32.2839649 C19.8437753,32.2604739 19.5606086,32.2349502 19.2792662,32.2074313 L18.4408007,32.1189268 C18.3019983,32.103191 18.1636742,32.0869657 18.0258396,32.0702556 L17.2047952,31.9642159 C17.0689631,31.9455856 16.9336428,31.9264799 16.7988455,31.9069034 L15.9964254,31.7838339 C15.8637643,31.7623933 15.7316484,31.7404914 15.6000888,31.7181329 L14.8174965,31.5785389 L14.0487913,31.4282094 C13.9218607,31.4022724 13.795531,31.3758974 13.6698134,31.3490891 L12.9229416,31.1830776 C12.5532672,31.0975097 12.1893018,31.0081266 11.8313464,30.9150546 L11.1235378,30.7240295 C11.0069349,30.6913848 10.8910221,30.6583395 10.7758105,30.6248984 L10.0930443,30.4195391 C8.74469726,29.9994703 7.50053119,29.5237493 6.37980027,29.0004628 L5.82981022,28.7348932 C2.41281528,27.0283226 0.265779899,24.8582912 0,22.4815902 L0,10.4811708 C0.320979104,7.60386933 3.39932022,5.02939966 8.15026881,3.21335869 L8.77935409,2.98082234 C8.88575283,2.94279561 8.99291974,2.90513667 9.10084367,2.8678502 L9.75738241,2.64863843 C11.0882718,2.21930389 12.5249631,1.84495273 14.0481987,1.53367312 L14.8169393,1.38332673 L15.599569,1.24371693 L16.395553,1.1150684 L17.2043562,0.997605812 L18.0254436,0.891553839 C18.1632855,0.874841876 18.301617,0.858614717 18.4404268,0.842877042 L19.2789378,0.754362247 C19.5602957,0.726840216 19.843478,0.701313567 20.1283957,0.677819746 L20.9882657,0.613474209 L21.8580128,0.561550307 C22.7325202,0.515912115 23.6210408,0.489243385 24.5211675,0.482555139 L24.9721869,0.480880737 Z" id="路径" stroke="#C1E1F7" fill="url(#linearGradient-1)"></path>
            <path d="M25,0.4 C31.8424187,0.4 38.038307,1.56069442 42.5227765,3.44417164 C44.7709463,4.38840294 46.5856584,5.51185081 47.8220028,6.76546664 C48.9566173,7.91593131 49.6,9.17314658 49.6,10.5 C49.6,11.8268534 48.9566173,13.0840687 47.8220028,14.2345334 C46.5856584,15.4881492 44.7709463,16.6115971 42.5227765,17.5558284 C38.038307,19.4393056 31.8424187,20.6 25,20.6 C18.1575813,20.6 11.961693,19.4393056 7.47722346,17.5558284 C5.22905369,16.6115971 3.41434163,15.4881492 2.17799716,14.2345334 C1.04338271,13.0840687 0.4,11.8268534 0.4,10.5 C0.4,9.17314658 1.04338271,7.91593131 2.17799716,6.76546664 C3.41434163,5.51185081 5.22905369,4.38840294 7.47722346,3.44417164 C11.961693,1.56069442 18.1575813,0.4 25,0.4 Z" id="椭圆形备份-2" stroke="#D5EEFF" stroke-width="0.8" fill="#90C1EA"></path>
        </g>
        <path d="M26.0566233,12.23438 L35.4041454,19.1461116 L17.9889472,19.5009204 L26.0566233,12.23438 Z M26.3128741,15.0700344 L23.216745,17.8127627 L29.8947533,17.6775974 L26.3128741,15.0700344 Z M15.6032804,4.39507678 L17.7349491,5.45950316 C16.7704887,6.03395549 15.9510494,6.67880639 15.5863848,7.39546384 C15.0766991,8.11634519 14.8457918,8.90762512 14.9161904,9.69749708 C14.9879969,10.4859611 15.3484376,11.2673852 16.0017363,11.967147 C16.4086401,12.5373754 17.1069939,13.051285 17.9292492,13.5060597 C18.1122855,13.6074337 18.3009536,13.7059917 18.4952537,13.8017337 L16.5663329,14.9520464 C16.3959683,14.8675681 16.2312357,14.7802738 16.0693189,14.6901637 C14.9288621,14.0579845 13.999601,13.3202075 13.2927993,12.5683508 C12.4860317,11.719344 12.0974316,10.7013807 12.0185852,9.76085579 C11.931291,8.81329104 12.1424867,7.86431831 12.7802978,6.89704196 C13.4195168,5.94102938 14.3656736,5.13566973 15.6032804,4.39507678 Z M35.043564,3.99957761 C35.2688394,4.11080735 35.487075,4.22485303 35.6982707,4.34171466 C36.7697369,4.93587859 37.6370473,5.59903312 38.3269533,6.37904928 C39.1238651,7.23227995 39.5110572,8.25024327 39.5899036,9.19076817 C39.6786058,10.1383329 39.4674101,11.0873057 38.8394549,12.0489501 C38.1903801,13.0105946 37.2442233,13.8159542 36.0066164,14.5565472 L33.8749477,13.4921208 C34.8394081,12.9176685 35.5138264,12.2770415 36.0235121,11.5561601 C36.5430535,10.8296469 36.764105,10.0439988 36.6922985,9.25412688 C36.6218999,8.4656629 36.2614592,7.68423877 35.6081605,6.98447698 C35.0393401,6.37060145 34.3564739,5.81726869 33.4793077,5.33151856 C33.3638541,5.26815984 33.2455845,5.2062091 33.1244989,5.14425836 L35.043564,3.99957761 Z M19.8763328,6.51942403 L21.9995537,7.57821852 C21.589834,7.90064397 21.1801143,8.14985491 21.0702926,8.54267893 C20.8154498,8.86651236 20.6859164,9.18612187 20.7309715,9.58035386 C20.7675787,9.97036194 20.9379433,10.2871555 21.1195716,10.6715317 C21.3772303,10.9263745 21.7306312,11.1784014 22.1023356,11.3839652 C22.1882219,11.4318363 22.2755161,11.4768913 22.3614024,11.5191305 L20.4240337,12.6624033 C20.3212518,12.6117163 20.2226938,12.5610293 20.1269517,12.5075264 C19.4989965,12.1597575 18.979455,11.7528537 18.5556556,11.2797753 C18.0755374,10.7391143 17.8770134,10.1857816 17.8249185,9.63948866 C17.7812714,9.0861559 17.8727895,8.53563908 18.2557577,7.97667443 C18.6485818,7.4120779 19.1850189,6.92773574 19.8763328,6.51942403 Z M31.1861447,6.28809433 C31.2875187,6.3387813 31.3874846,6.39087624 31.4832267,6.44437915 C32.1111819,6.79214809 32.6293154,7.19905182 33.0545228,7.67213022 C33.533233,8.21279123 33.7416128,8.76049211 33.7852599,9.3124169 C33.8387628,9.86011778 33.7373889,10.4162665 33.3544207,10.9752311 C32.9714525,11.5341958 32.4350153,12.0185379 31.7422934,12.4268496 L29.6106247,11.3722791 C30.0203444,11.0512616 30.4300641,10.8020506 30.6863149,10.3205244 C30.9411577,9.996691 31.0594273,9.68271338 31.024228,9.29411327 C30.9974765,8.97309579 30.8074004,8.58167974 30.5004626,8.27474198 C30.235764,8.02553104 29.8823632,7.77491213 29.5106587,7.5693483 C29.4233645,7.52147728 29.3360703,7.47501422 29.2487761,7.43277508 L31.1861447,6.28809433 Z M25.6940707,8.29431278 C26.3417375,8.28164104 26.9316775,8.41962223 27.349845,8.65193752 C27.7159176,8.8546854 27.9510488,9.12783185 27.9806162,9.43476962 C28.042567,10.0824365 27.1175298,10.6357692 25.9151222,10.6568888 C25.2716792,10.6681526 24.6789233,10.5287634 24.2579398,10.2950401 C23.8932752,10.0937002 23.658144,9.82196175 23.6299846,9.51643196 C23.5666259,8.87017308 24.4930711,8.31543235 25.6940707,8.29431278 Z" id="形状结合" stroke="#6B9BC3" stroke-width="0.5" fill="#FFFFFF" transform="translate(25.804519, 11.750249) rotate(1.000000) translate(-25.804519, -11.750249) "></path>
        <g id="编组-2" transform="translate(9.433500, 22.710000)" fill-rule="nonzero">
            <g id="IPRAN-A" transform="translate(0.000000, 1.000000)" fill="#403C3C" fill-opacity="0.8">
                <polygon id="路径" points="0 6.29 1.258 6.29 1.258 0 0 0"></polygon>
                <path d="M2.805,6.29 L4.063,6.29 L4.063,4.0545 L4.9045,4.0545 C6.256,4.0545 7.3355,3.4085 7.3355,1.972 C7.3355,0.4845 6.2645,0 4.8705,0 L2.805,0 L2.805,6.29 Z M4.063,3.06 L4.063,0.9945 L4.777,0.9945 C5.644,0.9945 6.103,1.241 6.103,1.972 C6.103,2.6945 5.6865,3.06 4.8195,3.06 L4.063,3.06 Z" id="形状"></path>
                <path d="M9.7325,0.9945 L10.5485,0.9945 C11.356,0.9945 11.798,1.224 11.798,1.904 C11.798,2.5755 11.356,2.9155 10.5485,2.9155 L9.7325,2.9155 L9.7325,0.9945 Z M13.3025,6.29 L11.832,3.7145 C12.5545,3.434 13.0305,2.8475 13.0305,1.904 C13.0305,0.459 11.985,0 10.6675,0 L8.4745,0 L8.4745,6.29 L9.7325,6.29 L9.7325,3.91 L10.608,3.91 L11.9,6.29 L13.3025,6.29 Z" id="形状"></path>
                <path d="M15.453,3.6975 L15.64,3.009 C15.827,2.3545 16.014,1.6405 16.1755,0.952 L16.2095,0.952 C16.3965,1.632 16.5665,2.3545 16.762,3.009 L16.949,3.6975 L15.453,3.6975 Z M17.663,6.29 L18.9805,6.29 L16.9575,0 L15.4785,0 L13.464,6.29 L14.739,6.29 L15.181,4.675 L17.221,4.675 L17.663,6.29 Z" id="形状"></path>
                <path d="M19.72,6.29 L20.91,6.29 L20.91,3.7655 C20.91,3.043 20.8165,2.2525 20.757,1.5725 L20.7995,1.5725 L21.437,2.924 L23.256,6.29 L24.531,6.29 L24.531,0 L23.341,0 L23.341,2.5075 C23.341,3.2215 23.4345,4.0545 23.5025,4.709 L23.46,4.709 L22.831,3.349 L21.0035,0 L19.72,0 L19.72,6.29 Z" id="路径"></path>
                <polygon id="路径" points="25.7295 4.301 28.05 4.301 28.05 3.4085 25.7295 3.4085"></polygon>
                <path d="M30.413,3.6975 L30.6,3.009 C30.787,2.3545 30.974,1.6405 31.1355,0.952 L31.1695,0.952 C31.3565,1.632 31.5265,2.3545 31.722,3.009 L31.909,3.6975 L30.413,3.6975 Z M32.623,6.29 L33.9405,6.29 L31.9175,0 L30.4385,0 L28.424,6.29 L29.699,6.29 L30.141,4.675 L32.181,4.675 L32.623,6.29 Z" id="形状"></path>
            </g>
            <g id="IPRAN-A备份" fill="#FFFFFF">
                <polygon id="路径" points="0 6.29 1.258 6.29 1.258 0 0 0"></polygon>
                <path d="M2.805,6.29 L4.063,6.29 L4.063,4.0545 L4.9045,4.0545 C6.256,4.0545 7.3355,3.4085 7.3355,1.972 C7.3355,0.4845 6.2645,0 4.8705,0 L2.805,0 L2.805,6.29 Z M4.063,3.06 L4.063,0.9945 L4.777,0.9945 C5.644,0.9945 6.103,1.241 6.103,1.972 C6.103,2.6945 5.6865,3.06 4.8195,3.06 L4.063,3.06 Z" id="形状"></path>
                <path d="M9.7325,0.9945 L10.5485,0.9945 C11.356,0.9945 11.798,1.224 11.798,1.904 C11.798,2.5755 11.356,2.9155 10.5485,2.9155 L9.7325,2.9155 L9.7325,0.9945 Z M13.3025,6.29 L11.832,3.7145 C12.5545,3.434 13.0305,2.8475 13.0305,1.904 C13.0305,0.459 11.985,0 10.6675,0 L8.4745,0 L8.4745,6.29 L9.7325,6.29 L9.7325,3.91 L10.608,3.91 L11.9,6.29 L13.3025,6.29 Z" id="形状"></path>
                <path d="M15.453,3.6975 L15.64,3.009 C15.827,2.3545 16.014,1.6405 16.1755,0.952 L16.2095,0.952 C16.3965,1.632 16.5665,2.3545 16.762,3.009 L16.949,3.6975 L15.453,3.6975 Z M17.663,6.29 L18.9805,6.29 L16.9575,0 L15.4785,0 L13.464,6.29 L14.739,6.29 L15.181,4.675 L17.221,4.675 L17.663,6.29 Z" id="形状"></path>
                <path d="M19.72,6.29 L20.91,6.29 L20.91,3.7655 C20.91,3.043 20.8165,2.2525 20.757,1.5725 L20.7995,1.5725 L21.437,2.924 L23.256,6.29 L24.531,6.29 L24.531,0 L23.341,0 L23.341,2.5075 C23.341,3.2215 23.4345,4.0545 23.5025,4.709 L23.46,4.709 L22.831,3.349 L21.0035,0 L19.72,0 L19.72,6.29 Z" id="路径"></path>
                <polygon id="路径" points="25.7295 4.301 28.05 4.301 28.05 3.4085 25.7295 3.4085"></polygon>
                <path d="M30.413,3.6975 L30.6,3.009 C30.787,2.3545 30.974,1.6405 31.1355,0.952 L31.1695,0.952 C31.3565,1.632 31.5265,2.3545 31.722,3.009 L31.909,3.6975 L30.413,3.6975 Z M32.623,6.29 L33.9405,6.29 L31.9175,0 L30.4385,0 L28.424,6.29 L29.699,6.29 L30.141,4.675 L32.181,4.675 L32.623,6.29 Z" id="形状"></path>
            </g>
        </g>
    </g>
</svg>