<?xml version="1.0" encoding="UTF-8"?>
<svg width="51px" height="34px" viewBox="0 0 51 34" version="1.1" xmlns="http://www.w3.org/2000/svg" xmlns:xlink="http://www.w3.org/1999/xlink">
    <title>3-5AN-U</title>
    <defs>
        <linearGradient x1="1.05236033%" y1="47.24403%" x2="100%" y2="50%" id="linearGradient-1">
            <stop stop-color="#00DDD5" offset="0%"></stop>
            <stop stop-color="#00CFC5" offset="22.038984%"></stop>
            <stop stop-color="#00DCD3" offset="51.4904529%"></stop>
            <stop stop-color="#00CEC4" offset="80.531151%"></stop>
            <stop stop-color="#00DBD3" offset="100%"></stop>
        </linearGradient>
    </defs>
    <g id="3-5AN-U" stroke="none" stroke-width="1" fill="none" fill-rule="evenodd">
        <g id="编组-3" transform="translate(0.469674, 0.519119)">
            <path d="M24.9721869,0.480880737 C26.0267702,0.480880737 27.0661024,0.50830575 28.0863609,0.561550307 L28.9561081,0.613474209 L29.815978,0.677819746 C30.1008957,0.701313567 30.3840781,0.726840216 30.665436,0.754362247 L31.5039469,0.842877042 C31.6427568,0.858614717 31.7810882,0.874841876 31.9189301,0.891553839 L32.7400176,0.997605812 L33.5488208,1.1150684 L34.3448047,1.24371693 L35.1274345,1.38332673 L35.8961751,1.53367312 C37.4194107,1.84495273 38.8561019,2.21930389 40.1869914,2.64863843 L40.8435301,2.8678502 C40.951454,2.90513667 41.0586209,2.94279561 41.1650197,2.98082234 L41.794105,3.21335869 C46.5450536,5.02939966 49.6233947,7.60386933 49.9443738,10.4811708 L49.9443738,22.4815902 C49.6785939,24.8582912 47.5315585,27.0283226 44.1145636,28.7348932 L43.5645735,29.0004628 C42.4438426,29.5237493 41.1996765,29.9994703 39.8513294,30.4195391 L39.1685633,30.6248984 C39.0533517,30.6583395 38.9374389,30.6913848 38.820836,30.7240295 L38.1130274,30.9150546 C37.755072,31.0081266 37.3911066,31.0975097 37.0214321,31.1830776 L36.2745603,31.3490891 C36.1488427,31.3758974 36.0225131,31.4022724 35.8955825,31.4282094 L35.1268773,31.5785389 L34.344285,31.7181329 L33.5483405,31.8467667 C33.2808597,31.8877931 33.0112427,31.9269553 32.7395786,31.9642159 L31.9185341,32.0702556 C31.7806996,32.0869657 31.6423755,32.103191 31.5035731,32.1189268 L30.6651076,32.2074313 C30.3837652,32.2349502 30.1005985,32.2604739 29.8156967,32.2839649 L28.9558751,32.3483029 L28.0861778,32.4002207 C27.065978,32.453459 26.0267071,32.4808807 24.9721869,32.4808807 C23.9176667,32.4808807 22.8783958,32.453459 21.858196,32.4002207 L20.9884987,32.3483029 L20.1286771,32.2839649 C19.8437753,32.2604739 19.5606086,32.2349502 19.2792662,32.2074313 L18.4408007,32.1189268 C18.3019983,32.103191 18.1636742,32.0869657 18.0258396,32.0702556 L17.2047952,31.9642159 C17.0689631,31.9455856 16.9336428,31.9264799 16.7988455,31.9069034 L15.9964254,31.7838339 C15.8637643,31.7623933 15.7316484,31.7404914 15.6000888,31.7181329 L14.8174965,31.5785389 L14.0487913,31.4282094 C13.9218607,31.4022724 13.795531,31.3758974 13.6698134,31.3490891 L12.9229416,31.1830776 C12.5532672,31.0975097 12.1893018,31.0081266 11.8313464,30.9150546 L11.1235378,30.7240295 C11.0069349,30.6913848 10.8910221,30.6583395 10.7758105,30.6248984 L10.0930443,30.4195391 C8.74469726,29.9994703 7.50053119,29.5237493 6.37980027,29.0004628 L5.82981022,28.7348932 C2.41281528,27.0283226 0.265779899,24.8582912 0,22.4815902 L0,10.4811708 C0.320979104,7.60386933 3.39932022,5.02939966 8.15026881,3.21335869 L8.77935409,2.98082234 C8.88575283,2.94279561 8.99291974,2.90513667 9.10084367,2.8678502 L9.75738241,2.64863843 C11.0882718,2.21930389 12.5249631,1.84495273 14.0481987,1.53367312 L14.8169393,1.38332673 L15.599569,1.24371693 L16.395553,1.1150684 L17.2043562,0.997605812 L18.0254436,0.891553839 C18.1632855,0.874841876 18.301617,0.858614717 18.4404268,0.842877042 L19.2789378,0.754362247 C19.5602957,0.726840216 19.843478,0.701313567 20.1283957,0.677819746 L20.9882657,0.613474209 L21.8580128,0.561550307 C22.7325202,0.515912115 23.6210408,0.489243385 24.5211675,0.482555139 L24.9721869,0.480880737 Z" id="路径" stroke="#C7FEFB" fill="url(#linearGradient-1)"></path>
            <path d="M25,0.4 C31.8424187,0.4 38.038307,1.56069442 42.5227765,3.44417164 C44.7709463,4.38840294 46.5856584,5.51185081 47.8220028,6.76546664 C48.9566173,7.91593131 49.6,9.17314658 49.6,10.5 C49.6,11.8268534 48.9566173,13.0840687 47.8220028,14.2345334 C46.5856584,15.4881492 44.7709463,16.6115971 42.5227765,17.5558284 C38.038307,19.4393056 31.8424187,20.6 25,20.6 C18.1575813,20.6 11.961693,19.4393056 7.47722346,17.5558284 C5.22905369,16.6115971 3.41434163,15.4881492 2.17799716,14.2345334 C1.04338271,13.0840687 0.4,11.8268534 0.4,10.5 C0.4,9.17314658 1.04338271,7.91593131 2.17799716,6.76546664 C3.41434163,5.51185081 5.22905369,4.38840294 7.47722346,3.44417164 C11.961693,1.56069442 18.1575813,0.4 25,0.4 Z" id="椭圆形备份-2" stroke="#B8FEF9" stroke-width="0.8" fill="#88EEE9"></path>
        </g>
        <path d="M25.97574,7.82011346 C27.5573045,7.81729928 29.0403731,8.16907076 30.1322717,8.76004684 C30.5712825,8.99925144 30.9483815,9.27504027 31.2410554,9.58459917 C31.5984552,9.91667144 31.2241704,10.3134697 30.579725,10.4316649 C30.2054402,10.4935767 29.7636152,10.4316649 29.482198,10.2796996 C29.4146579,10.2403012 29.3527461,10.1980886 29.3077194,10.1502477 C29.105099,9.94762733 28.8546377,9.76470617 28.5675922,9.60711255 C27.8950051,9.24408438 27.0057269,9.02457898 25.97574,9.02457898 C24.4898573,9.0330215 23.3247901,9.4720323 22.6465747,10.1530619 C22.3932993,10.4035232 21.8754917,10.5104617 21.3745691,10.4344791 C21.2057188,10.4063373 21.0593819,10.3556822 20.9383725,10.2909563 C20.8398765,10.237487 20.7582655,10.1727611 20.6935395,10.1024068 C20.5669018,9.93918482 20.586601,9.75344948 20.7104245,9.59022752 C21.7122697,8.52084223 23.7356592,7.82855597 25.97574,7.82011346 Z M25.9734886,5.40977531 C28.8411297,5.40977531 31.4217252,6.03170728 33.2987778,7.0476233 C34.283738,7.58231594 35.0745202,8.22394711 35.6120271,8.94437509 C35.8259041,9.27363319 35.4516193,9.67324558 34.8606432,9.74078571 C34.4751016,9.80551166 34.0529759,9.73234319 33.7715587,9.57756374 C33.6702485,9.52409448 33.5886375,9.4621827 33.5351683,9.3918284 C33.1017858,8.8233657 32.4798538,8.31962895 31.7059566,7.90031735 C30.2285164,7.09827839 28.2107552,6.61424084 25.9763028,6.61424084 C22.6612084,6.62549753 19.672558,7.72302453 18.4174374,9.39464258 C18.2035603,9.66761724 17.6294693,9.82239669 17.0919625,9.74641405 C16.8977846,9.71545816 16.7233059,9.6619889 16.5854115,9.58882043 C16.5094289,9.54660785 16.4447029,9.49876693 16.3940478,9.44529767 C16.2505251,9.28770405 16.2336401,9.10478288 16.3405786,8.95000343 C17.8968156,6.85907379 21.605894,5.41258948 25.9734886,5.40977531 Z M25.972363,2.99915575 C30.0472837,2.99915575 33.753548,3.9025049 36.4185687,5.34617503 C37.9269648,6.16509902 39.1004744,7.15287332 39.8180882,8.25321449 C40.0347794,8.621871 39.6576804,8.97927082 39.0864036,9.05806763 C38.700862,9.12279358 38.2787362,9.04962511 37.9888766,8.89484566 C37.8875664,8.83856223 37.8031412,8.77383628 37.7412294,8.70066781 C37.1221116,7.74947774 36.1146381,6.89678369 34.8201191,6.19324074 C32.5547108,4.96626184 29.4169093,4.20362128 25.9751771,4.20643545 C20.566339,4.20643545 15.9088846,6.09193055 14.1387706,8.70629615 C13.9755486,8.98771333 13.3845725,9.15374947 12.7935964,9.06651014 C12.6247461,9.03555425 12.4727809,8.98208499 12.3461431,8.91454487 C12.1604078,8.81323468 12.0365842,8.68096861 12,8.53744585 L12,8.37140971 C12.0084425,8.33763965 12.0225134,8.30386959 12.0422126,8.27009953 C14.1190714,5.2195373 19.5982639,3.00196992 25.972363,2.99915575 Z M27.0887449,15.0466252 L28.9320275,15.0550677 L27.0887449,13.2793253 L27.0887449,15.0466252 L27.0887449,15.0466252 Z M23.0222667,15.0578819 L24.8683634,15.0466252 L24.8683634,13.2793253 L23.0222667,15.0578819 L23.0222667,15.0578819 Z M39.3219497,17.5793798 C39.8200581,17.8467262 39.4457733,18.2575952 38.7844429,18.2575952 L13.1023111,18.2660378 C12.9081332,18.2716661 12.7252121,18.2294535 12.592946,18.1590992 C12.5197775,18.1197008 12.4606799,18.0690457 12.4212815,18.0127623 C12.314343,17.8579828 12.4212815,17.6835042 12.6379727,17.5878223 L15.4662154,15.6629288 C15.984023,15.2633164 16.8620446,15.0606961 17.7569512,15.0578819 L20.4276003,15.0494394 L24.7220264,10.7521991 L24.7951949,10.7156148 L24.8655492,10.6762164 L24.9387177,10.636818 L25.0822404,10.5580212 L25.1694798,10.5101803 L25.2426482,10.4707819 L26.4246004,10.4707819 L26.4949547,10.5101803 L26.5681231,10.5495787 L26.7116459,10.6255613 L26.8016994,10.6762164 L26.8720537,10.7128006 L26.942408,10.7521991 L31.529508,15.0466252 L34.1973429,15.0550677 C35.0190811,15.0550677 35.7676508,15.2576881 36.3417418,15.5700612 C36.3923969,15.5982029 36.443052,15.6263446 36.4908929,15.6544863 L39.3219497,17.5793798 Z" id="形状结合" stroke="#49DDD5" stroke-width="0.5" fill="#FFFFFF"></path>
        <g id="编组-2" transform="translate(8.478750, 22.710000)" fill-rule="nonzero">
            <g id="IPRAN-U备份" transform="translate(0.000000, 1.000000)" fill="#403C3C" fill-opacity="0.8">
                <polygon id="路径" points="0 6.29 1.258 6.29 1.258 0 0 0"></polygon>
                <path d="M2.805,6.29 L4.063,6.29 L4.063,4.0545 L4.9045,4.0545 C6.256,4.0545 7.3355,3.4085 7.3355,1.972 C7.3355,0.4845 6.2645,0 4.8705,0 L2.805,0 L2.805,6.29 Z M4.063,3.06 L4.063,0.9945 L4.777,0.9945 C5.644,0.9945 6.103,1.241 6.103,1.972 C6.103,2.6945 5.6865,3.06 4.8195,3.06 L4.063,3.06 Z" id="形状"></path>
                <path d="M9.7325,0.9945 L10.5485,0.9945 C11.356,0.9945 11.798,1.224 11.798,1.904 C11.798,2.5755 11.356,2.9155 10.5485,2.9155 L9.7325,2.9155 L9.7325,0.9945 Z M13.3025,6.29 L11.832,3.7145 C12.5545,3.434 13.0305,2.8475 13.0305,1.904 C13.0305,0.459 11.985,0 10.6675,0 L8.4745,0 L8.4745,6.29 L9.7325,6.29 L9.7325,3.91 L10.608,3.91 L11.9,6.29 L13.3025,6.29 Z" id="形状"></path>
                <path d="M15.453,3.6975 L15.64,3.009 C15.827,2.3545 16.014,1.6405 16.1755,0.952 L16.2095,0.952 C16.3965,1.632 16.5665,2.3545 16.762,3.009 L16.949,3.6975 L15.453,3.6975 Z M17.663,6.29 L18.9805,6.29 L16.9575,0 L15.4785,0 L13.464,6.29 L14.739,6.29 L15.181,4.675 L17.221,4.675 L17.663,6.29 Z" id="形状"></path>
                <path d="M19.72,6.29 L20.91,6.29 L20.91,3.7655 C20.91,3.043 20.8165,2.2525 20.757,1.5725 L20.7995,1.5725 L21.437,2.924 L23.256,6.29 L24.531,6.29 L24.531,0 L23.341,0 L23.341,2.5075 C23.341,3.2215 23.4345,4.0545 23.5025,4.709 L23.46,4.709 L22.831,3.349 L21.0035,0 L19.72,0 L19.72,6.29 Z" id="路径"></path>
                <polygon id="路径" points="25.7295 4.301 28.05 4.301 28.05 3.4085 25.7295 3.4085"></polygon>
                <path d="M31.6455,6.409 C33.184,6.409 34.0765,5.5505 34.0765,3.4595 L34.0765,0 L32.8695,0 L32.8695,3.57 C32.8695,4.879 32.3935,5.321 31.6455,5.321 C30.906,5.321 30.4555,4.879 30.4555,3.57 L30.4555,0 L29.1975,0 L29.1975,3.4595 C29.1975,5.5505 30.1155,6.409 31.6455,6.409 Z" id="路径"></path>
            </g>
            <g id="IPRAN-U备份-2" fill="#FFFFFF">
                <polygon id="路径" points="0 6.29 1.258 6.29 1.258 0 0 0"></polygon>
                <path d="M2.805,6.29 L4.063,6.29 L4.063,4.0545 L4.9045,4.0545 C6.256,4.0545 7.3355,3.4085 7.3355,1.972 C7.3355,0.4845 6.2645,0 4.8705,0 L2.805,0 L2.805,6.29 Z M4.063,3.06 L4.063,0.9945 L4.777,0.9945 C5.644,0.9945 6.103,1.241 6.103,1.972 C6.103,2.6945 5.6865,3.06 4.8195,3.06 L4.063,3.06 Z" id="形状"></path>
                <path d="M9.7325,0.9945 L10.5485,0.9945 C11.356,0.9945 11.798,1.224 11.798,1.904 C11.798,2.5755 11.356,2.9155 10.5485,2.9155 L9.7325,2.9155 L9.7325,0.9945 Z M13.3025,6.29 L11.832,3.7145 C12.5545,3.434 13.0305,2.8475 13.0305,1.904 C13.0305,0.459 11.985,0 10.6675,0 L8.4745,0 L8.4745,6.29 L9.7325,6.29 L9.7325,3.91 L10.608,3.91 L11.9,6.29 L13.3025,6.29 Z" id="形状"></path>
                <path d="M15.453,3.6975 L15.64,3.009 C15.827,2.3545 16.014,1.6405 16.1755,0.952 L16.2095,0.952 C16.3965,1.632 16.5665,2.3545 16.762,3.009 L16.949,3.6975 L15.453,3.6975 Z M17.663,6.29 L18.9805,6.29 L16.9575,0 L15.4785,0 L13.464,6.29 L14.739,6.29 L15.181,4.675 L17.221,4.675 L17.663,6.29 Z" id="形状"></path>
                <path d="M19.72,6.29 L20.91,6.29 L20.91,3.7655 C20.91,3.043 20.8165,2.2525 20.757,1.5725 L20.7995,1.5725 L21.437,2.924 L23.256,6.29 L24.531,6.29 L24.531,0 L23.341,0 L23.341,2.5075 C23.341,3.2215 23.4345,4.0545 23.5025,4.709 L23.46,4.709 L22.831,3.349 L21.0035,0 L19.72,0 L19.72,6.29 Z" id="路径"></path>
                <polygon id="路径" points="25.7295 4.301 28.05 4.301 28.05 3.4085 25.7295 3.4085"></polygon>
                <path d="M31.6455,6.409 C33.184,6.409 34.0765,5.5505 34.0765,3.4595 L34.0765,0 L32.8695,0 L32.8695,3.57 C32.8695,4.879 32.3935,5.321 31.6455,5.321 C30.906,5.321 30.4555,4.879 30.4555,3.57 L30.4555,0 L29.1975,0 L29.1975,3.4595 C29.1975,5.5505 30.1155,6.409 31.6455,6.409 Z" id="路径"></path>
            </g>
        </g>
    </g>
</svg>