<?xml version="1.0" encoding="UTF-8"?>
<svg width="51px" height="34px" viewBox="0 0 51 34" version="1.1" xmlns="http://www.w3.org/2000/svg" xmlns:xlink="http://www.w3.org/1999/xlink">
    <title>9-9MSE</title>
    <defs>
        <linearGradient x1="1.05236033%" y1="47.24403%" x2="100%" y2="50%" id="linearGradient-1">
            <stop stop-color="#C3AD46" offset="0%"></stop>
            <stop stop-color="#BCA742" offset="21.0085569%"></stop>
            <stop stop-color="#CEB743" offset="49.5644736%"></stop>
            <stop stop-color="#BCA741" offset="78.0396361%"></stop>
            <stop stop-color="#C3AE47" offset="100%"></stop>
        </linearGradient>
    </defs>
    <g id="9-9MSE" stroke="none" stroke-width="1" fill="none" fill-rule="evenodd">
        <g id="编组-3" transform="translate(0.469674, 0.519119)">
            <path d="M24.9721869,0.480880737 C26.0267702,0.480880737 27.0661024,0.50830575 28.0863609,0.561550307 L28.9561081,0.613474209 L29.815978,0.677819746 C30.1008957,0.701313567 30.3840781,0.726840216 30.665436,0.754362247 L31.5039469,0.842877042 C31.6427568,0.858614717 31.7810882,0.874841876 31.9189301,0.891553839 L32.7400176,0.997605812 L33.5488208,1.1150684 L34.3448047,1.24371693 L35.1274345,1.38332673 L35.8961751,1.53367312 C37.4194107,1.84495273 38.8561019,2.21930389 40.1869914,2.64863843 L40.8435301,2.8678502 C40.951454,2.90513667 41.0586209,2.94279561 41.1650197,2.98082234 L41.794105,3.21335869 C46.5450536,5.02939966 49.6233947,7.60386933 49.9443738,10.4811708 L49.9443738,22.4815902 C49.6785939,24.8582912 47.5315585,27.0283226 44.1145636,28.7348932 L43.5645735,29.0004628 C42.4438426,29.5237493 41.1996765,29.9994703 39.8513294,30.4195391 L39.1685633,30.6248984 C39.0533517,30.6583395 38.9374389,30.6913848 38.820836,30.7240295 L38.1130274,30.9150546 C37.755072,31.0081266 37.3911066,31.0975097 37.0214321,31.1830776 L36.2745603,31.3490891 C36.1488427,31.3758974 36.0225131,31.4022724 35.8955825,31.4282094 L35.1268773,31.5785389 L34.344285,31.7181329 L33.5483405,31.8467667 C33.2808597,31.8877931 33.0112427,31.9269553 32.7395786,31.9642159 L31.9185341,32.0702556 C31.7806996,32.0869657 31.6423755,32.103191 31.5035731,32.1189268 L30.6651076,32.2074313 C30.3837652,32.2349502 30.1005985,32.2604739 29.8156967,32.2839649 L28.9558751,32.3483029 L28.0861778,32.4002207 C27.065978,32.453459 26.0267071,32.4808807 24.9721869,32.4808807 C23.9176667,32.4808807 22.8783958,32.453459 21.858196,32.4002207 L20.9884987,32.3483029 L20.1286771,32.2839649 C19.8437753,32.2604739 19.5606086,32.2349502 19.2792662,32.2074313 L18.4408007,32.1189268 C18.3019983,32.103191 18.1636742,32.0869657 18.0258396,32.0702556 L17.2047952,31.9642159 C17.0689631,31.9455856 16.9336428,31.9264799 16.7988455,31.9069034 L15.9964254,31.7838339 C15.8637643,31.7623933 15.7316484,31.7404914 15.6000888,31.7181329 L14.8174965,31.5785389 L14.0487913,31.4282094 C13.9218607,31.4022724 13.795531,31.3758974 13.6698134,31.3490891 L12.9229416,31.1830776 C12.5532672,31.0975097 12.1893018,31.0081266 11.8313464,30.9150546 L11.1235378,30.7240295 C11.0069349,30.6913848 10.8910221,30.6583395 10.7758105,30.6248984 L10.0930443,30.4195391 C8.74469726,29.9994703 7.50053119,29.5237493 6.37980027,29.0004628 L5.82981022,28.7348932 C2.41281528,27.0283226 0.265779899,24.8582912 0,22.4815902 L0,10.4811708 C0.320979104,7.60386933 3.39932022,5.02939966 8.15026881,3.21335869 L8.77935409,2.98082234 C8.88575283,2.94279561 8.99291974,2.90513667 9.10084367,2.8678502 L9.75738241,2.64863843 C11.0882718,2.21930389 12.5249631,1.84495273 14.0481987,1.53367312 L14.8169393,1.38332673 L15.599569,1.24371693 L16.395553,1.1150684 L17.2043562,0.997605812 L18.0254436,0.891553839 C18.1632855,0.874841876 18.301617,0.858614717 18.4404268,0.842877042 L19.2789378,0.754362247 C19.5602957,0.726840216 19.843478,0.701313567 20.1283957,0.677819746 L20.9882657,0.613474209 L21.8580128,0.561550307 C22.7325202,0.515912115 23.6210408,0.489243385 24.5211675,0.482555139 L24.9721869,0.480880737 Z" id="路径" stroke="#FEEA91" fill="url(#linearGradient-1)"></path>
            <path d="M25,0.4 C31.8424187,0.4 38.038307,1.56069442 42.5227765,3.44417164 C44.7709463,4.38840294 46.5856584,5.51185081 47.8220028,6.76546664 C48.9566173,7.91593131 49.6,9.17314658 49.6,10.5 C49.6,11.8268534 48.9566173,13.0840687 47.8220028,14.2345334 C46.5856584,15.4881492 44.7709463,16.6115971 42.5227765,17.5558284 C38.038307,19.4393056 31.8424187,20.6 25,20.6 C18.1575813,20.6 11.961693,19.4393056 7.47722346,17.5558284 C5.22905369,16.6115971 3.41434163,15.4881492 2.17799716,14.2345334 C1.04338271,13.0840687 0.4,11.8268534 0.4,10.5 C0.4,9.17314658 1.04338271,7.91593131 2.17799716,6.76546664 C3.41434163,5.51185081 5.22905369,4.38840294 7.47722346,3.44417164 C11.961693,1.56069442 18.1575813,0.4 25,0.4 Z" id="椭圆形备份-2" stroke="#FFEB93" stroke-width="0.8" fill="#E6DBAA"></path>
        </g>
        <g id="编组" transform="translate(11.000000, 1.999868)">
            <path d="M28.6360992,11.6554312 C28.8588255,11.721739 29.0564738,11.8033486 29.227769,11.8960096 C30.0404648,12.3363615 30.2525648,13.0325936 29.6676958,13.605136 C28.9616876,14.2992429 27.3549982,14.5491723 26.0755973,14.1666272 C26.0292669,14.1538757 25.9901623,14.1364487 25.954033,14.1164713 C25.9391563,14.1088204 25.9247046,14.1003194 25.9106779,14.0918184 L25.8294933,14.0535639 L15.6627197,17.3770307 C15.4055644,17.4607656 15.0918774,17.4786177 14.807944,17.4271866 L14.6481251,17.387657 L6.63508043,14.9895243 C6.54411971,14.9635962 6.46336019,14.9308673 6.39365197,14.8930379 C6.10334274,14.7357693 6.00813152,14.4913655 6.18027681,14.2796906 C6.39662732,14.0153094 6.94834236,13.8860942 7.4516017,13.9830056 L7.61907144,14.0238104 L15.1131299,16.2697752 L24.7796196,13.1091026 C24.7009853,12.8111424 24.7519913,12.501706 25.0440007,12.2169224 C25.750009,11.5223905 27.361799,11.2699107 28.6360992,11.6554312 Z M14.8914663,9.80629319 L23.2751547,12.3200395 L16.0752309,14.6726919 C15.5209655,14.8533382 14.8502364,14.8801164 14.2577166,14.749626 L14.0413661,14.6939444 L6.68544887,12.4879343 L14.8914663,9.80629319 Z M10.9411781,2.47464634 C10.99941,2.50610005 11.0516911,2.54222931 11.0958963,2.58218402 C11.3530517,2.81256118 11.2637911,3.11052131 10.8850715,3.28649205 L10.7499055,3.33962331 L3.41481579,5.73945624 L3.62564064,11.8593277 C3.97333163,11.9345616 4.29977012,12.0416742 4.56967694,12.1878915 C4.69846712,12.2575997 4.8145058,12.336659 4.91354248,12.4254945 C5.46568257,12.9240783 5.4117012,13.5523023 4.77922664,14.0190073 C4.14080137,14.4857124 3.05352319,14.7003627 2.00917507,14.5596711 C1.5318438,14.4950635 1.10934399,14.3624478 0.776104699,14.1818015 C0.384633547,13.9692765 0.116426927,13.6912937 0.0288666047,13.3805821 C-0.128401936,12.8054893 0.366356392,12.2376223 1.28318948,11.9392372 C1.34567185,11.9171345 1.41325481,11.9069333 1.48338808,11.8980073 L1.58072456,11.8776049 L1.3698997,5.43767066 C1.36437405,5.27615162 1.48891373,5.12058328 1.71589049,5.01517085 L1.85913238,4.95481373 L9.70003177,2.39218662 C10.1055296,2.25872088 10.61814,2.29952569 10.9411781,2.47464634 Z M13.6633265,3.66589178 L13.8414225,8.86170433 L5.63285478,11.5446206 L5.47941169,6.98425799 C5.46836038,6.6382672 5.76036981,6.30630307 6.26617944,6.09377801 L6.46340269,6.01854414 L13.6633265,3.66589178 Z M15.6999966,3.64604194 L23.0588892,5.85077686 C23.2250838,5.90093278 23.3759766,5.96299009 23.5077421,6.03439851 C23.8193038,6.2031434 24.0250281,6.42459451 24.0841101,6.66474782 L24.1057876,6.79396306 L24.2622061,11.3526255 L15.8755423,8.84057934 L15.6999966,3.64604194 Z M14.5546141,0.00025962622 C15.3031273,-0.00739127577 15.9849077,0.154552816 16.4754155,0.420209135 C16.9421206,0.673113951 17.2358302,1.02037989 17.2490067,1.40505024 C17.2545324,1.4462801 17.2303045,1.48283441 17.2141526,1.52108892 L17.1899248,1.58144604 L27.5836751,4.6915377 C27.6657098,4.7170407 27.7400936,4.74764431 27.8051262,4.78292347 C27.947518,4.86028259 28.0461297,4.95931927 28.0869345,5.07025734 L28.1060617,5.16546857 L28.2786321,10.1262284 C28.2837327,10.2703204 28.1812956,10.4139873 27.9946986,10.5181246 C27.8081016,10.6226869 27.548396,10.6843192 27.2806144,10.6855944 C26.9958308,10.6902699 26.7310246,10.6286376 26.5406022,10.5257755 C26.403736,10.4518168 26.3055494,10.3557555 26.2660198,10.2473677 L26.2468925,10.1462058 L26.0853735,5.50508361 L16.2110344,2.54418454 C15.7728077,2.72908134 15.2508462,2.85999677 14.6532257,2.86722262 C13.9055626,2.87529857 13.2259074,2.71420458 12.7362497,2.44897331 C12.2691196,2.19564345 11.9758351,1.84710236 11.9635086,1.45945666 C11.9363054,0.66716325 13.0962672,0.0138612298 14.5546141,0.00025962622 Z" id="形状结合" stroke="#D8BE3C" stroke-width="0.5" fill="#FFFFFF"></path>
            <g transform="translate(6.094563, 11.474895)"></g>
        </g>
        <g id="编组-2" transform="translate(17.878250, 23.591000)" fill-rule="nonzero">
            <g id="MSE" transform="translate(0.000000, 1.000000)" fill="#403C3C" fill-opacity="0.8">
                <path d="M0,6.409 L1.1305,6.409 L1.1305,3.7825 C1.1305,3.1875 1.0285,2.312 0.969,1.717 L1.003,1.717 L1.5045,3.196 L2.482,5.8395 L3.2045,5.8395 L4.1735,3.196 L4.6835,1.717 L4.7175,1.717 C4.658,2.312 4.5645,3.1875 4.5645,3.7825 L4.5645,6.409 L5.712,6.409 L5.712,0.119 L4.318,0.119 L3.2725,3.06 C3.1365,3.451 3.026,3.8675 2.89,4.2755 L2.8475,4.2755 C2.72,3.8675 2.601,3.451 2.465,3.06 L1.394,0.119 L0,0.119 L0,6.409 Z" id="路径"></path>
                <path d="M9.1375,6.528 C10.591,6.528 11.4495,5.6525 11.4495,4.624 C11.4495,3.7145 10.948,3.23 10.183,2.9155 L9.3585,2.567 C8.823,2.3545 8.3725,2.193 8.3725,1.7425 C8.3725,1.326 8.7295,1.0795 9.282,1.0795 C9.8005,1.0795 10.217,1.2665 10.6165,1.598 L11.254,0.8075 C10.744,0.289 10.013,0 9.282,0 C8.007,0 7.106,0.7905 7.106,1.819 C7.106,2.737 7.7435,3.247 8.381,3.5105 L9.2225,3.8675 C9.7835,4.1055 10.166,4.25 10.166,4.7175 C10.166,5.1595 9.8175,5.44 9.163,5.44 C8.6105,5.44 8.0155,5.1595 7.565,4.743 L6.8425,5.61 C7.4545,6.1965 8.296,6.528 9.1375,6.528 Z" id="路径"></path>
                <polygon id="路径" points="12.563 6.409 16.5155 6.409 16.5155 5.355 13.821 5.355 13.821 3.672 16.031 3.672 16.031 2.618 13.821 2.618 13.821 1.1645 16.422 1.1645 16.422 0.119 12.563 0.119"></polygon>
            </g>
            <g id="MSE备份" fill="#FFFFFF">
                <path d="M0,6.409 L1.1305,6.409 L1.1305,3.7825 C1.1305,3.1875 1.0285,2.312 0.969,1.717 L1.003,1.717 L1.5045,3.196 L2.482,5.8395 L3.2045,5.8395 L4.1735,3.196 L4.6835,1.717 L4.7175,1.717 C4.658,2.312 4.5645,3.1875 4.5645,3.7825 L4.5645,6.409 L5.712,6.409 L5.712,0.119 L4.318,0.119 L3.2725,3.06 C3.1365,3.451 3.026,3.8675 2.89,4.2755 L2.8475,4.2755 C2.72,3.8675 2.601,3.451 2.465,3.06 L1.394,0.119 L0,0.119 L0,6.409 Z" id="路径"></path>
                <path d="M9.1375,6.528 C10.591,6.528 11.4495,5.6525 11.4495,4.624 C11.4495,3.7145 10.948,3.23 10.183,2.9155 L9.3585,2.567 C8.823,2.3545 8.3725,2.193 8.3725,1.7425 C8.3725,1.326 8.7295,1.0795 9.282,1.0795 C9.8005,1.0795 10.217,1.2665 10.6165,1.598 L11.254,0.8075 C10.744,0.289 10.013,0 9.282,0 C8.007,0 7.106,0.7905 7.106,1.819 C7.106,2.737 7.7435,3.247 8.381,3.5105 L9.2225,3.8675 C9.7835,4.1055 10.166,4.25 10.166,4.7175 C10.166,5.1595 9.8175,5.44 9.163,5.44 C8.6105,5.44 8.0155,5.1595 7.565,4.743 L6.8425,5.61 C7.4545,6.1965 8.296,6.528 9.1375,6.528 Z" id="路径"></path>
                <polygon id="路径" points="12.563 6.409 16.5155 6.409 16.5155 5.355 13.821 5.355 13.821 3.672 16.031 3.672 16.031 2.618 13.821 2.618 13.821 1.1645 16.422 1.1645 16.422 0.119 12.563 0.119"></polygon>
            </g>
        </g>
    </g>
</svg>