<?xml version="1.0" encoding="UTF-8"?>
<svg width="51px" height="34px" viewBox="0 0 51 34" version="1.1" xmlns="http://www.w3.org/2000/svg" xmlns:xlink="http://www.w3.org/1999/xlink">
    <title>1-4OLT</title>
    <defs>
        <linearGradient x1="97.4211836%" y1="50%" x2="0%" y2="50%" id="linearGradient-1">
            <stop stop-color="#4A4C5D" offset="0%"></stop>
            <stop stop-color="#2D2E39" offset="15.7506556%"></stop>
            <stop stop-color="#5D6184" offset="50.8358829%"></stop>
            <stop stop-color="#2D2E39" offset="84.1974432%"></stop>
            <stop stop-color="#4A4C5D" offset="100%"></stop>
        </linearGradient>
        <linearGradient x1="50%" y1="0%" x2="50%" y2="100%" id="linearGradient-2">
            <stop stop-color="#BDC2D2" stop-opacity="0" offset="0%"></stop>
            <stop stop-color="#BDC2D2" offset="100%"></stop>
        </linearGradient>
        <linearGradient x1="62.5095608%" y1="87.4904392%" x2="62.5095608%" y2="0.241382604%" id="linearGradient-3">
            <stop stop-color="#BDC2D2" offset="0%"></stop>
            <stop stop-color="#BDC2D2" stop-opacity="0" offset="100%"></stop>
        </linearGradient>
    </defs>
    <g id="页面-1" stroke="none" stroke-width="1" fill="none" fill-rule="evenodd">
        <g id="图标" transform="translate(-320.000000, -31.000000)">
            <g id="1-4OLT" transform="translate(320.437920, 32.085005)">
                <path d="M42.1269838,2.82076284 C44.4858749,3.80351481 46.271597,4.93633717 47.4873183,6.14315603 C48.702862,7.34979865 49.352236,8.63288979 49.4499067,9.91962214 L49.4617582,10.1609093 L49.6449111,21.0015383 C49.7193114,22.4383544 49.1161094,23.884894 47.8147201,25.2409918 C46.5920278,26.5150841 44.7486426,27.7116965 42.279429,28.7437667 C32.5856322,32.7953687 16.8700339,32.795367 7.17680824,28.7437687 C4.76553087,27.7360278 2.95118219,26.5714546 1.7301363,25.3310805 C0.50857225,24.09018 -0.123143688,22.7709923 -0.180284497,21.453539 L-0.184268826,21.2065564 L-0.189331889,10.0779546 C-0.132895786,8.72599776 0.53209449,7.3734254 1.82282355,6.10627137 C3.03800729,4.91328282 4.81133484,3.79351852 7.1462228,2.82076662 C16.8057634,-1.20411052 32.4674523,-1.20411052 42.1269838,2.82076284 Z M41.1855685,3.97600176 C32.0456859,0.417586426 17.2275298,0.417586426 8.08766082,3.97599646 C5.91903725,4.82012058 4.26780113,5.78773886 3.13683545,6.82304983 C2.06631299,7.80302976 1.4650499,8.840866 1.35007759,9.88923143 L1.35007759,9.88923143 L47.9303772,9.96244879 L47.9050503,9.75031889 C47.7558869,8.76110419 47.1734759,7.78299216 46.1722844,6.8561025 C45.0405308,5.80834007 43.3772786,4.8291122 41.1855685,3.97600176 Z" id="形状结合" stroke="#7C8298" stroke-width="0.4" fill-rule="nonzero"></path>
                <path d="M49.0701847,10.3645 L49.0701847,20.935221 C49.1406818,22.238479 48.5717419,23.5396381 47.3969331,24.763834 C46.2168508,25.9935252 44.4330764,27.1410868 42.0512465,28.1366328 C32.4776851,32.1379814 16.9570117,32.1379846 7.38398929,28.1366292 C5.00116447,27.1407794 3.21702387,25.9928458 2.03835255,24.7627238 C0.865869816,23.5390606 0.300128641,22.238488 0.376264566,20.9357939 L0.376264566,20.9357939 L0.364892328,10.3645 L49.0701847,10.3645 Z" id="路径" stroke="url(#linearGradient-2)" stroke-width="0.729" fill="url(#linearGradient-1)" fill-rule="nonzero"></path>
                <path d="M7.24833279,3.02534809 C16.8995307,-1.00844936 32.5460678,-1.00844936 42.196706,3.02534809 C51.8473442,7.05914554 51.8473442,13.5998541 42.196706,17.6336516 C32.5460678,21.667449 16.8995307,21.667449 7.24833279,17.6336516 C-2.40230538,13.5998541 -2.40230538,7.05914554 7.24833279,3.02534809 Z" id="路径" fill="#979DB0" fill-rule="nonzero"></path>
                <path d="M42.0500687,3.00538154 C32.4330116,-1.00179385 16.8402041,-1.00179385 7.22314699,3.00538154 C-2.39391012,7.0120023 -2.39391012,13.5088954 7.22314699,17.5155161 C16.8402041,21.5226915 32.4330116,21.5226915 42.0500687,17.5155161 C51.6671258,13.5088954 51.6671258,7.0120023 42.0500687,3.00538154 Z M41.2581153,3.7896232 C32.0781717,0.215610994 17.195044,0.215610994 8.01510043,3.7896232 C-1.16540285,7.36308078 -1.16540285,13.1578169 8.01510043,16.7312745 C17.195044,20.3052867 32.0781717,20.3052867 41.2581153,16.7312745 C50.4386186,13.1578169 50.4386186,7.36308078 41.2581153,3.7896232 Z" id="形状" fill="url(#linearGradient-3)"></path>
                <g id="编组-2" transform="translate(16.575530, 22.000000)" fill-rule="nonzero">
                    <g id="OLT" transform="translate(0.000000, 1.000000)" fill="#403C3C">
                        <path d="M2.8135,6.528 C4.4795,6.528 5.627,5.2785 5.627,3.2385 C5.627,1.1985 4.4795,0 2.8135,0 C1.1475,0 0,1.19 0,3.2385 C0,5.2785 1.1475,6.528 2.8135,6.528 Z M2.8135,5.44 C1.8785,5.44 1.2835,4.5815 1.2835,3.2385 C1.2835,1.887 1.8785,1.0795 2.8135,1.0795 C3.7485,1.0795 4.3435,1.887 4.3435,3.2385 C4.3435,4.5815 3.7485,5.44 2.8135,5.44 Z" id="形状"></path>
                        <polygon id="路径" points="6.8595 6.409 10.6675 6.409 10.6675 5.355 8.1175 5.355 8.1175 0.119 6.8595 0.119"></polygon>
                        <polygon id="路径" points="13.0135 6.409 14.2715 6.409 14.2715 1.1645 16.0565 1.1645 16.0565 0.119 11.2455 0.119 11.2455 1.1645 13.0135 1.1645"></polygon>
                    </g>
                    <g id="OLT备份" fill="#FFFFFF">
                        <path d="M2.8135,6.528 C4.4795,6.528 5.627,5.2785 5.627,3.2385 C5.627,1.1985 4.4795,0 2.8135,0 C1.1475,0 0,1.19 0,3.2385 C0,5.2785 1.1475,6.528 2.8135,6.528 Z M2.8135,5.44 C1.8785,5.44 1.2835,4.5815 1.2835,3.2385 C1.2835,1.887 1.8785,1.0795 2.8135,1.0795 C3.7485,1.0795 4.3435,1.887 4.3435,3.2385 C4.3435,4.5815 3.7485,5.44 2.8135,5.44 Z" id="形状"></path>
                        <polygon id="路径" points="6.8595 6.409 10.6675 6.409 10.6675 5.355 8.1175 5.355 8.1175 0.119 6.8595 0.119"></polygon>
                        <polygon id="路径" points="13.0135 6.409 14.2715 6.409 14.2715 1.1645 16.0565 1.1645 16.0565 0.119 11.2455 0.119 11.2455 1.1645 13.0135 1.1645"></polygon>
                    </g>
                </g>
                <path d="M26.8982508,12.8007281 C27.4879129,12.1033201 27.8321344,12.0910862 28.148689,12.1390108 L28.148689,12.1390108 L32.2886409,12.6822115 C32.6366271,12.7302229 32.8570597,12.8717725 32.9634182,13.0164186 L32.9634182,13.0164186 L37.108505,16.0817848 L35.9403951,17.2939332 C35.7354632,17.3917496 35.5029866,17.4432782 35.2672534,17.4432782 C35.0465985,17.4432782 34.8294769,17.3983621 34.6355756,17.3129218 L34.6355756,17.3129218 L30.4869289,15.263999 C29.3955503,15.3806521 29.0699561,15.4166237 28.7813276,15.3781185 C28.4376586,15.3322705 28.1709465,15.1758555 28.0704097,14.9890988 L28.0704097,14.9890988 Z M20.4205052,12.0703311 C20.6382017,12.0703311 20.8531209,12.1142761 21.0555427,12.2023554 L21.0555427,12.2023554 L22.3923722,12.8495301 L18.0466275,15.5321544 C18.239985,15.9579891 18.2163867,16.2560874 18.0939075,16.4481423 L18.0939075,16.4481423 L13.3048656,17.3868559 C12.9248314,17.4381723 12.5322913,17.346836 12.2373844,17.1358327 L12.2373844,17.1358327 L13.208862,14.5382959 C13.3011599,14.343375 13.5754008,14.1774201 13.932915,14.1312093 C14.2219468,14.0938502 14.5482228,14.1312046 14.7920782,14.2497306 L14.7920782,14.2497306 L19.7890309,12.2005905 C19.9835593,12.1151689 20.1999361,12.0703311 20.4205052,12.0703311 Z M35.9686519,4.75928449 C36.343088,4.70265465 36.7335224,4.78321427 37.0349984,4.98779701 L37.0349984,4.98779701 L36.0609805,7.59049604 C35.968882,7.78493418 35.6959545,7.95033542 35.340875,7.99770566 C35.0518377,8.03626538 34.7257298,8.00013723 34.4839751,7.88373076 L34.4839751,7.88373076 L29.4863127,9.93266419 C29.2925273,10.0174241 29.0754832,10.0628654 28.8549492,10.0628654 C28.635263,10.0628654 28.4183655,10.0175387 28.2240274,9.93286469 L28.2240274,9.93286469 L26.880559,9.27359411 L31.2185951,6.58783892 C31.0241038,6.1588082 31.0482609,5.86085124 31.1711583,5.66953788 L31.1711583,5.66953788 Z M13.997567,4.74371701 C14.2174138,4.74371701 14.434428,4.78853443 14.6289087,4.87391827 L14.6289087,4.87391827 L18.7940882,6.92243677 C19.8818514,6.80411891 20.2077717,6.76699316 20.4963461,6.80429313 C20.8421775,6.84899392 21.1098678,7.00570792 21.210655,7.19292983 L21.210655,7.19292983 L22.382848,9.38196059 C21.791196,10.0808554 21.4436124,10.0928045 21.1264976,10.0429575 L21.1264976,10.0429575 L16.9918165,9.49590504 C16.6445605,9.4479456 16.4241158,9.30551193 16.3176371,9.16009275 L16.3176371,9.16009275 L12.1670195,6.09672417 L13.3243009,4.89311432 C13.5293942,4.79526396 13.7610708,4.74371701 13.997567,4.74371701 Z" id="形状" stroke="#6D7692" stroke-width="0.5" fill="#FFFFFF" fill-rule="nonzero"></path>
            </g>
        </g>
    </g>
</svg>