<?xml version="1.0" encoding="UTF-8"?>
<svg width="51px" height="34px" viewBox="0 0 51 34" version="1.1" xmlns="http://www.w3.org/2000/svg" xmlns:xlink="http://www.w3.org/1999/xlink">
    <title>1-2OLT</title>
    <defs>
        <linearGradient x1="97.4211836%" y1="50%" x2="0%" y2="50%" id="linearGradient-1">
            <stop stop-color="#BE713A" offset="0.297749126%"></stop>
            <stop stop-color="#BB6D35" offset="15.7506556%"></stop>
            <stop stop-color="#C6834F" offset="49.6694712%"></stop>
            <stop stop-color="#BB6D35" offset="83.2550262%"></stop>
            <stop stop-color="#BE713A" offset="100%"></stop>
        </linearGradient>
        <linearGradient x1="50%" y1="0%" x2="50%" y2="100%" id="linearGradient-2">
            <stop stop-color="#FFD9BC" stop-opacity="0" offset="0%"></stop>
            <stop stop-color="#FFD9BC" offset="100%"></stop>
        </linearGradient>
        <linearGradient x1="62.5095608%" y1="87.4904392%" x2="62.5095608%" y2="-5.69599934e-13%" id="linearGradient-3">
            <stop stop-color="#FFDFC7" offset="0%"></stop>
            <stop stop-color="#FFD9BC" stop-opacity="0" offset="100%"></stop>
        </linearGradient>
    </defs>
    <g id="页面-1" stroke="none" stroke-width="1" fill="none" fill-rule="evenodd">
        <g id="图标" transform="translate(-141.000000, -31.000000)">
            <g id="1-2OLT" transform="translate(141.221800, 32.085005)">
                <path d="M42.4734542,2.82076284 C44.8323453,3.80351481 46.6180674,4.93633717 47.8337887,6.14315603 C49.0493324,7.34979865 49.6987064,8.63288979 49.7963771,9.91962214 L49.8082286,10.1609093 L49.9913816,21.0015383 C50.0657818,22.4383544 49.4625798,23.884894 48.1611905,25.2409918 C46.9384982,26.5150841 45.095113,27.7116965 42.6258994,28.7437667 C32.9321026,32.7953687 17.2165044,32.795367 7.52327866,28.7437687 C5.11200128,27.7360278 3.2976526,26.5714546 2.07660671,25.3310805 C0.855042662,24.09018 0.223326723,22.7709923 0.166185914,21.453539 L0.162201586,21.2065564 L0.157138523,10.0779546 C0.213574626,8.72599776 0.878564901,7.3734254 2.16929396,6.10627137 C3.3844777,4.91328282 5.15780526,3.79351852 7.49269321,2.82076662 C17.1522338,-1.20411052 32.8139227,-1.20411052 42.4734542,2.82076284 Z M41.5320389,3.97600176 C32.3921563,0.417586426 17.5740002,0.417586426 8.43413123,3.97599646 C6.26550767,4.82012058 4.61427154,5.78773886 3.48330586,6.82304983 C2.4127834,7.80302976 1.81152032,8.840866 1.696548,9.88923143 L1.696548,9.88923143 L48.2768477,9.96244879 L48.2515207,9.75031889 C48.1023573,8.76110419 47.5199463,7.78299216 46.5187549,6.8561025 C45.3870012,5.80834007 43.7237491,4.8291122 41.5320389,3.97600176 Z" id="形状结合" stroke="#DE8635" stroke-width="0.4" fill-rule="nonzero"></path>
                <path d="M49.0701847,10.3645 L49.0701847,20.935221 C49.1406818,22.238479 48.5717419,23.5396381 47.3969331,24.763834 C46.2168508,25.9935252 44.4330764,27.1410868 42.0512465,28.1366328 C32.4776851,32.1379814 16.9570117,32.1379846 7.38398929,28.1366292 C5.00116447,27.1407794 3.21702387,25.9928458 2.03835255,24.7627238 C0.865869816,23.5390606 0.300128641,22.238488 0.376264566,20.9357939 L0.376264566,20.9357939 L0.364892328,10.3645 L49.0701847,10.3645 Z" id="路径" stroke="url(#linearGradient-2)" stroke-width="0.729" fill="url(#linearGradient-1)" fill-rule="nonzero"></path>
                <path d="M7.5948032,3.02534809 C17.2460011,-1.00844936 32.8925383,-1.00844936 42.5431764,3.02534809 C52.1938146,7.05914554 52.1938146,13.5998541 42.5431764,17.6336516 C32.8925383,21.667449 17.2460011,21.667449 7.5948032,17.6336516 C-2.05583497,13.5998541 -2.05583497,7.05914554 7.5948032,3.02534809 Z" id="路径" fill="#E6BF9F" fill-rule="nonzero"></path>
                <path d="M42.3965391,3.00538154 C32.779482,-1.00179385 17.1866745,-1.00179385 7.56961741,3.00538154 C-2.0474397,7.0120023 -2.0474397,13.5088954 7.56961741,17.5155161 C17.1866745,21.5226915 32.779482,21.5226915 42.3965391,17.5155161 C52.0135962,13.5088954 52.0135962,7.0120023 42.3965391,3.00538154 Z M41.6045857,3.7896232 C32.4246421,0.215610994 17.5415144,0.215610994 8.36157084,3.7896232 C-0.818932438,7.36308078 -0.818932438,13.1578169 8.36157084,16.7312745 C17.5415144,20.3052867 32.4246421,20.3052867 41.6045857,16.7312745 C50.785089,13.1578169 50.785089,7.36308078 41.6045857,3.7896232 Z" id="形状" fill="url(#linearGradient-3)"></path>
                <path d="M27.2447212,12.8007281 C27.8343833,12.1033201 28.1786048,12.0910862 28.4951595,12.1390108 L28.4951595,12.1390108 L32.6351114,12.6822115 C32.9830976,12.7302229 33.2035301,12.8717725 33.3098887,13.0164186 L33.3098887,13.0164186 L37.4549754,16.0817848 L36.2868655,17.2939332 C36.0819336,17.3917496 35.849457,17.4432782 35.6137238,17.4432782 C35.3930689,17.4432782 35.1759473,17.3983621 34.982046,17.3129218 L34.982046,17.3129218 L30.8333993,15.263999 C30.7606407,15.2717758 30.6912856,15.2791941 30.6251181,15.2862557 L30.2646357,15.3243587 C29.6132617,15.3920617 29.3587008,15.4089227 29.127798,15.3781185 C28.784129,15.3322705 28.5174169,15.1758555 28.4168801,14.9890988 L28.4168801,14.9890988 Z M20.7669756,12.0703311 C20.9846721,12.0703311 21.1995913,12.1142761 21.4020131,12.2023554 L21.4020131,12.2023554 L22.7388426,12.8495301 L18.393098,15.5321544 C18.5864554,15.9579891 18.5628571,16.2560874 18.4403779,16.4481423 L18.4403779,16.4481423 L13.651336,17.3868559 C13.2713018,17.4381723 12.8787617,17.346836 12.5838548,17.1358327 L12.5838548,17.1358327 L13.5553325,14.5382959 C13.6476303,14.343375 13.9218712,14.1774201 14.2793855,14.1312093 C14.5684172,14.0938502 14.8946932,14.1312046 15.1385486,14.2497306 L15.1385486,14.2497306 L20.1355013,12.2005905 C20.3300297,12.1151689 20.5464065,12.0703311 20.7669756,12.0703311 Z M36.3151223,4.75928449 C36.6895585,4.70265465 37.0799928,4.78321427 37.3814688,4.98779701 L37.3814688,4.98779701 L36.4074509,7.59049604 C36.3153525,7.78493418 36.0424249,7.95033542 35.6873454,7.99770566 C35.3983081,8.03626538 35.0722002,8.00013723 34.8304455,7.88373076 L34.8304455,7.88373076 L29.8327832,9.93266419 C29.6389977,10.0174241 29.4219536,10.0628654 29.2014196,10.0628654 C28.9817334,10.0628654 28.7648359,10.0175387 28.5704978,9.93286469 L28.5704978,9.93286469 L27.2270294,9.27359411 L31.5650655,6.58783892 C31.3705742,6.1588082 31.3947313,5.86085124 31.5176287,5.66953788 L31.5176287,5.66953788 Z M14.3440374,4.74371701 C14.5638842,4.74371701 14.7808984,4.78853443 14.9753791,4.87391827 L14.9753791,4.87391827 L19.1405586,6.92243677 C20.2283218,6.80411891 20.5542421,6.76699316 20.8428165,6.80429313 C21.1886479,6.84899392 21.4563382,7.00570792 21.5571254,7.19292983 L21.5571254,7.19292983 L22.7293184,9.38196059 C22.1376664,10.0808554 21.7900828,10.0928045 21.472968,10.0429575 L21.472968,10.0429575 L17.338287,9.49590504 C16.9910309,9.4479456 16.7705862,9.30551193 16.6641075,9.16009275 L16.6641075,9.16009275 L12.5134899,6.09672417 L13.6707713,4.89311432 C13.8758646,4.79526396 14.1075412,4.74371701 14.3440374,4.74371701 Z" id="形状" stroke="#BB885F" stroke-width="0.5" fill="#FFFFFF" fill-rule="nonzero"></path>
                <g id="编组-2" transform="translate(17.000000, 22.000000)" fill-rule="nonzero">
                    <g id="OLT" transform="translate(0.000000, 1.000000)" fill="#403C3C">
                        <path d="M2.8135,6.528 C4.4795,6.528 5.627,5.2785 5.627,3.2385 C5.627,1.1985 4.4795,0 2.8135,0 C1.1475,0 0,1.19 0,3.2385 C0,5.2785 1.1475,6.528 2.8135,6.528 Z M2.8135,5.44 C1.8785,5.44 1.2835,4.5815 1.2835,3.2385 C1.2835,1.887 1.8785,1.0795 2.8135,1.0795 C3.7485,1.0795 4.3435,1.887 4.3435,3.2385 C4.3435,4.5815 3.7485,5.44 2.8135,5.44 Z" id="形状"></path>
                        <polygon id="路径" points="6.8595 6.409 10.6675 6.409 10.6675 5.355 8.1175 5.355 8.1175 0.119 6.8595 0.119"></polygon>
                        <polygon id="路径" points="13.0135 6.409 14.2715 6.409 14.2715 1.1645 16.0565 1.1645 16.0565 0.119 11.2455 0.119 11.2455 1.1645 13.0135 1.1645"></polygon>
                    </g>
                    <g id="OLT备份" fill="#FFFFFF">
                        <path d="M2.8135,6.528 C4.4795,6.528 5.627,5.2785 5.627,3.2385 C5.627,1.1985 4.4795,0 2.8135,0 C1.1475,0 0,1.19 0,3.2385 C0,5.2785 1.1475,6.528 2.8135,6.528 Z M2.8135,5.44 C1.8785,5.44 1.2835,4.5815 1.2835,3.2385 C1.2835,1.887 1.8785,1.0795 2.8135,1.0795 C3.7485,1.0795 4.3435,1.887 4.3435,3.2385 C4.3435,4.5815 3.7485,5.44 2.8135,5.44 Z" id="形状"></path>
                        <polygon id="路径" points="6.8595 6.409 10.6675 6.409 10.6675 5.355 8.1175 5.355 8.1175 0.119 6.8595 0.119"></polygon>
                        <polygon id="路径" points="13.0135 6.409 14.2715 6.409 14.2715 1.1645 16.0565 1.1645 16.0565 0.119 11.2455 0.119 11.2455 1.1645 13.0135 1.1645"></polygon>
                    </g>
                </g>
            </g>
        </g>
    </g>
</svg>