<?xml version="1.0" encoding="UTF-8"?>
<svg width="51px" height="34px" viewBox="0 0 51 34" version="1.1" xmlns="http://www.w3.org/2000/svg" xmlns:xlink="http://www.w3.org/1999/xlink">
    <title>1-5OLT</title>
    <defs>
        <linearGradient x1="97.4211836%" y1="50%" x2="0%" y2="50%" id="linearGradient-1">
            <stop stop-color="#00E0D8" offset="0%"></stop>
            <stop stop-color="#00CEC4" offset="14.5214161%"></stop>
            <stop stop-color="#00DDD4" offset="49.6694712%"></stop>
            <stop stop-color="#00CEC4" offset="83.2550262%"></stop>
            <stop stop-color="#00E0D8" offset="100%"></stop>
        </linearGradient>
        <linearGradient x1="50%" y1="0%" x2="50%" y2="100%" id="linearGradient-2">
            <stop stop-color="#CBFFFC" stop-opacity="0" offset="0%"></stop>
            <stop stop-color="#CBFFFC" offset="100%"></stop>
        </linearGradient>
        <linearGradient x1="62.5095608%" y1="87.4904392%" x2="62.5095608%" y2="-5.69599934e-13%" id="linearGradient-3">
            <stop stop-color="#BDFFFB" offset="0%"></stop>
            <stop stop-color="#BDFFFB" stop-opacity="0" offset="100%"></stop>
        </linearGradient>
    </defs>
    <g id="页面-1" stroke="none" stroke-width="1" fill="none" fill-rule="evenodd">
        <g id="图标" transform="translate(-409.000000, -31.000000)">
            <g id="1-5OLT" transform="translate(409.883099, 32.085005)">
                <path d="M42.1166297,2.82076284 C44.4755207,3.80351481 46.2612428,4.93633717 47.4769641,6.14315603 C48.6925078,7.34979865 49.3418818,8.63288979 49.4395525,9.91962214 L49.4514041,10.1609093 L49.634557,21.0015383 C49.7089572,22.4383544 49.1057552,23.884894 47.8043659,25.2409918 C46.5816736,26.5150841 44.7382884,27.7116965 42.2690748,28.7437667 C32.5752781,32.7953687 16.8596798,32.795367 7.16645408,28.7437687 C4.75517671,27.7360278 2.94082803,26.5714546 1.71978214,25.3310805 C0.498218088,24.09018 -0.13349785,22.7709923 -0.190638659,21.453539 L-0.194622987,21.2065564 L-0.19968605,10.0779546 C-0.143249948,8.72599776 0.521740328,7.3734254 1.81246938,6.10627137 C3.02765313,4.91328282 4.80098068,3.79351852 7.13586864,2.82076662 C16.7954092,-1.20411052 32.4570982,-1.20411052 42.1166297,2.82076284 Z M41.1752143,3.97600176 C32.0353317,0.417586426 17.2171756,0.417586426 8.07730665,3.97599646 C5.90868309,4.82012058 4.25744697,5.78773886 3.12648129,6.82304983 C2.05595882,7.80302976 1.45469574,8.840866 1.33972343,9.88923143 L1.33972343,9.88923143 L47.9200231,9.96244879 L47.8946961,9.75031889 C47.7455327,8.76110419 47.1631217,7.78299216 46.1619303,6.8561025 C45.0301766,5.80834007 43.3669245,4.8291122 41.1752143,3.97600176 Z" id="形状结合" stroke="#22DFD6" stroke-width="0.4" fill-rule="nonzero"></path>
                <path d="M49.0701847,10.3645 L49.0701847,20.935221 C49.1406818,22.238479 48.5717419,23.5396381 47.3969331,24.763834 C46.2168508,25.9935252 44.4330764,27.1410868 42.0512465,28.1366328 C32.4776851,32.1379814 16.9570117,32.1379846 7.38398929,28.1366292 C5.00116447,27.1407794 3.21702387,25.9928458 2.03835255,24.7627238 C0.865869816,23.5390606 0.300128641,22.238488 0.376264566,20.9357939 L0.376264566,20.9357939 L0.364892328,10.3645 L49.0701847,10.3645 Z" id="路径" stroke="url(#linearGradient-2)" stroke-width="0.729" fill="url(#linearGradient-1)" fill-rule="nonzero"></path>
                <path d="M7.23797863,3.02534809 C16.8891765,-1.00844936 32.5357137,-1.00844936 42.1863519,3.02534809 C51.83699,7.05914554 51.83699,13.5998541 42.1863519,17.6336516 C32.5357137,21.667449 16.8891765,21.667449 7.23797863,17.6336516 C-2.41265954,13.5998541 -2.41265954,7.05914554 7.23797863,3.02534809 Z" id="路径" fill="#88EEE9" fill-rule="nonzero"></path>
                <path d="M42.0397145,3.00538154 C32.4226574,-1.00179385 16.8298499,-1.00179385 7.21279283,3.00538154 C-2.40426428,7.0120023 -2.40426428,13.5088954 7.21279283,17.5155161 C16.8298499,21.5226915 32.4226574,21.5226915 42.0397145,17.5155161 C51.6567717,13.5088954 51.6567717,7.0120023 42.0397145,3.00538154 Z M41.2477611,3.7896232 C32.0678175,0.215610994 17.1846899,0.215610994 8.00474626,3.7896232 C-1.17575701,7.36308078 -1.17575701,13.1578169 8.00474626,16.7312745 C17.1846899,20.3052867 32.0678175,20.3052867 41.2477611,16.7312745 C50.4282644,13.1578169 50.4282644,7.36308078 41.2477611,3.7896232 Z" id="形状" fill="url(#linearGradient-3)"></path>
                <g id="编组-2" transform="translate(17.000000, 22.000000)" fill-rule="nonzero">
                    <g id="OLT" transform="translate(0.000000, 1.000000)" fill="#403C3C">
                        <path d="M2.8135,6.528 C4.4795,6.528 5.627,5.2785 5.627,3.2385 C5.627,1.1985 4.4795,0 2.8135,0 C1.1475,0 0,1.19 0,3.2385 C0,5.2785 1.1475,6.528 2.8135,6.528 Z M2.8135,5.44 C1.8785,5.44 1.2835,4.5815 1.2835,3.2385 C1.2835,1.887 1.8785,1.0795 2.8135,1.0795 C3.7485,1.0795 4.3435,1.887 4.3435,3.2385 C4.3435,4.5815 3.7485,5.44 2.8135,5.44 Z" id="形状"></path>
                        <polygon id="路径" points="6.8595 6.409 10.6675 6.409 10.6675 5.355 8.1175 5.355 8.1175 0.119 6.8595 0.119"></polygon>
                        <polygon id="路径" points="13.0135 6.409 14.2715 6.409 14.2715 1.1645 16.0565 1.1645 16.0565 0.119 11.2455 0.119 11.2455 1.1645 13.0135 1.1645"></polygon>
                    </g>
                    <g id="OLT备份" fill="#FFFFFF">
                        <path d="M2.8135,6.528 C4.4795,6.528 5.627,5.2785 5.627,3.2385 C5.627,1.1985 4.4795,0 2.8135,0 C1.1475,0 0,1.19 0,3.2385 C0,5.2785 1.1475,6.528 2.8135,6.528 Z M2.8135,5.44 C1.8785,5.44 1.2835,4.5815 1.2835,3.2385 C1.2835,1.887 1.8785,1.0795 2.8135,1.0795 C3.7485,1.0795 4.3435,1.887 4.3435,3.2385 C4.3435,4.5815 3.7485,5.44 2.8135,5.44 Z" id="形状"></path>
                        <polygon id="路径" points="6.8595 6.409 10.6675 6.409 10.6675 5.355 8.1175 5.355 8.1175 0.119 6.8595 0.119"></polygon>
                        <polygon id="路径" points="13.0135 6.409 14.2715 6.409 14.2715 1.1645 16.0565 1.1645 16.0565 0.119 11.2455 0.119 11.2455 1.1645 13.0135 1.1645"></polygon>
                    </g>
                </g>
                <path d="M26.8878967,12.8007281 C27.4775587,12.1033201 27.8217802,12.0910862 28.1383349,12.1390108 L28.1383349,12.1390108 L32.2782868,12.6822115 C32.626273,12.7302229 32.8467055,12.8717725 32.9530641,13.0164186 L32.9530641,13.0164186 L37.0981509,16.0817848 L35.9300409,17.2939332 C35.7251091,17.3917496 35.4926325,17.4432782 35.2568993,17.4432782 C35.0362443,17.4432782 34.8191227,17.3983621 34.6252214,17.3129218 L34.6252214,17.3129218 L30.4765747,15.263999 C29.3851962,15.3806521 29.0596019,15.4166237 28.7709734,15.3781185 C28.4273044,15.3322705 28.1605923,15.1758555 28.0600555,14.9890988 L28.0600555,14.9890988 Z M20.4101511,12.0703311 C20.6278476,12.0703311 20.8427667,12.1142761 21.0451885,12.2023554 L21.0451885,12.2023554 L22.382018,12.8495301 L18.0362734,15.5321544 C18.2296308,15.9579891 18.2060326,16.2560874 18.0835534,16.4481423 L18.0835534,16.4481423 L13.2945114,17.3868559 C12.9144773,17.4381723 12.5219371,17.346836 12.2270302,17.1358327 L12.2270302,17.1358327 L13.1985079,14.5382959 C13.2908057,14.343375 13.5650467,14.1774201 13.9225609,14.1312093 C14.2115926,14.0938502 14.5378687,14.1312046 14.781724,14.2497306 L14.781724,14.2497306 L19.7786768,12.2005905 C19.9732051,12.1151689 20.189582,12.0703311 20.4101511,12.0703311 Z M35.9582977,4.75928449 C36.3327339,4.70265465 36.7231682,4.78321427 37.0246443,4.98779701 L37.0246443,4.98779701 L36.0506264,7.59049604 C35.9585279,7.78493418 35.6856004,7.95033542 35.3305209,7.99770566 C35.0414835,8.03626538 34.7153756,8.00013723 34.4736209,7.88373076 L34.4736209,7.88373076 L29.4759586,9.93266419 C29.2821731,10.0174241 29.0651291,10.0628654 28.844595,10.0628654 C28.6249088,10.0628654 28.4080113,10.0175387 28.2136732,9.93286469 L28.2136732,9.93286469 L26.8702049,9.27359411 L31.2082409,6.58783892 C31.0137496,6.1588082 31.0379067,5.86085124 31.1608041,5.66953788 L31.1608041,5.66953788 Z M13.9872129,4.74371701 C14.2070596,4.74371701 14.4240739,4.78853443 14.6185545,4.87391827 L14.6185545,4.87391827 L18.783734,6.92243677 C19.8714973,6.80411891 20.1974175,6.76699316 20.4859919,6.80429313 C20.8318233,6.84899392 21.0995137,7.00570792 21.2003008,7.19292983 L21.2003008,7.19292983 L22.3724939,9.38196059 C21.7808419,10.0808554 21.4332583,10.0928045 21.1161434,10.0429575 L21.1161434,10.0429575 L16.9814624,9.49590504 C16.6342064,9.4479456 16.4137616,9.30551193 16.3072829,9.16009275 L16.3072829,9.16009275 L12.1566653,6.09672417 L13.3139468,4.89311432 C13.51904,4.79526396 13.7507166,4.74371701 13.9872129,4.74371701 Z" id="形状" stroke="#3DDAD2" stroke-width="0.5" fill="#FFFFFF" fill-rule="nonzero"></path>
            </g>
        </g>
    </g>
</svg>