<?xml version="1.0" encoding="UTF-8"?>
<svg width="51px" height="34px" viewBox="0 0 51 34" version="1.1" xmlns="http://www.w3.org/2000/svg" xmlns:xlink="http://www.w3.org/1999/xlink">
    <title>11-10PE</title>
    <defs>
        <linearGradient x1="1.05236033%" y1="47.24403%" x2="100%" y2="50%" id="linearGradient-1">
            <stop stop-color="#B4B4B4" offset="0%"></stop>
            <stop stop-color="#B1B1B1" offset="21.0085569%"></stop>
            <stop stop-color="#C5C5C5" offset="50.2709449%"></stop>
            <stop stop-color="#B1B1B1" offset="78.0396361%"></stop>
            <stop stop-color="#B4B4B4" offset="100%"></stop>
        </linearGradient>
    </defs>
    <g id="11-10PE" stroke="none" stroke-width="1" fill="none" fill-rule="evenodd">
        <g id="编组-3" transform="translate(0.469674, 0.519119)">
            <path d="M24.9721869,0.480880737 C26.0267702,0.480880737 27.0661024,0.50830575 28.0863609,0.561550307 L28.9561081,0.613474209 L29.815978,0.677819746 C30.1008957,0.701313567 30.3840781,0.726840216 30.665436,0.754362247 L31.5039469,0.842877042 C31.6427568,0.858614717 31.7810882,0.874841876 31.9189301,0.891553839 L32.7400176,0.997605812 L33.5488208,1.1150684 L34.3448047,1.24371693 L35.1274345,1.38332673 L35.8961751,1.53367312 C37.4194107,1.84495273 38.8561019,2.21930389 40.1869914,2.64863843 L40.8435301,2.8678502 C40.951454,2.90513667 41.0586209,2.94279561 41.1650197,2.98082234 L41.794105,3.21335869 C46.5450536,5.02939966 49.6233947,7.60386933 49.9443738,10.4811708 L49.9443738,22.4815902 C49.6785939,24.8582912 47.5315585,27.0283226 44.1145636,28.7348932 L43.5645735,29.0004628 C42.4438426,29.5237493 41.1996765,29.9994703 39.8513294,30.4195391 L39.1685633,30.6248984 C39.0533517,30.6583395 38.9374389,30.6913848 38.820836,30.7240295 L38.1130274,30.9150546 C37.755072,31.0081266 37.3911066,31.0975097 37.0214321,31.1830776 L36.2745603,31.3490891 C36.1488427,31.3758974 36.0225131,31.4022724 35.8955825,31.4282094 L35.1268773,31.5785389 L34.344285,31.7181329 L33.5483405,31.8467667 C33.2808597,31.8877931 33.0112427,31.9269553 32.7395786,31.9642159 L31.9185341,32.0702556 C31.7806996,32.0869657 31.6423755,32.103191 31.5035731,32.1189268 L30.6651076,32.2074313 C30.3837652,32.2349502 30.1005985,32.2604739 29.8156967,32.2839649 L28.9558751,32.3483029 L28.0861778,32.4002207 C27.065978,32.453459 26.0267071,32.4808807 24.9721869,32.4808807 C23.9176667,32.4808807 22.8783958,32.453459 21.858196,32.4002207 L20.9884987,32.3483029 L20.1286771,32.2839649 C19.8437753,32.2604739 19.5606086,32.2349502 19.2792662,32.2074313 L18.4408007,32.1189268 C18.3019983,32.103191 18.1636742,32.0869657 18.0258396,32.0702556 L17.2047952,31.9642159 C17.0689631,31.9455856 16.9336428,31.9264799 16.7988455,31.9069034 L15.9964254,31.7838339 C15.8637643,31.7623933 15.7316484,31.7404914 15.6000888,31.7181329 L14.8174965,31.5785389 L14.0487913,31.4282094 C13.9218607,31.4022724 13.795531,31.3758974 13.6698134,31.3490891 L12.9229416,31.1830776 C12.5532672,31.0975097 12.1893018,31.0081266 11.8313464,30.9150546 L11.1235378,30.7240295 C11.0069349,30.6913848 10.8910221,30.6583395 10.7758105,30.6248984 L10.0930443,30.4195391 C8.74469726,29.9994703 7.50053119,29.5237493 6.37980027,29.0004628 L5.82981022,28.7348932 C2.41281528,27.0283226 0.265779899,24.8582912 0,22.4815902 L0,10.4811708 C0.320979104,7.60386933 3.39932022,5.02939966 8.15026881,3.21335869 L8.77935409,2.98082234 C8.88575283,2.94279561 8.99291974,2.90513667 9.10084367,2.8678502 L9.75738241,2.64863843 C11.0882718,2.21930389 12.5249631,1.84495273 14.0481987,1.53367312 L14.8169393,1.38332673 L15.599569,1.24371693 L16.395553,1.1150684 L17.2043562,0.997605812 L18.0254436,0.891553839 C18.1632855,0.874841876 18.301617,0.858614717 18.4404268,0.842877042 L19.2789378,0.754362247 C19.5602957,0.726840216 19.843478,0.701313567 20.1283957,0.677819746 L20.9882657,0.613474209 L21.8580128,0.561550307 C22.7325202,0.515912115 23.6210408,0.489243385 24.5211675,0.482555139 L24.9721869,0.480880737 Z" id="路径" stroke="#A4A4A4" fill="url(#linearGradient-1)"></path>
            <path d="M25,0.4 C31.8424187,0.4 38.038307,1.56069442 42.5227765,3.44417164 C44.7709463,4.38840294 46.5856584,5.51185081 47.8220028,6.76546664 C48.9566173,7.91593131 49.6,9.17314658 49.6,10.5 C49.6,11.8268534 48.9566173,13.0840687 47.8220028,14.2345334 C46.5856584,15.4881492 44.7709463,16.6115971 42.5227765,17.5558284 C38.038307,19.4393056 31.8424187,20.6 25,20.6 C18.1575813,20.6 11.961693,19.4393056 7.47722346,17.5558284 C5.22905369,16.6115971 3.41434163,15.4881492 2.17799716,14.2345334 C1.04338271,13.0840687 0.4,11.8268534 0.4,10.5 C0.4,9.17314658 1.04338271,7.91593131 2.17799716,6.76546664 C3.41434163,5.51185081 5.22905369,4.38840294 7.47722346,3.44417164 C11.961693,1.56069442 18.1575813,0.4 25,0.4 Z" id="椭圆形备份-2" stroke="#FFFFFF" stroke-width="0.8" fill="#DBDBDB"></path>
        </g>
        <g id="编组" transform="translate(13.000000, 4.000000)" fill="#FFFFFF" stroke="#BCBCBC" stroke-width="0.5">
            <path d="M1.78295764,5.48575646 L3.86018182,4.3582858 L7.72243012,6.45121521 L11.8826646,4.35580602 L7.72325671,2.10127799 L9.79800112,1.13499265 L0,0.17201367 L1.78295764,5.48575646 Z M26.136324,0 L16.3391495,0.968765117 L18.4151338,2.09664908 L14.5549519,4.19247156 L18.1171476,6.44823948 L22.2769688,4.18999179 L24.3579126,5.32076882 L26.136324,0 Z M14.2598175,9.83218067 L18.1245456,11.9242835 L16.0419485,13.0546472 L25.8478023,14.0188661 L24.0594718,8.86217567 L21.9847274,9.99419259 L18.1150398,7.73635819 L14.2598175,9.83218067 Z M4.16242497,9.83366854 L2.07652158,8.70578458 L0.303483031,14.0240736 L10.1002443,13.0548952 L8.01930042,11.9241182 L11.8848551,9.83160206 L8.01764724,7.74115242 L4.16242497,9.83366854 Z" id="形状结合"></path>
        </g>
        <g id="编组-2" transform="translate(21.325000, 23.710000)" fill-rule="nonzero">
            <g id="PE" transform="translate(0.000000, 1.000000)" fill="#403C3C" fill-opacity="0.8">
                <path d="M0,6.29 L1.258,6.29 L1.258,4.0545 L2.0995,4.0545 C3.451,4.0545 4.5305,3.4085 4.5305,1.972 C4.5305,0.4845 3.4595,0 2.0655,0 L0,0 L0,6.29 Z M1.258,3.06 L1.258,0.9945 L1.972,0.9945 C2.839,0.9945 3.298,1.241 3.298,1.972 C3.298,2.6945 2.8815,3.06 2.0145,3.06 L1.258,3.06 Z" id="形状"></path>
                <polygon id="路径" points="5.6695 6.29 9.622 6.29 9.622 5.236 6.9275 5.236 6.9275 3.553 9.1375 3.553 9.1375 2.499 6.9275 2.499 6.9275 1.0455 9.5285 1.0455 9.5285 0 5.6695 0"></polygon>
            </g>
            <g id="PE备份" fill="#FFFFFF">
                <path d="M0,6.29 L1.258,6.29 L1.258,4.0545 L2.0995,4.0545 C3.451,4.0545 4.5305,3.4085 4.5305,1.972 C4.5305,0.4845 3.4595,0 2.0655,0 L0,0 L0,6.29 Z M1.258,3.06 L1.258,0.9945 L1.972,0.9945 C2.839,0.9945 3.298,1.241 3.298,1.972 C3.298,2.6945 2.8815,3.06 2.0145,3.06 L1.258,3.06 Z" id="形状"></path>
                <polygon id="路径" points="5.6695 6.29 9.622 6.29 9.622 5.236 6.9275 5.236 6.9275 3.553 9.1375 3.553 9.1375 2.499 6.9275 2.499 6.9275 1.0455 9.5285 1.0455 9.5285 0 5.6695 0"></polygon>
            </g>
        </g>
    </g>
</svg>