<?xml version="1.0" encoding="UTF-8"?>
<svg width="51px" height="34px" viewBox="0 0 51 34" version="1.1" xmlns="http://www.w3.org/2000/svg" xmlns:xlink="http://www.w3.org/1999/xlink">
    <title>3-2SLEAF</title>
    <defs>
        <linearGradient x1="97.4211836%" y1="50%" x2="0%" y2="50%" id="linearGradient-1">
            <stop stop-color="#BE713A" offset="0.297749126%"></stop>
            <stop stop-color="#BB6D35" offset="15.7506556%"></stop>
            <stop stop-color="#C6834F" offset="49.6694712%"></stop>
            <stop stop-color="#BB6D35" offset="83.2550262%"></stop>
            <stop stop-color="#BE713A" offset="100%"></stop>
        </linearGradient>
        <linearGradient x1="50%" y1="0%" x2="50%" y2="100%" id="linearGradient-2">
            <stop stop-color="#FFD9BC" stop-opacity="0" offset="0%"></stop>
            <stop stop-color="#FFD9BC" offset="100%"></stop>
        </linearGradient>
        <linearGradient x1="62.5095608%" y1="87.4904392%" x2="62.5095608%" y2="-5.69599934e-13%" id="linearGradient-3">
            <stop stop-color="#FFDFC7" offset="0%"></stop>
            <stop stop-color="#FFD9BC" stop-opacity="0" offset="100%"></stop>
        </linearGradient>
    </defs>
    <g id="页面-1" stroke="none" stroke-width="1" fill="none" fill-rule="evenodd">
        <g id="图标" transform="translate(-141.000000, -214.000000)">
            <g id="3-2SLEAF" transform="translate(141.356000, 215.254174)">
                <path d="M42.1954542,2.82076284 C44.5543453,3.80351481 46.3400674,4.93633717 47.5557887,6.14315603 C48.7713324,7.34979865 49.4207064,8.63288979 49.5183771,9.91962214 L49.5302286,10.1609093 L49.7133816,21.0015383 C49.7877818,22.4383544 49.1845798,23.884894 47.8831905,25.2409918 C46.6604982,26.5150841 44.817113,27.7116965 42.3478994,28.7437667 C32.6541026,32.7953687 16.9385044,32.795367 7.24527866,28.7437687 C4.83400128,27.7360278 3.0196526,26.5714546 1.79860671,25.3310805 C0.577042662,24.09018 -0.0546732766,22.7709923 -0.111814086,21.453539 L-0.115798414,21.2065564 L-0.120861477,10.0779546 C-0.0644253743,8.72599776 0.600564901,7.3734254 1.89129396,6.10627137 C3.1064777,4.91328282 4.87980526,3.79351852 7.21469321,2.82076662 C16.8742338,-1.20411052 32.5359227,-1.20411052 42.1954542,2.82076284 Z M41.2540389,3.97600176 C32.1141563,0.417586426 17.2960002,0.417586426 8.15613123,3.97599646 C5.98750767,4.82012058 4.33627154,5.78773886 3.20530586,6.82304983 C2.1347834,7.80302976 1.53352032,8.840866 1.418548,9.88923143 L1.418548,9.88923143 L47.9988477,9.96244879 L47.9735207,9.75031889 C47.8243573,8.76110419 47.2419463,7.78299216 46.2407549,6.8561025 C45.1090012,5.80834007 43.4457491,4.8291122 41.2540389,3.97600176 Z" id="形状结合" stroke="#DE8635" stroke-width="0.4" fill-rule="nonzero"></path>
                <path d="M49.1491491,10.4507962 L49.1491491,21.0215171 C49.2196463,22.3247752 48.6507064,23.6259342 47.4758976,24.8501302 C46.2958153,26.0798214 44.5120409,27.2273829 42.130211,28.2229289 C32.5566496,32.2242776 17.0359762,32.2242808 7.46295379,28.2229253 C5.08012896,27.2270756 3.29598836,26.079142 2.11731705,24.84902 C0.94483431,23.6253567 0.379093136,22.3247842 0.455229061,21.02209 L0.455229061,21.02209 L0.443856822,10.4507962 L49.1491491,10.4507962 Z" id="路径" stroke="url(#linearGradient-2)" stroke-width="0.729" fill="url(#linearGradient-1)" fill-rule="nonzero"></path>
                <path d="M7.3168032,3.02534809 C16.9680011,-1.00844936 32.6145383,-1.00844936 42.2651764,3.02534809 C51.9158146,7.05914554 51.9158146,13.5998541 42.2651764,17.6336516 C32.6145383,21.667449 16.9680011,21.667449 7.3168032,17.6336516 C-2.33383497,13.5998541 -2.33383497,7.05914554 7.3168032,3.02534809 Z" id="路径" fill="#E6BF9F" fill-rule="nonzero"></path>
                <path d="M42.0397145,3.00538154 C32.4226574,-1.00179385 16.8298499,-1.00179385 7.21279283,3.00538154 C-2.40426428,7.0120023 -2.40426428,13.5088954 7.21279283,17.5155161 C16.8298499,21.5226915 32.4226574,21.5226915 42.0397145,17.5155161 C51.6567717,13.5088954 51.6567717,7.0120023 42.0397145,3.00538154 Z M41.2477611,3.7896232 C32.0678175,0.215610994 17.1846899,0.215610994 8.00474626,3.7896232 C-1.17575701,7.36308078 -1.17575701,13.1578169 8.00474626,16.7312745 C17.1846899,20.3052867 32.0678175,20.3052867 41.2477611,16.7312745 C50.4282644,13.1578169 50.4282644,7.36308078 41.2477611,3.7896232 Z" id="形状" fill="url(#linearGradient-3)"></path>
                <g id="编组-4" transform="translate(10.000000, 21.000000)" fill-rule="nonzero">
                    <g id="S-LEAF" transform="translate(0.000000, 1.000000)" fill="#403C3C">
                        <path d="M2.295,6.528 C3.7485,6.528 4.607,5.6525 4.607,4.624 C4.607,3.7145 4.1055,3.23 3.3405,2.9155 L2.516,2.567 C1.9805,2.3545 1.53,2.193 1.53,1.7425 C1.53,1.326 1.887,1.0795 2.4395,1.0795 C2.958,1.0795 3.3745,1.2665 3.774,1.598 L4.4115,0.8075 C3.9015,0.289 3.1705,0 2.4395,0 C1.1645,0 0.2635,0.7905 0.2635,1.819 C0.2635,2.737 0.901,3.247 1.5385,3.5105 L2.38,3.8675 C2.941,4.1055 3.3235,4.25 3.3235,4.7175 C3.3235,5.1595 2.975,5.44 2.3205,5.44 C1.768,5.44 1.173,5.1595 0.7225,4.743 L0,5.61 C0.612,6.1965 1.4535,6.528 2.295,6.528 Z" id="路径"></path>
                        <polygon id="路径" points="5.3635 4.42 7.684 4.42 7.684 3.5275 5.3635 3.5275"></polygon>
                        <polygon id="路径" points="8.8655 6.409 12.6735 6.409 12.6735 5.355 10.1235 5.355 10.1235 0.119 8.8655 0.119"></polygon>
                        <polygon id="路径" points="13.77 6.409 17.7225 6.409 17.7225 5.355 15.028 5.355 15.028 3.672 17.238 3.672 17.238 2.618 15.028 2.618 15.028 1.1645 17.629 1.1645 17.629 0.119 13.77 0.119"></polygon>
                        <path d="M20.179,3.8165 L20.366,3.128 C20.553,2.4735 20.74,1.7595 20.9015,1.071 L20.9355,1.071 C21.1225,1.751 21.2925,2.4735 21.488,3.128 L21.675,3.8165 L20.179,3.8165 Z M22.389,6.409 L23.7065,6.409 L21.6835,0.119 L20.2045,0.119 L18.19,6.409 L19.465,6.409 L19.907,4.794 L21.947,4.794 L22.389,6.409 Z" id="形状"></path>
                        <polygon id="路径" points="24.446 6.409 25.704 6.409 25.704 3.859 27.9395 3.859 27.9395 2.805 25.704 2.805 25.704 1.1645 28.322 1.1645 28.322 0.119 24.446 0.119"></polygon>
                    </g>
                    <g id="S-LEAF备份" fill="#FFFFFF">
                        <path d="M2.295,6.528 C3.7485,6.528 4.607,5.6525 4.607,4.624 C4.607,3.7145 4.1055,3.23 3.3405,2.9155 L2.516,2.567 C1.9805,2.3545 1.53,2.193 1.53,1.7425 C1.53,1.326 1.887,1.0795 2.4395,1.0795 C2.958,1.0795 3.3745,1.2665 3.774,1.598 L4.4115,0.8075 C3.9015,0.289 3.1705,0 2.4395,0 C1.1645,0 0.2635,0.7905 0.2635,1.819 C0.2635,2.737 0.901,3.247 1.5385,3.5105 L2.38,3.8675 C2.941,4.1055 3.3235,4.25 3.3235,4.7175 C3.3235,5.1595 2.975,5.44 2.3205,5.44 C1.768,5.44 1.173,5.1595 0.7225,4.743 L0,5.61 C0.612,6.1965 1.4535,6.528 2.295,6.528 Z" id="路径"></path>
                        <polygon id="路径" points="5.3635 4.42 7.684 4.42 7.684 3.5275 5.3635 3.5275"></polygon>
                        <polygon id="路径" points="8.8655 6.409 12.6735 6.409 12.6735 5.355 10.1235 5.355 10.1235 0.119 8.8655 0.119"></polygon>
                        <polygon id="路径" points="13.77 6.409 17.7225 6.409 17.7225 5.355 15.028 5.355 15.028 3.672 17.238 3.672 17.238 2.618 15.028 2.618 15.028 1.1645 17.629 1.1645 17.629 0.119 13.77 0.119"></polygon>
                        <path d="M20.179,3.8165 L20.366,3.128 C20.553,2.4735 20.74,1.7595 20.9015,1.071 L20.9355,1.071 C21.1225,1.751 21.2925,2.4735 21.488,3.128 L21.675,3.8165 L20.179,3.8165 Z M22.389,6.409 L23.7065,6.409 L21.6835,0.119 L20.2045,0.119 L18.19,6.409 L19.465,6.409 L19.907,4.794 L21.947,4.794 L22.389,6.409 Z" id="形状"></path>
                        <polygon id="路径" points="24.446 6.409 25.704 6.409 25.704 3.859 27.9395 3.859 27.9395 2.805 25.704 2.805 25.704 1.1645 28.322 1.1645 28.322 0.119 24.446 0.119"></polygon>
                    </g>
                </g>
                <path d="M26.6173814,11.6326203 L31.3361601,13.4712033 L29.1316564,14.6765534 L26.8203977,13.6051452 L26.8203977,16.8651638 L23.3039122,16.8651638 L23.3039122,13.5914055 L20.766808,14.6683175 L18.0320791,13.5057831 L22.5753871,11.6326203 L26.6173814,11.6326203 Z M33.5355539,7.16330357 L36.2141587,8.68130115 L34.9805016,9.11854317 L42.5911882,9.11854317 L42.5911882,10.949623 L34.2455251,10.949623 L35.9046141,11.8898487 L33.9981121,12.9013081 L29.3312867,10.7103518 L29.3312867,9.21227275 L33.5355539,7.16330357 Z M15.9133235,7.16750989 L20.0934672,9.51791369 L20.0934672,10.3978425 L16.1230643,12.768162 L13.9902982,11.4074383 L15.2589346,10.8015404 L6.83356564,10.8015404 L6.83356564,8.97046053 L14.7757089,8.97046053 L13.143055,8.34515225 L15.9133235,7.16750989 Z M24.4829226,8.67429526 C25.2885542,8.67429526 26.0183852,8.81610882 26.5471835,9.04101681 C26.8391679,9.16520338 27.0723218,9.31617587 27.232665,9.48068959 C27.1412501,10.8103139 26.8972434,11.0165058 26.6315253,11.1373641 L26.5470453,11.1739041 C26.0182496,11.3989165 25.2884783,11.5408443 24.4829226,11.5408443 C23.6749052,11.5408443 22.944068,11.3990465 22.4146864,11.1742373 C22.122148,11.0500067 21.8886505,10.8989699 21.7280802,10.7344037 C21.8290912,9.26402408 22.1168931,9.16702793 22.4145479,9.04068385 C22.943932,8.81597884 23.674829,8.67429526 24.4829226,8.67429526 Z M26.5853469,3.05436513 L26.5853469,6.6184191 L29.3732853,5.38818983 L31.2847607,6.60541168 L26.1556344,8.73060197 L23.2747181,8.73060197 L17.8452847,6.75151158 L20.0497652,5.54617415 L22.839407,6.50377471 L22.839407,3.05436513 L26.5853469,3.05436513 Z" id="形状" stroke="#BB885F" stroke-width="0.5" fill="#FFFFFF"></path>
            </g>
        </g>
    </g>
</svg>