<?xml version="1.0" encoding="UTF-8"?>
<svg width="52px" height="34px" viewBox="0 0 52 34" version="1.1" xmlns="http://www.w3.org/2000/svg" xmlns:xlink="http://www.w3.org/1999/xlink">
    <title>3-6SLEAF</title>
    <defs>
        <linearGradient x1="97.4211836%" y1="50%" x2="0%" y2="50%" id="linearGradient-1">
            <stop stop-color="#FFC65A" offset="0%"></stop>
            <stop stop-color="#FFC24E" offset="15.7506556%"></stop>
            <stop stop-color="#FFD27C" offset="49.6694712%"></stop>
            <stop stop-color="#FFC24E" offset="83.2550262%"></stop>
            <stop stop-color="#FFC65A" offset="100%"></stop>
        </linearGradient>
        <linearGradient x1="50%" y1="0%" x2="50%" y2="100%" id="linearGradient-2">
            <stop stop-color="#FFEDC6" stop-opacity="0" offset="0%"></stop>
            <stop stop-color="#FFEDC6" offset="100%"></stop>
        </linearGradient>
        <linearGradient x1="62.5095608%" y1="87.4904392%" x2="62.5095608%" y2="0.924901661%" id="linearGradient-3">
            <stop stop-color="#FFEDC6" offset="0%"></stop>
            <stop stop-color="#FFEDC6" stop-opacity="0" offset="100%"></stop>
        </linearGradient>
    </defs>
    <g id="页面-1" stroke="none" stroke-width="1" fill="none" fill-rule="evenodd">
        <g id="图标" transform="translate(-498.000000, -214.000000)">
            <g id="3-6SLEAF" transform="translate(498.739298, 215.254174)">
                <path d="M42.5514542,2.82076284 C44.9103453,3.80351481 46.6960674,4.93633717 47.9117887,6.14315603 C49.1273324,7.34979865 49.7767064,8.63288979 49.8743771,9.91962214 L49.8862286,10.1609093 L50.0693816,21.0015383 C50.1437818,22.4383544 49.5405798,23.884894 48.2391905,25.2409918 C47.0164982,26.5150841 45.173113,27.7116965 42.7038994,28.7437667 C33.0101026,32.7953687 17.2945044,32.795367 7.60127866,28.7437687 C5.19000128,27.7360278 3.3756526,26.5714546 2.15460671,25.3310805 C0.933042662,24.09018 0.301326723,22.7709923 0.244185914,21.453539 L0.240201586,21.2065564 L0.235138523,10.0779546 C0.291574626,8.72599776 0.956564901,7.3734254 2.24729396,6.10627137 C3.4624777,4.91328282 5.23580526,3.79351852 7.57069321,2.82076662 C17.2302338,-1.20411052 32.8919227,-1.20411052 42.5514542,2.82076284 Z M41.6100389,3.97600176 C32.4701563,0.417586426 17.6520002,0.417586426 8.51213123,3.97599646 C6.34350767,4.82012058 4.69227154,5.78773886 3.56130586,6.82304983 C2.4907834,7.80302976 1.88952032,8.840866 1.774548,9.88923143 L1.774548,9.88923143 L48.3548477,9.96244879 L48.3295207,9.75031889 C48.1803573,8.76110419 47.5979463,7.78299216 46.5967549,6.8561025 C45.4650012,5.80834007 43.8017491,4.8291122 41.6100389,3.97600176 Z" id="形状结合" stroke="#E0A736" stroke-width="0.4" fill-rule="nonzero"></path>
                <path d="M49.5051491,10.4507962 L49.5051491,21.0215171 C49.5756463,22.3247752 49.0067064,23.6259342 47.8318976,24.8501302 C46.6518153,26.0798214 44.8680409,27.2273829 42.486211,28.2229289 C32.9126496,32.2242776 17.3919762,32.2242808 7.81895379,28.2229253 C5.43612896,27.2270756 3.65198836,26.079142 2.47331705,24.84902 C1.30083431,23.6253567 0.735093136,22.3247842 0.811229061,21.02209 L0.811229061,21.02209 L0.799856822,10.4507962 L49.5051491,10.4507962 Z" id="路径" stroke="url(#linearGradient-2)" stroke-width="0.729" fill="url(#linearGradient-1)" fill-rule="nonzero"></path>
                <path d="M7.23797863,3.02534809 C16.8891765,-1.00844936 32.5357137,-1.00844936 42.1863519,3.02534809 C51.83699,7.05914554 51.83699,13.5998541 42.1863519,17.6336516 C32.5357137,21.667449 16.8891765,21.667449 7.23797863,17.6336516 C-2.41265954,13.5998541 -2.41265954,7.05914554 7.23797863,3.02534809 Z" id="路径" fill="#FADD9E" fill-rule="nonzero"></path>
                <path d="M42.4745391,3.00538154 C32.857482,-1.00179385 17.2646745,-1.00179385 7.64761741,3.00538154 C-1.9694397,7.0120023 -1.9694397,13.5088954 7.64761741,17.5155161 C17.2646745,21.5226915 32.857482,21.5226915 42.4745391,17.5155161 C52.0915962,13.5088954 52.0915962,7.0120023 42.4745391,3.00538154 Z M41.6825857,3.7896232 C32.5026421,0.215610994 17.6195144,0.215610994 8.43957084,3.7896232 C-0.740932438,7.36308078 -0.740932438,13.1578169 8.43957084,16.7312745 C17.6195144,20.3052867 32.5026421,20.3052867 41.6825857,16.7312745 C50.863089,13.1578169 50.863089,7.36308078 41.6825857,3.7896232 Z" id="形状" fill="url(#linearGradient-3)"></path>
                <g id="编组-4" transform="translate(11.000000, 22.000000)" fill-rule="nonzero">
                    <g id="S-LEAF" transform="translate(0.000000, 1.000000)" fill="#403C3C">
                        <path d="M2.295,6.528 C3.7485,6.528 4.607,5.6525 4.607,4.624 C4.607,3.7145 4.1055,3.23 3.3405,2.9155 L2.516,2.567 C1.9805,2.3545 1.53,2.193 1.53,1.7425 C1.53,1.326 1.887,1.0795 2.4395,1.0795 C2.958,1.0795 3.3745,1.2665 3.774,1.598 L4.4115,0.8075 C3.9015,0.289 3.1705,0 2.4395,0 C1.1645,0 0.2635,0.7905 0.2635,1.819 C0.2635,2.737 0.901,3.247 1.5385,3.5105 L2.38,3.8675 C2.941,4.1055 3.3235,4.25 3.3235,4.7175 C3.3235,5.1595 2.975,5.44 2.3205,5.44 C1.768,5.44 1.173,5.1595 0.7225,4.743 L0,5.61 C0.612,6.1965 1.4535,6.528 2.295,6.528 Z" id="路径"></path>
                        <polygon id="路径" points="5.3635 4.42 7.684 4.42 7.684 3.5275 5.3635 3.5275"></polygon>
                        <polygon id="路径" points="8.8655 6.409 12.6735 6.409 12.6735 5.355 10.1235 5.355 10.1235 0.119 8.8655 0.119"></polygon>
                        <polygon id="路径" points="13.77 6.409 17.7225 6.409 17.7225 5.355 15.028 5.355 15.028 3.672 17.238 3.672 17.238 2.618 15.028 2.618 15.028 1.1645 17.629 1.1645 17.629 0.119 13.77 0.119"></polygon>
                        <path d="M20.179,3.8165 L20.366,3.128 C20.553,2.4735 20.74,1.7595 20.9015,1.071 L20.9355,1.071 C21.1225,1.751 21.2925,2.4735 21.488,3.128 L21.675,3.8165 L20.179,3.8165 Z M22.389,6.409 L23.7065,6.409 L21.6835,0.119 L20.2045,0.119 L18.19,6.409 L19.465,6.409 L19.907,4.794 L21.947,4.794 L22.389,6.409 Z" id="形状"></path>
                        <polygon id="路径" points="24.446 6.409 25.704 6.409 25.704 3.859 27.9395 3.859 27.9395 2.805 25.704 2.805 25.704 1.1645 28.322 1.1645 28.322 0.119 24.446 0.119"></polygon>
                    </g>
                    <g id="S-LEAF备份" fill="#FFFFFF" stroke="#986809" stroke-width="0.1">
                        <path d="M2.295,6.528 C3.7485,6.528 4.607,5.6525 4.607,4.624 C4.607,3.7145 4.1055,3.23 3.3405,2.9155 L2.516,2.567 C1.9805,2.3545 1.53,2.193 1.53,1.7425 C1.53,1.326 1.887,1.0795 2.4395,1.0795 C2.958,1.0795 3.3745,1.2665 3.774,1.598 L4.4115,0.8075 C3.9015,0.289 3.1705,0 2.4395,0 C1.1645,0 0.2635,0.7905 0.2635,1.819 C0.2635,2.737 0.901,3.247 1.5385,3.5105 L2.38,3.8675 C2.941,4.1055 3.3235,4.25 3.3235,4.7175 C3.3235,5.1595 2.975,5.44 2.3205,5.44 C1.768,5.44 1.173,5.1595 0.7225,4.743 L0,5.61 C0.612,6.1965 1.4535,6.528 2.295,6.528 Z" id="路径"></path>
                        <polygon id="路径" points="5.3635 4.42 7.684 4.42 7.684 3.5275 5.3635 3.5275"></polygon>
                        <polygon id="路径" points="8.8655 6.409 12.6735 6.409 12.6735 5.355 10.1235 5.355 10.1235 0.119 8.8655 0.119"></polygon>
                        <polygon id="路径" points="13.77 6.409 17.7225 6.409 17.7225 5.355 15.028 5.355 15.028 3.672 17.238 3.672 17.238 2.618 15.028 2.618 15.028 1.1645 17.629 1.1645 17.629 0.119 13.77 0.119"></polygon>
                        <path d="M20.179,3.8165 L20.366,3.128 C20.553,2.4735 20.74,1.7595 20.9015,1.071 L20.9355,1.071 C21.1225,1.751 21.2925,2.4735 21.488,3.128 L21.675,3.8165 L20.179,3.8165 Z M22.389,6.409 L23.7065,6.409 L21.6835,0.119 L20.2045,0.119 L18.19,6.409 L19.465,6.409 L19.907,4.794 L21.947,4.794 L22.389,6.409 Z" id="形状"></path>
                        <polygon id="路径" points="24.446 6.409 25.704 6.409 25.704 3.859 27.9395 3.859 27.9395 2.805 25.704 2.805 25.704 1.1645 28.322 1.1645 28.322 0.119 24.446 0.119"></polygon>
                    </g>
                </g>
                <path d="M26.9733814,11.6326203 L31.6921601,13.4712033 L29.4876564,14.6765534 L27.1763977,13.6051452 L27.1763977,16.8651638 L23.6599122,16.8651638 L23.6599122,13.5914055 L21.122808,14.6683175 L18.3880791,13.5057831 L22.9313871,11.6326203 L26.9733814,11.6326203 Z M33.8915539,7.16330357 L36.5701587,8.68130115 L35.3365016,9.11854317 L42.9471882,9.11854317 L42.9471882,10.949623 L34.6015251,10.949623 L36.2606141,11.8898487 L34.3541121,12.9013081 L29.6872867,10.7103518 L29.6872867,9.21227275 L33.8915539,7.16330357 Z M16.2693235,7.16750989 L20.4494672,9.51791369 L20.4494672,10.3978425 L16.4790643,12.768162 L14.3462982,11.4074383 L15.6149346,10.8015404 L7.18956564,10.8015404 L7.18956564,8.97046053 L15.1317089,8.97046053 L13.499055,8.34515225 L16.2693235,7.16750989 Z M24.8389226,8.67429526 C25.6445542,8.67429526 26.3743852,8.81610882 26.9031835,9.04101681 C27.1951679,9.16520338 27.4283218,9.31617587 27.588665,9.48068959 C27.4972501,10.8103139 27.2532434,11.0165058 26.9875253,11.1373641 L26.9030453,11.1739041 C26.3742496,11.3989165 25.6444783,11.5408443 24.8389226,11.5408443 C24.0309052,11.5408443 23.300068,11.3990465 22.7706864,11.1742373 C22.478148,11.0500067 22.2446505,10.8989699 22.0840802,10.7344037 C22.1850912,9.26402408 22.4728931,9.16702793 22.7705479,9.04068385 C23.299932,8.81597884 24.030829,8.67429526 24.8389226,8.67429526 Z M26.9413469,3.05436513 L26.9413469,6.6184191 L29.7292853,5.38818983 L31.6407607,6.60541168 L26.5116344,8.73060197 L23.6307181,8.73060197 L18.2012847,6.75151158 L20.4057652,5.54617415 L23.195407,6.50377471 L23.195407,3.05436513 L26.9413469,3.05436513 Z" id="形状" stroke="#EABE60" stroke-width="0.5" fill="#FFFFFF"></path>
            </g>
        </g>
    </g>
</svg>