<?xml version="1.0" encoding="UTF-8"?>
<svg width="51px" height="33px" viewBox="0 0 51 33" version="1.1" xmlns="http://www.w3.org/2000/svg" xmlns:xlink="http://www.w3.org/1999/xlink">
    <title>6-2 SPINE</title>
    <defs>
        <linearGradient x1="97.4211836%" y1="50%" x2="0%" y2="50%" id="linearGradient-1">
            <stop stop-color="#BE713A" offset="0.297749126%"></stop>
            <stop stop-color="#BB6D35" offset="15.7506556%"></stop>
            <stop stop-color="#C6834F" offset="49.6694712%"></stop>
            <stop stop-color="#BB6D35" offset="83.2550262%"></stop>
            <stop stop-color="#BE713A" offset="100%"></stop>
        </linearGradient>
        <linearGradient x1="50%" y1="0%" x2="50%" y2="100%" id="linearGradient-2">
            <stop stop-color="#FFD9BC" stop-opacity="0" offset="0%"></stop>
            <stop stop-color="#FFD9BC" offset="100%"></stop>
        </linearGradient>
        <linearGradient x1="62.5095608%" y1="87.4904392%" x2="62.5095608%" y2="-5.69599934e-13%" id="linearGradient-3">
            <stop stop-color="#FCECDE" offset="0%"></stop>
            <stop stop-color="#FCECDE" stop-opacity="0" offset="100%"></stop>
        </linearGradient>
    </defs>
    <g id="页面-1" stroke="none" stroke-width="1" fill="none" fill-rule="evenodd">
        <g id="图标" transform="translate(-140.000000, -488.000000)">
            <g id="6-2-SPINE" transform="translate(141.000000, 489.000000)">
                <path d="M42.1166297,2.82076284 C44.4755207,3.80351481 46.2612428,4.93633717 47.4769641,6.14315603 C48.6925078,7.34979865 49.3418818,8.63288979 49.4395525,9.91962214 L49.4514041,10.1609093 L49.634557,21.0015383 C49.7089572,22.4383544 49.1057552,23.884894 47.8043659,25.2409918 C46.5816736,26.5150841 44.7382884,27.7116965 42.2690748,28.7437667 C32.5752781,32.7953687 16.8596798,32.795367 7.16645408,28.7437687 C4.75517671,27.7360278 2.94082803,26.5714546 1.71978214,25.3310805 C0.498218088,24.09018 -0.13349785,22.7709923 -0.190638659,21.453539 L-0.194622987,21.2065564 L-0.19968605,10.0779546 C-0.143249948,8.72599776 0.521740328,7.3734254 1.81246938,6.10627137 C3.02765313,4.91328282 4.80098068,3.79351852 7.13586864,2.82076662 C16.7954092,-1.20411052 32.4570982,-1.20411052 42.1166297,2.82076284 Z M41.1752143,3.97600176 C32.0353317,0.417586426 17.2171756,0.417586426 8.07730665,3.97599646 C5.90868309,4.82012058 4.25744697,5.78773886 3.12648129,6.82304983 C2.05595882,7.80302976 1.45469574,8.840866 1.33972343,9.88923143 L1.33972343,9.88923143 L47.9200231,9.96244879 L47.8946961,9.75031889 C47.7455327,8.76110419 47.1631217,7.78299216 46.1619303,6.8561025 C45.0301766,5.80834007 43.3669245,4.8291122 41.1752143,3.97600176 Z" id="形状结合" stroke="#DE8635" stroke-width="0.4" fill-rule="nonzero"></path>
                <path d="M49.0701847,10.3645 L49.0701847,20.935221 C49.1406818,22.238479 48.5717419,23.5396381 47.3969331,24.763834 C46.2168508,25.9935252 44.4330764,27.1410868 42.0512465,28.1366328 C32.4776851,32.1379814 16.9570117,32.1379846 7.38398929,28.1366292 C5.00116447,27.1407794 3.21702387,25.9928458 2.03835255,24.7627238 C0.865869816,23.5390606 0.300128641,22.238488 0.376264566,20.9357939 L0.376264566,20.9357939 L0.364892328,10.3645 L49.0701847,10.3645 Z" id="路径" stroke="url(#linearGradient-2)" stroke-width="0.729" fill="url(#linearGradient-1)" fill-rule="nonzero"></path>
                <path d="M7.23797863,3.02534809 C16.8891765,-1.00844936 32.5357137,-1.00844936 42.1863519,3.02534809 C51.83699,7.05914554 51.83699,13.5998541 42.1863519,17.6336516 C32.5357137,21.667449 16.8891765,21.667449 7.23797863,17.6336516 C-2.41265954,13.5998541 -2.41265954,7.05914554 7.23797863,3.02534809 Z" id="路径" fill="#F8BD8C" fill-rule="nonzero"></path>
                <path d="M42.0397145,3.00538154 C32.4226574,-1.00179385 16.8298499,-1.00179385 7.21279283,3.00538154 C-2.40426428,7.0120023 -2.40426428,13.5088954 7.21279283,17.5155161 C16.8298499,21.5226915 32.4226574,21.5226915 42.0397145,17.5155161 C51.6567717,13.5088954 51.6567717,7.0120023 42.0397145,3.00538154 Z M41.2477611,3.7896232 C32.0678175,0.215610994 17.1846899,0.215610994 8.00474626,3.7896232 C-1.17575701,7.36308078 -1.17575701,13.1578169 8.00474626,16.7312745 C17.1846899,20.3052867 32.0678175,20.3052867 41.2477611,16.7312745 C50.4282644,13.1578169 50.4282644,7.36308078 41.2477611,3.7896232 Z" id="形状" fill="url(#linearGradient-3)"></path>
                <g id="编组" transform="translate(12.670750, 21.591000)" fill-rule="nonzero">
                    <g id="SPINE" transform="translate(0.000000, 1.000000)" fill="#403C3C" fill-opacity="0.8">
                        <path d="M2.295,6.528 C3.7485,6.528 4.607,5.6525 4.607,4.624 C4.607,3.7145 4.1055,3.23 3.3405,2.9155 L2.516,2.567 C1.9805,2.3545 1.53,2.193 1.53,1.7425 C1.53,1.326 1.887,1.0795 2.4395,1.0795 C2.958,1.0795 3.3745,1.2665 3.774,1.598 L4.4115,0.8075 C3.9015,0.289 3.1705,0 2.4395,0 C1.1645,0 0.2635,0.7905 0.2635,1.819 C0.2635,2.737 0.901,3.247 1.5385,3.5105 L2.38,3.8675 C2.941,4.1055 3.3235,4.25 3.3235,4.7175 C3.3235,5.1595 2.975,5.44 2.3205,5.44 C1.768,5.44 1.173,5.1595 0.7225,4.743 L0,5.61 C0.612,6.1965 1.4535,6.528 2.295,6.528 Z" id="路径"></path>
                        <path d="M5.7205,6.409 L6.9785,6.409 L6.9785,4.1735 L7.82,4.1735 C9.1715,4.1735 10.251,3.5275 10.251,2.091 C10.251,0.6035 9.18,0.119 7.786,0.119 L5.7205,0.119 L5.7205,6.409 Z M6.9785,3.179 L6.9785,1.1135 L7.6925,1.1135 C8.5595,1.1135 9.0185,1.36 9.0185,2.091 C9.0185,2.8135 8.602,3.179 7.735,3.179 L6.9785,3.179 Z" id="形状"></path>
                        <polygon id="路径" points="11.39 6.409 12.648 6.409 12.648 0.119 11.39 0.119"></polygon>
                        <path d="M14.195,6.409 L15.385,6.409 L15.385,3.8845 C15.385,3.162 15.2915,2.3715 15.232,1.6915 L15.2745,1.6915 L15.912,3.043 L17.731,6.409 L19.006,6.409 L19.006,0.119 L17.816,0.119 L17.816,2.6265 C17.816,3.3405 17.9095,4.1735 17.9775,4.828 L17.935,4.828 L17.306,3.468 L15.4785,0.119 L14.195,0.119 L14.195,6.409 Z" id="路径"></path>
                        <polygon id="路径" points="20.5615 6.409 24.514 6.409 24.514 5.355 21.8195 5.355 21.8195 3.672 24.0295 3.672 24.0295 2.618 21.8195 2.618 21.8195 1.1645 24.4205 1.1645 24.4205 0.119 20.5615 0.119"></polygon>
                    </g>
                    <g id="SPINE备份" fill="#FFFFFF">
                        <path d="M2.295,6.528 C3.7485,6.528 4.607,5.6525 4.607,4.624 C4.607,3.7145 4.1055,3.23 3.3405,2.9155 L2.516,2.567 C1.9805,2.3545 1.53,2.193 1.53,1.7425 C1.53,1.326 1.887,1.0795 2.4395,1.0795 C2.958,1.0795 3.3745,1.2665 3.774,1.598 L4.4115,0.8075 C3.9015,0.289 3.1705,0 2.4395,0 C1.1645,0 0.2635,0.7905 0.2635,1.819 C0.2635,2.737 0.901,3.247 1.5385,3.5105 L2.38,3.8675 C2.941,4.1055 3.3235,4.25 3.3235,4.7175 C3.3235,5.1595 2.975,5.44 2.3205,5.44 C1.768,5.44 1.173,5.1595 0.7225,4.743 L0,5.61 C0.612,6.1965 1.4535,6.528 2.295,6.528 Z" id="路径"></path>
                        <path d="M5.7205,6.409 L6.9785,6.409 L6.9785,4.1735 L7.82,4.1735 C9.1715,4.1735 10.251,3.5275 10.251,2.091 C10.251,0.6035 9.18,0.119 7.786,0.119 L5.7205,0.119 L5.7205,6.409 Z M6.9785,3.179 L6.9785,1.1135 L7.6925,1.1135 C8.5595,1.1135 9.0185,1.36 9.0185,2.091 C9.0185,2.8135 8.602,3.179 7.735,3.179 L6.9785,3.179 Z" id="形状"></path>
                        <polygon id="路径" points="11.39 6.409 12.648 6.409 12.648 0.119 11.39 0.119"></polygon>
                        <path d="M14.195,6.409 L15.385,6.409 L15.385,3.8845 C15.385,3.162 15.2915,2.3715 15.232,1.6915 L15.2745,1.6915 L15.912,3.043 L17.731,6.409 L19.006,6.409 L19.006,0.119 L17.816,0.119 L17.816,2.6265 C17.816,3.3405 17.9095,4.1735 17.9775,4.828 L17.935,4.828 L17.306,3.468 L15.4785,0.119 L14.195,0.119 L14.195,6.409 Z" id="路径"></path>
                        <polygon id="路径" points="20.5615 6.409 24.514 6.409 24.514 5.355 21.8195 5.355 21.8195 3.672 24.0295 3.672 24.0295 2.618 21.8195 2.618 21.8195 1.1645 24.4205 1.1645 24.4205 0.119 20.5615 0.119"></polygon>
                    </g>
                </g>
                <path d="M16.8268671,11.8852825 L25.1873354,14.9927689 L26.7829646,14.5311099 L28.2246851,15.9658562 L29.0688259,17.3779257 L25.1053462,17.5026112 L22.4988806,17.3148699 L14.9338365,13.2886205 L16.8268671,11.8852825 Z M27.2642426,7.77031626 L35.624711,10.8778027 L37.219997,10.416243 L38.6675188,11.8506586 L39.5118103,13.2629803 L35.5405413,13.3877128 L32.9348862,13.1545309 L25.3695039,9.17492058 L27.2642426,7.77031626 Z M13.5760769,6.14469715 L16.1170237,6.37259023 C16.237905,6.38858782 16.3580992,6.4336484 16.444091,6.49329764 C16.5505751,6.56716164 16.6270234,6.66682136 16.6584012,6.77046712 C16.6937395,6.8871949 16.6847772,7.00448357 16.625534,7.12189728 C16.6231005,7.12672024 16.6206167,7.13147484 16.6180741,7.1361433 C16.6153346,7.14043722 16.6125637,7.14466614 16.6097641,7.14882744 C16.555802,7.22903772 16.4745641,7.30887095 16.375704,7.36230642 C16.366816,7.36711052 16.3578275,7.37167858 16.3487577,7.37600757 C16.3442581,7.37702319 16.3397419,7.3782756 16.3352407,7.3797624 C16.3234882,7.38364446 16.3126054,7.38887094 16.3030683,7.39514176 C16.3168338,7.40518681 16.3326089,7.41342304 16.3479296,7.41977862 L16.3479296,7.41977862 L23.3533959,10.1611251 C23.4593411,10.2048692 23.5460899,10.2678913 23.6076822,10.3376451 C23.6918148,10.4329261 23.7262469,10.5404871 23.7262469,10.6473083 C23.7262469,10.7642378 23.6901497,10.8691221 23.6076822,10.9625173 C23.5436565,11.035027 23.4533048,11.0995328 23.3442598,11.1371445 L23.3442598,11.1371445 L21.8776022,11.7196053 C21.7846979,11.7510748 21.6749151,11.773541 21.5734545,11.773541 C21.4647135,11.773541 21.3559068,11.7507135 21.2638936,11.7174531 L21.2638936,11.7174531 L13.3855801,8.62680057 C13.3477798,8.61119306 13.3065599,8.6069026 13.2627292,8.6069026 C13.2188985,8.6069026 13.1776786,8.61119306 13.1361827,8.62829208 L13.1361827,8.62829208 L12.0396855,9.06070189 C11.9619018,9.09153365 11.8766107,9.10838515 11.7909082,9.11610574 C11.7019851,9.12411647 11.6131621,9.11634981 11.5315728,9.09395362 C11.4390534,9.07547848 11.355521,9.04001423 11.2865985,8.99087932 C11.2077276,8.94027125 11.1494595,8.87864353 11.1081175,8.80075329 L11.1081175,8.80075329 L10.4175126,7.65280146 L9.80390211,6.62078201 C9.75176327,6.5227731 9.73665667,6.41164683 9.76165503,6.30017274 L9.76165503,6.30017274 L13.5760769,6.14469715 Z M24.0085554,2.0292815 L26.5602658,2.26320547 C26.6822259,2.27939432 26.7948104,2.32376706 26.8814666,2.38387718 C26.9884314,2.4580746 27.0584173,2.55612851 27.0901803,2.66104667 C27.1273433,2.78380156 27.1139923,2.90631967 27.0573131,3.00693104 C27.0071787,3.106292 26.9213914,3.19107763 26.7995994,3.25142227 C26.7920915,3.25514224 26.7845925,3.25869709 26.7771031,3.26207899 L26.7771031,3.26207899 L26.7670199,3.26479617 C26.7560636,3.26841521 26.7467573,3.27371821 26.738651,3.27991526 C26.7509701,3.29006982 26.764897,3.29866621 26.7798054,3.30485024 L26.7798054,3.30485024 L33.7810376,6.0478467 C33.8944141,6.08685279 33.9866414,6.15523961 34.0455896,6.2297344 C34.1255389,6.32331877 34.1636224,6.4295299 34.1636224,6.5323421 C34.1636224,6.64521139 34.1237658,6.74941183 34.0449243,6.84130378 C33.9860704,6.91535735 33.8943315,6.98327338 33.7816527,7.02217129 L33.7816527,7.02217129 L32.3245021,7.6008319 C32.2279877,7.64068215 32.1156378,7.6585748 32.0108301,7.6585748 C31.8987656,7.6585748 31.7873422,7.64037912 31.6956165,7.60246478 L31.6956165,7.60246478 L23.8229557,4.51183434 C23.7851554,4.49622682 23.7439355,4.49193636 23.7001048,4.49193636 C23.6562741,4.49193636 23.6150541,4.49622682 23.5749829,4.51275898 L23.5749829,4.51275898 L22.4731676,4.95509386 C22.3990143,4.9774901 22.3162981,4.99926059 22.2338803,5.00668529 C22.2299654,5.00703796 22.226044,5.00735891 22.2221144,5.00764905 L22.2114496,5.00769359 C22.1351142,5.00769359 22.0587749,5.00084856 21.9824376,4.98709471 C21.9779134,4.98627959 21.9733978,4.98544172 21.9688991,4.98457707 C21.9644293,4.98330797 21.9599711,4.98201234 21.9555272,4.98069123 C21.8777399,4.95756631 21.8005688,4.92552883 21.7384325,4.8870453 C21.6562374,4.83613848 21.5939195,4.76540347 21.5548362,4.69755957 L21.5548362,4.69755957 L20.8607898,3.53834715 L20.2473103,2.51212521 C20.1935547,2.41267011 20.1807371,2.28507534 20.2046271,2.19075228 L20.2046271,2.19075228 L24.0085554,2.0292815 Z" id="形状" stroke="#E19150" stroke-width="0.5" fill="#FFFFFF" fill-rule="nonzero"></path>
            </g>
        </g>
    </g>
</svg>