<?xml version="1.0" encoding="UTF-8"?>
<svg width="51px" height="33px" viewBox="0 0 51 33" version="1.1" xmlns="http://www.w3.org/2000/svg" xmlns:xlink="http://www.w3.org/1999/xlink">
    <title>6-5 SPINE</title>
    <defs>
        <linearGradient x1="97.4211836%" y1="50%" x2="0%" y2="50%" id="linearGradient-1">
            <stop stop-color="#00E0D8" offset="0%"></stop>
            <stop stop-color="#00CEC4" offset="14.5214161%"></stop>
            <stop stop-color="#00DDD4" offset="49.6694712%"></stop>
            <stop stop-color="#00CEC4" offset="83.2550262%"></stop>
            <stop stop-color="#00E0D8" offset="100%"></stop>
        </linearGradient>
        <linearGradient x1="50%" y1="0%" x2="50%" y2="100%" id="linearGradient-2">
            <stop stop-color="#CBFFFC" stop-opacity="0" offset="0%"></stop>
            <stop stop-color="#CBFFFC" offset="100%"></stop>
        </linearGradient>
        <linearGradient x1="62.5095608%" y1="87.4904392%" x2="62.5095608%" y2="-5.69599934e-13%" id="linearGradient-3">
            <stop stop-color="#BDFFFB" offset="0%"></stop>
            <stop stop-color="#BDFFFB" stop-opacity="0" offset="100%"></stop>
        </linearGradient>
    </defs>
    <g id="页面-1" stroke="none" stroke-width="1" fill="none" fill-rule="evenodd">
        <g id="图标" transform="translate(-409.000000, -488.000000)">
            <g id="6-5-SPINE" transform="translate(409.739298, 489.000000)">
                <path d="M42.1166297,2.82076284 C44.4755207,3.80351481 46.2612428,4.93633717 47.4769641,6.14315603 C48.6925078,7.34979865 49.3418818,8.63288979 49.4395525,9.91962214 L49.4514041,10.1609093 L49.634557,21.0015383 C49.7089572,22.4383544 49.1057552,23.884894 47.8043659,25.2409918 C46.5816736,26.5150841 44.7382884,27.7116965 42.2690748,28.7437667 C32.5752781,32.7953687 16.8596798,32.795367 7.16645408,28.7437687 C4.75517671,27.7360278 2.94082803,26.5714546 1.71978214,25.3310805 C0.498218088,24.09018 -0.13349785,22.7709923 -0.190638659,21.453539 L-0.194622987,21.2065564 L-0.19968605,10.0779546 C-0.143249948,8.72599776 0.521740328,7.3734254 1.81246938,6.10627137 C3.02765313,4.91328282 4.80098068,3.79351852 7.13586864,2.82076662 C16.7954092,-1.20411052 32.4570982,-1.20411052 42.1166297,2.82076284 Z M41.1752143,3.97600176 C32.0353317,0.417586426 17.2171756,0.417586426 8.07730665,3.97599646 C5.90868309,4.82012058 4.25744697,5.78773886 3.12648129,6.82304983 C2.05595882,7.80302976 1.45469574,8.840866 1.33972343,9.88923143 L1.33972343,9.88923143 L47.9200231,9.96244879 L47.8946961,9.75031889 C47.7455327,8.76110419 47.1631217,7.78299216 46.1619303,6.8561025 C45.0301766,5.80834007 43.3669245,4.8291122 41.1752143,3.97600176 Z" id="形状结合" stroke="#22DFD6" stroke-width="0.4" fill-rule="nonzero"></path>
                <path d="M49.0701847,10.3645 L49.0701847,20.935221 C49.1406818,22.238479 48.5717419,23.5396381 47.3969331,24.763834 C46.2168508,25.9935252 44.4330764,27.1410868 42.0512465,28.1366328 C32.4776851,32.1379814 16.9570117,32.1379846 7.38398929,28.1366292 C5.00116447,27.1407794 3.21702387,25.9928458 2.03835255,24.7627238 C0.865869816,23.5390606 0.300128641,22.238488 0.376264566,20.9357939 L0.376264566,20.9357939 L0.364892328,10.3645 L49.0701847,10.3645 Z" id="路径" stroke="url(#linearGradient-2)" stroke-width="0.729" fill="url(#linearGradient-1)" fill-rule="nonzero"></path>
                <path d="M7.23797863,3.02534809 C16.8891765,-1.00844936 32.5357137,-1.00844936 42.1863519,3.02534809 C51.83699,7.05914554 51.83699,13.5998541 42.1863519,17.6336516 C32.5357137,21.667449 16.8891765,21.667449 7.23797863,17.6336516 C-2.41265954,13.5998541 -2.41265954,7.05914554 7.23797863,3.02534809 Z" id="路径" fill="#88EEE9" fill-rule="nonzero"></path>
                <path d="M42.0397145,3.00538154 C32.4226574,-1.00179385 16.8298499,-1.00179385 7.21279283,3.00538154 C-2.40426428,7.0120023 -2.40426428,13.5088954 7.21279283,17.5155161 C16.8298499,21.5226915 32.4226574,21.5226915 42.0397145,17.5155161 C51.6567717,13.5088954 51.6567717,7.0120023 42.0397145,3.00538154 Z M41.2477611,3.7896232 C32.0678175,0.215610994 17.1846899,0.215610994 8.00474626,3.7896232 C-1.17575701,7.36308078 -1.17575701,13.1578169 8.00474626,16.7312745 C17.1846899,20.3052867 32.0678175,20.3052867 41.2477611,16.7312745 C50.4282644,13.1578169 50.4282644,7.36308078 41.2477611,3.7896232 Z" id="形状" fill="url(#linearGradient-3)"></path>
                <g id="编组" transform="translate(12.931452, 21.591000)" fill-rule="nonzero">
                    <g id="SPINE" transform="translate(0.000000, 1.000000)" fill="#403C3C" fill-opacity="0.8">
                        <path d="M2.295,6.528 C3.7485,6.528 4.607,5.6525 4.607,4.624 C4.607,3.7145 4.1055,3.23 3.3405,2.9155 L2.516,2.567 C1.9805,2.3545 1.53,2.193 1.53,1.7425 C1.53,1.326 1.887,1.0795 2.4395,1.0795 C2.958,1.0795 3.3745,1.2665 3.774,1.598 L4.4115,0.8075 C3.9015,0.289 3.1705,0 2.4395,0 C1.1645,0 0.2635,0.7905 0.2635,1.819 C0.2635,2.737 0.901,3.247 1.5385,3.5105 L2.38,3.8675 C2.941,4.1055 3.3235,4.25 3.3235,4.7175 C3.3235,5.1595 2.975,5.44 2.3205,5.44 C1.768,5.44 1.173,5.1595 0.7225,4.743 L0,5.61 C0.612,6.1965 1.4535,6.528 2.295,6.528 Z" id="路径"></path>
                        <path d="M5.7205,6.409 L6.9785,6.409 L6.9785,4.1735 L7.82,4.1735 C9.1715,4.1735 10.251,3.5275 10.251,2.091 C10.251,0.6035 9.18,0.119 7.786,0.119 L5.7205,0.119 L5.7205,6.409 Z M6.9785,3.179 L6.9785,1.1135 L7.6925,1.1135 C8.5595,1.1135 9.0185,1.36 9.0185,2.091 C9.0185,2.8135 8.602,3.179 7.735,3.179 L6.9785,3.179 Z" id="形状"></path>
                        <polygon id="路径" points="11.39 6.409 12.648 6.409 12.648 0.119 11.39 0.119"></polygon>
                        <path d="M14.195,6.409 L15.385,6.409 L15.385,3.8845 C15.385,3.162 15.2915,2.3715 15.232,1.6915 L15.2745,1.6915 L15.912,3.043 L17.731,6.409 L19.006,6.409 L19.006,0.119 L17.816,0.119 L17.816,2.6265 C17.816,3.3405 17.9095,4.1735 17.9775,4.828 L17.935,4.828 L17.306,3.468 L15.4785,0.119 L14.195,0.119 L14.195,6.409 Z" id="路径"></path>
                        <polygon id="路径" points="20.5615 6.409 24.514 6.409 24.514 5.355 21.8195 5.355 21.8195 3.672 24.0295 3.672 24.0295 2.618 21.8195 2.618 21.8195 1.1645 24.4205 1.1645 24.4205 0.119 20.5615 0.119"></polygon>
                    </g>
                    <g id="SPINE备份" fill="#FFFFFF">
                        <path d="M2.295,6.528 C3.7485,6.528 4.607,5.6525 4.607,4.624 C4.607,3.7145 4.1055,3.23 3.3405,2.9155 L2.516,2.567 C1.9805,2.3545 1.53,2.193 1.53,1.7425 C1.53,1.326 1.887,1.0795 2.4395,1.0795 C2.958,1.0795 3.3745,1.2665 3.774,1.598 L4.4115,0.8075 C3.9015,0.289 3.1705,0 2.4395,0 C1.1645,0 0.2635,0.7905 0.2635,1.819 C0.2635,2.737 0.901,3.247 1.5385,3.5105 L2.38,3.8675 C2.941,4.1055 3.3235,4.25 3.3235,4.7175 C3.3235,5.1595 2.975,5.44 2.3205,5.44 C1.768,5.44 1.173,5.1595 0.7225,4.743 L0,5.61 C0.612,6.1965 1.4535,6.528 2.295,6.528 Z" id="路径"></path>
                        <path d="M5.7205,6.409 L6.9785,6.409 L6.9785,4.1735 L7.82,4.1735 C9.1715,4.1735 10.251,3.5275 10.251,2.091 C10.251,0.6035 9.18,0.119 7.786,0.119 L5.7205,0.119 L5.7205,6.409 Z M6.9785,3.179 L6.9785,1.1135 L7.6925,1.1135 C8.5595,1.1135 9.0185,1.36 9.0185,2.091 C9.0185,2.8135 8.602,3.179 7.735,3.179 L6.9785,3.179 Z" id="形状"></path>
                        <polygon id="路径" points="11.39 6.409 12.648 6.409 12.648 0.119 11.39 0.119"></polygon>
                        <path d="M14.195,6.409 L15.385,6.409 L15.385,3.8845 C15.385,3.162 15.2915,2.3715 15.232,1.6915 L15.2745,1.6915 L15.912,3.043 L17.731,6.409 L19.006,6.409 L19.006,0.119 L17.816,0.119 L17.816,2.6265 C17.816,3.3405 17.9095,4.1735 17.9775,4.828 L17.935,4.828 L17.306,3.468 L15.4785,0.119 L14.195,0.119 L14.195,6.409 Z" id="路径"></path>
                        <polygon id="路径" points="20.5615 6.409 24.514 6.409 24.514 5.355 21.8195 5.355 21.8195 3.672 24.0295 3.672 24.0295 2.618 21.8195 2.618 21.8195 1.1645 24.4205 1.1645 24.4205 0.119 20.5615 0.119"></polygon>
                    </g>
                </g>
                <path d="M16.7580722,12.0185317 L25.1185405,15.1260181 L26.7141698,14.6643591 L28.1558903,16.0991054 L29.000031,17.5111749 L25.0365513,17.6358604 L22.4300858,17.4481191 L14.8650417,13.4218697 L16.7580722,12.0185317 Z M27.1954478,7.90356548 L35.5559161,11.0110519 L37.1512022,10.5494922 L38.598724,11.9839078 L39.4430154,13.3962295 L35.4717464,13.520962 L32.8660913,13.2877802 L25.3007091,9.3081698 L27.1954478,7.90356548 Z M13.507282,6.27794638 L16.0482289,6.50583945 C16.1691102,6.52183704 16.2893043,6.56689762 16.3752961,6.62654686 C16.4817803,6.70041086 16.5582285,6.80007058 16.5896063,6.90371634 C16.6249446,7.02044412 16.6159824,7.13773279 16.5567391,7.2551465 C16.5543056,7.25996946 16.5518219,7.26472406 16.5492792,7.26939252 C16.5465397,7.27368644 16.5437688,7.27791536 16.5409693,7.28207666 C16.4870071,7.36228694 16.4057692,7.44212017 16.3069091,7.49555564 C16.2980211,7.50035974 16.2890326,7.5049278 16.2799628,7.50925679 C16.2754632,7.51027241 16.2709471,7.51152482 16.2664459,7.51301162 C16.2546933,7.51689368 16.2438105,7.52212016 16.2342735,7.52839098 C16.2480389,7.53843603 16.263814,7.54667226 16.2791347,7.55302784 L16.2791347,7.55302784 L23.2846011,10.2943743 C23.3905463,10.3381184 23.477295,10.4011405 23.5388873,10.4708943 C23.6230199,10.5661753 23.657452,10.6737363 23.657452,10.7805576 C23.657452,10.897487 23.6213548,11.0023713 23.5388873,11.0957666 C23.4748616,11.1682762 23.3845099,11.232782 23.2754649,11.2703938 L23.2754649,11.2703938 L21.8088073,11.8528545 C21.7159031,11.884324 21.6061202,11.9067903 21.5046597,11.9067903 C21.3959186,11.9067903 21.2871119,11.8839627 21.1950988,11.8507023 L21.1950988,11.8507023 L13.3167853,8.76004979 C13.278985,8.74444228 13.2377651,8.74015182 13.1939343,8.74015182 C13.1501036,8.74015182 13.1088837,8.74444228 13.0673878,8.7615413 L13.0673878,8.7615413 L11.9708906,9.19395111 C11.893107,9.22478287 11.8078158,9.24163437 11.7221134,9.24935496 C11.6331902,9.25736569 11.5443673,9.24959903 11.4627779,9.22720284 C11.3702585,9.2087277 11.2867261,9.17326345 11.2178036,9.12412854 C11.1389327,9.07352047 11.0806646,9.01189275 11.0393226,8.93400251 L11.0393226,8.93400251 L10.3487177,7.78605068 L9.73510724,6.75403123 C9.6829684,6.65602232 9.66786179,6.54489605 9.69286016,6.43342196 L9.69286016,6.43342196 L13.507282,6.27794638 Z M23.9397605,2.16253072 L26.4914709,2.39645469 C26.613431,2.41264354 26.7260155,2.45701628 26.8126717,2.5171264 C26.9196365,2.59132383 26.9896224,2.68937773 27.0213855,2.79429589 C27.0585484,2.91705078 27.0451975,3.03956889 26.9885182,3.14018026 C26.9383838,3.23954122 26.8525965,3.32432685 26.7308045,3.38467149 C26.7232966,3.38839146 26.7157977,3.39194631 26.7083083,3.39532821 C26.7049803,3.39602781 26.7016181,3.3969246 26.698225,3.39804539 C26.6872687,3.40166443 26.6779625,3.40696743 26.6698561,3.41316448 C26.6821752,3.42331904 26.6961022,3.43191543 26.7110106,3.43809946 L26.7110106,3.43809946 L33.7122428,6.18109593 C33.8256192,6.22010201 33.9178466,6.28848883 33.9767947,6.36298363 C34.056744,6.456568 34.0948276,6.56277912 34.0948276,6.66559132 C34.0948276,6.77846061 34.0549709,6.88266105 33.9761295,6.974553 C33.9172756,7.04860657 33.8255367,7.1165226 33.7128579,7.15542051 L33.7128579,7.15542051 L32.2557073,7.73408112 C32.1591928,7.77393137 32.0468429,7.79182402 31.9420352,7.79182402 C31.8299707,7.79182402 31.7185473,7.77362834 31.6268216,7.735714 L31.6268216,7.735714 L23.7541608,4.64508356 C23.7163606,4.62947604 23.6751406,4.62518559 23.6313099,4.62518559 C23.5874792,4.62518559 23.5462593,4.62947604 23.5061881,4.6460082 L23.5061881,4.6460082 L22.4043727,5.08834308 C22.3302195,5.11073932 22.2475033,5.13250981 22.1650854,5.13993451 C22.1611705,5.14028718 22.1572492,5.14060813 22.1533195,5.14089827 L22.1426547,5.14094281 C22.0663193,5.14094281 21.9899801,5.13409778 21.9136427,5.12034393 C21.9091186,5.11952881 21.9046029,5.11869094 21.9001042,5.11782629 L21.9001042,5.11782629 L21.8867324,5.11394046 C21.808945,5.09081554 21.7317739,5.05877806 21.6696377,5.02029452 C21.5874425,4.9693877 21.5251246,4.89865269 21.4860413,4.83080879 L21.4860413,4.83080879 L20.7919949,3.67159637 L20.1785154,2.64537443 C20.1247598,2.54591933 20.1119422,2.41832456 20.1358322,2.3240015 L20.1358322,2.3240015 L23.9397605,2.16253072 Z" id="形状" stroke="#3DDAD2" stroke-width="0.5" fill="#FFFFFF" fill-rule="nonzero"></path>
            </g>
        </g>
    </g>
</svg>