<?xml version="1.0" encoding="UTF-8"?>
<svg width="52px" height="33px" viewBox="0 0 52 33" version="1.1" xmlns="http://www.w3.org/2000/svg" xmlns:xlink="http://www.w3.org/1999/xlink">
    <title>6-6 SPINE</title>
    <defs>
        <linearGradient x1="97.4211836%" y1="50%" x2="0%" y2="50%" id="linearGradient-1">
            <stop stop-color="#FFC65A" offset="0%"></stop>
            <stop stop-color="#FFC24E" offset="15.7506556%"></stop>
            <stop stop-color="#FFD27C" offset="49.6694712%"></stop>
            <stop stop-color="#FFC24E" offset="83.2550262%"></stop>
            <stop stop-color="#FFC65A" offset="100%"></stop>
        </linearGradient>
        <linearGradient x1="50%" y1="0%" x2="50%" y2="100%" id="linearGradient-2">
            <stop stop-color="#FFEDC6" stop-opacity="0" offset="0%"></stop>
            <stop stop-color="#FFEDC6" offset="100%"></stop>
        </linearGradient>
        <linearGradient x1="62.5095608%" y1="87.4904392%" x2="62.5095608%" y2="0.924901661%" id="linearGradient-3">
            <stop stop-color="#FFEDC6" offset="0%"></stop>
            <stop stop-color="#FFEDC6" stop-opacity="0" offset="100%"></stop>
        </linearGradient>
    </defs>
    <g id="页面-1" stroke="none" stroke-width="1" fill="none" fill-rule="evenodd">
        <g id="图标" transform="translate(-498.000000, -488.000000)">
            <g id="6-6-SPINE" transform="translate(498.869649, 489.000000)">
                <path d="M42.4211034,2.82076284 C44.7799944,3.80351481 46.5657166,4.93633717 47.7814378,6.14315603 C48.9969815,7.34979865 49.6463555,8.63288979 49.7440263,9.91962214 L49.7558778,10.1609093 L49.9390307,21.0015383 C50.013431,22.4383544 49.4102289,23.884894 48.1088396,25.2409918 C46.8861474,26.5150841 45.0427622,27.7116965 42.5735485,28.7437667 C32.8797518,32.7953687 17.1641535,32.795367 7.4709278,28.7437687 C5.05965043,27.7360278 3.24530175,26.5714546 2.02425586,25.3310805 C0.802691808,24.09018 0.17097587,22.7709923 0.113835061,21.453539 L0.109850732,21.2065564 L0.10478767,10.0779546 C0.161223772,8.72599776 0.826214048,7.3734254 2.1169431,6.10627137 C3.33212685,4.91328282 5.1054544,3.79351852 7.44034236,2.82076662 C17.0998829,-1.20411052 32.7615719,-1.20411052 42.4211034,2.82076284 Z M41.4796881,3.97600176 C32.3398055,0.417586426 17.5216494,0.417586426 8.38178037,3.97599646 C6.21315681,4.82012058 4.56192068,5.78773886 3.43095501,6.82304983 C2.36043254,7.80302976 1.75916946,8.840866 1.64419715,9.88923143 L1.64419715,9.88923143 L48.2244968,9.96244879 L48.1991698,9.75031889 C48.0500064,8.76110419 47.4675954,7.78299216 46.466404,6.8561025 C45.3346503,5.80834007 43.6713982,4.8291122 41.4796881,3.97600176 Z" id="形状结合" stroke="#E0A736" stroke-width="0.4" fill-rule="nonzero"></path>
                <path d="M49.0701847,10.3645 L49.0701847,20.935221 C49.1406818,22.238479 48.5717419,23.5396381 47.3969331,24.763834 C46.2168508,25.9935252 44.4330764,27.1410868 42.0512465,28.1366328 C32.4776851,32.1379814 16.9570117,32.1379846 7.38398929,28.1366292 C5.00116447,27.1407794 3.21702387,25.9928458 2.03835255,24.7627238 C0.865869816,23.5390606 0.300128641,22.238488 0.376264566,20.9357939 L0.376264566,20.9357939 L0.364892328,10.3645 L49.0701847,10.3645 Z" id="路径" stroke="url(#linearGradient-2)" stroke-width="0.729" fill="url(#linearGradient-1)" fill-rule="nonzero"></path>
                <path d="M7.54245235,3.02534809 C17.1936502,-1.00844936 32.8401874,-1.00844936 42.4908256,3.02534809 C52.1414638,7.05914554 52.1414638,13.5998541 42.4908256,17.6336516 C32.8401874,21.667449 17.1936502,21.667449 7.54245235,17.6336516 C-2.10818582,13.5998541 -2.10818582,7.05914554 7.54245235,3.02534809 Z" id="路径" fill="#FADD9E" fill-rule="nonzero"></path>
                <path d="M42.3441883,3.00538154 C32.7271312,-1.00179385 17.1343237,-1.00179385 7.51726655,3.00538154 C-2.09979056,7.0120023 -2.09979056,13.5088954 7.51726655,17.5155161 C17.1343237,21.5226915 32.7271312,21.5226915 42.3441883,17.5155161 C51.9612454,13.5088954 51.9612454,7.0120023 42.3441883,3.00538154 Z M41.5522348,3.7896232 C32.3722912,0.215610994 17.4891636,0.215610994 8.30921998,3.7896232 C-0.871283292,7.36308078 -0.871283292,13.1578169 8.30921998,16.7312745 C17.4891636,20.3052867 32.3722912,20.3052867 41.5522348,16.7312745 C50.7327381,13.1578169 50.7327381,7.36308078 41.5522348,3.7896232 Z" id="形状" fill="url(#linearGradient-3)"></path>
                <g id="编组" transform="translate(12.801101, 21.591000)" fill-rule="nonzero">
                    <g id="SPINE" transform="translate(0.000000, 1.000000)" fill="#403C3C" fill-opacity="0.8">
                        <path d="M2.295,6.528 C3.7485,6.528 4.607,5.6525 4.607,4.624 C4.607,3.7145 4.1055,3.23 3.3405,2.9155 L2.516,2.567 C1.9805,2.3545 1.53,2.193 1.53,1.7425 C1.53,1.326 1.887,1.0795 2.4395,1.0795 C2.958,1.0795 3.3745,1.2665 3.774,1.598 L4.4115,0.8075 C3.9015,0.289 3.1705,0 2.4395,0 C1.1645,0 0.2635,0.7905 0.2635,1.819 C0.2635,2.737 0.901,3.247 1.5385,3.5105 L2.38,3.8675 C2.941,4.1055 3.3235,4.25 3.3235,4.7175 C3.3235,5.1595 2.975,5.44 2.3205,5.44 C1.768,5.44 1.173,5.1595 0.7225,4.743 L0,5.61 C0.612,6.1965 1.4535,6.528 2.295,6.528 Z" id="路径"></path>
                        <path d="M5.7205,6.409 L6.9785,6.409 L6.9785,4.1735 L7.82,4.1735 C9.1715,4.1735 10.251,3.5275 10.251,2.091 C10.251,0.6035 9.18,0.119 7.786,0.119 L5.7205,0.119 L5.7205,6.409 Z M6.9785,3.179 L6.9785,1.1135 L7.6925,1.1135 C8.5595,1.1135 9.0185,1.36 9.0185,2.091 C9.0185,2.8135 8.602,3.179 7.735,3.179 L6.9785,3.179 Z" id="形状"></path>
                        <polygon id="路径" points="11.39 6.409 12.648 6.409 12.648 0.119 11.39 0.119"></polygon>
                        <path d="M14.195,6.409 L15.385,6.409 L15.385,3.8845 C15.385,3.162 15.2915,2.3715 15.232,1.6915 L15.2745,1.6915 L15.912,3.043 L17.731,6.409 L19.006,6.409 L19.006,0.119 L17.816,0.119 L17.816,2.6265 C17.816,3.3405 17.9095,4.1735 17.9775,4.828 L17.935,4.828 L17.306,3.468 L15.4785,0.119 L14.195,0.119 L14.195,6.409 Z" id="路径"></path>
                        <polygon id="路径" points="20.5615 6.409 24.514 6.409 24.514 5.355 21.8195 5.355 21.8195 3.672 24.0295 3.672 24.0295 2.618 21.8195 2.618 21.8195 1.1645 24.4205 1.1645 24.4205 0.119 20.5615 0.119"></polygon>
                    </g>
                    <g id="SPINE备份" fill="#FFFFFF" stroke="#986809" stroke-width="0.1">
                        <path d="M2.295,6.528 C3.7485,6.528 4.607,5.6525 4.607,4.624 C4.607,3.7145 4.1055,3.23 3.3405,2.9155 L2.516,2.567 C1.9805,2.3545 1.53,2.193 1.53,1.7425 C1.53,1.326 1.887,1.0795 2.4395,1.0795 C2.958,1.0795 3.3745,1.2665 3.774,1.598 L4.4115,0.8075 C3.9015,0.289 3.1705,0 2.4395,0 C1.1645,0 0.2635,0.7905 0.2635,1.819 C0.2635,2.737 0.901,3.247 1.5385,3.5105 L2.38,3.8675 C2.941,4.1055 3.3235,4.25 3.3235,4.7175 C3.3235,5.1595 2.975,5.44 2.3205,5.44 C1.768,5.44 1.173,5.1595 0.7225,4.743 L0,5.61 C0.612,6.1965 1.4535,6.528 2.295,6.528 Z" id="路径"></path>
                        <path d="M5.7205,6.409 L6.9785,6.409 L6.9785,4.1735 L7.82,4.1735 C9.1715,4.1735 10.251,3.5275 10.251,2.091 C10.251,0.6035 9.18,0.119 7.786,0.119 L5.7205,0.119 L5.7205,6.409 Z M6.9785,3.179 L6.9785,1.1135 L7.6925,1.1135 C8.5595,1.1135 9.0185,1.36 9.0185,2.091 C9.0185,2.8135 8.602,3.179 7.735,3.179 L6.9785,3.179 Z" id="形状"></path>
                        <polygon id="路径" points="11.39 6.409 12.648 6.409 12.648 0.119 11.39 0.119"></polygon>
                        <path d="M14.195,6.409 L15.385,6.409 L15.385,3.8845 C15.385,3.162 15.2915,2.3715 15.232,1.6915 L15.2745,1.6915 L15.912,3.043 L17.731,6.409 L19.006,6.409 L19.006,0.119 L17.816,0.119 L17.816,2.6265 C17.816,3.3405 17.9095,4.1735 17.9775,4.828 L17.935,4.828 L17.306,3.468 L15.4785,0.119 L14.195,0.119 L14.195,6.409 Z" id="路径"></path>
                        <polygon id="路径" points="20.5615 6.409 24.514 6.409 24.514 5.355 21.8195 5.355 21.8195 3.672 24.0295 3.672 24.0295 2.618 21.8195 2.618 21.8195 1.1645 24.4205 1.1645 24.4205 0.119 20.5615 0.119"></polygon>
                    </g>
                </g>
                <path d="M17.0625459,12.0185317 L25.4230142,15.1260181 L27.0186435,14.6643591 L28.460364,16.0991054 L29.3045047,17.5111749 L25.341025,17.6358604 L22.7345595,17.4481191 L15.1695154,13.4218697 L17.0625459,12.0185317 Z M27.4999215,7.90356548 L35.8603898,11.0110519 L37.4556759,10.5494922 L38.9031977,11.9839078 L39.7474892,13.3962295 L35.7762201,13.520962 L33.170565,13.2877802 L25.6051828,9.3081698 L27.4999215,7.90356548 Z M13.8117558,6.27794638 L16.3527026,6.50583945 C16.4735839,6.52183704 16.593778,6.56689762 16.6797698,6.62654686 C16.786254,6.70041086 16.8627022,6.80007058 16.89408,6.90371634 C16.9294183,7.02044412 16.9204561,7.13773279 16.8612128,7.2551465 L16.8612128,7.2551465 L16.8537529,7.26939252 C16.8510135,7.27368644 16.8482425,7.27791536 16.845443,7.28207666 C16.7914809,7.36228694 16.7102429,7.44212017 16.6113828,7.49555564 C16.6024948,7.50035974 16.5935063,7.5049278 16.5844366,7.50925679 C16.5799369,7.51027241 16.5754208,7.51152482 16.5709196,7.51301162 C16.559167,7.51689368 16.5482843,7.52212016 16.5387472,7.52839098 C16.5525126,7.53843603 16.5682877,7.54667226 16.5836085,7.55302784 L16.5836085,7.55302784 L23.5890748,10.2943743 C23.69502,10.3381184 23.7817687,10.4011405 23.843361,10.4708943 C23.9274936,10.5661753 23.9619257,10.6737363 23.9619257,10.7805576 C23.9619257,10.897487 23.9258285,11.0023713 23.843361,11.0957666 C23.7793353,11.1682762 23.6889837,11.232782 23.5799386,11.2703938 L23.5799386,11.2703938 L22.113281,11.8528545 C22.0203768,11.884324 21.910594,11.9067903 21.8091334,11.9067903 C21.7003923,11.9067903 21.5915856,11.8839627 21.4995725,11.8507023 L21.4995725,11.8507023 L13.621259,8.76004979 C13.5834587,8.74444228 13.5422388,8.74015182 13.4984081,8.74015182 C13.4545773,8.74015182 13.4133574,8.74444228 13.3718616,8.7615413 L13.3718616,8.7615413 L12.2753644,9.19395111 C12.1975807,9.22478287 12.1122895,9.24163437 12.0265871,9.24935496 C11.9376639,9.25736569 11.848841,9.24959903 11.7672516,9.22720284 C11.6747322,9.2087277 11.5911999,9.17326345 11.5222774,9.12412854 C11.4434064,9.07352047 11.3851383,9.01189275 11.3437964,8.93400251 L11.3437964,8.93400251 L10.6531914,7.78605068 L10.039581,6.75403123 C9.98744212,6.65602232 9.97233551,6.54489605 9.99733388,6.43342196 L9.99733388,6.43342196 L13.8117558,6.27794638 Z M24.2442342,2.16253072 L26.7959447,2.39645469 C26.9179047,2.41264354 27.0304892,2.45701628 27.1171454,2.5171264 C27.2241102,2.59132383 27.2940961,2.68937773 27.3258592,2.79429589 C27.3630221,2.91705078 27.3496712,3.03956889 27.292992,3.14018026 C27.2428576,3.23954122 27.1570703,3.32432685 27.0352782,3.38467149 C27.0277703,3.38839146 27.0202714,3.39194631 27.012782,3.39532821 C27.009454,3.39602781 27.0060918,3.3969246 27.0026987,3.39804539 L26.9874455,3.40463818 L26.9874455,3.40463818 L26.9743299,3.41316448 C26.9866489,3.42331904 27.0005759,3.43191543 27.0154843,3.43809946 L27.0154843,3.43809946 L34.0167165,6.18109593 C34.1300929,6.22010201 34.2223203,6.28848883 34.2812684,6.36298363 C34.3612177,6.456568 34.3993013,6.56277912 34.3993013,6.66559132 C34.3993013,6.77846061 34.3594447,6.88266105 34.2806032,6.974553 C34.2217493,7.04860657 34.1300104,7.1165226 34.0173316,7.15542051 L34.0173316,7.15542051 L32.560181,7.73408112 C32.4636665,7.77393137 32.3513166,7.79182402 32.246509,7.79182402 C32.1344445,7.79182402 32.023021,7.77362834 31.9312953,7.735714 L31.9312953,7.735714 L24.0586346,4.64508356 C24.0208343,4.62947604 23.9796144,4.62518559 23.9357836,4.62518559 C23.8919529,4.62518559 23.850733,4.62947604 23.8106618,4.6460082 L23.8106618,4.6460082 L22.7088464,5.08834308 C22.6346932,5.11073932 22.551977,5.13250981 22.4695591,5.13993451 C22.4656442,5.14028718 22.4617229,5.14060813 22.4577933,5.14089827 L22.4471285,5.14094281 C22.370793,5.14094281 22.2944538,5.13409778 22.2181164,5.12034393 C22.2135923,5.11952881 22.2090766,5.11869094 22.2045779,5.11782629 L22.1978823,5.11590287 C22.1134187,5.09081554 22.0362476,5.05877806 21.9741114,5.02029452 C21.8919162,4.9693877 21.8295983,4.89865269 21.790515,4.83080879 L21.790515,4.83080879 L21.0964687,3.67159637 L20.4829891,2.64537443 C20.4292336,2.54591933 20.4164159,2.41832456 20.4403059,2.3240015 L20.4403059,2.3240015 L24.2442342,2.16253072 Z" id="形状" stroke="#EABE60" stroke-width="0.5" fill="#FFFFFF" fill-rule="nonzero"></path>
            </g>
        </g>
    </g>
</svg>