<?xml version="1.0" encoding="UTF-8"?>
<svg width="51px" height="34px" viewBox="0 0 51 34" version="1.1" xmlns="http://www.w3.org/2000/svg" xmlns:xlink="http://www.w3.org/1999/xlink">
    <title>6-2SR</title>
    <defs>
        <linearGradient x1="0%" y1="47.2147188%" x2="100%" y2="50%" id="linearGradient-1">
            <stop stop-color="#BD7039" offset="0%"></stop>
            <stop stop-color="#BB6D35" offset="20.0548719%"></stop>
            <stop stop-color="#C6834F" offset="55.4700305%"></stop>
            <stop stop-color="#BC6F37" offset="84.3499884%"></stop>
            <stop stop-color="#BE713A" offset="100%"></stop>
        </linearGradient>
    </defs>
    <g id="6-2SR" stroke="none" stroke-width="1" fill="none" fill-rule="evenodd">
        <g id="编组-3" transform="translate(0.469674, 0.519119)">
            <path d="M24.9721869,0.480880737 C26.0267702,0.480880737 27.0661024,0.50830575 28.0863609,0.561550307 L28.9561081,0.613474209 L29.815978,0.677819746 C30.1008957,0.701313567 30.3840781,0.726840216 30.665436,0.754362247 L31.5039469,0.842877042 C31.6427568,0.858614717 31.7810882,0.874841876 31.9189301,0.891553839 L32.7400176,0.997605812 L33.5488208,1.1150684 L34.3448047,1.24371693 L35.1274345,1.38332673 L35.8961751,1.53367312 C37.4194107,1.84495273 38.8561019,2.21930389 40.1869914,2.64863843 L40.8435301,2.8678502 C40.951454,2.90513667 41.0586209,2.94279561 41.1650197,2.98082234 L41.794105,3.21335869 C46.5450536,5.02939966 49.6233947,7.60386933 49.9443738,10.4811708 L49.9443738,22.4815902 C49.6785939,24.8582912 47.5315585,27.0283226 44.1145636,28.7348932 L43.5645735,29.0004628 C42.4438426,29.5237493 41.1996765,29.9994703 39.8513294,30.4195391 L39.1685633,30.6248984 C39.0533517,30.6583395 38.9374389,30.6913848 38.820836,30.7240295 L38.1130274,30.9150546 C37.755072,31.0081266 37.3911066,31.0975097 37.0214321,31.1830776 L36.2745603,31.3490891 C36.1488427,31.3758974 36.0225131,31.4022724 35.8955825,31.4282094 L35.1268773,31.5785389 L34.344285,31.7181329 L33.5483405,31.8467667 C33.2808597,31.8877931 33.0112427,31.9269553 32.7395786,31.9642159 L31.9185341,32.0702556 C31.7806996,32.0869657 31.6423755,32.103191 31.5035731,32.1189268 L30.6651076,32.2074313 C30.3837652,32.2349502 30.1005985,32.2604739 29.8156967,32.2839649 L28.9558751,32.3483029 L28.0861778,32.4002207 C27.065978,32.453459 26.0267071,32.4808807 24.9721869,32.4808807 C23.9176667,32.4808807 22.8783958,32.453459 21.858196,32.4002207 L20.9884987,32.3483029 L20.1286771,32.2839649 C19.8437753,32.2604739 19.5606086,32.2349502 19.2792662,32.2074313 L18.4408007,32.1189268 C18.3019983,32.103191 18.1636742,32.0869657 18.0258396,32.0702556 L17.2047952,31.9642159 C17.0689631,31.9455856 16.9336428,31.9264799 16.7988455,31.9069034 L15.9964254,31.7838339 C15.8637643,31.7623933 15.7316484,31.7404914 15.6000888,31.7181329 L14.8174965,31.5785389 L14.0487913,31.4282094 C13.9218607,31.4022724 13.795531,31.3758974 13.6698134,31.3490891 L12.9229416,31.1830776 C12.5532672,31.0975097 12.1893018,31.0081266 11.8313464,30.9150546 L11.1235378,30.7240295 C11.0069349,30.6913848 10.8910221,30.6583395 10.7758105,30.6248984 L10.0930443,30.4195391 C8.74469726,29.9994703 7.50053119,29.5237493 6.37980027,29.0004628 L5.82981022,28.7348932 C2.41281528,27.0283226 0.265779899,24.8582912 0,22.4815902 L0,10.4811708 C0.320979104,7.60386933 3.39932022,5.02939966 8.15026881,3.21335869 L8.77935409,2.98082234 C8.88575283,2.94279561 8.99291974,2.90513667 9.10084367,2.8678502 L9.75738241,2.64863843 C11.0882718,2.21930389 12.5249631,1.84495273 14.0481987,1.53367312 L14.8169393,1.38332673 L15.599569,1.24371693 L16.395553,1.1150684 L17.2043562,0.997605812 L18.0254436,0.891553839 C18.1632855,0.874841876 18.301617,0.858614717 18.4404268,0.842877042 L19.2789378,0.754362247 C19.5602957,0.726840216 19.843478,0.701313567 20.1283957,0.677819746 L20.9882657,0.613474209 L21.8580128,0.561550307 C22.7325202,0.515912115 23.6210408,0.489243385 24.5211675,0.482555139 L24.9721869,0.480880737 Z" id="路径" stroke="#EAB995" stroke-width="0.8" fill="url(#linearGradient-1)"></path>
            <path d="M25,0.5 C31.8271335,0.5 38.0094938,1.65705489 42.4840533,3.53636985 C44.7180177,4.47463492 46.5221619,5.58987991 47.7508034,6.83568515 C48.8640843,7.96451822 49.5,9.19699069 49.5,10.5 C49.5,11.8030093 48.8640843,13.0354818 47.7508034,14.1643148 C46.5221619,15.4101201 44.7180177,16.5253651 42.4840533,17.4636301 C38.0094938,19.3429451 31.8271335,20.5 25,20.5 C18.1728665,20.5 11.9905062,19.3429451 7.51594671,17.4636301 C5.28198227,16.5253651 3.4778381,15.4101201 2.2491966,14.1643148 C1.13591573,13.0354818 0.5,11.8030093 0.5,10.5 C0.5,9.19699069 1.13591573,7.96451822 2.2491966,6.83568515 C3.4778381,5.58987991 5.28198227,4.47463492 7.51594671,3.53636985 C11.9905062,1.65705489 18.1728665,0.5 25,0.5 Z" id="椭圆形备份-2" stroke="#FFEDDE" fill="#E6BF9F"></path>
        </g>
        <g id="编组" transform="translate(26.000000, 11.098797) scale(-1, 1) translate(-26.000000, -11.098797) translate(11.000000, 3.000000)" fill="#FFFFFF" stroke="#BF8E65" stroke-width="0.5">
            <path d="M15.1271883,0 L13.2603457,1.01321527 L17.0000108,3.04039329 L17.1408459,3.11559921 L17.1408459,3.11559921 L17.5509727,3.32955619 C17.5935733,3.35197474 17.6346999,3.37384614 17.6738681,3.3950747 L17.8105643,3.47141156 C17.8314939,3.48355818 17.851419,3.49540114 17.8702229,3.50691707 L17.9231542,3.54046044 L15.1440067,12.1159766 L19.7855119,14.6316358 C20.1592541,15.0920862 19.9189379,15.6302751 19.1987365,15.9490772 C18.5124746,16.2505627 17.5519654,16.2791569 16.8127879,16.0271115 L16.7036332,15.987199 L11.4054629,13.1157372 C11.2067955,12.8123052 11.1943788,12.4825944 11.3679048,12.1755696 L11.4050892,12.1144816 L14.1229429,4.50695793 L10.4711073,2.52761891 L8.60426466,3.54083418 L7.67289895,0.0123334946 L15.1271883,0 Z M17.9079429,6.55835445 L22.3057681,6.65365872 C23.0171433,6.67504828 23.7039976,6.79961724 24.294017,7.01443143 L24.4394626,7.0700076 L28.1578244,9.08522587 L29.9981313,8.08621281 L30,12.1166494 L23.4968847,11.615461 L25.3659697,10.6007507 L21.647608,8.58553247 L17.9086904,8.5866537 L17.9079429,6.55835445 Z M1.83119529,5.39829584 C2.220227,5.36058185 2.61543628,5.40502938 2.9449388,5.51984491 L3.04174647,5.55638882 L6.75786577,7.57048586 L11.393391,7.05958019 L11.3967547,9.08376828 L6.74216859,9.58458291 C6.19718443,9.68787168 5.60926623,9.69757045 5.05816066,9.61227522 L4.89401311,9.58383542 L0.25512417,7.06929749 C-0.23746813,6.6271604 0.0047168556,6.05421351 0.796676707,5.77129062 C1.03213433,5.57395471 1.4077453,5.43940749 1.83119529,5.39829584 Z" id="形状"></path>
        </g>
        <g id="编组-2" transform="translate(20.806500, 23.591000)" fill-rule="nonzero">
            <g id="SR" transform="translate(0.000000, 1.000000)" fill="#403C3C" fill-opacity="0.8">
                <path d="M2.295,6.528 C3.7485,6.528 4.607,5.6525 4.607,4.624 C4.607,3.7145 4.1055,3.23 3.3405,2.9155 L2.516,2.567 C1.9805,2.3545 1.53,2.193 1.53,1.7425 C1.53,1.326 1.887,1.0795 2.4395,1.0795 C2.958,1.0795 3.3745,1.2665 3.774,1.598 L4.4115,0.8075 C3.9015,0.289 3.1705,0 2.4395,0 C1.1645,0 0.2635,0.7905 0.2635,1.819 C0.2635,2.737 0.901,3.247 1.5385,3.5105 L2.38,3.8675 C2.941,4.1055 3.3235,4.25 3.3235,4.7175 C3.3235,5.1595 2.975,5.44 2.3205,5.44 C1.768,5.44 1.173,5.1595 0.7225,4.743 L0,5.61 C0.612,6.1965 1.4535,6.528 2.295,6.528 Z" id="路径"></path>
                <path d="M6.9785,1.1135 L7.7945,1.1135 C8.602,1.1135 9.044,1.343 9.044,2.023 C9.044,2.6945 8.602,3.0345 7.7945,3.0345 L6.9785,3.0345 L6.9785,1.1135 Z M10.5485,6.409 L9.078,3.8335 C9.8005,3.553 10.2765,2.9665 10.2765,2.023 C10.2765,0.578 9.231,0.119 7.9135,0.119 L5.7205,0.119 L5.7205,6.409 L6.9785,6.409 L6.9785,4.029 L7.854,4.029 L9.146,6.409 L10.5485,6.409 Z" id="形状"></path>
            </g>
            <g id="SR备份" fill="#FFFFFF">
                <path d="M2.295,6.528 C3.7485,6.528 4.607,5.6525 4.607,4.624 C4.607,3.7145 4.1055,3.23 3.3405,2.9155 L2.516,2.567 C1.9805,2.3545 1.53,2.193 1.53,1.7425 C1.53,1.326 1.887,1.0795 2.4395,1.0795 C2.958,1.0795 3.3745,1.2665 3.774,1.598 L4.4115,0.8075 C3.9015,0.289 3.1705,0 2.4395,0 C1.1645,0 0.2635,0.7905 0.2635,1.819 C0.2635,2.737 0.901,3.247 1.5385,3.5105 L2.38,3.8675 C2.941,4.1055 3.3235,4.25 3.3235,4.7175 C3.3235,5.1595 2.975,5.44 2.3205,5.44 C1.768,5.44 1.173,5.1595 0.7225,4.743 L0,5.61 C0.612,6.1965 1.4535,6.528 2.295,6.528 Z" id="路径"></path>
                <path d="M6.9785,1.1135 L7.7945,1.1135 C8.602,1.1135 9.044,1.343 9.044,2.023 C9.044,2.6945 8.602,3.0345 7.7945,3.0345 L6.9785,3.0345 L6.9785,1.1135 Z M10.5485,6.409 L9.078,3.8335 C9.8005,3.553 10.2765,2.9665 10.2765,2.023 C10.2765,0.578 9.231,0.119 7.9135,0.119 L5.7205,0.119 L5.7205,6.409 L6.9785,6.409 L6.9785,4.029 L7.854,4.029 L9.146,6.409 L10.5485,6.409 Z" id="形状"></path>
            </g>
        </g>
    </g>
</svg>